<?xml version="1.0" encoding="UTF-8" standalone="no"?>
<svg
   xmlns:dc="http://purl.org/dc/elements/1.1/"
   xmlns:cc="http://creativecommons.org/ns#"
   xmlns:rdf="http://www.w3.org/1999/02/22-rdf-syntax-ns#"
   xmlns:svg="http://www.w3.org/2000/svg"
   xmlns="http://www.w3.org/2000/svg"
   version="1.1"
   width="100%"
   height="100%"
   preserveAspectRatio="xMidYMid meet"
   viewBox="0 0 216 70"
   id="svg3004"
   xml:space="preserve"><metadata
     id="metadata3010"><rdf:RDF><cc:Work
         rdf:about=""><dc:format>image/svg+xml</dc:format><dc:type
           rdf:resource="http://purl.org/dc/dcmitype/StillImage" /><dc:title></dc:title></cc:Work></rdf:RDF></metadata><defs
     id="defs3008"><clipPath
       id="clipPath3020"><path
         d="m 0,56.205 172.8,0 L 172.8,0 0,0 0,56.205 z"
         id="path3022" /></clipPath><clipPath
       id="clipPath3026"><path
         d="M 0,0 172,0 172,56 0,56 0,0 z"
         id="path3028" /></clipPath><clipPath
       id="clipPath3032"><path
         d="m 7,13 161,0 0,43 L 7,56 7,13 z"
         id="path3034" /></clipPath><clipPath
       id="clipPath3036"><path
         d="m 7.88623,13.4707 159.1618,0 0,42.0469 -159.1618,0 0,-42.0469 z"
         id="path3038" /></clipPath><clipPath
       id="clipPath3070"><path
         d="M 0,0 172,0 172,56 0,56 0,0 z"
         id="path3072" /></clipPath></defs><g
     transform="matrix(1.25,0,0,-1.25,0,69.999997)"
     id="g3012"><g
       id="g3014" /><g
       id="g3016"><g
         clip-path="url(#clipPath3020)"
         id="g3018"><g
           clip-path="url(#clipPath3026)"
           id="g3024"><g
             id="g3030" /><g
             id="g3040"><g
               clip-path="url(#clipPath3032)"
               id="g3042"><g
                 id="g3044" /><g
                 id="g3046"><g
                   clip-path="url(#clipPath3036)"
                   id="g3048"><path
                     d="m 36.2402,49.4844 c 1.442,0.02 2.12,0.305 3.12,0 -0.073,-2.461 0.365,-5.062 0.48,-7.68 0.212,-4.82 -0.194,-10.221 0,-14.639 0.041,-0.934 0.24,-1.398 0.24,-1.92 0,-0.446 -0.189,-0.542 -0.24,-0.961 -0.172,-1.404 0.247,-2.538 -0.24,-3.6 -1.324,-0.262 -2.333,0.111 -3.84,0.24 -0.384,-0.329 -0.035,-0.766 0,-1.2 0.135,-1.666 0.234,-3.114 0.48,-4.559 2.468,0.008 4.658,0.019 6.48,-0.241 0.868,-0.124 1.597,-0.414 2.4,-0.48 1.586,-0.132 3.162,-0.073 4.8,0.24 0.146,1.177 -0.206,2.057 0,2.88 0.153,0.614 -0.014,0.851 0,1.681 0.009,0.554 0.244,0.823 0.24,1.439 -1.206,0.074 -2.837,-0.277 -3.36,0.481 -0.857,6.983 -0.392,14.362 -0.72,21.599 -0.031,0.676 -0.202,1.242 -0.24,1.92 -0.067,1.191 0.184,2.334 0.24,3.6 0.094,2.138 -0.07,4.315 0,6.48 -3.527,0.233 -7.085,-0.735 -10.32,0 -0.161,-2.081 0.422,-3.418 0.48,-5.28 m 10.32,6 c 0.308,-1.225 0.246,-2.43 0.24,-3.6 -0.018,-3.623 -0.427,-8.464 -0.24,-12.72 0.046,-1.052 0.137,-1.994 0.24,-3.36 0.005,-0.069 -0.047,-0.442 0,-0.48 0.319,-0.26 -0.01,-0.074 0,-0.239 0.031,-0.557 0.207,-1.144 0.24,-2.161 0.111,-3.408 -0.269,-7.339 0.24,-11.04 0.633,-0.726 2.306,-0.414 3.6,-0.479 -0.462,-2.019 -0.15,-4.811 -0.24,-7.201 -4.657,-1.392 -9.206,0.874 -14.64,0.24 -0.695,0.795 -0.593,2.254 -0.72,3.6 -0.119,1.263 -0.548,2.615 0,3.6 0.976,0.32 2.241,-0.459 3.6,-0.479 0.595,0.951 10e-4,2.046 0.24,3.359 0.042,0.234 0.243,0.358 0.24,0.721 -0.006,0.652 -0.235,1.255 -0.24,1.92 -0.004,0.435 -0.327,3.091 0,3.359 0.016,0.014 0.238,-0.015 0.24,0 0.052,0.33 -0.243,0.392 -0.24,0.481 0.005,0.197 0.24,0.236 0.24,0.479 0,0.193 -0.237,0.24 -0.24,0.48 -0.072,5.518 0.282,11.113 -0.48,16.56 -0.83,0.704 -1.496,0.091 -2.88,0.24 -0.47,1.93 -0.443,4.358 -0.72,6.48 0.194,0.046 0.239,0.241 0.48,0.24 3.488,-0.721 7.269,0.216 11.04,0"
                     id="path3050"
                     style="fill:#000000;fill-opacity:1;fill-rule:evenodd;stroke:none" /><path
                     d="m 159.6001,34.8447 c 0.304,-0.081 0.337,-0.22 0.72,-0.24 0.208,-0.011 0.195,-0.23 0.24,-0.24 0.739,-0.165 2.063,-0.136 2.641,0 0.435,0.103 0.731,0.562 0.96,0.72 0.501,0.346 0.979,0.428 1.199,0.72 0.113,0.15 0.18,0.59 0.24,0.72 0.061,0.131 0.234,0.368 0.24,0.479 0.013,0.235 0.215,0.16 0.24,0.24 0.09,0.284 -0.044,0.665 0,0.961 0.054,0.36 0.266,0.427 0.24,0.96 -0.012,0.245 -0.197,0.28 -0.24,0.48 -0.088,0.407 -0.176,0.704 -0.24,0.96 -0.033,0.131 0.064,0.363 0,0.48 -0.042,0.076 -1.588,1.423 -1.92,1.44 -0.441,0.023 -0.614,0.462 -0.96,0.48 -0.244,0.012 -0.148,0.207 -0.24,0.239 -0.209,0.076 -0.502,-0.046 -0.72,0 -0.403,0.088 -0.393,0.328 -0.719,0 -0.101,-0.1 -0.805,0.009 -0.961,0 -0.915,-0.049 -1.567,-0.132 -1.92,-0.239 -0.847,-0.256 -1.373,-0.267 -2.159,-0.48 -0.782,-0.211 -1.415,-0.414 -1.681,-0.48 -0.141,-0.035 -0.347,0.057 -0.48,0 -0.116,-0.05 -0.339,-0.412 -0.48,-0.48 -0.363,-0.175 -0.865,-0.261 -1.2,-0.48 -0.106,-0.07 -0.128,-0.397 -0.239,-0.48 -0.207,-0.156 -0.536,-0.101 -0.721,-0.24 -0.698,-0.526 -1.197,-1.184 -1.92,-1.68 -0.338,0.349 -0.425,0.843 -0.72,1.2 -0.356,0.433 -0.829,0.577 -1.2,0.96 -0.648,0.667 -1.132,1.657 -2.16,1.92 -0.218,-0.177 -0.447,-0.093 -0.72,-0.24 -0.132,-0.071 -0.335,-0.388 -0.48,-0.48 -0.213,-0.137 -0.494,-0.083 -0.72,-0.24 -0.199,-0.139 -0.274,-0.579 -0.48,-0.72 -0.205,-0.14 -0.543,-0.135 -0.72,-0.24 -0.062,-0.037 -0.126,-0.168 -0.24,-0.24 -0.171,-0.11 -0.321,-0.136 -0.48,-0.24 -0.147,-0.097 -0.319,-0.374 -0.479,-0.48 -0.25,-0.167 -0.571,-0.218 -0.721,-0.48 1.052,-1.278 2.621,-1.61 3.6,-3.12 0.504,-0.777 0.728,-1.936 0.96,-3.36 0.315,-1.932 0.627,-4.29 0.48,-6.24 -0.049,-0.649 -0.4,-1.313 -0.48,-1.92 -0.204,-1.547 0.192,-3.153 -0.48,-3.84 l -3.12,0 c 0.02,-1.86 -0.413,-3.268 -0.239,-5.28 2.582,-0.072 5.338,0.097 7.199,0 0.187,-0.01 0.221,-0.237 0.24,-0.239 0.353,-0.058 0.506,0.23 0.721,0.239 1.884,0.072 3.541,-0.055 5.279,0 0.352,1.568 0.495,3.346 0.48,5.28 -1.411,-0.051 -2.572,0.148 -3.6,0.481 0.785,1.009 0.48,2.779 0.48,4.558 0,1.675 0.144,3.581 -0.24,4.801 0.306,0.296 0.622,0.88 0.72,0.96 0.07,0.057 -0.041,0.392 0,0.479 0.014,0.031 0.212,-0.022 0.24,0 0.075,0.062 -0.052,0.393 0,0.481 0.125,0.212 0.542,0.454 0.72,0.72 0.188,0.281 0.292,0.765 0.48,0.96 0.204,0.211 0.639,0.25 0.96,0.48 0.177,0.126 0.171,0.464 0.481,0.479 0.275,0.016 0.108,0.161 0.239,0.241 0.641,0.39 1.445,0.667 2.16,0.96 0.558,-0.642 1.565,-0.835 1.92,-1.68 m -2.16,0.96 c -0.458,-0.271 -0.926,-0.393 -1.44,-0.72 -0.129,-0.082 -0.16,-0.188 -0.24,-0.24 -0.629,-0.41 -1.222,-0.721 -1.68,-1.44 -0.168,-0.262 -0.308,-0.451 -0.48,-0.72 -0.174,-0.273 -0.27,-0.5 -0.479,-0.72 -0.117,-0.121 -0.281,-0.611 -0.481,-0.96 l 0,-9.12 c -0.04,-0.513 0.709,-0.117 1.2,-0.24 0.291,-0.072 1.236,-0.453 1.92,0 0.1,-2.473 -0.202,-5.372 -0.479,-6.72 -3.645,0.037 -7.598,-0.05 -11.521,0 -1.1,0.014 -2.35,-0.191 -3.36,0.24 -0.154,2.393 0.415,4.065 0.24,6.48 l 3.36,0 c 0.476,0.766 0.138,1.732 0.24,2.639 0.172,1.525 0.632,3.042 0.48,5.281 -0.07,1.031 -0.379,1.982 -0.48,3.12 -0.081,0.914 -0.156,1.879 -0.48,2.639 -0.561,1.319 -1.552,1.826 -2.639,2.641 -0.407,0.304 -0.951,0.924 -1.681,1.2 0.107,0.456 0.486,0.522 0.721,0.72 0.069,0.059 0.174,0.451 0.239,0.48 0.119,0.053 0.377,-0.075 0.48,0 0.215,0.157 0.477,0.563 0.72,0.72 0.088,0.056 0.417,-0.077 0.48,0 0.067,0.082 0.159,0.425 0.24,0.48 0.267,0.181 0.71,0.306 0.961,0.48 0.085,0.06 0.164,0.446 0.239,0.48 0.472,0.212 0.748,0.19 1.2,0.48 0.227,0.145 0.399,0.423 0.72,0.48 0.655,0.136 0.772,-0.616 1.2,-0.96 0.341,-0.274 0.869,-0.41 1.2,-0.72 0.301,-0.282 0.681,-0.658 0.96,-0.96 0.314,-0.339 0.704,-0.709 0.72,-1.2 0.338,-0.087 0.676,0.263 0.96,0.48 0.078,0.06 0.17,0.448 0.24,0.48 0.113,0.051 0.385,-0.076 0.481,0 0.328,0.261 0.478,0.653 0.96,0.96 0.207,0.132 1.319,0.719 1.919,0.96 0.085,0.034 0.426,-0.066 0.48,0 0.299,0.365 1.493,0.495 2.4,0.719 1.943,0.482 3.828,0.955 5.281,0.721 0.018,-0.003 0.052,-0.23 0.239,-0.24 0.525,-0.027 0.753,-0.028 1.2,-0.24 0.116,-0.055 -0.022,-0.226 0.24,-0.241 0.553,-0.028 1.179,-0.764 1.68,-1.199 0.178,-0.154 0.592,-0.295 0.72,-0.48 0.06,-0.087 -0.078,-0.416 0,-0.48 0.028,-0.023 0.226,0.03 0.24,0 0.041,-0.087 -0.069,-0.423 0,-0.48 0.599,-0.49 0.608,-2.098 0.24,-3.361 -0.02,-0.07 -0.228,-0.012 -0.24,-0.24 -0.003,-0.063 0.023,-0.181 0,-0.239 -0.065,-0.164 -0.213,-0.174 -0.24,-0.24 -0.124,-0.304 -0.051,-0.689 -0.24,-0.96 -0.15,-0.216 -0.533,-0.293 -0.72,-0.48 -0.172,-0.173 -0.286,-0.586 -0.48,-0.72 -0.087,-0.06 -0.416,0.079 -0.48,0 -0.023,-0.028 0.03,-0.226 0,-0.24 -0.087,-0.042 -0.422,0.07 -0.48,0 -0.25,-0.306 -0.412,-0.096 -1.2,-0.24 -0.233,-0.043 -0.358,-0.241 -0.72,-0.24 -0.391,10e-4 -0.409,0.184 -0.719,0.24 -1.06,0.187 -1.748,0.282 -2.641,0.96 -0.387,0.293 -0.561,0.91 -1.2,0.96"
                     id="path3052"
                     style="fill:#000000;fill-opacity:1;fill-rule:evenodd;stroke:none" /><path
                     d="m 124.0806,42.7646 c -0.15,-0.038 -0.331,0.041 -0.48,0 -0.681,-0.188 -1.029,-0.652 -1.44,-0.24 -0.171,0.171 -0.65,-0.236 -0.721,-0.24 -0.64,-0.358 -1.412,-0.845 -2.16,-1.44 -0.54,-0.431 -2.133,-1.655 -2.159,-2.16 -0.016,-0.28 -0.14,-0.104 -0.24,-0.24 -0.383,-0.513 -1.179,-1.503 -1.2,-1.92 -0.019,-0.344 -0.463,-0.402 -0.48,-0.72 -0.02,-0.385 -0.644,-1.321 -0.721,-1.44 -0.206,-0.324 -0.468,-0.749 -0.479,-0.96 -0.013,-0.239 -0.212,-0.156 -0.24,-0.241 -0.088,-0.262 0.014,-0.679 0,-0.96 -0.011,-0.2 -0.233,-0.203 -0.241,-0.239 -0.221,-1.097 -0.127,-1.864 -0.24,-2.88 -0.026,-0.244 -0.192,-0.279 -0.239,-0.48 -0.252,-1.068 0.352,-2.936 0.479,-3.36 0.289,-0.953 -0.179,-1.501 0.241,-1.919 0.239,-0.24 -0.037,-0.735 0.24,-0.961 0.079,-0.065 -0.065,-0.395 0,-0.48 0.131,-0.175 0.464,-0.172 0.479,-0.479 0.015,-0.28 0.152,-0.108 0.241,-0.241 0.571,-0.861 1.488,-1.484 1.679,-2.64 0.957,-0.404 1.574,-1.148 2.16,-1.92 1.516,-0.119 1.961,-1.151 3.121,-1.44 0.161,-0.041 0.207,-0.23 0.24,-0.24 0.953,-0.291 1.535,-0.171 2.639,-0.24 0.617,-0.038 1.396,-0.246 1.92,-0.24 0.881,0.011 3.003,0.39 3.361,0.48 0.791,0.197 1.198,0.185 1.439,0.481 0.061,0.073 0.393,-0.049 0.481,0 0.136,0.076 0.322,0.394 0.479,0.479 0.26,0.139 0.512,0.118 0.721,0.239 0.199,0.117 0.507,0.47 0.72,0.481 0.271,0.014 0.113,0.17 0.24,0.24 0.747,0.415 1.157,0.79 1.68,1.199 0.459,0.342 0.859,0.742 1.2,1.201 -0.101,1.099 -1.252,1.148 -1.68,1.92 -0.64,0.561 -0.903,1.497 -1.92,1.68 -0.796,-0.085 -1.042,-0.719 -1.44,-1.2 -0.803,-0.17 -1.143,-0.724 -1.92,-0.96 -1.04,-0.316 -2.887,-0.168 -3.601,0 -0.301,0.07 -0.661,-0.082 -0.96,0 -0.072,0.019 -0.378,0.425 -0.479,0.48 -0.544,0.293 -1.084,0.315 -1.441,0.48 -0.139,0.064 -0.302,0.425 -0.719,0.24 -1.026,1.294 -2.437,2.203 -2.64,4.319 1.785,-0.053 3.293,-0.385 5.279,-0.24 l 0,5.521 c -1.222,-0.146 -2.325,0.135 -2.88,0.24 -0.353,0.067 -0.888,-0.106 -0.96,0.24 0.338,2.782 2.294,3.946 4.321,5.039 0.213,0.751 -0.236,1.165 -0.241,1.441 -0.009,0.569 0.267,1.026 0.241,1.68 -0.02,0.487 0.068,1.217 0,1.68 -0.061,0.407 -0.092,1.293 -0.72,1.2 -0.442,0.113 -0.716,-0.179 -0.96,-0.24 m 1.92,0.479 c 0.433,-1.192 0.166,-4.66 0.239,-6.959 -2.12,-0.52 -3.584,-1.696 -4.079,-3.84 0.192,-0.725 1.357,0.155 1.68,-0.241 0.259,-0.315 0.069,-0.001 0.24,0 0.18,0.002 0.257,-0.216 0.479,-0.239 0.526,-0.053 0.769,0.789 1.201,0.239 0.537,-1.782 0.096,-4.543 0.24,-6.719 -2.118,-0.015 -3.07,-0.239 -5.04,0 -0.493,-0.949 1.161,-1.425 1.2,-2.159 0.014,-0.266 0.298,-0.365 0.48,-0.481 0.262,-0.167 0.45,-0.309 0.719,-0.48 0.103,-0.065 0.193,-0.213 0.241,-0.241 0.321,-0.176 0.624,-0.068 0.959,-0.239 0.116,-0.058 0.393,-0.452 0.481,-0.479 0.218,-0.071 0.5,0.065 0.72,0 0.124,-0.038 0.253,-0.244 0.24,-0.241 1.021,-0.166 2.747,-0.156 3.359,0 1.748,0.444 2.258,2.049 3.841,2.401 0,-0.248 0.301,-0.169 0.48,-0.24 0.504,-0.203 1.339,-1.148 1.92,-1.681 0.192,-0.176 0.278,-0.563 0.48,-0.72 0.155,-0.122 0.563,-0.097 0.72,-0.24 0.371,-0.341 0.558,-0.887 0.96,-1.2 -0.028,-0.447 -0.452,-0.386 -0.72,-0.72 -0.23,-0.286 -0.204,-0.697 -0.481,-0.961 -0.077,-0.072 -0.413,0.082 -0.479,0 -0.188,-0.229 -0.24,-0.295 -0.48,-0.478 -0.079,-0.061 -0.169,-0.449 -0.241,-0.481 -0.116,-0.053 -0.38,0.075 -0.479,0 -0.252,-0.191 -0.436,-0.505 -0.72,-0.721 -0.514,-0.387 -1.366,-0.692 -2.16,-1.199 -0.304,-0.193 -0.894,-0.283 -1.681,-0.48 -1.06,-0.265 -2.625,-0.577 -4.559,-0.481 -1.232,0.064 -2.567,0.131 -3.6,0.24 0.007,-10e-4 -0.074,0.232 -0.24,0.241 -0.595,0.031 -0.984,0.183 -1.441,0.48 -0.349,0.227 -0.499,0.427 -0.96,0.72 -0.107,0.068 -0.75,0.182 -0.96,0.479 -0.472,0.21 -0.802,0.621 -1.2,0.961 -0.346,0.297 -0.877,0.608 -1.199,0.959 -0.116,0.127 -0.397,0.363 -0.48,0.481 -0.061,0.086 0.078,0.416 0,0.48 -0.038,0.03 -0.214,-0.038 -0.241,0 -0.124,0.179 -0.09,0.521 -0.239,0.72 -0.149,0.199 -0.717,0.37 -0.961,0.72 -0.059,0.087 0.079,0.416 0,0.48 -0.179,0.147 -0.593,0.297 -0.72,0.481 -0.06,0.086 0.08,0.416 0,0.479 -0.196,0.16 -0.166,0.183 -0.24,0.48 -0.055,0.225 -0.131,0.601 -0.239,0.961 -0.083,0.271 -0.146,0.932 -0.24,1.919 -0.101,1.043 -0.408,3.171 -0.241,4.8 0.233,2.263 1.28,4.68 2.401,6.48 0.104,0.167 0.1,0.534 0.24,0.719 0.085,0.114 0.406,0.132 0.48,0.241 0.152,0.226 0.119,0.503 0.24,0.72 0.07,0.126 0.225,-0.032 0.24,0.24 0.019,0.358 0.577,0.531 0.96,0.96 0.077,0.087 -0.082,0.399 0,0.48 0.08,0.08 0.399,-0.08 0.48,0 0.08,0.08 -0.081,0.4 0,0.48 0.081,0.081 0.396,-0.079 0.48,0 0.25,0.235 0.418,0.721 0.72,0.96 0.208,0.165 0.533,0.066 0.719,0.24 0.096,0.089 0.141,0.411 0.241,0.48 0.221,0.152 0.506,0.121 0.719,0.24 0.127,0.07 -0.031,0.226 0.241,0.24 0.054,0.003 0.193,-0.026 0.24,0 0.157,0.085 0.343,0.404 0.479,0.48 0.088,0.049 0.42,-0.073 0.481,0 0.469,0.573 3.12,1.18 4.08,0.239"
                     id="path3054"
                     style="fill:#000000;fill-opacity:1;fill-rule:evenodd;stroke:none" /><path
                     d="m 128.1606,38.9248 c -0.03,-1.133 -0.076,-2.098 -0.24,-2.64 1.175,-0.101 1.68,-1.151 2.16,-1.921 0.09,-0.144 0.39,-0.313 0.479,-0.479 0.111,-0.204 0.189,-0.567 0.241,-0.721 0.192,-0.567 0.341,-1.103 0.24,-1.919 -0.295,-0.295 -0.739,0.037 -1.2,0 0.033,0.002 -0.119,-0.211 -0.241,-0.24 -0.574,-0.143 -0.998,0.109 -1.439,0 0.178,-1.503 0.326,-3.034 0.239,-4.801 1.085,-0.203 2.197,0.185 3.361,0.241 2.407,0.115 4.861,-0.281 6.96,0.24 0.425,0.878 0.501,1.859 0.48,2.88 -0.018,0.858 -0.433,2.884 -0.721,3.12 -0.02,0.016 -0.242,0.729 -0.24,0.719 -0.035,0.143 0.056,0.346 0,0.481 -0.046,0.113 -0.419,0.339 -0.479,0.479 -0.057,0.133 0.035,0.34 0,0.481 -0.133,0.53 -0.494,0.888 -0.72,1.44 -0.408,0.994 -0.501,1.304 -0.96,1.68 -0.081,0.066 0.071,0.399 0,0.48 -0.38,0.429 -1.285,0.884 -1.92,1.44 -0.529,0.462 -0.799,0.952 -1.2,1.2 -0.592,0.364 -0.834,0.471 -1.441,0.72 -0.026,0.011 0.022,0.214 0,0.24 -0.053,0.066 -0.394,-0.034 -0.479,0 -0.879,0.351 -2.402,0.763 -3.12,0.72 0.28,-1.151 0.278,-2.391 0.24,-3.84 m -0.721,4.56 c 0.737,0.033 2.542,-0.393 3.361,-0.72 0.085,-0.034 0.425,0.066 0.479,0 0.237,-0.29 0.976,-0.411 1.441,-0.72 0.223,-0.149 0.387,-0.46 0.719,-0.721 0.344,-0.267 0.811,-0.394 1.2,-0.719 0.329,-0.274 0.592,-0.659 0.96,-0.96 0.32,-0.262 0.767,-0.507 0.96,-0.72 0.164,-0.181 0.079,-0.546 0.241,-0.72 0.078,-0.084 0.427,-0.153 0.479,-0.24 0.171,-0.284 0.139,-0.723 0.24,-0.961 0.064,-0.147 0.144,-0.329 0.241,-0.479 0.113,-0.178 0.31,-0.704 0.479,-1.201 0.124,-0.359 0.288,-0.957 0.481,-1.439 0.111,-0.279 0.26,-0.599 0.48,-1.2 0.147,-0.403 0.275,-0.93 0.48,-1.44 0.102,-0.258 0.311,-0.508 0.24,-0.961 0.007,0.046 -0.402,-0.11 -0.24,-0.239 0.634,-0.508 -0.037,-2.575 0,-3.6 -0.554,0.221 -0.788,-0.327 -1.201,-0.481 -2.489,-0.927 -7.559,0.197 -10.799,-0.239 0.251,2.268 -0.485,4.225 0,6 0.417,0.297 1.593,-0.183 2.639,0 -0.104,2.295 -1.243,3.556 -3.119,4.08 0.513,2.127 0.114,5.165 0.239,7.68"
                     id="path3056"
                     style="fill:#000000;fill-opacity:1;fill-rule:evenodd;stroke:none" /><path
                     d="m 63.3599,42.5244 c -0.563,-0.099 -2.646,-0.914 -2.88,-1.2 -0.057,-0.07 -0.392,0.042 -0.48,0 -0.03,-0.014 0.023,-0.212 0,-0.24 -0.065,-0.079 -0.639,-0.188 -0.72,-0.24 -0.172,-0.11 -0.322,-0.133 -0.48,-0.24 -0.263,-0.179 -0.474,-0.553 -0.72,-0.72 -0.454,-0.308 -0.937,-0.044 -0.96,-0.48 -0.014,-0.272 -0.097,-0.116 -0.24,-0.24 -0.423,-0.368 -0.875,-0.555 -1.2,-0.96 -0.24,-0.299 -0.233,-0.641 -0.48,-0.96 -0.186,-0.24 -0.549,-0.493 -0.72,-0.72 -0.115,-0.152 -0.133,-0.334 -0.24,-0.48 -0.11,-0.151 -0.384,-0.303 -0.48,-0.48 -0.228,-0.422 -0.296,-0.91 -0.48,-1.439 -0.03,-0.088 -0.186,-0.027 -0.24,-0.241 -0.037,-0.151 0.033,-0.328 0,-0.48 -0.314,-1.452 -1.075,-2.967 -1.2,-4.08 -0.174,-1.552 0.071,-3.424 0.24,-4.56 0.094,-0.631 0.13,-1.572 0.24,-1.92 0.007,-0.022 0.218,0.018 0.24,0 0.07,-0.057 -0.041,-0.393 0,-0.48 0.014,-0.029 0.212,0.023 0.24,0 0.075,-0.061 -0.05,-0.392 0,-0.48 0.019,-0.034 0.208,0.027 0.24,0 0.08,-0.065 -0.064,-0.395 0,-0.479 0.132,-0.176 0.464,-0.173 0.48,-0.481 0.015,-0.278 0.154,-0.106 0.24,-0.24 0.341,-0.527 0.606,-1.126 0.72,-1.68 0.416,-0.302 0.747,-0.276 1.2,-0.48 0.072,-0.032 0.16,-0.42 0.24,-0.48 0.328,-0.244 0.63,-0.61 0.72,-0.719 0.065,-0.08 0.395,0.063 0.48,0 0.117,-0.088 0.105,-0.401 0.24,-0.481 0.306,-0.182 0.634,-0.112 0.96,-0.24 0.152,-0.059 0.353,-0.233 0.48,-0.24 0.455,-0.024 1.126,-0.646 1.2,-0.72 0.137,-0.137 0.767,0.067 0.96,0 0.026,-0.009 -0.022,-0.218 0,-0.239 0.214,-0.215 0.947,-0.08 1.2,-0.24 0.704,-0.45 1.745,-0.642 2.64,-0.721 0.028,2.107 0.04,4.2 -0.24,6 -0.686,0.25 -1.139,0.593 -1.44,0.961 -0.065,0.079 -0.395,-0.065 -0.48,0 -0.196,0.147 -0.531,0.53 -0.72,0.719 -0.277,0.277 -0.564,0.519 -0.72,0.72 -0.201,0.259 -0.066,0.685 -0.24,0.96 -0.055,0.088 -0.399,0.159 -0.48,0.24 -0.08,0.081 -0.195,0.383 -0.24,0.48 -0.284,0.616 -0.624,2.083 -0.72,2.4 -0.452,1.496 -0.014,4.024 0.48,4.8 0.104,0.162 0.158,0.324 0.24,0.48 0.28,0.535 0.515,0.793 0.72,0.96 0.08,0.066 -0.064,0.395 0,0.48 0.131,0.175 0.463,0.173 0.48,0.481 0.041,0.777 1.454,1.181 1.92,1.439 0.519,0.287 0.864,0.748 1.44,0.72 0.248,2.011 0.363,4.259 0,6.24 -0.444,-0.066 -0.938,0.089 -1.44,0 m 1.44,0.72 c 1.607,-1.506 0.681,-4.838 0.72,-7.44 -0.16,-0.312 -0.612,-0.093 -0.96,-0.24 -0.388,-0.165 -0.631,-0.476 -1.2,-0.72 -0.507,-0.217 -0.769,-0.399 -1.2,-0.96 -0.26,-0.339 -0.659,-0.642 -0.96,-1.2 -0.119,-0.221 -0.461,-0.603 -0.48,-0.96 -0.007,-0.142 -0.164,-0.653 -0.24,-0.96 -0.262,-1.047 -0.625,-2.331 -0.24,-4.08 0.068,-0.306 0.379,-0.796 0.48,-1.2 0.118,-0.471 0.034,-0.636 0.24,-0.96 0.168,-0.263 0.308,-0.45 0.48,-0.72 0.031,-0.048 0.943,-0.87 0.96,-1.2 0.021,-0.381 0.55,-0.557 0.72,-0.72 0.11,-0.104 0.609,-0.308 0.96,-0.479 0.102,-0.051 0.022,-0.187 0.24,-0.24 0.531,-0.133 0.452,-0.241 1.2,-0.241 -0.036,-1.104 0.048,-2.54 0,-3.839 -0.045,-1.222 0.257,-2.445 -0.48,-3.122 -0.565,-0.377 -1.23,-0.019 -1.92,0.241 -0.084,0.032 -0.427,-0.065 -0.48,0 -0.279,0.341 -1.201,0.564 -1.92,0.72 -0.219,0.048 -0.508,-0.073 -0.72,0 -0.088,0.031 0.001,0.228 -0.24,0.241 -0.111,0.005 -0.348,0.178 -0.48,0.24 -0.306,0.14 -0.531,0.372 -0.96,0.479 -0.813,0.203 -1.235,0.386 -1.92,0.96 -0.665,0.558 -1.446,1.255 -2.4,1.68 -0.198,0.778 -0.788,1.437 -1.2,2.16 -0.191,0.336 -0.261,0.794 -0.48,1.2 -0.102,0.189 -0.359,0.219 -0.48,0.48 -0.04,0.087 0.07,0.424 0,0.48 -0.195,0.159 -0.351,0.996 -0.48,1.92 -0.208,1.489 -0.429,4.044 0,5.76 0.049,0.194 0.222,0.178 0.24,0.24 0.128,0.448 0.101,0.977 0.24,1.44 0.009,0.031 0.2,0.081 0.24,0.24 0.129,0.516 0.039,0.522 0.24,1.2 0.132,0.446 0.296,0.78 0.48,1.2 0.08,0.182 0.116,0.49 0.24,0.72 0.09,0.167 0.39,0.335 0.48,0.48 0.155,0.248 0.055,0.521 0.24,0.72 0.092,0.098 0.408,0.138 0.48,0.239 0.504,0.712 0.94,1.664 1.44,2.161 0.191,0.19 0.492,0.068 0.72,0.24 0.139,0.104 0.441,0.933 0.96,0.96 0.047,0.003 0.203,-0.026 0.24,0 0.26,0.18 0.447,0.546 0.72,0.72 0.088,0.056 0.417,-0.077 0.48,0 0.271,0.331 0.398,0.495 0.96,0.72 0.086,0.034 0.426,-0.066 0.48,0 0.022,0.027 -0.028,0.227 0,0.24 0.087,0.039 0.424,-0.068 0.48,0 0.023,0.028 -0.029,0.226 0,0.24 0.087,0.042 0.423,-0.07 0.48,0 0.178,0.218 1.078,0.479 1.68,0.72 0.085,0.034 0.426,-0.066 0.48,0 0.118,0.144 0.69,0.382 1.44,0.24"
                     id="path3058"
                     style="fill:#000000;fill-opacity:1;fill-rule:evenodd;stroke:none" /><path
                     d="m 67.6802,36.7646 c 1.134,-0.904 2.754,-1.727 3.84,-3.12 0.563,-0.723 1.233,-1.606 1.44,-2.64 0.249,-1.25 0.013,-4.396 -0.48,-4.801 -0.066,-0.053 0.034,-0.394 0,-0.479 -0.274,-0.684 -0.369,-1.394 -0.72,-1.681 -0.07,-0.056 0.041,-0.391 0,-0.478 -0.014,-0.031 -0.212,0.022 -0.24,0 -0.079,-0.066 0.061,-0.395 0,-0.481 -0.224,-0.313 -1.021,-0.849 -1.2,-0.961 -0.189,-0.115 -0.515,-0.468 -0.72,-0.479 -0.263,-0.014 -0.124,-0.185 -0.24,-0.239 -0.37,-0.176 -1.575,-0.291 -1.44,-0.961 -0.089,-2.249 0.608,-3.712 0.48,-6 1.245,-0.15 2.335,0.641 3.36,1.2 0.469,0.255 0.728,0.267 1.2,0.479 0.084,0.038 0.141,0.423 0.24,0.481 0.121,0.07 0.352,-0.058 0.48,0 0.088,0.04 0.132,0.428 0.24,0.48 0.382,0.186 0.679,0.02 0.96,0.241 0.201,0.158 0.617,0.587 0.96,0.959 0.132,0.143 0.373,0.34 0.48,0.48 0.145,0.189 0.08,0.528 0.24,0.72 0.285,0.342 0.687,0.621 0.959,0.96 0.265,0.328 0.708,0.709 0.721,0.961 0.014,0.27 0.171,0.114 0.24,0.239 0.205,0.378 0.291,0.95 0.48,1.44 0.156,0.405 0.469,0.983 0.48,1.2 0.011,0.221 0.223,0.177 0.24,0.24 0.078,0.291 -0.034,0.659 0,0.96 0.049,0.442 0.2,0.538 0.24,0.96 0.199,2.087 -0.213,3.407 -0.48,4.8 -0.137,0.717 -0.034,1.767 -0.24,2.4 -0.029,0.09 -0.421,0.364 -0.48,0.48 -0.172,0.335 -0.063,0.64 -0.24,0.96 -0.027,0.048 -0.175,0.138 -0.24,0.24 -0.172,0.27 -0.312,0.457 -0.48,0.72 -0.285,0.447 -0.439,0.49 -0.72,0.72 -0.081,0.066 0.067,0.396 0,0.479 -0.162,0.203 -0.556,0.274 -0.72,0.481 -0.4,0.503 -0.616,1.134 -0.96,1.44 -0.051,0.045 -0.433,0.237 -0.48,0.24 -0.276,0.015 -0.108,0.157 -0.24,0.24 -0.279,0.175 -0.703,0.328 -0.96,0.48 -0.035,0.02 0.027,0.207 0,0.24 -0.058,0.07 -0.393,-0.041 -0.48,0 -0.03,0.014 0.023,0.212 0,0.24 -0.058,0.071 -0.393,-0.043 -0.48,0 -0.031,0.015 0.023,0.211 0,0.24 -0.057,0.07 -0.393,-0.041 -0.48,0 -0.03,0.014 0.023,0.212 0,0.24 -0.055,0.067 -0.394,-0.035 -0.48,0 -0.029,0.012 0.024,0.215 0,0.24 -0.239,0.239 -0.733,-0.037 -0.96,0.24 -0.057,0.07 -0.393,-0.041 -0.48,0 -0.03,0.014 0.023,0.212 0,0.24 -0.05,0.061 -0.398,-0.026 -0.48,0 -0.966,0.299 -1.832,0.475 -2.4,0.72 0.417,-1.583 0.18,-3.82 0.24,-5.76 m 0.24,-23.04 c -0.336,2.464 -0.492,5.108 -0.96,7.44 0.741,-0.121 1.373,0.919 2.16,0.959 0.325,0.018 0.886,0.44 1.2,0.721 0.235,0.21 0.625,0.578 0.72,0.721 0.058,0.086 -0.078,0.415 0,0.478 0.028,0.025 0.226,-0.029 0.24,0 0.041,0.088 -0.07,0.424 0,0.481 0.277,0.226 0.001,0.721 0.24,0.96 0.087,0.088 0.362,0.515 0.479,0.96 0.26,0.977 0.472,4.201 0,5.28 -0.047,0.109 -0.225,-0.018 -0.239,0.24 -0.011,0.204 -0.364,0.531 -0.48,0.72 -0.088,0.142 -0.131,0.339 -0.24,0.479 -1.117,1.451 -2.889,2.294 -4.08,3.121 0.144,2.256 -0.299,5.099 0.24,6.959 0.499,0.223 1.112,-0.273 1.68,-0.479 0.711,-0.258 1.104,-0.208 1.92,-0.48 0.084,-0.028 0.002,-0.228 0.24,-0.24 0.091,-0.005 1.07,-0.082 1.2,-0.24 0.277,-0.339 1.477,-0.772 2.16,-1.2 0.28,-0.175 0.456,-0.531 0.72,-0.72 0.328,-0.235 0.739,-0.274 0.96,-0.48 0.429,-0.402 0.933,-1.243 1.439,-1.92 0.28,-0.373 0.575,-0.727 0.961,-1.2 0.113,-0.139 0.405,-0.361 0.48,-0.48 0.19,-0.303 0.071,-0.631 0.24,-0.96 0.063,-0.124 0.444,-0.38 0.48,-0.48 0.273,-0.751 0.303,-1.717 0.48,-2.64 0.076,-0.398 0.138,-0.771 0.24,-1.2 0.304,-1.28 0.147,-3.153 0,-4.8 -0.034,-0.383 0.085,-0.827 0,-1.2 -0.011,-0.047 -0.229,-0.031 -0.24,-0.24 -0.028,-0.523 -0.276,-0.648 -0.48,-1.2 -0.212,-0.573 -0.259,-1.264 -0.48,-1.679 -0.066,-0.124 -0.226,0.028 -0.24,-0.241 -0.004,-0.066 -0.187,-0.406 -0.24,-0.48 -0.06,-0.083 -0.447,-0.165 -0.48,-0.24 -0.051,-0.113 0.076,-0.387 0,-0.481 -0.389,-0.475 -0.824,-0.773 -1.2,-1.199 -0.389,-0.441 -0.751,-0.751 -1.2,-1.2 -0.314,-0.315 -0.737,-0.739 -0.96,-1.2 -2.557,-0.644 -3.708,-2.692 -6.96,-2.64"
                     id="path3060"
                     style="fill:#000000;fill-opacity:1;fill-rule:evenodd;stroke:none" /><path
                     d="m 32.8799,37.7246 c -0.063,0.096 -0.209,0.191 -0.24,0.24 -0.107,0.173 -0.096,0.563 -0.24,0.72 -0.298,0.326 -0.845,0.434 -1.2,0.72 -0.601,0.487 -1.108,0.936 -1.68,1.2 -0.423,0.195 -0.699,0.354 -1.2,0.48 -0.124,0.031 -0.255,0.243 -0.24,0.24 -0.779,0.161 -5.932,-0.068 -6.24,0.24 -0.055,0.055 0.065,0.45 0,0.48 -0.708,0.325 -1.776,-0.209 -1.92,-0.24 -1.179,-0.256 -2.904,-0.402 -3.36,-0.96 -0.016,-0.02 -0.729,-0.243 -0.72,-0.24 -0.675,-0.169 -0.726,-0.337 -1.2,-0.72 -1.424,-1.153 -2.474,-2.001 -3.36,-3.36 -0.096,-0.147 -0.388,-0.311 -0.48,-0.48 -0.141,-0.261 -0.115,-0.51 -0.24,-0.72 -0.084,-0.142 -0.392,-0.317 -0.48,-0.48 -0.133,-0.248 -0.137,-0.52 -0.24,-0.72 -0.07,-0.135 -0.176,0.016 -0.24,-0.24 -0.085,-0.342 -0.085,-0.488 -0.24,-0.721 -0.314,-0.47 -0.088,-0.831 -0.24,-1.439 -0.032,-0.128 -0.242,-0.25 -0.24,-0.24 -0.382,-1.756 -0.182,-3.256 0,-5.04 0.125,-1.214 0.552,-2.173 0.24,-3.36 0.394,-0.25 0.227,-0.565 0.48,-0.961 0.115,-0.179 0.464,-0.168 0.48,-0.479 0.015,-0.276 0.156,-0.108 0.24,-0.239 0.41,-0.651 0.53,-1.089 0.96,-1.442 0.08,-0.064 -0.066,-0.394 0,-0.479 0.154,-0.196 0.636,-0.659 0.96,-0.96 0.143,-0.133 0.341,-0.373 0.48,-0.481 0.171,-0.131 0.56,-0.087 0.72,-0.24 0.312,-0.295 0.681,-0.644 0.96,-0.959 0.161,-0.181 0.086,-0.549 0.24,-0.721 0.031,-0.034 0.45,-0.237 0.48,-0.239 0.275,-0.014 0.11,-0.163 0.24,-0.24 0.36,-0.213 1.555,-0.389 1.92,-0.48 0.192,-0.047 0.169,-0.211 0.24,-0.24 0.704,-0.278 2.298,-0.635 2.64,-0.721 0.305,-0.076 0.303,-0.062 0.48,-0.24 0.098,-0.096 0.808,0.007 0.96,0 0.972,-0.034 2.628,0.408 3.36,0.481 0.883,0.087 1.44,0.179 1.68,0.24 0.309,0.077 0.509,0.187 0.72,0.24 0.145,0.036 0.342,-0.054 0.48,0 0.102,0.039 0.359,0.408 0.48,0.481 0.12,0.069 0.353,-0.058 0.48,0 0.08,0.035 0.148,0.421 0.24,0.479 0.113,0.072 0.356,-0.056 0.48,0 0.078,0.035 0.152,0.421 0.24,0.48 0.111,0.074 0.358,-0.055 0.48,0 0.075,0.034 0.157,0.421 0.24,0.48 0.209,0.149 0.536,0.114 0.72,0.24 0.082,0.056 0.172,0.397 0.24,0.48 0.066,0.081 0.398,-0.069 0.48,0 0.452,0.379 0.862,0.906 0.96,1.44 -0.496,-0.035 -0.861,0.486 -1.2,0.72 -0.15,0.104 -0.306,0.387 -0.48,0.479 -0.278,0.151 -0.502,0.08 -0.72,0.241 -0.689,0.513 -1.236,1.408 -2.16,1.679 -0.735,-0.453 -1.395,-1.09 -1.68,-1.439 -0.054,-0.065 -0.394,0.034 -0.48,0 -0.637,-0.255 -1.003,-0.635 -1.68,-0.721 -1.862,-0.234 -5.022,0.78 -5.76,1.681 -0.064,0.079 -0.393,-0.06 -0.48,0 -0.182,0.128 -0.333,0.541 -0.48,0.72 -0.064,0.078 -0.393,-0.061 -0.48,0 -0.085,0.059 -0.474,0.614 -0.48,0.72 -0.014,0.278 -0.154,0.107 -0.24,0.241 -0.964,1.489 -1.74,3.597 -1.44,5.759 0.079,0.566 0.608,1.64 0.72,1.92 0.22,0.549 0.256,0.995 0.48,1.44 0.602,1.192 1.399,2.25 2.16,2.64 0.148,0.076 0.551,-0.009 0.72,0 0.224,0.012 0.174,0.222 0.24,0.24 1.249,0.349 1.876,0.4 3.12,0.72 0.051,-0.23 0.204,-0.225 0.48,-0.24 0.277,-0.014 0.107,-0.155 0.24,-0.24 0.892,-0.573 1.056,-1.177 1.68,-1.92 0.542,-0.646 1.611,-2.119 2.4,-2.16 0.213,-0.011 0.187,-0.227 0.24,-0.239 0.58,-0.141 1.569,-0.097 2.16,0 1.648,0.267 3.049,1.522 3.12,2.879 0.011,0.202 0.232,0.202 0.24,0.24 0.184,0.895 -0.136,2.061 0,3.12 -0.242,-0.051 -0.159,0.119 -0.24,0.24 m -4.32,-14.88 c 0.488,-0.409 0.949,-0.805 1.44,-1.2 0.406,-0.327 0.672,-0.623 1.2,-0.96 0.18,-0.114 0.62,-0.22 0.96,-0.481 0.352,-0.268 0.583,-1.052 1.92,-0.719 -0.055,-0.71 -0.665,-1.17 -1.2,-1.681 -0.372,-0.353 -0.658,-0.614 -1.2,-0.959 -0.254,-0.162 -0.572,-0.7 -0.96,-0.721 -0.308,-0.015 -0.305,-0.348 -0.48,-0.479 -0.085,-0.064 -0.415,0.079 -0.48,0 -0.168,-0.205 -0.426,-0.441 -0.96,-0.72 -0.156,-0.082 -0.317,-0.137 -0.48,-0.24 -0.235,-0.15 -0.377,-0.154 -0.72,-0.24 -0.211,-0.053 -0.411,-0.162 -0.72,-0.241 -0.279,-0.069 -0.454,-0.186 -1.2,-0.24 -0.15,-0.01 -0.335,0.037 -0.48,0 -0.146,-0.036 -0.239,-0.239 -0.24,-0.239 -0.975,-0.147 -1.712,-0.174 -2.64,-0.24 -1.272,-0.091 -2.767,0.287 -4.32,0.719 -0.304,0.086 -0.794,0.379 -1.2,0.481 -0.522,0.13 -0.51,0.049 -1.2,0.24 -0.305,0.085 -0.545,0.458 -0.96,0.481 -0.03,10e-4 -0.449,0.205 -0.48,0.239 -0.154,0.171 -0.079,0.539 -0.24,0.72 -0.244,0.275 -0.669,0.683 -0.96,0.961 -0.16,0.151 -0.549,0.108 -0.72,0.239 -0.139,0.107 -0.337,0.347 -0.48,0.479 -0.323,0.299 -0.794,0.746 -0.96,0.961 -0.065,0.085 0.08,0.414 0,0.48 -0.363,0.298 -0.389,0.441 -0.72,0.96 -0.174,0.272 -0.269,0.501 -0.48,0.72 -0.115,0.121 -0.487,0.601 -0.72,0.959 -0.29,0.441 -0.229,1.29 -0.48,2.161 -0.201,0.698 -0.637,1.114 -0.48,2.4 0.051,0.418 0.241,0.515 0.24,0.96 -0.001,0.669 -0.283,1.349 -0.24,1.92 0.05,0.654 0.293,1.575 0.48,2.4 0.083,0.364 0.133,0.829 0.24,1.199 0.084,0.292 0.461,0.841 0.48,1.201 0.016,0.309 0.355,0.303 0.48,0.48 0.061,0.087 -0.078,0.415 0,0.48 0.076,0.063 0.432,0.165 0.48,0.24 0.056,0.088 -0.076,0.417 0,0.48 0.064,0.052 0.447,0.179 0.48,0.24 0.157,0.286 0.042,0.701 0.24,0.96 0.153,0.2 0.68,0.68 0.96,0.96 0.349,0.349 0.668,0.682 0.96,0.96 0.266,0.253 0.692,0.733 0.96,0.96 0.191,0.161 0.502,0.077 0.72,0.24 0.104,0.078 0.142,0.421 0.24,0.48 0.088,0.053 0.418,-0.076 0.48,0 0.023,0.028 -0.03,0.226 0,0.24 0.087,0.041 0.423,-0.07 0.48,0 0.17,0.207 0.556,0.24 1.2,0.48 0.095,0.035 -0.006,0.227 0.24,0.24 0.541,0.028 1.073,0.283 1.92,0.48 2.303,0.536 4.821,0.76 6.72,0 0.086,-0.034 0.426,0.066 0.48,0 0.283,-0.346 1.919,-0.244 2.64,-0.48 0.126,-0.041 0.39,-0.453 0.48,-0.48 0.586,-0.177 0.692,-0.091 1.2,-0.48 0.184,-0.141 0.32,-0.36 0.48,-0.48 0.185,-0.139 0.513,-0.085 0.72,-0.24 0.131,-0.098 0.12,-0.378 0.24,-0.48 0.194,-0.165 0.54,-0.072 0.72,-0.24 0.16,-0.149 0.825,-1.075 0.96,-1.44 0.031,-0.085 -0.064,-0.428 0,-0.48 0.018,-0.014 0.237,0.016 0.24,0 0.241,-1.281 -0.155,-3.177 -0.48,-4.08 -0.191,-0.532 -0.393,-1.096 -0.48,-1.201 -0.067,-0.079 -0.405,-0.426 -0.48,-0.479 -0.086,-0.061 -0.416,0.078 -0.48,0 -0.026,-0.031 0.034,-0.222 0,-0.24 -0.088,-0.05 -0.419,0.074 -0.48,0 -0.023,-0.028 0.03,-0.226 0,-0.239 -0.087,-0.042 -0.423,0.069 -0.48,0 -0.199,-0.244 -0.702,-0.314 -1.44,-0.481 -0.047,-0.011 -0.031,-0.229 -0.24,-0.24 -0.663,-0.035 -1.253,0.004 -1.92,0.24 -1.183,0.419 -1.85,1.247 -2.64,2.16 -0.834,0.965 -1.314,2.182 -2.4,2.4 -0.406,0.081 -1.019,-0.141 -1.44,-0.24 -0.671,-0.158 -1.134,-0.222 -1.68,-0.48 -0.116,-0.055 0.023,-0.226 -0.24,-0.24 -0.234,-0.012 -0.481,-0.655 -1.2,-0.48 -2.065,-3.063 -2.724,-7.045 -0.96,-9.841 0.242,-0.382 0.559,-0.549 0.96,-0.959 0.268,-0.274 0.511,-0.809 0.72,-0.961 0.246,-0.175 0.911,-0.214 1.44,-0.479 0.16,-0.08 0.343,-0.403 0.48,-0.48 0.088,-0.049 0.42,0.074 0.48,0 0.179,-0.218 0.814,-0.313 1.68,-0.48 1.194,-0.231 1.844,-0.264 2.88,0.24 0.137,0.067 0.564,0.122 0.72,0.24 0.104,0.078 0.141,0.42 0.24,0.48 0.252,0.151 0.488,0.111 0.72,0.24 0.127,0.07 -0.032,0.226 0.24,0.239 0.333,0.019 0.512,0.762 1.2,0.721"
                     id="path3062"
                     style="fill:#000000;fill-opacity:1;fill-rule:evenodd;stroke:none" /><path
                     d="m 98.8804,36.2847 c 0.659,-0.541 2.569,0.168 2.64,-0.96 -0.18,-1.094 -0.312,-2.086 -0.72,-3.121 -0.042,-0.106 -0.411,-0.351 -0.481,-0.479 -0.305,-0.567 -0.252,-1.074 -0.479,-1.44 -0.04,-0.064 -0.167,-0.13 -0.24,-0.24 -0.301,-0.451 -0.369,-0.999 -0.48,-1.44 -0.049,-0.193 -0.212,-0.168 -0.24,-0.24 -0.187,-0.47 -0.293,-0.997 -0.48,-1.44 -0.049,-0.116 -0.418,-0.337 -0.48,-0.48 -0.364,-0.848 -0.077,-1.808 -0.96,-2.16 -0.819,0.517 -1.243,1.504 -1.681,2.4 -0.218,0.449 -0.266,0.929 -0.479,1.44 -0.216,0.518 -0.388,0.463 -0.481,0.96 -0.043,0.233 -0.158,0.293 -0.239,0.48 -0.843,1.936 -1.731,3.834 -2.4,5.76 0.721,0.479 2.079,0.32 2.88,0.72 0.054,1.786 0.386,3.294 0.24,5.28 -0.943,0.491 -1.883,0.027 -2.88,0 -1.462,-0.04 -3.49,0.056 -4.561,0 -0.148,-0.008 -0.269,-0.242 -0.239,-0.24 -0.234,-0.014 -0.298,0.26 -0.48,0.24 -0.244,-0.027 -0.28,-0.193 -0.48,-0.24 -0.28,-0.066 -0.672,-0.003 -0.96,0 -0.627,0.007 -1.213,0.2 -1.921,0.24 -0.672,0.038 -1.423,-0.028 -2.159,0 -0.036,-2.036 0.417,-3.583 0.24,-5.76 1.087,0.398 1.652,-0.173 2.639,0.24 1.328,-1.319 1.833,-3.147 2.641,-4.8 0.324,-0.664 1.076,-1.663 1.2,-2.16 0.034,-0.139 -0.06,-0.351 0,-0.48 0.056,-0.122 0.416,-0.33 0.479,-0.48 0.058,-0.133 -0.035,-0.339 0,-0.479 0.147,-0.586 0.752,-1.51 0.96,-1.681 0.075,-0.061 -0.048,-0.392 0,-0.48 0.077,-0.137 0.401,-0.32 0.481,-0.48 0.216,-0.432 0.272,-1.003 0.479,-1.439 0.2,-0.42 0.527,-0.787 0.721,-1.202 0.243,-0.52 0.281,-0.975 0.48,-1.439 0.37,-0.865 0.794,-1.811 1.2,-2.641 0.431,-0.882 1.131,-1.651 1.2,-2.638 l 6,0 c 0.271,0.741 0.586,1.458 0.96,2.159 0.018,0.032 0.209,-0.025 0.24,0 0.079,0.065 -0.064,0.395 0,0.479 0.086,0.116 0.407,0.103 0.48,0.241 0.095,0.182 -0.06,0.521 0,0.72 0.024,0.081 0.422,0.371 0.48,0.48 0.129,0.241 0.222,0.383 0.239,0.719 0.015,0.267 0.18,0.121 0.241,0.241 0.249,0.493 0.571,1.079 0.719,1.2 0.075,0.059 -0.048,0.391 0,0.479 0.077,0.137 0.409,0.318 0.481,0.481 0.088,0.198 -0.064,0.511 0,0.721 0.026,0.086 0.429,0.361 0.48,0.479 0.024,0.056 -0.004,0.179 0,0.239 0.023,0.443 0.461,0.615 0.48,0.961 0.012,0.238 0.212,0.155 0.24,0.24 0.229,0.685 0.067,0.868 0.24,1.44 0.027,0.089 0.432,0.358 0.48,0.48 0.082,0.207 -0.065,0.505 0,0.72 0.027,0.089 0.432,0.358 0.48,0.48 0.127,0.33 0.116,0.847 0.239,1.2 0.168,0.479 0.329,0.836 0.481,1.2 0.208,0.497 0.414,0.949 0.72,1.2 0.084,0.069 0.182,0.633 0.24,0.72 0.606,0.909 0.37,2.44 1.2,3.36 0.83,0.369 2.188,0.212 3.359,0.24 0.006,1.915 0.406,3.435 0.241,5.52 -2.252,0.631 -4.691,-0.1 -6.96,0 -0.933,0.041 -1.398,0.24 -1.92,0.24 -0.293,0 -0.5,-0.199 -0.96,-0.24 -1.491,-0.133 -3.54,-0.008 -4.32,0.24 0.133,-1.947 0.455,-3.705 0.48,-5.76 m 14.399,6.24 c 0.039,-2.519 -0.008,-4.951 -0.479,-6.96 l -3.12,0 c -0.554,-0.044 -0.324,-0.339 -0.48,-0.96 -0.051,-0.205 -0.216,-0.163 -0.24,-0.24 -0.166,-0.517 0.048,-0.767 -0.24,-1.201 -0.154,-0.231 -0.154,-0.378 -0.24,-0.719 -0.058,-0.232 -0.293,-0.548 -0.48,-0.96 -0.849,-1.867 -1.713,-4.355 -2.641,-6.48 -0.383,-0.881 -0.811,-1.796 -1.199,-2.64 -0.199,-0.432 -0.252,-1.027 -0.48,-1.44 -0.098,-0.177 -0.369,-0.328 -0.481,-0.48 -0.117,-0.161 -0.139,-0.288 -0.239,-0.481 -0.842,-1.617 -1.722,-3.145 -2.4,-4.799 -1.692,-0.869 -4.785,-0.335 -7.201,-0.48 -0.104,0.691 -0.387,1.25 -0.719,1.92 -0.26,0.524 -0.703,1.141 -0.96,1.68 -0.297,0.624 -0.447,1.266 -0.72,1.919 -0.351,0.844 -0.817,1.71 -1.2,2.641 -0.095,0.23 -0.092,0.64 -0.24,0.96 -0.051,0.109 -0.44,0.151 -0.48,0.239 -0.182,0.406 -0.043,0.651 -0.24,0.961 -0.05,0.077 -0.233,0.224 -0.24,0.24 -0.269,0.573 -0.467,1.327 -0.72,1.92 -0.046,0.107 -0.227,-0.016 -0.24,0.241 -0.003,0.063 0.023,0.18 0,0.239 -0.102,0.254 -0.239,0.675 -0.48,1.2 -0.07,0.151 -0.141,0.324 -0.24,0.48 -0.072,0.114 -0.203,0.178 -0.24,0.24 -0.121,0.205 -0.462,0.616 -0.48,0.96 -0.006,0.111 -0.18,0.348 -0.24,0.48 -0.462,1 -1.022,2.468 -1.681,3.6 -0.193,0.206 -0.657,0.143 -0.72,0.48 -1.205,0.28 -2.176,-0.529 -2.879,0 -0.235,0.874 0.037,1.956 0,3.12 -0.038,1.187 -0.438,2.55 -0.24,3.84 4.894,-0.579 9.661,0.198 14.879,0 0.667,-2.144 -0.097,-4.834 -0.239,-6.96 -0.563,-0.443 -1.432,0.326 -2.4,-0.24 0.255,-0.8 0.632,-1.644 0.96,-2.4 0.164,-0.377 0.306,-0.827 0.48,-1.2 0.044,-0.095 0.187,-0.027 0.239,-0.24 0.106,-0.421 0.369,-0.751 0.481,-1.2 0.092,-0.367 0.091,-0.6 0.24,-0.96 0.05,-0.12 0.453,-0.393 0.48,-0.48 0.063,-0.208 -0.089,-0.524 0,-0.72 0.073,-0.163 0.404,-0.343 0.48,-0.48 0.049,-0.088 -0.074,-0.42 0,-0.48 0.14,-0.114 0.53,-0.691 0.72,-1.2 0.652,0.658 0.849,1.608 1.2,2.4 0.052,0.117 0.453,0.393 0.48,0.48 0.172,0.571 0.011,0.754 0.24,1.44 0.028,0.085 0.227,0.002 0.24,0.24 0.029,0.553 0.274,0.426 0.479,0.72 0.061,0.086 -0.078,0.416 0,0.48 0.197,0.161 0.167,0.183 0.241,0.48 -0.002,-0.009 0.219,0.703 0.24,0.72 0.378,0.309 0.885,1.735 0.96,2.64 -0.333,0.627 -2.037,-0.116 -2.4,0.48 -0.342,2.058 -0.611,4.19 -0.72,6.48 -0.039,0.279 0.053,0.427 0.24,0.48 0.194,0.046 0.239,0.24 0.48,0.24 0.192,-0.067 0.242,-0.214 0.48,-0.24 2.766,-0.301 6.324,-0.138 9.359,0 1.79,0.081 3.521,0.624 5.04,0"
                     id="path3064"
                     style="fill:#000000;fill-opacity:1;fill-rule:evenodd;stroke:none" /></g></g></g></g></g></g></g><g
       id="g3066"><g
         clip-path="url(#clipPath3070)"
         id="g3068"><text
           transform="matrix(1,0,0,-0.84811506,8.8984,5.0537)"
           id="text3074"><tspan
             x="0 9.7387762 19.477552 28.534861 32.772343 40.45433 43.997955 51.679943 58.668072 66.35006 71.492027 75.729515 83.411499 91.093483 99.45694 103.00056 110.68255 119.04601 123.28349 130.96547 138.64746"
             y="0"
             id="tspan3076"
             style="font-size:12.3902998px;font-variant:normal;font-weight:300;writing-mode:lr-tb;fill:#000000;fill-opacity:1;fill-rule:nonzero;stroke:none;font-family:Helvetica Neue LT Std;-inkscape-font-specification:Helvetica-Light">www.cloverfoodlab.com</tspan></text>
</g></g></g></svg>
