<?xml version="1.0" encoding="UTF-8" standalone="no"?>
<!-- Created with Inkscape (http://www.inkscape.org/) -->

<svg
   xmlns:dc="http://purl.org/dc/elements/1.1/"
   xmlns:cc="http://creativecommons.org/ns#"
   xmlns:rdf="http://www.w3.org/1999/02/22-rdf-syntax-ns#"
   xmlns:svg="http://www.w3.org/2000/svg"
   xmlns="http://www.w3.org/2000/svg"
   version="1.1"
   width="100%"
   height="100%"
   preserveAspectRatio="xMidYMid meet"
   viewBox="0 0 690 155"
   id="svg3221"
   xml:space="preserve"><metadata
     id="metadata3227"><rdf:RDF><cc:Work
         rdf:about=""><dc:format>image/svg+xml</dc:format><dc:type
           rdf:resource="http://purl.org/dc/dcmitype/StillImage" /><dc:title></dc:title></cc:Work></rdf:RDF></metadata><defs
     id="defs3225" /><g
     transform="matrix(1.25,0,0,-1.25,0,154.2125)"
     id="g3229"><g
       transform="scale(0.1,0.1)"
       id="g3231"><path
         d="m 905.328,1108.93 c 34.524,-1.39 63.637,25.43 65.11,59.89 1.457,34.44 -25.278,63.47 -59.77,64.91 -34.457,1.42 -63.648,-25.34 -65.156,-59.78 -1.52,-34.46 25.343,-63.6 59.816,-65.02"
         id="path3233"
         style="fill:#ed192d;fill-opacity:1;fill-rule:nonzero;stroke:none" /><path
         d="m 906.773,829.055 c 45.75,-1.907 84.395,33.644 86.43,79.281 1.938,45.566 -33.574,84.234 -79.25,86.019 -45.793,1.907 -84.449,-33.558 -86.508,-79.277 -1.883,-45.711 33.547,-84.176 79.328,-86.023"
         id="path3235"
         style="fill:#ed192d;fill-opacity:1;fill-rule:nonzero;stroke:none" /><path
         d="m 1382.11,617.324 c -1.13,-34.551 25.96,-63.465 60.41,-64.609 34.49,-1.199 63.3,25.91 64.4,60.332 1.03,34.535 -25.96,63.422 -60.39,64.699 -34.42,1.082 -63.33,-25.953 -64.42,-60.422"
         id="path3237"
         style="fill:#ed192d;fill-opacity:1;fill-rule:nonzero;stroke:none" /><path
         d="m 1112.05,620.508 c -1.44,-45.809 34.47,-84.09 80.2,-85.633 45.63,-1.621 83.87,34.266 85.26,80.039 1.5,45.731 -34.33,84.102 -79.99,85.629 -45.7,1.598 -83.89,-34.293 -85.47,-80.035"
         id="path3239"
         style="fill:#ed192d;fill-opacity:1;fill-rule:nonzero;stroke:none" /><path
         d="m 517.934,620.363 c -1.422,-45.695 34.414,-83.976 80.097,-85.5 45.625,-1.523 83.887,34.168 85.356,79.992 1.425,45.75 -34.387,83.938 -80.094,85.579 -45.656,1.578 -83.902,-34.282 -85.359,-80.071"
         id="path3241"
         style="fill:#ed192d;fill-opacity:1;fill-rule:nonzero;stroke:none" /><path
         d="m 1249.53,957.633 c 23.73,-25.09 63.27,-26.274 88.43,-2.656 25.06,23.597 26.18,63.133 2.44,88.343 -23.62,24.95 -63.27,26.21 -88.43,2.62 -25.04,-23.66 -26.17,-63.221 -2.44,-88.307"
         id="path3243"
         style="fill:#ed192d;fill-opacity:1;fill-rule:nonzero;stroke:none" /><path
         d="m 1055.93,769.02 c 31.5,-33.188 83.92,-34.786 117.22,-3.508 33.25,31.324 34.8,83.703 3.35,116.91 -31.42,33.301 -83.88,34.883 -117.18,3.633 -33.25,-31.313 -34.78,-83.7 -3.39,-117.035"
         id="path3245"
         style="fill:#ed192d;fill-opacity:1;fill-rule:nonzero;stroke:none" /><path
         d="m 635.906,885.52 c -33.051,-31.79 -34.105,-84.219 -2.472,-117.231 31.589,-33.016 83.925,-34.008 116.949,-2.293 32.945,31.692 34.09,84.156 2.453,117.172 -31.52,32.98 -83.941,34.023 -116.93,2.352"
         id="path3247"
         style="fill:#ed192d;fill-opacity:1;fill-rule:nonzero;stroke:none" /><path
         d="m 481.82,1045.06 c -24.91,-23.98 -25.687,-63.58 -1.902,-88.458 23.887,-24.903 63.398,-25.664 88.25,-1.723 24.883,23.941 25.699,63.511 1.922,88.391 -23.875,24.93 -63.379,25.74 -88.27,1.79"
         id="path3249"
         style="fill:#ed192d;fill-opacity:1;fill-rule:nonzero;stroke:none" /><path
         d="M 601.586,124.797 C 567.059,126.184 537.953,99.3555 536.473,64.9023 535.023,30.4609 561.754,1.4375 596.246,0 c 34.461,-1.42578 63.652,25.332 65.16,59.7656 1.52,34.4649 -25.344,63.6054 -59.82,65.0314"
         id="path3251"
         style="fill:#8f1d3f;fill-opacity:1;fill-rule:nonzero;stroke:none" /><path
         d="m 600.141,404.668 c -45.758,1.906 -84.387,-33.652 -86.43,-79.285 -1.934,-45.567 33.578,-84.231 79.254,-86.016 45.793,-1.906 84.453,33.555 86.512,79.278 1.886,45.71 -33.555,84.167 -79.336,86.023"
         id="path3253"
         style="fill:#8f1d3f;fill-opacity:1;fill-rule:nonzero;stroke:none" /><path
         d="M 124.809,616.398 C 125.922,650.938 98.8477,679.863 64.4023,681 29.9102,682.199 1.09375,655.098 0,620.684 c -1.03125,-34.539 25.9414,-63.438 60.3867,-64.715 34.418,-1.086 63.3323,25.957 64.4223,60.429"
         id="path3255"
         style="fill:#8f1d3f;fill-opacity:1;fill-rule:nonzero;stroke:none" /><path
         d="m 394.879,613.195 c 1.422,45.821 -34.488,84.102 -80.211,85.649 -45.641,1.625 -83.871,-34.258 -85.266,-80.035 -1.492,-45.743 34.332,-84.09 80,-85.633 45.696,-1.602 83.883,34.297 85.477,80.019"
         id="path3257"
         style="fill:#8f1d3f;fill-opacity:1;fill-rule:nonzero;stroke:none" /><path
         d="m 988.98,613.352 c 1.426,45.695 -34.414,83.976 -80.097,85.515 -45.625,1.516 -83.895,-34.187 -85.352,-80.008 -1.426,-45.742 34.383,-83.937 80.09,-85.578 45.652,-1.582 83.906,34.278 85.359,80.071"
         id="path3259"
         style="fill:#8f1d3f;fill-opacity:1;fill-rule:nonzero;stroke:none" /><path
         d="m 257.383,276.074 c -23.715,25.11 -63.266,26.281 -88.43,2.668 -25.047,-23.605 -26.176,-63.125 -2.441,-88.34 23.617,-24.953 63.269,-26.211 88.429,-2.629 25.059,23.672 26.176,63.235 2.442,88.301"
         id="path3261"
         style="fill:#8f1d3f;fill-opacity:1;fill-rule:nonzero;stroke:none" /><path
         d="m 450.984,464.699 c -31.492,33.184 -83.914,34.785 -117.218,3.516 -33.254,-31.328 -34.801,-83.711 -3.356,-116.914 31.414,-33.313 83.887,-34.883 117.188,-3.625 33.25,31.301 34.781,83.691 3.386,117.023"
         id="path3263"
         style="fill:#8f1d3f;fill-opacity:1;fill-rule:nonzero;stroke:none" /><path
         d="m 871.008,348.203 c 33.051,31.777 34.113,84.219 2.476,117.227 -31.593,33.019 -83.925,34.004 -116.953,2.297 -32.945,-31.7 -34.09,-84.161 -2.449,-117.18 31.52,-32.977 83.941,-34.024 116.926,-2.344"
         id="path3265"
         style="fill:#8f1d3f;fill-opacity:1;fill-rule:nonzero;stroke:none" /><path
         d="m 1025.09,188.664 c 24.91,23.984 25.69,63.582 1.92,88.457 -23.9,24.902 -63.412,25.66 -88.276,1.719 -24.871,-23.945 -25.683,-63.508 -1.91,-88.391 23.875,-24.929 63.376,-25.75 88.266,-1.785"
         id="path3267"
         style="fill:#8f1d3f;fill-opacity:1;fill-rule:nonzero;stroke:none" /><path
         d="m 2042.6,544.719 56.45,0 c 31.56,0 57.74,-11.828 57.74,-54.133 0,-41.797 -24.25,-54.637 -56.24,-54.637 l -24.46,0 0,-69.504 -33.49,0 0,178.274 z m 33.49,-75.539 22.32,0 c 11.8,0 23.61,4.785 23.61,21.406 0,18.391 -15.88,20.898 -28.76,20.898 l -17.17,0 0,-42.304"
         id="path3269"
         style="fill:#ed192d;fill-opacity:1;fill-rule:nonzero;stroke:none" /><path
         d="m 2348.91,435.188 c 0,-42.043 -21.9,-73.274 -63.97,-73.274 -42.29,0 -64.19,31.231 -64.19,73.274 l 0,109.531 33.49,0 0,-108.02 c 0,-21.902 12.88,-38.515 30.7,-38.515 17.6,0 30.49,16.613 30.49,38.515 l 0,108.02 33.48,0 0,-109.531"
         id="path3271"
         style="fill:#ed192d;fill-opacity:1;fill-rule:nonzero;stroke:none" /><path
         d="m 2422.75,544.719 56.67,0 c 26.62,0 55.59,-6.543 55.59,-45.313 0,-19.902 -10.51,-33.5 -26.18,-39.289 l 0,-0.508 c 19.97,-3.015 33.26,-20.39 33.26,-43.554 0,-37.266 -30.04,-49.61 -57.09,-49.61 l -62.25,0 0,178.274 z m 33.48,-71.262 24.26,0 c 10.3,0 21.04,5.051 21.04,19.395 0,14.855 -12.03,18.632 -22.53,18.632 l -22.77,0 0,-38.027 z m 0,-73.769 30.06,0 c 10.51,0 22.32,5.285 22.32,20.898 0,16.867 -16.09,19.648 -27.04,19.648 l -25.34,0 0,-40.546"
         id="path3273"
         style="fill:#ed192d;fill-opacity:1;fill-rule:nonzero;stroke:none" /><path
         d="m 2606.06,544.719 33.5,0 0,-142.012 62.03,0 0,-36.262 -95.53,0 0,178.274"
         id="path3275"
         style="fill:#ed192d;fill-opacity:1;fill-rule:nonzero;stroke:none" /><path
         d="m 2762.55,366.445 33.4805,0 0,178.273 -33.4805,0 0,-178.273 z"
         id="path3277"
         style="fill:#ed192d;fill-opacity:1;fill-rule:nonzero;stroke:none" /><path
         d="m 2968.83,498.391 c -6.65,9.316 -16.31,14.617 -28.76,14.617 -25.34,0 -44.01,-24.188 -44.01,-57.422 0,-33.242 18.67,-57.402 42.94,-57.402 13.52,0 24.46,7.05 31.34,19.121 l 27.91,-24.414 c -12.66,-21.161 -34.14,-30.977 -54.96,-30.977 -47.44,0 -82.01,36.516 -82.01,93.672 0,57.168 34.57,93.672 82.01,93.672 16.96,0 38.42,-6.805 51.29,-26.192 l -25.75,-24.675"
         id="path3279"
         style="fill:#ed192d;fill-opacity:1;fill-rule:nonzero;stroke:none" /><path
         d="m 3241.02,501.172 c -5.37,8.047 -16.1,11.836 -24.26,11.836 -9.44,0 -22.54,-5.047 -22.54,-18.387 0,-32.492 69.97,-11.582 69.97,-74.035 0,-39.785 -27.25,-58.672 -58.6,-58.672 -19.53,0 -36.7,6.809 -51.08,22.414 l 23.82,30.723 c 6.88,-10.578 18.04,-16.867 29.21,-16.867 10.94,0 23.17,6.027 23.17,18.632 0,32.727 -71.26,15.098 -71.26,74.524 0,38.027 28.13,57.918 57.95,57.918 17.17,0 33.71,-5.293 46.6,-18.641 l -22.98,-29.445"
         id="path3281"
         style="fill:#ed192d;fill-opacity:1;fill-rule:nonzero;stroke:none" /><path
         d="m 3333.31,544.719 103.26,0 0,-36.25 -69.77,0 0,-33.242 65.91,0 0,-36.262 -65.91,0 0,-36.258 73.63,0 0,-36.262 -107.12,0 0,178.274"
         id="path3283"
         style="fill:#ed192d;fill-opacity:1;fill-rule:nonzero;stroke:none" /><path
         d="m 3510.2,544.719 58.81,0 c 31.13,0 57.31,-12.578 57.31,-54.133 0,-24.93 -11.37,-44.316 -32.84,-48.848 l 38.63,-75.293 -40.13,0 -31.77,71.262 -16.54,0 0,-71.262 -33.47,0 0,178.274 z m 33.47,-73.781 19.76,0 c 12.22,0 28.1,0.519 28.1,19.902 0,17.883 -13.73,20.644 -25.95,20.644 l -21.91,0 0,-40.546"
         id="path3285"
         style="fill:#ed192d;fill-opacity:1;fill-rule:nonzero;stroke:none" /><path
         d="m 3677.2,544.719 38.2,0 37.56,-116.828 0.44,0 38.2,116.828 35.86,0 -62.69,-178.274 -26.82,0 -60.75,178.274"
         id="path3287"
         style="fill:#ed192d;fill-opacity:1;fill-rule:nonzero;stroke:none" /><path
         d="m 3885.84,366.445 33.4883,0 0,178.273 -33.4883,0 0,-178.273 z"
         id="path3289"
         style="fill:#ed192d;fill-opacity:1;fill-rule:nonzero;stroke:none" /><path
         d="m 4092.13,498.391 c -6.65,9.316 -16.32,14.617 -28.76,14.617 -25.33,0 -44.01,-24.188 -44.01,-57.422 0,-33.242 18.68,-57.402 42.94,-57.402 13.51,0 24.46,7.05 31.32,19.121 l 27.9,-24.414 c -12.65,-21.161 -34.12,-30.977 -54.95,-30.977 -47.44,0 -81.98,36.516 -81.98,93.672 0,57.168 34.54,93.672 81.98,93.672 16.97,0 38.43,-6.805 51.31,-26.192 l -25.75,-24.675"
         id="path3291"
         style="fill:#ed192d;fill-opacity:1;fill-rule:nonzero;stroke:none" /><path
         d="m 4184,544.719 103.25,0 0,-36.25 -69.77,0 0,-33.242 65.9,0 0,-36.262 -65.9,0 0,-36.258 73.64,0 0,-36.262 -107.12,0 0,178.274"
         id="path3293"
         style="fill:#ed192d;fill-opacity:1;fill-rule:nonzero;stroke:none" /><path
         d="m 4566.73,498.391 c -6.65,9.316 -16.31,14.617 -28.77,14.617 -25.32,0 -44,-24.188 -44,-57.422 0,-33.242 18.68,-57.402 42.92,-57.402 13.54,0 24.47,7.05 31.35,19.121 l 27.9,-24.414 c -12.65,-21.161 -34.13,-30.977 -54.95,-30.977 -47.44,0 -82,36.516 -82,93.672 0,57.168 34.56,93.672 82,93.672 16.95,0 38.43,-6.805 51.31,-26.192 l -25.76,-24.675"
         id="path3295"
         style="fill:#ed192d;fill-opacity:1;fill-rule:nonzero;stroke:none" /><path
         d="m 4658.6,544.719 103.26,0 0,-36.25 -69.78,0 0,-33.242 65.9,0 0,-36.262 -65.9,0 0,-36.258 73.64,0 0,-36.262 -107.12,0 0,178.274"
         id="path3297"
         style="fill:#ed192d;fill-opacity:1;fill-rule:nonzero;stroke:none" /><path
         d="m 4835.47,544.719 45.51,0 64.61,-123.879 0.43,0 0,123.879 33.48,0 0,-178.274 -43.78,0 -66.33,126.914 -0.42,0 0,-126.914 -33.5,0 0,178.274"
         id="path3299"
         style="fill:#ed192d;fill-opacity:1;fill-rule:nonzero;stroke:none" /><path
         d="m 5082.74,509.973 -43.35,0 0,34.746 120.22,0 0,-34.746 -43.36,0 0,-143.528 -33.51,0 0,143.528"
         id="path3301"
         style="fill:#ed192d;fill-opacity:1;fill-rule:nonzero;stroke:none" /><path
         d="m 5220.78,544.719 103.25,0 0,-36.25 -69.77,0 0,-33.242 65.91,0 0,-36.262 -65.91,0 0,-36.258 73.64,0 0,-36.262 -107.12,0 0,178.274"
         id="path3303"
         style="fill:#ed192d;fill-opacity:1;fill-rule:nonzero;stroke:none" /><path
         d="m 5397.66,544.719 58.81,0 c 31.14,0 57.32,-12.578 57.32,-54.133 0,-24.93 -11.37,-44.316 -32.85,-48.848 l 38.64,-75.293 -40.15,0 -31.75,71.262 -16.53,0 0,-71.262 -33.49,0 0,178.274 z m 33.49,-73.781 19.74,0 c 12.23,0 28.12,0.519 28.12,19.902 0,17.883 -13.73,20.644 -25.97,20.644 l -21.89,0 0,-40.546"
         id="path3305"
         style="fill:#ed192d;fill-opacity:1;fill-rule:nonzero;stroke:none" /><path
         d="m 2039.61,682.133 0,204.523 55.07,0 25.65,-139.082 0.47,0 27.2,139.082 53.2,0 0,-204.523 -33.29,0 0,157.859 -0.46,0 -31.55,-157.859 -32.66,0 -29.84,157.859 -0.41,0 0,-157.859 -33.38,0"
         id="path3307"
         style="fill:#8f1d3f;fill-opacity:1;fill-rule:nonzero;stroke:none" /><path
         d="m 2256.03,682.133 34.2617,0 0,204.523 -34.2617,0 0,-204.523 z"
         id="path3309"
         style="fill:#8f1d3f;fill-opacity:1;fill-rule:nonzero;stroke:none" /><path
         d="m 2438.14,886.656 0,-33.937 -38.06,0 0,-170.586 -34.19,0 0,170.586 -38.18,0 0,33.937 110.43,0"
         id="path3311"
         style="fill:#8f1d3f;fill-opacity:1;fill-rule:nonzero;stroke:none" /><path
         d="m 1754.36,111.035 13.1875,0 0,1056.67 -13.1875,0 0,-1056.67 z"
         id="path3313"
         style="fill:#8f1d3f;fill-opacity:1;fill-rule:nonzero;stroke:none" /></g></g></svg>
