<?xml version="1.0" encoding="UTF-8" standalone="no"?>
<!-- Created with Inkscape (http://www.inkscape.org/) -->

<svg
   xmlns:dc="http://purl.org/dc/elements/1.1/"
   xmlns:cc="http://creativecommons.org/ns#"
   xmlns:rdf="http://www.w3.org/1999/02/22-rdf-syntax-ns#"
   xmlns:svg="http://www.w3.org/2000/svg"
   xmlns="http://www.w3.org/2000/svg"
   version="1.1"
   width="100%"
   height="100%"
   preserveAspectRatio="xMidYMid meet"
   viewBox="0 0 103 39"
   id="svg3424"
   xml:space="preserve"><metadata
     id="metadata3430"><rdf:RDF><cc:Work
         rdf:about=""><dc:format>image/svg+xml</dc:format><dc:type
           rdf:resource="http://purl.org/dc/dcmitype/StillImage" /><dc:title></dc:title></cc:Work></rdf:RDF></metadata><defs
     id="defs3428" /><g
     transform="matrix(1.25,0,0,-1.25,0,38.3375)"
     id="g3432"><g
       transform="scale(0.1,0.1)"
       id="g3434"><path
         d="m 169.48,63.0391 235.012,0 C 404.16,58.1289 399.66,44.7227 397.539,41.5977 l -228.059,0 0,21.4414"
         id="path3436"
         style="fill:#4d7ec9;fill-opacity:1;fill-rule:nonzero;stroke:none" /><path
         d="m 169.488,266.129 228.442,0 c 1.965,-3.531 6.406,-16.879 6.965,-21.441 l -235.407,0 0,21.441"
         id="path3438"
         style="fill:#4d7ec9;fill-opacity:1;fill-rule:nonzero;stroke:none" /><path
         d="m 211.855,144.273 163.02,0 c 5.309,-3.722 15.152,-15.949 19.09,-21.441 l -182.11,0 0,21.441"
         id="path3440"
         style="fill:#4d7ec9;fill-opacity:1;fill-rule:nonzero;stroke:none" /><path
         d="m 338.977,82.2109 67.949,0 c 0.176,5.6055 -2.031,17.1407 -3.711,21.4411 l -64.238,0 0,-21.4411"
         id="path3442"
         style="fill:#4d7ec9;fill-opacity:1;fill-rule:nonzero;stroke:none" /><path
         d="m 211.855,163.453 163.274,0 c 5.309,3.727 15.066,15.945 19.004,21.442 l -182.278,0 0,-21.442"
         id="path3444"
         style="fill:#4d7ec9;fill-opacity:1;fill-rule:nonzero;stroke:none" /><path
         d="m 338.977,225.508 67.695,0 c -0.024,-4.969 -1.867,-17.133 -3.535,-21.442 l -64.16,0 0,21.442"
         id="path3446"
         style="fill:#4d7ec9;fill-opacity:1;fill-rule:nonzero;stroke:none" /><path
         d="m 169.48,22.418 212.493,0 C 363.145,6.46094 346.516,0.976562 317.344,0.976562 l -147.864,0 0,21.441438"
         id="path3448"
         style="fill:#4d7ec9;fill-opacity:1;fill-rule:nonzero;stroke:none" /><path
         d="m 169.488,285.309 212.485,0 c -18.828,15.961 -35.457,21.441 -64.629,21.441 l -147.856,0 0,-21.441"
         id="path3450"
         style="fill:#4d7ec9;fill-opacity:1;fill-rule:nonzero;stroke:none" /><path
         d="m 0,285.309 148.301,0 0,21.4414 -148.301,0 0,-21.4414 z"
         id="path3452"
         style="fill:#4d7ec9;fill-opacity:1;fill-rule:nonzero;stroke:none" /><path
         d="m 0,244.688 148.301,0 0,21.4414 -148.301,0 0,-21.4414 z"
         id="path3454"
         style="fill:#4d7ec9;fill-opacity:1;fill-rule:nonzero;stroke:none" /><path
         d="m 0,41.5977 148.301,0 0,21.4414 -148.301,0 0,-21.4414 z"
         id="path3456"
         style="fill:#4d7ec9;fill-opacity:1;fill-rule:nonzero;stroke:none" /><path
         d="m 42.3672,82.2109 63.5625,0 0,21.4414 -63.5625,0 0,-21.4414 z"
         id="path3458"
         style="fill:#4d7ec9;fill-opacity:1;fill-rule:nonzero;stroke:none" /><path
         d="m 42.3672,122.832 63.5625,0 0,21.4414 -63.5625,0 0,-21.4414 z"
         id="path3460"
         style="fill:#4d7ec9;fill-opacity:1;fill-rule:nonzero;stroke:none" /><path
         d="m 42.3672,163.453 63.5625,0 0,21.4414 -63.5625,0 0,-21.4414 z"
         id="path3462"
         style="fill:#4d7ec9;fill-opacity:1;fill-rule:nonzero;stroke:none" /><path
         d="m 42.3672,204.066 63.5625,0 0,21.4414 -63.5625,0 0,-21.4414 z"
         id="path3464"
         style="fill:#4d7ec9;fill-opacity:1;fill-rule:nonzero;stroke:none" /><path
         d="m 211.855,82.2109 63.5547,0 0,21.4414 -63.5547,0 0,-21.4414 z"
         id="path3466"
         style="fill:#4d7ec9;fill-opacity:1;fill-rule:nonzero;stroke:none" /><path
         d="m 211.855,204.066 63.5547,0 0,21.4414 -63.5547,0 0,-21.4414 z"
         id="path3468"
         style="fill:#4d7ec9;fill-opacity:1;fill-rule:nonzero;stroke:none" /><path
         d="m 563.809,82.2109 58.789,0 7.461,21.4411 -73.711,0 7.461,-21.4411"
         id="path3470"
         style="fill:#4d7ec9;fill-opacity:1;fill-rule:nonzero;stroke:none" /><path
         d="m 549.668,122.832 87.07,0 7.461,21.441 -101.992,0 7.461,-21.441"
         id="path3472"
         style="fill:#4d7ec9;fill-opacity:1;fill-rule:nonzero;stroke:none" /><path
         d="m 0,0.976562 148.301,0 0,21.4414 -148.301,0 0,-21.4414 z"
         id="path3474"
         style="fill:#4d7ec9;fill-opacity:1;fill-rule:nonzero;stroke:none" /><path
         d="m 592.102,0.976562 2.207,0 7.468,21.441438 -17.148,0 7.473,-21.441438"
         id="path3476"
         style="fill:#4d7ec9;fill-opacity:1;fill-rule:nonzero;stroke:none" /><path
         d="m 466.086,82.2109 63.5625,0 0,21.4414 -63.5625,0 0,-21.4414 z"
         id="path3478"
         style="fill:#4d7ec9;fill-opacity:1;fill-rule:nonzero;stroke:none" /><path
         d="m 466.086,122.832 63.5625,0 0,21.4414 -63.5625,0 0,-21.4414 z"
         id="path3480"
         style="fill:#4d7ec9;fill-opacity:1;fill-rule:nonzero;stroke:none" /><path
         d="m 423.723,0.976562 105.918,0 0,21.4414 -105.918,0 0,-21.4414 z"
         id="path3482"
         style="fill:#4d7ec9;fill-opacity:1;fill-rule:nonzero;stroke:none" /><path
         d="m 423.723,41.5977 105.918,0 0,21.4414 -105.918,0 0,-21.4414 z"
         id="path3484"
         style="fill:#4d7ec9;fill-opacity:1;fill-rule:nonzero;stroke:none" /><path
         d="m 577.961,41.5977 30.496,0 7.461,21.4414 -45.43,0 7.473,-21.4414"
         id="path3486"
         style="fill:#4d7ec9;fill-opacity:1;fill-rule:nonzero;stroke:none" /><path
         d="m 656.77,82.2109 63.5508,0 0,21.4414 -63.5508,0 0,-21.4414 z"
         id="path3488"
         style="fill:#4d7ec9;fill-opacity:1;fill-rule:nonzero;stroke:none" /><path
         d="m 656.77,122.832 63.5508,0 0,21.4414 -63.5508,0 0,-21.4414 z"
         id="path3490"
         style="fill:#4d7ec9;fill-opacity:1;fill-rule:nonzero;stroke:none" /><path
         d="m 656.758,0.976562 105.938,0 0,21.4414 -105.938,0 0,-21.4414 z"
         id="path3492"
         style="fill:#4d7ec9;fill-opacity:1;fill-rule:nonzero;stroke:none" /><path
         d="m 656.77,41.5977 105.926,0 0,21.4414 -105.926,0 0,-21.4414 z"
         id="path3494"
         style="fill:#4d7ec9;fill-opacity:1;fill-rule:nonzero;stroke:none" /><path
         d="m 572.059,225.508 -105.973,0 0,-21.442 113.574,0 -7.601,21.442"
         id="path3496"
         style="fill:#4d7ec9;fill-opacity:1;fill-rule:nonzero;stroke:none" /><path
         d="m 599.961,184.895 -6.758,-19.247 -6.746,19.247 -120.363,0 0,-21.442 63.554,0 0,16.891 5.879,-16.891 115.352,0 5.879,16.891 0,-0.125 0.012,0.008 0,-16.774 63.55,0 0,21.442 -120.359,0"
         id="path3498"
         style="fill:#4d7ec9;fill-opacity:1;fill-rule:nonzero;stroke:none" /><path
         d="m 543.293,306.742 -119.57,0 0,-21.433 127.168,0 -7.598,21.433"
         id="path3500"
         style="fill:#4d7ec9;fill-opacity:1;fill-rule:nonzero;stroke:none" /><path
         d="m 557.676,266.129 -133.953,0 0,-21.441 141.55,0 -7.597,21.441"
         id="path3502"
         style="fill:#4d7ec9;fill-opacity:1;fill-rule:nonzero;stroke:none" /><path
         d="m 614.348,225.508 105.972,0 0,-21.442 -113.57,0 7.598,21.442"
         id="path3504"
         style="fill:#4d7ec9;fill-opacity:1;fill-rule:nonzero;stroke:none" /><path
         d="m 643.113,306.742 119.582,0 0,-21.433 -127.168,0 7.586,21.433"
         id="path3506"
         style="fill:#4d7ec9;fill-opacity:1;fill-rule:nonzero;stroke:none" /><path
         d="m 628.73,266.129 133.965,0 0,-21.441 -141.562,0 7.597,21.441"
         id="path3508"
         style="fill:#4d7ec9;fill-opacity:1;fill-rule:nonzero;stroke:none" /><path
         d="m 785.82,16.9375 c 0,9.2266 7.5,16.7578 16.758,16.7578 9.231,0 16.68,-7.5312 16.68,-16.7578 0,-9.30469 -7.449,-16.8398438 -16.68,-16.8398438 -9.258,0 -16.758,7.5351538 -16.758,16.8398438 z m 30.789,0 c 0,8.1602 -5.918,14.543 -14.031,14.543 -8.152,0 -14.109,-6.3828 -14.109,-14.543 0,-8.24219 5.957,-14.62109 14.109,-14.62109 8.113,0 14.031,6.3789 14.031,14.62109 z m -5.691,-9.39453 -2.734,0 -5.34,8.64453 -4.192,0 0,-8.64453 -2.297,0 0,18.75003 8.165,0 c 4.945,0 6.625,-1.8594 6.625,-4.9649 0,-3.6758 -2.559,-5.0469 -5.872,-5.1406 l 5.645,-8.64453 z m -8.777,10.46483 c 2.644,0 6.531,-0.4453 6.531,3.3711 0,2.918 -2.383,3.2734 -4.676,3.2734 l -5.344,0 0,-6.6445 3.489,0"
         id="path3510"
         style="fill:#4d7ec9;fill-opacity:1;fill-rule:nonzero;stroke:none" /></g></g></svg>
