<?xml version="1.0" encoding="UTF-8" standalone="no"?>
<svg
   xmlns:dc="http://purl.org/dc/elements/1.1/"
   xmlns:cc="http://creativecommons.org/ns#"
   xmlns:rdf="http://www.w3.org/1999/02/22-rdf-syntax-ns#"
   xmlns:svg="http://www.w3.org/2000/svg"
   xmlns="http://www.w3.org/2000/svg"
   xmlns:sodipodi="http://sodipodi.sourceforge.net/DTD/sodipodi-0.dtd"
   xmlns:inkscape="http://www.inkscape.org/namespaces/inkscape"
   version="1.1"
   width="100%"
   height="100%"
   preserveAspectRatio="xMidYMid meet"
   viewBox="0 0 300 49"
   id="svg4792"
   inkscape:version="0.48.3.1 r9886"
   sodipodi:docname="logo_web.svg">
  <metadata
     id="metadata37">
    <rdf:RDF>
      <cc:Work
         rdf:about="">
        <dc:format>image/svg+xml</dc:format>
        <dc:type
           rdf:resource="http://purl.org/dc/dcmitype/StillImage" />
      </cc:Work>
    </rdf:RDF>
  </metadata>
  <sodipodi:namedview
     pagecolor="#ffffff"
     bordercolor="#666666"
     borderopacity="1"
     objecttolerance="10"
     gridtolerance="10"
     guidetolerance="10"
     inkscape:pageopacity="0"
     inkscape:pageshadow="2"
     inkscape:window-width="1327"
     inkscape:window-height="797"
     id="namedview35"
     showgrid="false"
     inkscape:zoom="2.0223254"
     inkscape:cx="153.66295"
     inkscape:cy="45.490677"
     inkscape:window-x="0"
     inkscape:window-y="25"
     inkscape:window-maximized="0"
     inkscape:current-layer="svg4792" />
  <defs
     id="defs4794" />
  <g
     transform="matrix(0.75384615,0,0,0.75384615,-3.1699592e-6,-744.31881)"
     id="layer1">
    <g
       transform="matrix(0.92932905,0,0,0.92932905,115.3753,-62.289842)"
       id="g4825">
      <g
         id="text3783-5"
         style="font-size:57.41185379px;font-style:normal;font-weight:normal;fill:#803300;fill-opacity:1;stroke:none;font-family:Bitstream Vera Sans">
        <g
           transform="matrix(0.63369314,-0.11561985,0.11561985,0.63369314,-192.78655,450.83289)"
           id="g4162-5-7-2"
           style="font-size:57.41185379px;font-style:normal;font-weight:normal;fill:#803300;fill-opacity:1;stroke:none;font-family:Bitstream Vera Sans">
          <path
             d="m -42.06273,1064.4315 c -8.755564,0.2304 -17.603244,2.5991 -25.717806,7.2839 -0.774916,0.4475 -1.496939,0.9218 -2.241196,1.4008 l 4.706508,1.2327 6.331456,1.6809 -1.680887,6.3313 -0.896479,3.2497 c 0.451466,-0.2854 0.877653,-0.5707 1.344728,-0.8403 18.748917,-10.8248 42.739752,-4.4053 53.5645435,14.3436 10.8246048,18.7489 4.4052741,42.7398 -14.3436425,53.5646 -18.74913,10.8247 -42.739948,4.3493 -53.564557,-14.3998 -8.532852,-14.7793 -6.343476,-32.7817 4.146213,-45.048 l 3.36179,-12.5507 -9.637136,-2.5774 c -18.893089,16.7529 -24.043715,45.0195 -10.925914,67.7402 14.99162,25.9661 48.217226,34.8823 74.183535,19.8905 C 12.5349,1150.7419 21.450732,1117.5163 6.4591214,1091.55 -3.8476804,1073.6982 -22.80049,1063.925 -42.06273,1064.4315 z"
             id="path2843-4-1-4-8-1-4-8-2-8-9-7-4"
             style="fill:#abc837;fill-opacity:1;stroke:none"
             inkscape:connector-curvature="0" />
          <path
             d="m -42.488929,1081.8114 c -19.509327,0.9888 -35.018571,17.1684 -35.018571,36.9236 0,6.2841 1.601289,12.1892 4.370329,17.3692 1.293259,-8.157 6.847118,-9.7131 6.219226,-12.4386 -0.475851,-2.0655 -0.540398,-2.1914 -2.073016,-5.0988 -0.818664,-1.6883 -1.737015,-4.1125 -1.737015,-5.827 0,-6.3628 4.961107,-11.4862 11.093906,-11.4862 6.132818,0 11.093917,5.1232 11.093917,11.4862 0,4.3438 -2.293006,8.1783 -5.715047,10.1414 -0.02868,0 -0.02152,-3e-4 -0.05557,0 -1.159166,0.6535 -2.447933,1.1553 -3.810033,1.3447 -0.610692,0.746 -0.7448,1.8953 0.392285,3.7539 3.268913,5.3444 4.291263,-6.5204 15.912482,-3.5859 0.612656,0.1542 0.818134,0.2288 1.232662,0.3363 0.414363,-0.1075 0.61982,-0.1812 1.232659,-0.3363 11.621219,-2.9344 12.643383,8.9303 15.912481,3.5859 1.136899,-1.8584 1.002981,-3.0079 0.392124,-3.7539 -1.362122,-0.1894 -2.650705,-0.6912 -3.810033,-1.3447 -0.03407,-3e-4 -0.02868,0 -0.05559,0 -3.421855,-1.9631 -5.715047,-5.7976 -5.715047,-10.1414 0,-6.363 4.96112,-11.4862 11.093916,-11.4862 6.132983,0 11.093916,5.1234 11.093916,11.4862 0,1.7145 -0.918351,4.1387 -1.736833,5.827 -1.532803,2.9074 -1.59736,3.0333 -2.0732,5.0988 -0.627707,2.7255 4.9259752,4.2816 6.2194079,12.4386 2.7688695,-5.18 4.3703371,-11.0851 4.3703371,-17.3692 0,-20.3924 -16.531416,-36.9236 -36.923785,-36.9236 -0.637207,0 -1.275676,-0.032 -1.905017,0 z m 1.905016,43.8713 c -3.667497,0.6436 -11.885324,2.6584 -14.175462,12.7188 -0.08428,0.3706 0.868873,11.0332 1.288605,14.9038 4.011728,1.4941 8.354618,2.3534 12.886857,2.3534 4.53224,0 8.87513,-0.8593 12.886858,-2.3534 0.419732,-3.8706 1.373045,-14.5332 1.288791,-14.9038 -2.290321,-10.0606 -10.508148,-12.0752 -14.175649,-12.7188 z"
             id="path3415-6-7-8-08-4-2-8-1-8-7-7-0"
             style="fill:#0066ff;fill-opacity:1;stroke:none"
             inkscape:connector-curvature="0" />
          <path
             d="m 66.543799,202.90674 a 4.4194174,4.4194174 0 1 1 -8.838834,0 4.4194174,4.4194174 0 1 1 8.838834,0 z"
             transform="matrix(0.98165293,0,0,0.98165293,-101.56843,919.52792)"
             id="path5008-1-2-4-3-5-6-6-8-1-6"
             style="fill:#aaeeff;fill-opacity:1;stroke:none"
             inkscape:connector-curvature="0" />
        </g>
        <g
           transform="matrix(1.3093585,0,0,1.3093585,298.46931,688.90971)"
           id="flowRoot3573-2-2"
           style="font-size:9.02700043px;font-variant:normal;font-weight:300;font-stretch:normal;text-align:start;line-height:125%;letter-spacing:0px;word-spacing:0px;writing-mode:lr-tb;text-anchor:start;fill:#000000;font-family:Mayberry Pro;-inkscape-font-specification:Mayberry Pro Light">
          <path
             d="m -239.08001,368.73552 0,-10.94486 -0.98115,0 -3.99225,9.79455 -3.99225,-9.79455 -1.06573,0 0,10.94486 0.67665,0 0,-10.09904 4.12759,10.09904 0.4229,0 4.05993,-10.09904 0,10.09904 0.74431,0"
             id="path3303"
             style="font-style:normal;font-variant:normal;font-weight:normal;font-stretch:normal;font-family:Colaborate-Thin;-inkscape-font-specification:Colaborate-Thin"
             inkscape:connector-curvature="0" />
          <path
             d="m -233.0793,368.73552 0,-10.94486 -0.77814,0 0,10.94486 0.77814,0"
             id="path3305"
             style="font-style:normal;font-variant:normal;font-weight:normal;font-stretch:normal;font-family:Colaborate-Thin;-inkscape-font-specification:Colaborate-Thin"
             inkscape:connector-curvature="0" />
          <path
             d="m -221.58607,358.43348 0,-0.64282 -7.47702,0 0,0.64282 3.34944,0 0,10.30204 0.77814,0 0,-10.30204 3.34944,0"
             id="path3307"
             style="font-style:normal;font-variant:normal;font-weight:normal;font-stretch:normal;font-family:Colaborate-Thin;-inkscape-font-specification:Colaborate-Thin"
             inkscape:connector-curvature="0" />
          <path
             d="m -205.4642,365.94432 c 0,-2.1822 -1.69163,-2.80811 -3.24793,-3.34942 -1.26872,-0.43984 -2.41903,-0.91348 -2.41903,-2.21604 0,-1.62396 1.21796,-2.13146 2.68969,-2.13146 1.04881,0 1.70855,0.28758 2.33445,0.55824 l 0.30449,-0.71049 c -0.89655,-0.30449 -1.79313,-0.47365 -2.53744,-0.47365 -2.01304,0 -3.60318,0.74432 -3.60318,2.75736 0,1.89461 1.47174,2.48669 2.92652,2.99418 1.40406,0.49057 2.74045,0.99805 2.74045,2.60511 0,1.92846 -1.60704,2.40212 -2.87577,2.40212 -0.89657,0 -1.67472,-0.25374 -2.48671,-0.55823 l -0.30449,0.71049 c 0.93039,0.25372 1.82696,0.47364 2.77428,0.47364 2.01304,0 3.70467,-0.72741 3.70467,-3.06185"
             id="path3309"
             style="font-style:normal;font-variant:normal;font-weight:normal;font-stretch:normal;font-family:Colaborate-Thin;-inkscape-font-specification:Colaborate-Thin"
             inkscape:connector-curvature="0" />
          <path
             d="m -192.80823,364.72634 0,-6.93568 -0.77816,0 0,6.73269 c 0,2.82503 -0.79506,3.85692 -2.96034,3.85692 -2.35137,0 -3.18027,-0.89657 -3.18027,-3.85692 l 0,-6.73269 -0.77816,0 0,6.90186 c 0,2.92652 1.04881,4.31365 3.95843,4.31365 2.62202,0 3.7385,-1.37022 3.7385,-4.27983"
             id="path3311"
             style="font-style:normal;font-variant:normal;font-weight:normal;font-stretch:normal;font-family:Colaborate-Thin;-inkscape-font-specification:Colaborate-Thin"
             inkscape:connector-curvature="0" />
          <path
             d="m -181.42258,365.94432 c 0,-2.1822 -1.69163,-2.80811 -3.24793,-3.34942 -1.26872,-0.43984 -2.41903,-0.91348 -2.41903,-2.21604 0,-1.62396 1.21798,-2.13146 2.68968,-2.13146 1.04882,0 1.70855,0.28758 2.33446,0.55824 l 0.3045,-0.71049 c -0.89657,-0.30449 -1.79313,-0.47365 -2.53746,-0.47365 -2.01304,0 -3.60317,0.74432 -3.60317,2.75736 0,1.89461 1.47173,2.48669 2.92653,2.99418 1.40404,0.49057 2.74044,0.99805 2.74044,2.60511 0,1.92846 -1.60705,2.40212 -2.87577,2.40212 -0.89658,0 -1.67471,-0.25374 -2.4867,-0.55823 l -0.3045,0.71049 c 0.9304,0.25372 1.82696,0.47364 2.77428,0.47364 2.01304,0 3.70467,-0.72741 3.70467,-3.06185"
             id="path3313"
             style="font-style:normal;font-variant:normal;font-weight:normal;font-stretch:normal;font-family:Colaborate-Thin;-inkscape-font-specification:Colaborate-Thin"
             inkscape:connector-curvature="0" />
          <path
             d="m -170.20451,358.43348 0,-0.64282 -7.47701,0 0,0.64282 3.34943,0 0,10.30204 0.77816,0 0,-10.30204 3.34942,0"
             id="path3315"
             style="font-style:normal;font-variant:normal;font-weight:normal;font-stretch:normal;font-family:Colaborate-Thin;-inkscape-font-specification:Colaborate-Thin"
             inkscape:connector-curvature="0" />
          <path
             d="m -158.88626,368.73552 -4.12757,-10.94486 -0.52441,0 -4.44899,10.94486 0.79507,0 1.3533,-3.43401 4.80423,0 1.26872,3.43401 0.87965,0 m -2.35136,-4.02609 -4.36442,0 2.28372,-5.76846 2.0807,5.76846"
             id="path3317"
             style="font-style:normal;font-variant:normal;font-weight:normal;font-stretch:normal;font-family:Colaborate-Thin;-inkscape-font-specification:Colaborate-Thin"
             inkscape:connector-curvature="0" />
          <path
             d="m -153.99435,368.73552 0,-10.94486 -0.77814,0 0,10.94486 0.77814,0"
             id="path3319"
             style="font-style:normal;font-variant:normal;font-weight:normal;font-stretch:normal;font-family:Colaborate-Thin;-inkscape-font-specification:Colaborate-Thin"
             inkscape:connector-curvature="0" />
          <path
             d="m -141.19856,368.73552 0,-10.94486 -0.74433,0 0,10.03138 -5.76845,-10.03138 -1.04881,0 0,10.94486 0.67665,0 0,-10.03138 5.8023,10.03138 1.08264,0"
             id="path3321"
             style="font-style:normal;font-variant:normal;font-weight:normal;font-stretch:normal;font-family:Colaborate-Thin;-inkscape-font-specification:Colaborate-Thin"
             inkscape:connector-curvature="0" />
          <path
             d="m -127.77978,368.73552 -4.12758,-10.94486 -0.52441,0 -4.44898,10.94486 0.79507,0 1.3533,-3.43401 4.80423,0 1.26872,3.43401 0.87965,0 m -2.35136,-4.02609 -4.36441,0 2.2837,-5.76846 2.08071,5.76846"
             id="path3323"
             style="font-style:normal;font-variant:normal;font-weight:normal;font-stretch:normal;font-family:Colaborate-Thin;-inkscape-font-specification:Colaborate-Thin"
             inkscape:connector-curvature="0" />
          <path
             d="m -116.74725,365.67366 c 0,-1.48864 -0.89657,-2.35136 -2.24987,-2.67278 1.01498,-0.40598 1.74238,-1.26872 1.74238,-2.41902 0,-2.35138 -1.50555,-2.7912 -3.68776,-2.7912 l -2.52053,0 0,10.94486 3.07877,0 c 2.02996,0 3.63701,-0.55825 3.63701,-3.06186 m -1.31947,-5.07489 c 0,1.60705 -1.20106,2.19912 -2.63895,2.19912 l -1.97921,0 0,-4.38133 1.74238,0 c 1.89463,0 2.87578,0.25375 2.87578,2.18221 m 0.49057,5.07489 c 0,2.11453 -1.16723,2.43594 -2.90961,2.43594 l -2.19912,0 0,-4.70272 2.01304,0 c 1.69163,0 3.09569,0.3214 3.09569,2.26678"
             id="path3325"
             style="font-style:normal;font-variant:normal;font-weight:normal;font-stretch:normal;font-family:Colaborate-Thin;-inkscape-font-specification:Colaborate-Thin"
             inkscape:connector-curvature="0" />
          <path
             d="m -111.42875,368.73552 0,-10.94486 -0.77815,0 0,10.94486 0.77815,0"
             id="path3327"
             style="font-style:normal;font-variant:normal;font-weight:normal;font-stretch:normal;font-family:Colaborate-Thin;-inkscape-font-specification:Colaborate-Thin"
             inkscape:connector-curvature="0" />
          <path
             d="m -100.18926,368.73552 0,-0.67667 -5.22714,0 0,-10.26819 -0.77815,0 0,10.94486 6.00529,0"
             id="path3329"
             style="font-style:normal;font-variant:normal;font-weight:normal;font-stretch:normal;font-family:Colaborate-Thin;-inkscape-font-specification:Colaborate-Thin"
             inkscape:connector-curvature="0" />
          <path
             d="m -95.713127,368.73552 0,-10.94486 -0.77815,0 0,10.94486 0.77815,0"
             id="path3331"
             style="font-style:normal;font-variant:normal;font-weight:normal;font-stretch:normal;font-family:Colaborate-Thin;-inkscape-font-specification:Colaborate-Thin"
             inkscape:connector-curvature="0" />
          <path
             d="m -84.219897,358.43348 0,-0.64282 -7.477007,0 0,0.64282 3.34943,0 0,10.30204 0.778149,0 0,-10.30204 3.349428,0"
             id="path3333"
             style="font-style:normal;font-variant:normal;font-weight:normal;font-stretch:normal;font-family:Colaborate-Thin;-inkscape-font-specification:Colaborate-Thin"
             inkscape:connector-curvature="0" />
          <path
             d="m -72.990706,357.79066 -0.778149,0 -3.29868,5.32864 -3.467841,-5.32864 -0.879649,0 3.924583,6.08987 0,4.85499 0.77815,0 0,-4.92265 3.721586,-6.02221"
             id="path3335"
             style="font-style:normal;font-variant:normal;font-weight:normal;font-stretch:normal;font-family:Colaborate-Thin;-inkscape-font-specification:Colaborate-Thin"
             inkscape:connector-curvature="0" />
          <path
             d="m -57.068388,365.94432 c 0,-2.1822 -1.691629,-2.80811 -3.247933,-3.34942 -1.268721,-0.43984 -2.419031,-0.91348 -2.419031,-2.21604 0,-1.62396 1.217975,-2.13146 2.689695,-2.13146 1.04881,0 1.708548,0.28758 2.33445,0.55824 l 0.304494,-0.71049 c -0.896567,-0.30449 -1.793128,-0.47365 -2.537448,-0.47365 -2.013041,0 -3.603171,0.74432 -3.603171,2.75736 0,1.89461 1.471718,2.48669 2.926521,2.99418 1.404051,0.49057 2.740439,0.99805 2.740439,2.60511 0,1.92846 -1.607047,2.40212 -2.875768,2.40212 -0.896567,0 -1.674717,-0.25374 -2.486701,-0.55823 l -0.304491,0.71049 c 0.930397,0.25372 1.82696,0.47364 2.774274,0.47364 2.013033,0 3.70467,-0.72741 3.70467,-3.06185"
             id="path3337"
             style="font-style:normal;font-variant:normal;font-weight:normal;font-stretch:normal;font-family:Colaborate-Thin;-inkscape-font-specification:Colaborate-Thin"
             inkscape:connector-curvature="0" />
          <path
             d="m -44.412424,364.72634 0,-6.93568 -0.778154,0 0,6.73269 c 0,2.82503 -0.795071,3.85692 -2.960351,3.85692 -2.351366,0 -3.180269,-0.89657 -3.180269,-3.85692 l 0,-6.73269 -0.778149,0 0,6.90186 c 0,2.92652 1.048814,4.31365 3.958418,4.31365 2.622022,0 3.738505,-1.37022 3.738505,-4.27983"
             id="path3339"
             style="font-style:normal;font-variant:normal;font-weight:normal;font-stretch:normal;font-family:Colaborate-Thin;-inkscape-font-specification:Colaborate-Thin"
             inkscape:connector-curvature="0" />
          <path
             d="m -28.96686,368.73552 0,-10.94486 -0.981144,0 -3.992249,9.79455 -3.992248,-9.79455 -1.065726,0 0,10.94486 0.67665,0 0,-10.09904 4.127578,10.09904 0.422908,0 4.059917,-10.09904 0,10.09904 0.744314,0"
             id="path3341"
             style="font-style:normal;font-variant:normal;font-weight:normal;font-stretch:normal;font-family:Colaborate-Thin;-inkscape-font-specification:Colaborate-Thin"
             inkscape:connector-curvature="0" />
          <path
             d="m -13.509925,368.73552 0,-10.94486 -0.981149,0 -3.992247,9.79455 -3.99225,-9.79455 -1.065725,0 0,10.94486 0.676654,0 0,-10.09904 4.127578,10.09904 0.422908,0 4.059912,-10.09904 0,10.09904 0.744319,0"
             id="path3343"
             style="font-style:normal;font-variant:normal;font-weight:normal;font-stretch:normal;font-family:Colaborate-Thin;-inkscape-font-specification:Colaborate-Thin"
             inkscape:connector-curvature="0" />
          <path
             d="m -7.5092132,368.73552 0,-10.94486 -0.7781466,0 0,10.94486 0.7781466,0"
             id="path3345"
             style="font-style:normal;font-variant:normal;font-weight:normal;font-stretch:normal;font-family:Colaborate-Thin;-inkscape-font-specification:Colaborate-Thin"
             inkscape:connector-curvature="0" />
          <path
             d="m 3.9840202,358.43348 0,-0.64282 -7.4770099,0 0,0.64282 3.3494286,0 0,10.30204 0.77815349,0 0,-10.30204 3.34942781,0"
             id="path3347"
             style="font-style:normal;font-variant:normal;font-weight:normal;font-stretch:normal;font-family:Colaborate-Thin;-inkscape-font-specification:Colaborate-Thin"
             inkscape:connector-curvature="0" />
        </g>
      </g>
    </g>
  </g>
</svg>
