<?xml version="1.0" encoding="UTF-8" standalone="no"?>
<!-- Created with Inkscape (http://www.inkscape.org/) -->

<svg
   xmlns:dc="http://purl.org/dc/elements/1.1/"
   xmlns:cc="http://creativecommons.org/ns#"
   xmlns:rdf="http://www.w3.org/1999/02/22-rdf-syntax-ns#"
   xmlns:svg="http://www.w3.org/2000/svg"
   xmlns="http://www.w3.org/2000/svg"
   version="1.1"
   width="100%"
   height="100%"
   preserveAspectRatio="xMidYMid meet"
   viewBox="0 0 386 268"
   id="svg3039"
   xml:space="preserve"><metadata
     id="metadata3045"><rdf:RDF><cc:Work
         rdf:about=""><dc:format>image/svg+xml</dc:format><dc:type
           rdf:resource="http://purl.org/dc/dcmitype/StillImage" /><dc:title></dc:title></cc:Work></rdf:RDF></metadata><defs
     id="defs3043"><clipPath
       id="clipPath3055"><path
         d="M 0,2139.96 0,0 l 3081.83,0 0,2139.96"
         id="path3057" /></clipPath></defs><g
     transform="matrix(1.25,0,0,-1.25,0,267.5)"
     id="g3047"><g
       transform="scale(0.1,0.1)"
       id="g3049"><g
         id="g3051"><g
           clip-path="url(#clipPath3055)"
           id="g3053"><path
             d="m 3059.27,185.801 10.62,1949.359 -3066.63609,4.8 0,-1942.429 3056.01609,-11.73"
             id="path3059"
             style="fill:#412784;fill-opacity:1;fill-rule:nonzero;stroke:none" /><path
             d="m 3063.81,1397.86 c -13.54,2.26 -147.11,2.94 -147.11,2.94 -4.52,-9.03 -99.41,-4.51 -119.74,-4.51 -20.33,0 -2.27,-4.52 -15.81,-6.79 -13.58,-2.27 -112.99,-2.27 -140.08,0 -27.12,2.27 -74.54,-9.04 -99.41,2.27 -24.86,11.28 -151.37,4.52 -176.23,6.77 -24.85,2.26 -167.16,2.26 -167.16,2.26 -27.12,-6.78 -54.24,-4.51 -83.6,-4.51 -29.37,0 -58.75,4.51 -58.75,4.51 -24.85,-4.51 -45.18,0 -65.51,2.25 -20.34,2.26 -343.39,-15.82 -343.39,-15.82 -18.07,4.54 -88.11,-4.52 -88.11,-4.52 l -121.99,0 -4.52,-9.03 c -13.56,0 -110.7,-2.25 -126.52,-2.25 -15.81,0 -24.85,-6.78 -24.85,-6.78 -20.33,-6.79 -76.81,-2.27 -85.84,-2.27 -9.03,0 -9.03,-6.77 -9.03,-6.77 -15.83,-2.25 -158.16,4.51 -158.16,4.51 -31.633,-4.51 -142.324,-6.76 -155.879,-2.26 -13.566,4.52 -13.566,6.79 -27.121,11.31 -13.543,4.51 -128.77,-6.79 -142.312,-2.26 -13.575,4.52 -29.376,-4.53 -29.376,-4.53 -20.332,0 -56.476,6.79 -106.183,4.53 -49.707,-2.26 -42.918,6.77 -42.918,6.77 l -45.188,2.28 c 0,0 -4.531,-9.05 -33.894,2.24 -29.367,11.3 -110.695,-4.52 -133.281,0 -22.59,4.51 -131.047,-2.24 -144.602,-2.24 -13.543,0 -163.43741,5.31 -163.43741,5.31 0.12891,-221.7 0,-466.211 0,-466.211 l 3058.53141,5.113 1.47,477.688"
             id="path3061"
             style="fill:#1a68bb;fill-opacity:1;fill-rule:nonzero;stroke:none" /><path
             d="m 3.4375,1274.36 c 13.5156,2.05 24.1602,4.84 28.2539,8.59 0,0 122.0116,0 135.5546,0 13.555,0 122.012,10.85 144.602,3.61 22.586,-7.22 103.914,18.08 133.281,0 29.363,-18.08 44.012,-10.56 44.012,-10.56 l 26.562,-5.3 c 0,0 1.719,-5.82 51.426,-2.22 49.707,3.62 85.851,-7.21 106.183,-7.21 l 36.239,4.12 c 13.547,-7.24 121.906,13.95 135.449,6.71 13.555,-7.22 13.555,-10.83 27.121,-18.07 13.555,-7.23 124.246,-3.61 155.879,3.61 0,0 130.45,-11.78 146.26,-8.19 0,0 11.9,11.82 20.93,11.82 9.03,0 65.51,-7.24 85.84,3.61 0,0 9.04,10.84 24.85,10.84 15.82,0 112.96,3.62 126.52,3.62 l 15.39,9.95 111.12,4.51 c 0,0 70.04,14.46 88.11,7.22 0,0 323.05,28.92 343.39,25.31 20.33,-3.61 40.66,-10.85 65.51,-3.61 0,0 29.38,-7.24 58.75,-7.24 29.36,0 56.48,-3.62 83.6,7.24 0,0 142.31,0 167.16,-3.62 24.86,-3.62 151.37,7.23 176.23,-10.84 24.87,-18.08 72.29,0 99.41,-3.62 27.09,-3.62 126.5,-3.62 140.08,0 13.54,3.62 5.93,8.54 26.26,8.54 20.33,0 104.77,-4.92 109.29,9.54 0,0 132.26,-18.08 145.8,-21.7 l 0,75.91 c 0,0 -254.26,10.85 -276.83,0 -22.6,-10.85 -97.16,-3.61 -115.23,-3.61 -18.08,0 -97.15,7.23 -110.7,0 -13.56,-7.24 -122,14.46 -160.41,3.61 -38.42,-10.85 -144.6,25.3 -203.33,7.24 0,0 9.02,-18.09 -24.85,-25.31 -33.88,-7.24 -198.81,14.46 -225.93,10.85 -27.11,-3.63 -506.47,-37.05 -565.22,-26.21 l -22.5,-6.41 c 0,0 -160.06,0.07 -180.39,-3.55 0,0 -70.02,7.25 -124.24,10.86 -54.245,3.61 -248.534,3.61 -268.866,0 -20.332,-3.61 -9.031,3.61 -9.031,3.61 0,0 -115.215,-18.07 -142.325,-21.68 0,0 0,21.68 -189.765,7.21 0,0 -153.625,7.25 -180.742,0 0,0 -128.77,7.25 -176.223,-3.6 0,0 -38.1641,2.29 -81.44534,3.6 L 3.4375,1274.36"
             id="path3063"
             style="fill:#f36532;fill-opacity:1;fill-rule:nonzero;stroke:none" /><path
             d="m 3027.13,1456.45 c 0,0 -191.77,3.62 -209.84,10.84 -18.08,7.24 -65.52,3.62 -81.33,3.62 -15.81,0 -110.7,-3.62 -110.7,-3.62 0,0 -47.44,-3.6 -67.77,-3.6 -20.36,0 -155.91,-7.24 -155.91,-7.24 0,0 -115.21,10.84 -124.25,3.62 -9.02,-7.23 -103.92,-3.62 -115.23,-3.62 -11.28,0 -99.39,7.24 -115.2,-3.61 -15.83,-10.85 -112.96,-10.85 -112.96,-10.85 0,0 -259.82,3.62 -275.63,0 -15.81,-3.61 -70.02,10.85 -88.11,7.24 -18.07,-3.62 -67.75,-10.85 -117.47,-7.24 -49.7,3.62 -99.4,7.24 -180.72,3.62 -81.34,-3.62 -153.64,14.46 -185.27,14.46 -31.62,0 -196.552,3.62 -223.654,-3.62 -27.117,-7.22 -119.734,-18.07 -137.813,-21.68 -18.074,-3.61 -124.257,0 -146.843,0 -22.598,0 -124.258,-7.24 -149.114,-10.86 -24.843,-3.6 -259.804,3.62 -289.168,0 -29.367,-3.6 -128.9644,15.15 -130.28472,-2.87 -2.13672,-29.22 -0.94531,-91.1 -0.94531,-91.1 47.44143,10.85 253.22303,3.6 253.22303,3.6 27.117,7.25 180.742,0 180.742,0 189.765,14.47 189.765,-7.21 189.765,-7.21 27.11,3.61 132.664,18.72 132.664,18.72 0,0 -1.64,-4.26 18.692,-0.65 20.332,3.61 214.621,3.61 268.866,0 54.22,-3.61 124.24,-10.86 124.24,-10.86 20.33,3.62 187.51,0 187.51,0 l 15.38,9.96 c 58.75,-10.84 538.11,22.58 565.22,26.21 27.12,3.61 192.05,-18.09 225.93,-10.85 33.87,7.22 24.85,25.31 24.85,25.31 58.73,18.06 164.91,-18.09 203.33,-7.24 38.41,10.85 146.85,-10.85 160.41,-3.61 13.55,7.23 92.62,0 110.7,0 18.07,0 92.63,-7.24 115.23,3.61 37.09,17.8 234.95,0 234.95,0 l 37.9,-11.95 0,92.93 -31.39,-1.46"
             id="path3065"
             style="fill:#412784;fill-opacity:1;fill-rule:nonzero;stroke:none" /><path
             d="m 3027.13,1456.45 c 0,0 -191.77,3.62 -209.84,10.84 -18.08,7.24 -65.52,3.62 -81.33,3.62 -15.81,0 -110.7,-3.62 -110.7,-3.62 0,0 -47.44,-3.6 -67.77,-3.6 -20.36,0 -155.91,-7.24 -155.91,-7.24 0,0 -115.21,10.84 -124.25,3.62 -9.02,-7.23 -103.92,-3.62 -115.23,-3.62 -11.28,0 -99.39,7.24 -115.2,-3.61 -15.83,-10.85 -112.96,-10.85 -112.96,-10.85 0,0 -259.82,3.62 -275.63,0 -15.81,-3.61 -70.02,10.85 -88.11,7.24 -18.07,-3.62 -67.75,-10.85 -117.47,-7.24 -49.7,3.62 -99.4,7.24 -180.72,3.62 -81.34,-3.62 -153.64,14.46 -185.27,14.46 -31.62,0 -196.552,3.62 -223.654,-3.62 -27.117,-7.22 -119.734,-18.07 -137.813,-21.68 -18.074,-3.61 -124.257,0 -146.843,0 -22.598,0 -124.258,-7.24 -149.114,-10.86 -24.843,-3.6 -259.804,3.62 -289.168,0 -29.367,-3.6 -128.9644,15.15 -130.28472,-2.87 -2.13672,-29.22 -0.94531,-91.1 -0.94531,-91.1 47.44143,10.85 253.22303,3.6 253.22303,3.6 27.117,7.25 180.742,0 180.742,0 189.765,14.47 189.765,-7.21 189.765,-7.21 27.11,3.61 132.664,18.72 132.664,18.72 0,0 -1.64,-4.26 18.692,-0.65 20.332,3.61 214.621,3.61 268.866,0 54.22,-3.61 124.24,-10.86 124.24,-10.86 20.33,3.62 187.51,0 187.51,0 l 15.38,9.96 c 58.75,-10.84 538.11,22.58 565.22,26.21 27.12,3.61 192.05,-18.09 225.93,-10.85 33.87,7.22 24.85,25.31 24.85,25.31 58.73,18.06 164.91,-18.09 203.33,-7.24 38.41,10.85 146.85,-10.85 160.41,-3.61 13.55,7.23 92.62,0 110.7,0 18.07,0 92.63,-7.24 115.23,3.61 37.09,17.8 234.95,0 234.95,0 l 37.9,-11.95 0,92.93 -31.39,-1.46 z"
             id="path3067"
             style="fill:none;stroke:#412784;stroke-width:10.62199974;stroke-linecap:butt;stroke-linejoin:miter;stroke-miterlimit:4;stroke-opacity:1;stroke-dasharray:none" /><path
             d="m 3.25391,1447.09 c 47.21489,1.91 116.66809,5.27 136.89409,7.27 29.364,2.87 264.325,-2.89 289.168,0 24.856,2.87 126.516,8.67 149.114,8.67 22.586,0 128.769,-2.89 146.843,0 18.079,2.9 110.696,11.57 137.813,17.35 27.102,5.78 192.034,2.89 223.654,2.89 31.63,0 103.93,-14.45 185.27,-11.56 81.32,2.89 131.02,0 180.72,-2.89 49.72,-2.89 99.4,2.89 117.47,5.78 18.09,2.89 72.3,-8.67 88.11,-5.78 15.81,2.89 275.63,0 275.63,0 0,0 97.13,0 112.96,8.67 15.81,8.67 103.92,2.89 115.2,2.89 11.31,0 106.21,-2.89 115.23,2.89 9.04,5.79 124.25,-2.89 124.25,-2.89 0,0 135.55,5.78 155.91,5.78 20.33,0 67.77,2.9 67.77,2.9 0,0 94.89,2.88 110.7,2.88 15.81,0 63.25,2.9 81.33,-2.88 18.07,-5.79 246.38,-15.32 246.38,-15.32 l 0,163.39 c 0,0 -262.19,16.76 -309.64,8.08 -47.44,-8.68 -65.52,0 -74.56,0 -9.03,0 -103.92,-2.89 -142.34,-5.78 -38.4,-2.9 -189.76,17.35 -232.69,5.78 -42.92,-11.57 -83.59,-2.89 -131.03,-8.68 -47.45,-5.77 -210.11,5.79 -230.43,5.79 -20.35,0 -83.6,8.68 -97.15,5.79 -13.57,-2.9 -47.45,-17.35 -60.99,-17.35 -13.58,0 -90.37,2.88 -115.23,-8.67 -24.85,-11.58 -79.06,-5.79 -94.89,-8.68 -15.81,-2.9 -216.87,2.89 -241.73,-5.79 -24.85,-8.67 -42.92,8.68 -99.4,5.79 -56.48,-2.9 -70.03,-2.9 -79.07,-2.9 -9.04,0 -155.895,2.9 -155.895,2.9 l -29.367,-11.57 c 0,0 -88.094,5.78 -119.735,-2.89 -31.621,-8.69 -85.851,-5.8 -94.894,-8.69 -9.024,-2.88 -155.867,11.58 -212.352,-2.88 -56.484,-14.46 -85.851,2.88 -126.515,0 -40.664,-2.91 -230.45,-8.67 -246.25,-5.79 -15.809,2.88 -81.3284,14.46 -106.18,8.67 -9.9609,-2.31 -31.3984,1.27 -57.57809,3.22 l -2.5,-146.39"
             id="path3069"
             style="fill:#1a68bb;fill-opacity:1;fill-rule:nonzero;stroke:none" /><path
             d="m 2.59766,992.031 c 23.31254,8.779 98.37134,43.559 105.91834,48.839 22.589,15.81 65.519,81.33 76.796,94.88 11.309,13.57 61.016,70.04 76.829,81.34 0,0 18.066,13.55 38.398,-18.08 20.34,-31.62 56.484,-74.54 74.559,-90.37 18.078,-15.81 101.66,-54.21 131.035,-65.52 29.367,-11.29 65.519,-38.4 83.586,-40.66 0,0 22.597,-11.28 40.664,18.08 0,0 92.637,126.52 115.222,133.29 0,0 24.856,6.78 38.399,-18.08 0,0 97.16,-90.37 121.992,-106.18 0,0 18.086,4.53 27.109,22.59 0,0 38.418,70.04 54.239,94.9 15.806,24.84 70.036,83.58 101.656,90.36 0,0 29.37,-4.52 47.45,-36.15 0,0 22.59,-27.11 31.62,-45.19 0,0 6.78,-20.33 45.2,-38.4 38.4,-18.07 97.14,-47.44 115.2,-56.48 0,0 9.04,11.29 40.67,38.41 31.64,27.1 24.86,29.37 36.15,29.37 11.29,0 49.71,-22.59 72.3,-31.63 0,0 0,-13.56 40.67,24.85 40.65,38.41 112.95,115.22 128.76,133.29 15.81,18.08 29.35,49.71 36.14,61 6.79,11.29 149.1,160.4 164.93,171.7 0,0 29.36,-6.78 72.28,-40.66 0,0 27.12,-36.15 36.16,-97.16 9.02,-60.99 24.85,-115.19 24.85,-115.19 0,0 22.6,0 47.43,13.54 0,0 27.11,15.81 47.45,6.77 20.35,-9.04 65.51,-103.93 74.56,-126.51 9.02,-22.59 27.1,-81.34 33.87,-97.15 0,0 18.1,-9.04 90.37,40.66 0,0 90.37,40.67 115.23,47.46 0,0 63.25,-24.86 79.06,-33.91 0,0 117.51,54.24 137.84,58.76 0,0 11.28,-6.79 22.59,-22.6 11.29,-15.81 40.66,-47.44 72.29,-51.96 0,0 56.48,20.33 117.48,54.23 0,0 15.81,2.24 42.92,-18.08 27.11,-20.35 201.71,-118.499 201.71,-118.499 L 3063.17,0.878906 2.83203,0 2.59766,992.031"
             id="path3071"
             style="fill:#231f20;fill-opacity:1;fill-rule:nonzero;stroke:none" /><path
             d="m 3.47656,998.969 c 44.13284,15.291 91.97264,32.751 105.03944,41.901 22.589,15.81 65.519,81.33 76.796,94.88 11.309,13.57 61.016,70.04 76.829,81.34 0,0 18.066,13.55 38.398,-18.08 20.34,-31.62 56.484,-74.54 74.559,-90.37 18.078,-15.81 101.66,-54.21 131.035,-65.52 29.367,-11.29 65.519,-38.4 83.586,-40.66 0,0 22.597,-11.28 40.664,18.08 0,0 92.637,126.52 115.222,133.29 0,0 24.856,6.78 38.399,-18.08 0,0 97.16,-90.37 121.992,-106.18 0,0 18.086,4.53 27.109,22.59 0,0 38.418,70.04 54.239,94.9 15.806,24.84 70.036,83.58 101.656,90.36 0,0 29.37,-4.52 47.45,-36.15 0,0 22.59,-27.11 31.62,-45.19 0,0 6.78,-20.33 45.2,-38.4 38.4,-18.07 97.14,-47.44 115.2,-56.48 0,0 9.04,11.29 40.67,38.41 31.64,27.1 24.86,29.37 36.15,29.37 11.29,0 49.71,-22.59 72.3,-31.63 0,0 0,-13.56 40.67,24.85 40.65,38.41 112.95,115.22 128.76,133.29 15.81,18.08 29.35,49.71 36.14,61 6.79,11.29 149.1,160.4 164.93,171.7 0,0 29.36,-6.78 72.28,-40.66 0,0 27.12,-36.15 36.16,-97.16 9.02,-60.99 24.85,-115.19 24.85,-115.19 0,0 22.6,0 47.43,13.54 0,0 27.11,15.81 47.45,6.77 20.35,-9.04 65.51,-103.93 74.56,-126.51 9.02,-22.59 27.1,-81.34 33.87,-97.15 0,0 18.1,-9.04 90.37,40.66 0,0 90.37,40.67 115.23,47.46 0,0 63.25,-24.86 79.06,-33.91 0,0 117.51,54.24 137.84,58.76 0,0 11.28,-6.79 22.59,-22.6 11.29,-15.81 40.66,-47.44 72.29,-51.96 0,0 56.48,20.33 117.48,54.23 0,0 15.81,2.24 42.92,-18.08 27.11,-20.35 214.02,-129.12 214.02,-129.12"
             id="path3073"
             style="fill:none;stroke:#ffffff;stroke-width:21.24399948;stroke-linecap:butt;stroke-linejoin:miter;stroke-miterlimit:3.86360002;stroke-opacity:1;stroke-dasharray:none" /><path
             d="m 388.684,742.012 c 25.261,15.168 45.468,25.867 71.699,25.867 68.055,0 121.308,-55.117 121.308,-137.18 0,-80.918 -50.89,-161.879 -138.476,-161.879 -16.848,0 -39.043,2.078 -54.914,10.16 0,0 -2.481,1.09 -2.481,-1.73 0,-2.82 0,-49.59 0,-49.59 0,0 0.02,-4.75 3.535,-4.75 3.879,0 31.661,0 31.661,0 0,0 3.273,0.168 3.273,-3.691 0,-5.641 0,-23.188 0,-26.739 0,-2.8 -2.922,-4 -2.922,-4 l -160.019,0 c 0,0 -4.52,-0.21 -4.52,3.668 0,4.911 0,22.5 0,27.071 0,4.211 3.477,3.691 3.477,3.691 0,0 9.5,0 13.359,0 3.856,0 3.867,4.039 3.867,4.039 0,0 0,271.84 0,275.02 0,3.863 -3.515,2.461 -3.515,2.461 l -14.407,-3.59 c 0,0 -2.781,-1.328 -2.781,2.539 0,3.859 0,25.672 0,28.84 0,3.16 2.449,2.992 2.449,2.992 l 123.75,31.848 c 0,0 2.793,1.031 2.793,-2.137 0,-3.512 0,-18.66 0,-21.461 0,-2.813 2.864,-1.449 2.864,-1.449 z m -2.864,-42.153 c 0,-3.859 0,-140.91 0,-140.91 0,-25.258 8.282,-46.488 36.692,-46.488 35.508,0 50.886,21.801 50.886,86.09 0,103.32 -52.07,108.488 -70.41,108.488 l -14.011,-2.348 c 0,0 -3.157,-0.961 -3.157,-4.832 z M 2799.73,512.09 c 3.18,0 9.78,0 13.01,0 4.57,0 3.68,-3.16 3.68,-3.16 0,0 0,-23.559 0,-28.141 0,-4.57 -4.38,-3.129 -4.38,-3.129 -20.71,0 -112.2,0 -112.2,0 0,0 -2.28,-0.351 -3.11,3.129 -1.6,6.723 -3.68,14.383 -4.75,20.359 -1.04,5.981 -5.15,0.122 -5.15,0.122 -23.08,-18.43 -48.07,-32.219 -79.87,-32.219 -53.87,0 -94.08,33.859 -94.08,87.238 0,66.582 42.58,104.461 95.26,104.461 l 80.11,2.012 c 0,0 0.94,0.207 0.94,3.359 0,3.16 0,8.981 0,8.981 0,23.527 -13.02,33.378 -39.05,33.378 -33.26,0 -48.74,-12.07 -64.22,-31.109 0,0 -0.99,-2.269 -4.17,-0.851 -3.17,1.402 -31.72,11.402 -31.72,11.402 0,0 -2.49,0.168 -1.1,3.699 1.43,3.5 35.68,87.699 35.68,87.699 0,0 0.28,2.942 3.08,1.879 4.17,-1.558 26.39,-8.379 30.26,-9.777 3.51,-1.422 2.06,-4.363 2.06,-4.363 0,0 -1.1,-3.84 -2.45,-7.028 -2.82,-6.699 1.98,-3.871 1.98,-3.871 22.05,8.539 44.47,11.93 67.9,11.93 66.28,0 110.05,-27.551 110.05,-95.262 l 0,-155.457 c 0,0 -0.58,-5.281 2.24,-5.281 z m -113.25,114.23 c -3.51,0 -14.43,0 -14.43,0 -29.59,0 -50.9,-20.109 -50.9,-49.359 0,-22.391 6.5,-47.641 35.51,-47.641 27.23,0 32.53,20.09 32.53,41.891 l 0,52.711 c 0,0 0.81,2.398 -2.71,2.398 z M 1635.26,759.582 c -6.11,3.656 -6.81,4.578 -19.12,3.879 -7.09,-0.391 -10.65,-6.313 -10.65,-12.621 0,-11.481 55.63,-29.281 55.63,-96.442 0,-89.148 -82.96,-107.859 -153.78,-125.359 0,0 -8.05,-1.648 0.03,-2.43 47.48,-4.589 144.29,-16.668 144.29,-79.398 0,-62.57 -85.81,-77.492 -121.3,-77.492 -52.09,0 -105.34,10.922 -105.34,57.39 0,26.692 28.8,44.621 53.48,48.813 0,0 7.36,1.117 0.02,2.027 -8.42,1.063 -55.41,5.211 -71.76,1.871 0,0 -3.64,-0.531 -4.69,2.289 -1.49,3.981 -11.1,28.551 -11.95,30.621 -1.76,4.211 1.85,4.411 1.85,4.411 35,5.648 65.55,24.097 80.2,28.359 7.83,2.27 0,3.43 0,3.43 -49.4,8.699 -97.46,42.332 -97.46,100.89 0,82.641 67.47,118.239 131.97,118.239 29.76,0 46.75,-4.661 62.55,-7.09 0,0 2.42,-1.047 3.46,2.453 1.49,5 6.18,18.988 6.18,18.988 7.09,21.238 17.74,29.852 49.71,29.852 6.05,0 12.53,-0.852 18.72,-1.453 0,0 3.21,0.863 2.5,-2.989 -0.59,-3.199 -10.98,-44.64 -11.6,-47.109 -1.06,-4.242 -2.94,-1.129 -2.94,-1.129 z M 1517.33,463.301 c -4.34,-4.539 -8.88,-23.52 -8.88,-36.192 0,-14.339 7.69,-29.839 24.27,-29.839 14.78,0 22.49,6.89 22.49,21.25 0,25.371 -14.24,34.308 -33.72,46.179 0,0 -1.52,1.391 -4.16,-1.398 z m -46.16,230.14 c 0,-30.992 18.35,-117.66 62.73,-117.66 21.9,0 30.76,10.899 30.76,38.449 0,31 -18.35,117.68 -62.73,117.68 -21.9,0 -30.76,-10.93 -30.76,-38.469 z M 1356.43,512.09 c 3.17,0 9.78,0 13.02,0 4.57,0 3.68,-3.16 3.68,-3.16 0,0 0,-23.559 0,-28.141 0,-4.57 -4.38,-3.129 -4.38,-3.129 -20.71,0 -112.19,0 -112.19,0 0,0 -2.3,-0.351 -3.13,3.129 -1.58,6.723 -3.68,14.383 -4.73,20.359 -1.07,5.981 -5.16,0.122 -5.16,0.122 -23.09,-18.43 -48.07,-32.219 -79.88,-32.219 -53.84,0 -94.09,33.859 -94.09,87.238 0,66.582 42.61,104.461 95.27,104.461 l 80.12,2.012 c 0,0 0.95,0.207 0.95,3.359 0,3.16 0,8.981 0,8.981 0,23.527 -13.01,33.378 -39.05,33.378 -33.28,0 -48.76,-12.07 -64.23,-31.109 0,0 -1,-2.269 -4.16,-0.851 -3.17,1.402 -31.73,11.402 -31.73,11.402 0,0 -2.51,0.168 -1.08,3.699 1.4,3.5 35.66,87.699 35.66,87.699 0,0 0.26,2.942 3.08,1.879 4.16,-1.558 26.4,-8.379 30.25,-9.777 3.53,-1.422 2.07,-4.363 2.07,-4.363 0,0 -1.1,-3.84 -2.44,-7.028 -2.82,-6.699 1.96,-3.871 1.96,-3.871 22.07,8.539 44.47,11.93 67.89,11.93 66.28,0 110.07,-27.551 110.07,-95.262 l 0,-155.457 c 0,0 -0.58,-5.281 2.23,-5.281 z m -113.24,114.23 c -3.52,0 -14.43,0 -14.43,0 -29.59,0 -50.9,-20.109 -50.9,-49.359 0,-22.391 6.51,-47.641 35.5,-47.641 27.22,0 32.55,20.09 32.55,41.891 l 0,52.711 c 0,0 0.79,2.398 -2.72,2.398 z m 1201.68,227.828 c 25.45,0 52.68,-6.308 52.68,-36.168 0,-36.16 -46.74,-48.769 -76.35,-48.769 -23.67,0 -40.23,12.039 -40.23,35.578 0,28.121 38.47,49.359 63.9,49.359 z m 45.11,-86.867 -124.5,-34.191 c 0,0 -2.26,-0.192 -2.26,-2.641 0,-2.469 0,-24.597 0,-27.769 0,-3.891 3.67,-2.239 3.67,-2.239 0,0 8.03,1.668 15.12,2.809 3.55,0.559 2.52,-2.691 2.52,-5.148 0,-2.461 0,-183.243 0,-183.243 0,0 0.96,-2.789 -2.54,-2.789 -3.53,0 -17.61,0 -17.61,0 0,0 -2.34,1.051 -2.34,-2.82 0,-3.871 0,-25.672 0,-29.18 0,-3.531 2.34,-2.449 2.34,-2.449 0,0 141.41,0 145.62,0 3.52,0 2.36,2.777 2.36,2.777 0,0 -0.08,24.293 0,28.852 0.04,3.891 -2.7,2.82 -2.7,2.82 0,0 -10.2,0 -14.43,0 -3.54,0 -2.42,2.442 -2.42,2.442 0,0 0,247.578 0,250.758 0,3.5 -2.83,2.011 -2.83,2.011 z m -150.21,-289.66 -145.59,0 c 0,0 -2.5,-0.371 -2.5,2.09 0,2.449 0,27.418 0,29.879 0,2.82 3.2,2.48 3.2,2.48 0,0 14.77,0 17.24,0 2.82,0 2.03,2.102 2.03,2.102 l 0,159.75 c 0,16.648 -15.38,25.269 -31.36,25.269 -19.1,0 -32.87,-10.371 -46.37,-21.73 0,0 -2.16,-1.531 -2.16,-4.332 0,-2.809 0,-158.957 0,-158.957 0,0 -0.57,-2.102 2.25,-2.102 2.79,0 17.94,0 17.94,0 0,0 2.89,1.051 2.89,-2.48 0,-3.5 0,-27.781 0,-29.879 0,-2.461 -2.21,-2.09 -2.21,-2.09 l -148.05,0 c 0,0 -1.81,-1.082 -1.81,2.777 0,3.18 0,26.391 0,29.192 0,3.531 1.81,2.48 1.81,2.48 0,0 14.08,0 16.9,0 2.79,0 2.01,2.442 2.01,2.442 l 0,188.168 c 0,0 1.41,3.441 -2.8,2.05 -4.21,-1.441 -15.04,-4.191 -15.04,-4.191 0,0 -2.88,-1.398 -2.88,1.789 0,3.172 0,26.371 0,28.832 0,3.16 2.53,3.129 2.53,3.129 l 124.84,33.031 c 0,0 2.8,1.45 2.8,-1.699 0,-3.172 0,-36.922 0,-41.152 0,-4.571 2.85,-0.75 2.85,-0.75 29.24,22.25 58.81,44.34 98.35,44.34 75.17,0 85.81,-49.93 85.81,-81.5 l 0,-171.7 c 0,0 -0.26,-2.789 2.2,-2.789 2.46,0 15.47,0 15.47,0 0,0 2.45,0.7 2.45,-2.48 0,-3.149 0,-26.711 0,-29.192 0,-3.859 -2.8,-2.777 -2.8,-2.777 z m -558.69,181.938 c 0,-41.309 17.76,-146.918 77.52,-146.918 31.97,0 40.24,33.859 40.24,64.859 0,41.32 -17.75,146.941 -77.52,146.941 -40.24,0 -40.24,-43.632 -40.24,-64.882 z M 1672.81,618.82 c 0,92.399 72.77,149.239 166.86,149.239 94.68,0 167.48,-56.84 167.48,-149.239 0,-92.988 -72.8,-149.8 -167.48,-149.8 -94.09,0 -166.86,56.812 -166.86,149.8 z m -797.732,128 c 44.336,12.7 84.016,42.352 102.637,83.871 0,0 0.351,3.079 3.508,2.399 3.183,-0.711 25.747,-4.57 30.617,-5.559 3.53,-0.691 2.04,-2.812 2.04,-2.812 -2.69,-13.641 -3.57,-30 -3.57,-42.309 0,0 0,-18.199 0,-20.66 0,-3.16 2.24,-2.289 2.24,-2.289 0,0 45.36,0 48.17,0 2.82,0 1.75,-2.633 1.75,-2.633 0,0 -7.18,-35.488 -8.04,-39.758 -0.69,-3.5 -3.2,-2.39 -3.2,-2.39 0,0 -35.17,0 -38.33,0 -3.17,0 -2.59,-2.168 -2.59,-2.168 l 0,-163.711 c 0,-17.789 15.39,-21.289 24.27,-21.289 8.95,0 10.5,-0.16 17.45,3.359 0,0 2.51,2.359 3.54,-1.18 0.87,-2.882 10.73,-26.089 11.77,-28.421 1.27,-2.879 -1.26,-3.731 -1.26,-3.731 -38,-27.23 -41.48,-28.519 -89.498,-28.519 -53.848,0 -74.559,25.82 -74.559,75.769 l 0,167.723 c 0,0 0.789,2.168 -2.011,2.168 -5.989,0 -24.973,0 -24.973,0 0,0 -2.012,-1.11 -2.012,2.761 0,7.047 0,23.579 0,26.368 0,2.453 2.051,3.011 2.051,3.011 z m -6.719,-234.75 c 3.164,0 9.778,0 13.008,0 4.571,0 3.684,-3.172 3.684,-3.172 0,0 0,-23.578 0,-28.136 0,-4.582 -4.395,-3.141 -4.395,-3.141 -20.695,0 -112.187,0 -112.187,0 0,0 -2.278,-0.332 -3.106,3.16 -1.601,6.688 -3.691,14.367 -4.758,20.348 -1.054,5.973 -5.144,0.109 -5.144,0.109 -23.098,-18.429 -48.066,-32.218 -79.883,-32.218 -53.859,0 -94.082,33.871 -94.082,87.23 0,66.59 42.598,104.461 95.262,104.461 l 80.117,2.008 c 0,0 0.949,0.203 0.949,3.383 0,3.168 0,8.968 0,8.968 0,23.539 -13.019,33.371 -39.054,33.371 -33.27,0 -48.75,-12.07 -64.219,-31.113 0,0 -0.996,-2.25 -4.168,-0.848 -3.164,1.418 -31.719,11.411 -31.719,11.411 0,0 -2.5,0.179 -1.105,3.687 1.418,3.524 35.675,87.711 35.675,87.711 0,0 0.262,2.93 3.075,1.891 4.171,-1.559 26.398,-8.379 30.273,-9.801 3.508,-1.41 2.051,-4.34 2.051,-4.34 0,0 -1.094,-3.859 -2.442,-7.059 -2.812,-6.679 1.954,-3.839 1.954,-3.839 22.07,8.519 44.484,11.918 67.91,11.918 66.269,0 110.058,-27.559 110.058,-95.278 l 0,-155.453 c 0,0 -0.574,-5.258 2.246,-5.258 z m -113.25,114.219 c -3.507,0 -14.445,0 -14.445,0 -29.578,0 -50.887,-20.09 -50.887,-49.348 0,-22.402 6.512,-47.66 35.516,-47.66 27.219,0 32.531,20.098 32.531,41.899 l 0,52.718 c 0,0 0.801,2.391 -2.715,2.391"
             id="path3075"
             style="fill:#ffffff;fill-opacity:1;fill-rule:nonzero;stroke:none" /><path
             d="m 2825.92,720.578 5.47,0 0,12.242 4.3,0 c 2.9,0 4.93,-0.34 6.07,-1.011 1.96,-1.137 2.93,-3.528 2.93,-7.11 l 0,-2.461 0.13,-1.019 c 0.02,-0.098 0.04,-0.231 0.08,-0.328 0.02,-0.102 0.04,-0.2 0.06,-0.313 l 5.12,0 -0.2,0.391 c -0.12,0.25 -0.21,0.793 -0.26,1.609 -0.04,0.82 -0.07,1.582 -0.07,2.32 l 0,2.25 c 0,1.582 -0.56,3.18 -1.7,4.821 -1.13,1.64 -2.91,2.652 -5.34,3.031 1.91,0.32 3.4,0.801 4.5,1.52 2.02,1.3 3.03,3.339 3.03,6.101 0,3.918 -1.6,6.508 -4.81,7.848 -1.8,0.73 -4.61,1.133 -8.46,1.133 l -10.85,0 0,-31.024 z m 15.59,16.731 c -1.15,-0.438 -2.87,-0.688 -5.19,-0.688 l -4.93,0 0,11.25 4.65,0 c 3.02,0 5.22,-0.41 6.61,-1.172 1.36,-0.769 2.04,-2.277 2.04,-4.551 0,-2.359 -1.06,-3.988 -3.18,-4.839 z m 15.79,18.621 c -5.52,5.5 -12.18,8.23 -19.99,8.23 -7.78,0 -14.4,-2.73 -19.89,-8.23 -5.51,-5.52 -8.27,-12.16 -8.27,-19.91 0,-7.84 2.73,-14.532 8.2,-20.051 5.5,-5.539 12.14,-8.289 19.96,-8.289 7.81,0 14.47,2.75 19.99,8.289 5.53,5.551 8.28,12.23 8.28,20.051 0,7.781 -2.75,14.41 -8.28,19.91 z m -2.8,-2.711 c 4.72,-4.758 7.08,-10.481 7.08,-17.199 0,-6.782 -2.36,-12.559 -7.08,-17.321 -4.72,-4.758 -10.43,-7.148 -17.19,-7.148 -6.75,0 -12.47,2.39 -17.18,7.148 -4.71,4.762 -7.05,10.539 -7.05,17.321 0,6.718 2.34,12.441 7.08,17.199 4.73,4.75 10.46,7.152 17.15,7.152 6.72,0 12.45,-2.402 17.19,-7.152"
             id="path3077"
             style="fill:#ffffff;fill-opacity:1;fill-rule:nonzero;stroke:none" /></g></g></g></g></svg>
