<?xml version="1.0" encoding="UTF-8" standalone="no"?>
<!-- Created with Inkscape (http://www.inkscape.org/) -->

<svg
   xmlns:dc="http://purl.org/dc/elements/1.1/"
   xmlns:cc="http://creativecommons.org/ns#"
   xmlns:rdf="http://www.w3.org/1999/02/22-rdf-syntax-ns#"
   xmlns:svg="http://www.w3.org/2000/svg"
   xmlns="http://www.w3.org/2000/svg"
   version="1.1"
   width="100%"
   height="100%"
   preserveAspectRatio="xMidYMid meet"
   viewBox="0 0 860 320"
   id="svg3042"
   xml:space="preserve"><metadata
     id="metadata3048"><rdf:RDF><cc:Work
         rdf:about=""><dc:format>image/svg+xml</dc:format><dc:type
           rdf:resource="http://purl.org/dc/dcmitype/StillImage" /><dc:title></dc:title></cc:Work></rdf:RDF></metadata><defs
     id="defs3046"><clipPath
       id="clipPath3056"><path
         d="m 0,288.618 792,0 L 792,0 0,0 0,288.618 z"
         id="path3058" /></clipPath><clipPath
       id="clipPath3154"><path
         d="m 65.335,271.111 c -1.799,0 -3.26,-1.457 -3.26,-3.258 l 0,0 0,-55.882 c 0,-1.8 1.461,-3.262 3.26,-3.262 l 0,0 8.986,0 c 7.059,4.946 11.646,13.055 11.646,22.322 l 0,0 0.002,0.074 c 0,15.095 12.247,27.343 27.342,27.343 l 0,0 c 3.981,0 7.759,-0.877 11.167,-2.406 l 0,0 0,11.811 c 0,1.801 -1.46,3.258 -3.261,3.258 l 0,0 -55.882,0 z"
         id="path3156" /></clipPath><linearGradient
       x1="0"
       y1="0"
       x2="1"
       y2="0"
       id="linearGradient3162"
       gradientUnits="userSpaceOnUse"
       gradientTransform="matrix(-28.125442,-36.296631,-36.296631,28.125442,95.947266,265.94971)"
       spreadMethod="pad"><stop
         id="stop3164"
         style="stop-color:#50ade5;stop-opacity:1"
         offset="0" /><stop
         id="stop3166"
         style="stop-color:#0d6aaa;stop-opacity:1"
         offset="1" /></linearGradient><clipPath
       id="clipPath3174"><path
         d="M 109.749,271.111 C 103.01,266.136 98.654,258.332 98.654,249.309 l 0,0 -0.004,-0.182 c 0,-15.096 -12.246,-27.337 -27.342,-27.337 l 0,0 c -3.248,0 -6.344,0.597 -9.233,1.636 l 0,0 0,-11.455 c 0,-1.8 1.461,-3.262 3.26,-3.262 l 0,0 55.882,0 c 1.801,0 3.261,1.462 3.261,3.262 l 0,0 0,55.882 c 0,1.801 -1.46,3.258 -3.261,3.258 l 0,0 -11.468,0 z"
         id="path3176" /></clipPath><linearGradient
       x1="0"
       y1="0"
       x2="1"
       y2="0"
       id="linearGradient3182"
       gradientUnits="userSpaceOnUse"
       gradientTransform="matrix(-49.156555,-38.437378,-38.437378,49.156555,113.00781,237.54297)"
       spreadMethod="pad"><stop
         id="stop3184"
         style="stop-color:#0d6aaa;stop-opacity:1"
         offset="0" /><stop
         id="stop3186"
         style="stop-color:#50ade5;stop-opacity:1"
         offset="1" /></linearGradient><clipPath
       id="clipPath3194"><path
         d="m 109.749,271.111 c -4.98,-2.715 -10.344,-11.024 -10.596,-16.612 l 0,0 c 4.065,2.467 8.824,3.904 13.913,3.948 l 0,0 c 0.003,0 0.005,0 0.009,0 l 0,0 c 0.034,10e-4 0.066,10e-4 0.1,10e-4 l 0,0 c 0.008,0 0.017,0 0.025,0 l 0,0 c 0.037,0 0.074,0 0.111,0 l 0,0 c 3.981,0 7.759,-0.877 11.167,-2.406 l 0,0 0,11.811 c 0,1.801 -1.46,3.258 -3.261,3.258 l 0,0 -11.468,0 z"
         id="path3196" /></clipPath><linearGradient
       x1="0"
       y1="0"
       x2="1"
       y2="0"
       id="linearGradient3202"
       gradientUnits="userSpaceOnUse"
       gradientTransform="matrix(-28.125442,-36.296631,-36.296631,28.125442,95.947266,265.94971)"
       spreadMethod="pad"><stop
         id="stop3204"
         style="stop-color:#50ade5;stop-opacity:1"
         offset="0" /><stop
         id="stop3206"
         style="stop-color:#0a5286;stop-opacity:1"
         offset="1" /></linearGradient><clipPath
       id="clipPath3214"><path
         d="m 71.552,221.791 c -0.001,0 -0.003,0 -0.004,0 l 0,0 c -0.035,-0.001 -0.069,-0.001 -0.104,-0.001 l 0,0 c -0.008,0 -0.017,0 -0.025,0 l 0,0 c -0.037,0 -0.074,0 -0.111,0 l 0,0 c -3.248,0 -6.344,0.597 -9.233,1.636 l 0,0 0,-11.455 c 0,-1.8 1.461,-3.262 3.26,-3.262 l 0,0 8.986,0 c 5.656,3.969 9.75,10.018 11.152,17.032 l 0,0 c -4.066,-2.468 -8.828,-3.905 -13.921,-3.95"
         id="path3216" /></clipPath><linearGradient
       x1="0"
       y1="0"
       x2="1"
       y2="0"
       id="linearGradient3222"
       gradientUnits="userSpaceOnUse"
       gradientTransform="matrix(-49.156555,-38.437378,-38.437378,49.156555,113.00781,237.54248)"
       spreadMethod="pad"><stop
         id="stop3224"
         style="stop-color:#0d6aaa;stop-opacity:1"
         offset="0" /><stop
         id="stop3226"
         style="stop-color:#50ade5;stop-opacity:1"
         offset="1" /></linearGradient><clipPath
       id="clipPath3234"><path
         d="m 75.398,144.846 c -4.66,1.06 -9.108,2.542 -13.33,4.391 l 0,0 0,-25.059 c 0,-1.797 1.455,-3.26 3.258,-3.26 l 0,0 55.902,0 c 1.803,0 3.259,1.463 3.259,3.26 l 0,0 0,26.239 c -14.742,-7.109 -31.888,-9.49 -49.089,-5.571"
         id="path3236" /></clipPath><linearGradient
       x1="0"
       y1="0"
       x2="1"
       y2="0"
       id="linearGradient3242"
       gradientUnits="userSpaceOnUse"
       gradientTransform="matrix(-34.40004,-1.3409424,-1.3409424,34.40004,110.52539,135.8125)"
       spreadMethod="pad"><stop
         id="stop3244"
         style="stop-color:#80cc28;stop-opacity:1"
         offset="0" /><stop
         id="stop3246"
         style="stop-color:#2ea53a;stop-opacity:1"
         offset="0.466263" /><stop
         id="stop3248"
         style="stop-color:#2ea53a;stop-opacity:1"
         offset="1" /></linearGradient><clipPath
       id="clipPath3256"><path
         d="m 79.303,183.342 c 17.263,-15.297 26.713,-38.447 23.913,-62.424 l 0,0 18.012,0 c 1.803,0 3.259,1.463 3.259,3.26 l 0,0 0,55.91 c 0,1.796 -1.456,3.254 -3.259,3.254 l 0,0 -41.925,0 z"
         id="path3258" /></clipPath><linearGradient
       x1="0"
       y1="0"
       x2="1"
       y2="0"
       id="linearGradient3264"
       gradientUnits="userSpaceOnUse"
       gradientTransform="matrix(0.7697144,-26.026138,-26.026138,-0.7697144,102.09961,174.81787)"
       spreadMethod="pad"><stop
         id="stop3266"
         style="stop-color:#80cc28;stop-opacity:1"
         offset="0" /><stop
         id="stop3268"
         style="stop-color:#2ea53a;stop-opacity:1"
         offset="0.58282501" /><stop
         id="stop3270"
         style="stop-color:#2ea53a;stop-opacity:1"
         offset="1" /></linearGradient><clipPath
       id="clipPath3278"><path
         d="m 102.223,143.689 c 1.505,-7.348 1.9,-15.016 0.993,-22.771 l 0,0 18.012,0 c 1.803,0 3.259,1.463 3.259,3.26 l 0,0 0,26.239 c -6.968,-3.361 -14.473,-5.646 -22.264,-6.728"
         id="path3280" /></clipPath><linearGradient
       x1="0"
       y1="0"
       x2="1"
       y2="0"
       id="linearGradient3286"
       gradientUnits="userSpaceOnUse"
       gradientTransform="matrix(0.3554993,-12.020355,-12.020355,-0.3554993,113.39111,145.84082)"
       spreadMethod="pad"><stop
         id="stop3288"
         style="stop-color:#80cc28;stop-opacity:1"
         offset="0" /><stop
         id="stop3290"
         style="stop-color:#3ea437;stop-opacity:1"
         offset="0.58282501" /><stop
         id="stop3292"
         style="stop-color:#27963c;stop-opacity:1"
         offset="1" /></linearGradient><clipPath
       id="clipPath3300"><path
         d="m 124.487,150.417 c -0.048,-0.023 -0.094,-0.045 -0.142,-0.068 l 0,0 c -0.017,-0.008 -0.033,-0.016 -0.05,-0.024 l 0,0 c -0.035,-0.017 -0.069,-0.033 -0.103,-0.05 l 0,0 c -0.015,-0.007 -0.03,-0.014 -0.045,-0.021 l 0,0 c -0.046,-0.022 -0.094,-0.045 -0.141,-0.067 l 0,0 c -0.01,-0.005 -0.021,-0.01 -0.032,-0.015 l 0,0 c -0.042,-0.02 -0.085,-0.04 -0.127,-0.06 l 0,0 c -0.009,-0.004 -0.016,-0.008 -0.024,-0.011 l 0,0 c -6.778,-3.188 -14.052,-5.381 -21.597,-6.429 l 0,0 c 1.502,-7.343 1.588,-15.005 0.686,-22.754 l 0,0 18.316,0 c 1.803,0 3.259,1.463 3.259,3.26 l 0,0 0,26.239 c 0,0 0,0 0,0"
         id="path3302" /></clipPath><linearGradient
       x1="0"
       y1="0"
       x2="1"
       y2="0"
       id="linearGradient3308"
       gradientUnits="userSpaceOnUse"
       gradientTransform="matrix(-34.40004,-1.3409424,-1.3409424,34.40004,110.52539,135.8125)"
       spreadMethod="pad"><stop
         id="stop3310"
         style="stop-color:#80cc28;stop-opacity:1"
         offset="0" /><stop
         id="stop3312"
         style="stop-color:#3da337;stop-opacity:1"
         offset="0.466263" /><stop
         id="stop3314"
         style="stop-color:#27963c;stop-opacity:1"
         offset="1" /></linearGradient><clipPath
       id="clipPath3322"><path
         d="m 65.326,183.342 c -1.803,0 -3.258,-1.458 -3.258,-3.254 l 0,0 0,-55.91 c 0,-1.797 1.455,-3.26 3.258,-3.26 l 0,0 17.641,0 c -2.807,23.977 6.644,47.127 23.913,62.424 l 0,0 -41.554,0 z"
         id="path3324" /></clipPath><linearGradient
       x1="0"
       y1="0"
       x2="1"
       y2="0"
       id="linearGradient3330"
       gradientUnits="userSpaceOnUse"
       gradientTransform="matrix(-0.8216705,31.026611,31.026611,0.8216705,84.730957,144.04395)"
       spreadMethod="pad"><stop
         id="stop3332"
         style="stop-color:#80cc28;stop-opacity:1"
         offset="0" /><stop
         id="stop3334"
         style="stop-color:#2ea53a;stop-opacity:1"
         offset="0.46012899" /><stop
         id="stop3336"
         style="stop-color:#2ea53a;stop-opacity:1"
         offset="1" /></linearGradient><clipPath
       id="clipPath3344"><path
         d="m 79.303,183.342 c 5.408,-4.791 10.052,-10.351 13.788,-16.474 l 0,0 c 3.738,6.123 8.379,11.683 13.789,16.474 l 0,0 -27.577,0 z"
         id="path3346" /></clipPath><linearGradient
       x1="0"
       y1="0"
       x2="1"
       y2="0"
       id="linearGradient3352"
       gradientUnits="userSpaceOnUse"
       gradientTransform="matrix(-0.219986,8.3067932,8.3067932,0.219986,93.364258,173.0542)"
       spreadMethod="pad"><stop
         id="stop3354"
         style="stop-color:#80cc28;stop-opacity:1"
         offset="0" /><stop
         id="stop3356"
         style="stop-color:#44a736;stop-opacity:1"
         offset="0.46012899" /><stop
         id="stop3358"
         style="stop-color:#27963c;stop-opacity:1"
         offset="1" /></linearGradient><clipPath
       id="clipPath3366"><path
         d="m 79.303,183.342 c 0.037,-0.033 0.075,-0.066 0.112,-0.099 l 0,0 c 0.018,-0.016 0.036,-0.033 0.055,-0.049 l 0,0 c 0.018,-0.016 0.036,-0.032 0.054,-0.048 l 0,0 c 0.023,-0.021 0.047,-0.042 0.07,-0.063 l 0,0 c 0.01,-0.009 0.02,-0.018 0.031,-0.028 l 0,0 c 4.863,-4.361 9.1,-9.348 12.603,-14.808 l 0,0 c 0.292,-0.456 0.581,-0.916 0.863,-1.378 l 0,0 c 3.739,6.122 8.795,11.682 14.203,16.473 l 0,0 -27.991,0 z"
         id="path3368" /></clipPath><linearGradient
       x1="0"
       y1="0"
       x2="1"
       y2="0"
       id="linearGradient3374"
       gradientUnits="userSpaceOnUse"
       gradientTransform="matrix(0.7697144,-26.026138,-26.026138,-0.7697144,102.09961,174.81787)"
       spreadMethod="pad"><stop
         id="stop3376"
         style="stop-color:#80cc28;stop-opacity:1"
         offset="0" /><stop
         id="stop3378"
         style="stop-color:#3ea437;stop-opacity:1"
         offset="0.58282501" /><stop
         id="stop3380"
         style="stop-color:#27963c;stop-opacity:1"
         offset="1" /></linearGradient><clipPath
       id="clipPath3388"><path
         d="m 62.091,36.421 c 0,-1.8 1.454,-3.258 3.257,-3.258 l 0,0 24.897,0 c -2.965,6.51 -5.021,14.084 -5.89,22.273 l 0,0 c -8.187,0.871 -15.758,2.926 -22.264,5.891 l 0,0 0,-24.906 z"
         id="path3390" /></clipPath><linearGradient
       x1="0"
       y1="0"
       x2="1"
       y2="0"
       id="linearGradient3396"
       gradientUnits="userSpaceOnUse"
       gradientTransform="matrix(0.4047241,-18.947433,-18.947433,-0.4047241,75.722168,55.643555)"
       spreadMethod="pad"><stop
         id="stop3398"
         style="stop-color:#f9a72b;stop-opacity:1"
         offset="0" /><stop
         id="stop3400"
         style="stop-color:#c5402d;stop-opacity:1"
         offset="0.51533502" /><stop
         id="stop3402"
         style="stop-color:#c5402d;stop-opacity:1"
         offset="1" /></linearGradient><clipPath
       id="clipPath3410"><path
         d="m 62.091,36.421 c 0,-1.8 1.454,-3.258 3.257,-3.258 l 0,0 24.897,0 c -2.964,6.508 -5.02,14.08 -5.889,22.265 l 0,0 c -7.266,0.773 -14.04,2.484 -20.02,4.93 l 0,0 c -0.039,0.015 -0.078,0.031 -0.116,0.047 l 0,0 c -0.022,0.009 -0.043,0.018 -0.065,0.027 l 0,0 c -0.056,0.023 -0.113,0.047 -0.17,0.07 l 0,0 c -0.005,0.002 -0.01,0.004 -0.016,0.007 l 0,0 c -0.56,0.233 -1.113,0.473 -1.659,0.719 l 0,0 c -0.007,0.003 -0.014,0.006 -0.022,0.009 l 0,0 c -0.065,0.03 -0.131,0.06 -0.197,0.09 l 0,0 0,-24.906 z"
         id="path3412" /></clipPath><linearGradient
       x1="0"
       y1="0"
       x2="1"
       y2="0"
       id="linearGradient3418"
       gradientUnits="userSpaceOnUse"
       gradientTransform="matrix(38.542877,0,0,-38.542877,66.590332,47.292969)"
       spreadMethod="pad"><stop
         id="stop3420"
         style="stop-color:#f9a72b;stop-opacity:1"
         offset="0" /><stop
         id="stop3422"
         style="stop-color:#c5402d;stop-opacity:1"
         offset="0.51533502" /><stop
         id="stop3424"
         style="stop-color:#c5402d;stop-opacity:1"
         offset="1" /></linearGradient><clipPath
       id="clipPath3432"><path
         d="m 65.348,95.535 c -1.803,0 -3.257,-1.455 -3.257,-3.254 l 0,0 0,-55.86 c 0,-1.8 1.454,-3.258 3.257,-3.258 l 0,0 24.897,0 c -4.002,8.788 -6.359,19.498 -6.359,31.07 l 0,0 c 0,11.674 2.401,22.477 6.464,31.302 l 0,0 -25.002,0 z"
         id="path3434" /></clipPath><linearGradient
       x1="0"
       y1="0"
       x2="1"
       y2="0"
       id="linearGradient3440"
       gradientUnits="userSpaceOnUse"
       gradientTransform="matrix(-0.0558472,-49.68605,-49.68605,0.0558472,76.210449,85.548828)"
       spreadMethod="pad"><stop
         id="stop3442"
         style="stop-color:#f9a72b;stop-opacity:1"
         offset="0" /><stop
         id="stop3444"
         style="stop-color:#de5e15;stop-opacity:1"
         offset="0.611633" /><stop
         id="stop3446"
         style="stop-color:#de5e15;stop-opacity:1"
         offset="1" /></linearGradient><clipPath
       id="clipPath3454"><path
         d="m 65.348,95.535 c -1.803,0 -3.257,-1.455 -3.257,-3.254 l 0,0 0,-25.204 c 6.506,2.957 14.07,5.014 22.251,5.882 l 0,0 c 0.876,8.317 2.976,15.997 6.008,22.576 l 0,0 -25.002,0 z"
         id="path3456" /></clipPath><linearGradient
       x1="0"
       y1="0"
       x2="1"
       y2="0"
       id="linearGradient3462"
       gradientUnits="userSpaceOnUse"
       gradientTransform="matrix(-18.896286,0.0070953,0.0070953,18.896286,90.880371,81.300781)"
       spreadMethod="pad"><stop
         id="stop3464"
         style="stop-color:#f9a72b;stop-opacity:1"
         offset="0" /><stop
         id="stop3466"
         style="stop-color:#c5402d;stop-opacity:1"
         offset="0.44171101" /><stop
         id="stop3468"
         style="stop-color:#c5402d;stop-opacity:1"
         offset="1" /></linearGradient><clipPath
       id="clipPath3476"><path
         d="m 93.173,54.964 c -11.577,0 -22.295,2.361 -31.082,6.363 l 0,0 0,-24.906 c 0,-1.8 1.454,-3.258 3.257,-3.258 l 0,0 55.86,0 c 1.797,0 3.258,1.458 3.258,3.258 l 0,0 0,25.003 c -8.829,-4.062 -19.622,-6.46 -31.293,-6.46"
         id="path3478" /></clipPath><linearGradient
       x1="0"
       y1="0"
       x2="1"
       y2="0"
       id="linearGradient3484"
       gradientUnits="userSpaceOnUse"
       gradientTransform="matrix(57.189835,0,0,-57.189835,63.890625,47.292969)"
       spreadMethod="pad"><stop
         id="stop3486"
         style="stop-color:#fab22a;stop-opacity:1"
         offset="0" /><stop
         id="stop3488"
         style="stop-color:#de5e15;stop-opacity:1"
         offset="0.563263" /><stop
         id="stop3490"
         style="stop-color:#de5e15;stop-opacity:1"
         offset="0.563263" /><stop
         id="stop3492"
         style="stop-color:#de5e15;stop-opacity:1"
         offset="1" /></linearGradient><clipPath
       id="clipPath3500"><path
         d="m 65.348,95.535 c -1.803,0 -3.257,-1.455 -3.257,-3.254 l 0,0 0,-25.204 c 6.506,2.957 14.069,5.014 22.25,5.882 l 0,0 c 0.448,4.258 1.218,8.348 2.269,12.208 l 0,0 c 0.01,0.036 0.02,0.072 0.029,0.108 l 0,0 c 0.007,0.025 0.014,0.05 0.021,0.074 l 0,0 c 0.016,0.059 0.032,0.117 0.048,0.175 l 0,0 c 0.003,0.009 0.005,0.018 0.008,0.027 l 0,0 c 0.984,3.54 2.206,6.884 3.634,9.984 l 0,0 -25.002,0 z"
         id="path3502" /></clipPath><linearGradient
       x1="0"
       y1="0"
       x2="1"
       y2="0"
       id="linearGradient3508"
       gradientUnits="userSpaceOnUse"
       gradientTransform="matrix(0.8850861,-41.43483,-41.43483,-0.8850861,75.66748,91.847656)"
       spreadMethod="pad"><stop
         id="stop3510"
         style="stop-color:#f9a72b;stop-opacity:1"
         offset="0" /><stop
         id="stop3512"
         style="stop-color:#c5402d;stop-opacity:1"
         offset="0.41104099" /><stop
         id="stop3514"
         style="stop-color:#c5402d;stop-opacity:1"
         offset="1" /></linearGradient><clipPath
       id="clipPath3522"><path
         d="m 95.781,95.535 c 4.024,-8.805 6.402,-19.553 6.402,-31.171 l 0,0 c 0,-11.63 -2.381,-22.391 -6.42,-31.201 l 0,0 25.445,0 c 1.797,0 3.258,1.458 3.258,3.258 l 0,0 0,55.86 c 0,1.799 -1.461,3.254 -3.258,3.254 l 0,0 -25.427,0 z"
         id="path3524" /></clipPath><linearGradient
       x1="0"
       y1="0"
       x2="1"
       y2="0"
       id="linearGradient3530"
       gradientUnits="userSpaceOnUse"
       gradientTransform="matrix(-0.0100861,54.540909,54.540909,0.0100861,110.11963,36.810547)"
       spreadMethod="pad"><stop
         id="stop3532"
         style="stop-color:#fab22a;stop-opacity:1"
         offset="0" /><stop
         id="stop3534"
         style="stop-color:#de5e15;stop-opacity:1"
         offset="0.618164" /><stop
         id="stop3536"
         style="stop-color:#de5e15;stop-opacity:1"
         offset="1" /></linearGradient><clipPath
       id="clipPath3544"><path
         d="m 65.348,95.535 c -1.803,0 -3.257,-1.455 -3.257,-3.254 l 0,0 0,-25.204 c 8.785,3.997 19.491,6.354 31.056,6.354 l 0,0 c 11.678,0 22.486,-2.405 31.319,-6.475 l 0,0 0,25.325 c 0,1.799 -1.461,3.254 -3.258,3.254 l 0,0 -55.86,0 z"
         id="path3546" /></clipPath><linearGradient
       x1="0"
       y1="0"
       x2="1"
       y2="0"
       id="linearGradient3552"
       gradientUnits="userSpaceOnUse"
       gradientTransform="matrix(-55.237717,0.0207214,0.0207214,55.237717,121.08252,81.24707)"
       spreadMethod="pad"><stop
         id="stop3554"
         style="stop-color:#fab22a;stop-opacity:1"
         offset="0" /><stop
         id="stop3556"
         style="stop-color:#de5e15;stop-opacity:1"
         offset="0.63024902" /><stop
         id="stop3558"
         style="stop-color:#de5e15;stop-opacity:1"
         offset="1" /></linearGradient><clipPath
       id="clipPath3566"><path
         d="m 65.348,95.535 c -1.803,0 -3.257,-1.455 -3.257,-3.254 l 0,0 0,-25.204 c 6.506,2.957 14.07,5.014 22.251,5.882 l 0,0 c 0.876,8.317 2.976,15.997 6.008,22.576 l 0,0 -25.002,0 z"
         id="path3568" /></clipPath><linearGradient
       x1="0"
       y1="0"
       x2="1"
       y2="0"
       id="linearGradient3574"
       gradientUnits="userSpaceOnUse"
       gradientTransform="matrix(-25.020477,0.0093842,0.0093842,25.020477,88.80957,81.301758)"
       spreadMethod="pad"><stop
         id="stop3576"
         style="stop-color:#f9a72b;stop-opacity:1"
         offset="0" /><stop
         id="stop3578"
         style="stop-color:#c5402d;stop-opacity:1"
         offset="0.63024902" /><stop
         id="stop3580"
         style="stop-color:#c5402d;stop-opacity:1"
         offset="1" /></linearGradient><clipPath
       id="clipPath3588"><path
         d="m 65.348,95.535 c -1.803,0 -3.257,-1.455 -3.257,-3.254 l 0,0 0,-25.204 c 6.506,2.957 14.069,5.014 22.25,5.882 l 0,0 c 0.448,4.258 1.218,8.348 2.269,12.208 l 0,0 c 0.01,0.036 0.02,0.072 0.029,0.108 l 0,0 c 0.007,0.025 0.014,0.05 0.021,0.074 l 0,0 c 0.016,0.059 0.032,0.117 0.048,0.175 l 0,0 c 0.003,0.009 0.005,0.018 0.008,0.027 l 0,0 c 0.984,3.54 2.206,6.884 3.634,9.984 l 0,0 -25.002,0 z"
         id="path3590" /></clipPath><linearGradient
       x1="0"
       y1="0"
       x2="1"
       y2="0"
       id="linearGradient3596"
       gradientUnits="userSpaceOnUse"
       gradientTransform="matrix(-0.0558472,-49.68605,-49.68605,0.0558472,76.210449,85.548828)"
       spreadMethod="pad"><stop
         id="stop3598"
         style="stop-color:#fab22a;stop-opacity:1"
         offset="0" /><stop
         id="stop3600"
         style="stop-color:#de5e15;stop-opacity:1"
         offset="0.611633" /><stop
         id="stop3602"
         style="stop-color:#de5e15;stop-opacity:1"
         offset="1" /></linearGradient><clipPath
       id="clipPath3610"><path
         d="m 0,288.618 792,0 L 792,0 0,0 0,288.618 z"
         id="path3612" /></clipPath></defs><g
     transform="matrix(1.25,0,0,-1.25,0,320.00003)"
     id="g3050"><g
       transform="translate(-56.002857,-24.43761)"
       id="g3052"><g
         clip-path="url(#clipPath3056)"
         id="g3054"><g
           transform="translate(522.5127,190.9067)"
           id="g3060"><path
             d="m 0,0 -0.642,3.519 c -1.038,-2.64 -3.518,-4.158 -6.957,-4.158 -5.756,0 -8.555,4.077 -8.555,11.274 l 0,30.864 c 0,7.196 2.96,11.273 8.956,11.273 5.997,0 8.957,-3.998 8.957,-11.273 l 0,-2.959 -2.96,0 0,2.959 c 0,5.277 -1.759,8.395 -5.997,8.395 -4.238,0 -5.996,-3.118 -5.996,-8.395 l 0,-30.864 c 0,-5.278 1.758,-8.396 5.996,-8.396 4.238,0 5.997,3.118 5.997,8.396 l 0,10.794 -4.079,0 0,2.798 7.039,0 L 1.759,0 0,0 z"
             id="path3062"
             style="fill:#7b7979;fill-opacity:1;fill-rule:nonzero;stroke:none" /></g><g
           transform="translate(544.6611,232.2456)"
           id="g3064"><path
             d="m 0,0 c 0,5.277 -2.239,7.996 -6.559,7.996 l -4.315,0 0,-22.229 4.315,0 c 4.479,0 6.559,3.278 6.559,7.996 L 0,0 z m 0,-41.339 0,16.312 c 0,4.717 -2.08,7.996 -6.559,7.996 l -4.315,0 0,-24.308 -2.958,0 0,52.133 7.436,0 c 6.316,0 9.354,-3.599 9.354,-10.634 l 0,-6.557 c 0,-4.877 -2.239,-7.996 -5.038,-9.195 2.799,-1.2 5.038,-3.998 5.038,-8.875 l 0,-16.872 -2.958,0 z"
             id="path3066"
             style="fill:#7b7979;fill-opacity:1;fill-rule:nonzero;stroke:none" /></g><g
           transform="translate(562.8916,190.2676)"
           id="g3068"><path
             d="m 0,0 c -5.999,0 -9.115,3.917 -9.115,11.274 l 0,41.498 2.957,0 0,-41.498 c 0,-5.598 1.918,-8.396 6.158,-8.396 4.235,0 6.157,2.798 6.157,8.396 l 0,41.498 2.957,0 0,-41.498 C 9.114,3.917 5.994,0 0,0"
             id="path3070"
             style="fill:#7b7979;fill-opacity:1;fill-rule:nonzero;stroke:none" /></g><g
           transform="translate(593.7539,231.8457)"
           id="g3072"><path
             d="m 0,0 c 0,5.677 -2.156,8.396 -6.555,8.396 l -4.557,0 0,-24.548 4.557,0 c 4.399,0 6.555,2.639 6.555,8.316 L 0,0 z m -6.396,-18.95 -4.716,0 0,-21.989 -2.958,0 0,52.133 7.674,0 c 6.558,0 9.357,-4.238 9.357,-11.034 l 0,-8.077 c 0,-6.796 -2.799,-11.033 -9.357,-11.033"
             id="path3074"
             style="fill:#7b7979;fill-opacity:1;fill-rule:nonzero;stroke:none" /></g><g
           transform="translate(617.3438,232.4053)"
           id="g3076"><path
             d="m 0,0 c 0,5.597 -2.16,8.396 -6.396,8.396 -4.24,0 -6.399,-2.799 -6.399,-8.396 l 0,-30.864 c 0,-5.597 2.159,-8.395 6.399,-8.395 4.236,0 6.396,2.798 6.396,8.395 L 0,0 z m -6.396,-42.138 c -5.999,0 -9.357,3.918 -9.357,11.274 l 0,30.864 c 0,7.356 3.358,11.274 9.357,11.274 5.995,0 9.354,-3.918 9.354,-11.274 l 0,-30.864 c 0,-7.356 -3.359,-11.274 -9.354,-11.274"
             id="path3078"
             style="fill:#7b7979;fill-opacity:1;fill-rule:nonzero;stroke:none" /></g><g
           transform="translate(531.3857,126.9365)"
           id="g3080"><path
             d="m 0,0 0,40.46 c 0,2.878 0.4,7.196 0.4,7.196 L -8.794,0 l -3.68,0 -9.195,47.656 c 0,0 0.401,-4.399 0.401,-7.196 l 0,-40.46 -2.878,0 0,52.134 4.397,0 8.077,-42.777 c 0.399,-2.239 1.038,-6.157 1.038,-6.157 0,0 0.56,3.837 1.038,6.157 l 8.079,42.777 4.395,0 L 2.878,0 0,0 z"
             id="path3082"
             style="fill:#7b7979;fill-opacity:1;fill-rule:nonzero;stroke:none" /></g><g
           transform="translate(542.2627,126.9365)"
           id="g3084"><path
             d="m 0,0 0,52.134 13.594,0 0,-2.799 -10.636,0 0,-20.949 9.437,0 0,-2.799 -9.437,0 0,-22.708 10.636,0 L 13.594,0 0,0 z"
             id="path3086"
             style="fill:#7b7979;fill-opacity:1;fill-rule:nonzero;stroke:none" /></g><g
           transform="translate(574.7256,168.2764)"
           id="g3088"><path
             d="m 0,0 c 0,5.276 -2.239,7.996 -6.558,7.996 l -4.319,0 0,-22.228 4.319,0 c 4.478,0 6.558,3.278 6.558,7.995 L 0,0 z m 0,-41.34 0,16.313 c 0,4.716 -2.08,7.996 -6.558,7.996 l -4.319,0 0,-24.309 -2.958,0 0,52.134 7.436,0 c 6.316,0 9.357,-3.599 9.357,-10.635 l 0,-6.555 c 0,-4.879 -2.239,-7.996 -5.038,-9.196 2.799,-1.2 5.038,-3.998 5.038,-8.876 l 0,-16.872 -2.958,0 z"
             id="path3090"
             style="fill:#7b7979;fill-opacity:1;fill-rule:nonzero;stroke:none" /></g><g
           transform="translate(592.3164,126.2979)"
           id="g3092"><path
             d="m 0,0 c -5.998,0 -8.797,4.077 -8.797,11.274 l 0,30.863 c 0,7.198 2.799,11.275 8.797,11.275 5.995,0 8.794,-3.998 8.794,-11.275 l 0,-2.957 -2.958,0 0,2.957 c 0,5.278 -1.6,8.397 -5.836,8.397 -4.239,0 -5.839,-3.119 -5.839,-8.397 l 0,-30.863 c 0,-5.276 1.6,-8.396 5.839,-8.396 4.236,0 5.836,3.12 5.836,8.396 l 0,2.958 2.958,0 0,-2.958 C 8.794,3.997 5.995,0 0,0"
             id="path3094"
             style="fill:#7b7979;fill-opacity:1;fill-rule:nonzero;stroke:none" /></g><g
           transform="translate(615.1836,165.9575)"
           id="g3096"><path
             d="m 0,0 c -0.56,3.438 -1.04,9.596 -1.04,9.596 0,0 -0.48,-6.158 -1.04,-9.596 l -3.914,-22.47 9.913,0 L 0,0 z m 6.797,-39.021 -2.398,13.834 -10.874,0 -2.401,-13.834 -2.958,0 9.277,52.134 3.037,0 9.437,-52.134 -3.12,0 z"
             id="path3098"
             style="fill:#7b7979;fill-opacity:1;fill-rule:nonzero;stroke:none" /></g><g
           transform="translate(644.5264,167.8755)"
           id="g3100"><path
             d="m 0,0 c 0,5.677 -2.156,8.396 -6.555,8.396 l -5.919,0 0,-46.456 5.919,0 c 4.399,0 6.555,2.64 6.555,8.316 L 0,0 z m -6.396,-40.939 -9.036,0 0,52.134 9.036,0 c 6.559,0 9.358,-4.238 9.358,-11.034 l 0,-30.064 c 0,-6.796 -2.799,-11.036 -9.358,-11.036"
             id="path3102"
             style="fill:#7b7979;fill-opacity:1;fill-rule:nonzero;stroke:none" /></g><g
           transform="translate(669.4736,168.4351)"
           id="g3104"><path
             d="m 0,0 c 0,5.598 -2.155,8.396 -6.396,8.396 -4.236,0 -6.395,-2.798 -6.395,-8.396 l 0,-30.863 c 0,-5.597 2.159,-8.396 6.395,-8.396 4.241,0 6.396,2.799 6.396,8.396 L 0,0 z m -6.396,-42.137 c -5.995,0 -9.353,3.918 -9.353,11.274 l 0,30.863 c 0,7.356 3.358,11.275 9.353,11.275 5.999,0 9.358,-3.919 9.358,-11.275 l 0,-30.863 c 0,-7.356 -3.359,-11.274 -9.358,-11.274"
             id="path3106"
             style="fill:#7b7979;fill-opacity:1;fill-rule:nonzero;stroke:none" /></g><g
           transform="translate(507.2402,62.9688)"
           id="g3108"><path
             d="m 0,0 0,52.134 13.593,0 0,-2.799 -10.636,0 0,-20.95 9.436,0 0,-2.799 -9.436,0 0,-22.708 10.636,0 L 13.593,0 0,0 z"
             id="path3110"
             style="fill:#7b7979;fill-opacity:1;fill-rule:nonzero;stroke:none" /></g><g
           transform="translate(525.8691,62.9688)"
           id="g3112"><path
             d="m 0,0 0,52.134 2.959,0 0,-49.256 10.633,0 L 13.592,0 0,0 z"
             id="path3114"
             style="fill:#7b7979;fill-opacity:1;fill-rule:nonzero;stroke:none" /></g><g
           transform="translate(543.9385,62.9688)"
           id="g3116"><path
             d="m 0,0 0,52.134 13.594,0 0,-2.799 -10.636,0 0,-20.95 9.437,0 0,-2.799 -9.437,0 0,-22.708 10.636,0 L 13.594,0 0,0 z"
             id="path3118"
             style="fill:#7b7979;fill-opacity:1;fill-rule:nonzero;stroke:none" /></g><g
           transform="translate(570.4863,62.3291)"
           id="g3120"><path
             d="m 0,0 c -5.999,0 -8.798,4.077 -8.798,11.274 l 0,30.864 c 0,7.197 2.799,11.274 8.798,11.274 5.994,0 8.793,-3.997 8.793,-11.274 l 0,-2.958 -2.957,0 0,2.958 c 0,5.276 -1.6,8.396 -5.836,8.396 -4.24,0 -5.84,-3.12 -5.84,-8.396 l 0,-30.864 c 0,-5.277 1.6,-8.396 5.84,-8.396 4.236,0 5.836,3.119 5.836,8.396 l 0,2.958 2.957,0 0,-2.958 C 8.793,3.998 5.994,0 0,0"
             id="path3122"
             style="fill:#7b7979;fill-opacity:1;fill-rule:nonzero;stroke:none" /></g><g
           transform="translate(592.1543,112.3037)"
           id="g3124"><path
             d="m 0,0 0,-49.335 -2.958,0 0,49.335 -7.598,0 0,2.799 18.151,0 L 7.595,0 0,0 z"
             id="path3126"
             style="fill:#7b7979;fill-opacity:1;fill-rule:nonzero;stroke:none" /></g><g
           transform="translate(617.6611,104.3076)"
           id="g3128"><path
             d="m 0,0 c 0,5.276 -2.238,7.996 -6.558,7.996 l -4.319,0 0,-22.228 4.319,0 c 4.478,0 6.558,3.277 6.558,7.996 L 0,0 z m 0,-41.339 0,16.313 c 0,4.715 -2.08,7.995 -6.558,7.995 l -4.319,0 0,-24.308 -2.958,0 0,52.134 7.436,0 c 6.316,0 9.357,-3.601 9.357,-10.636 l 0,-6.556 c 0,-4.877 -2.239,-7.996 -5.038,-9.197 2.799,-1.199 5.038,-3.998 5.038,-8.873 l 0,-16.872 -2.958,0 z"
             id="path3130"
             style="fill:#7b7979;fill-opacity:1;fill-rule:nonzero;stroke:none" /></g><g
           transform="translate(642.208,104.4668)"
           id="g3132"><path
             d="m 0,0 c 0,5.598 -2.159,8.396 -6.396,8.396 -4.24,0 -6.399,-2.798 -6.399,-8.396 l 0,-30.863 c 0,-5.598 2.159,-8.397 6.399,-8.397 4.237,0 6.396,2.799 6.396,8.397 L 0,0 z m -6.396,-42.138 c -5.999,0 -9.357,3.918 -9.357,11.275 l 0,30.863 c 0,7.356 3.358,11.274 9.357,11.274 C -0.4,11.274 2.958,7.356 2.958,0 l 0,-30.863 c 0,-7.357 -3.358,-11.275 -9.354,-11.275"
             id="path3134"
             style="fill:#7b7979;fill-opacity:1;fill-rule:nonzero;stroke:none" /></g><g
           transform="translate(667.3936,62.9688)"
           id="g3136"><path
             d="m 0,0 -12.632,45.736 c 0,0 0.401,-3.359 0.401,-6.318 l 0,-39.418 -2.878,0 0,52.134 3.517,0 L 1.04,6.638 c 0,0 -0.4,3.356 -0.4,6.316 l 0,39.18 2.881,0 L 3.521,0 0,0 z"
             id="path3138"
             style="fill:#7b7979;fill-opacity:1;fill-rule:nonzero;stroke:none" /></g><path
           d="m 678.91,115.103 2.958,0 0,-52.134 -2.958,0 0,52.134 z"
           id="path3140"
           style="fill:#7b7979;fill-opacity:1;fill-rule:nonzero;stroke:none" /><g
           transform="translate(697.7803,62.3291)"
           id="g3142"><path
             d="m 0,0 c -5.999,0 -8.798,4.077 -8.798,11.274 l 0,30.864 c 0,7.197 2.799,11.274 8.798,11.274 5.995,0 8.794,-3.997 8.794,-11.274 l 0,-2.958 -2.958,0 0,2.958 c 0,5.276 -1.6,8.396 -5.836,8.396 -4.24,0 -5.84,-3.12 -5.84,-8.396 l 0,-30.864 c 0,-5.277 1.6,-8.396 5.84,-8.396 4.236,0 5.836,3.119 5.836,8.396 l 0,2.958 2.958,0 0,-2.958 C 8.794,3.998 5.995,0 0,0"
             id="path3144"
             style="fill:#7b7979;fill-opacity:1;fill-rule:nonzero;stroke:none" /></g><g
           transform="translate(727.6826,104.4668)"
           id="g3146"><path
             d="m 0,0 c 0,5.598 -2.156,8.396 -6.396,8.396 -4.236,0 -6.396,-2.798 -6.396,-8.396 l 0,-30.863 c 0,-5.598 2.16,-8.397 6.396,-8.397 4.24,0 6.396,2.799 6.396,8.397 L 0,0 z m -6.396,-42.138 c -5.995,0 -9.354,3.918 -9.354,11.275 l 0,30.863 c 0,7.356 3.359,11.274 9.354,11.274 5.999,0 9.357,-3.918 9.357,-11.274 l 0,-30.863 c 0,-7.357 -3.358,-11.275 -9.357,-11.275"
             id="path3148"
             style="fill:#7b7979;fill-opacity:1;fill-rule:nonzero;stroke:none" /></g></g></g><g
       transform="translate(-56.002857,-24.43761)"
       id="g3150"><g
         clip-path="url(#clipPath3154)"
         id="g3152"><g
           id="g3158"><g
             id="g3160"><path
               d="m 65.335,271.111 c -1.799,0 -3.26,-1.457 -3.26,-3.258 l 0,0 0,-55.882 c 0,-1.8 1.461,-3.262 3.26,-3.262 l 0,0 8.986,0 c 7.059,4.946 11.646,13.055 11.646,22.322 l 0,0 0.002,0.074 c 0,15.095 12.247,27.343 27.342,27.343 l 0,0 c 3.981,0 7.759,-0.877 11.167,-2.406 l 0,0 0,11.811 c 0,1.801 -1.46,3.258 -3.261,3.258 l 0,0 -55.882,0 z"
               id="path3168"
               style="fill:url(#linearGradient3162);stroke:none" /></g></g></g></g><g
       transform="translate(-56.002857,-24.43761)"
       id="g3170"><g
         clip-path="url(#clipPath3174)"
         id="g3172"><g
           id="g3178"><g
             id="g3180"><path
               d="M 109.749,271.111 C 103.01,266.136 98.654,258.332 98.654,249.309 l 0,0 -0.004,-0.182 c 0,-15.096 -12.246,-27.337 -27.342,-27.337 l 0,0 c -3.248,0 -6.344,0.597 -9.233,1.636 l 0,0 0,-11.455 c 0,-1.8 1.461,-3.262 3.26,-3.262 l 0,0 55.882,0 c 1.801,0 3.261,1.462 3.261,3.262 l 0,0 0,55.882 c 0,1.801 -1.46,3.258 -3.261,3.258 l 0,0 -11.468,0 z"
               id="path3188"
               style="fill:url(#linearGradient3182);stroke:none" /></g></g></g></g><g
       transform="translate(-56.002857,-24.43761)"
       id="g3190"><g
         clip-path="url(#clipPath3194)"
         id="g3192"><g
           id="g3198"><g
             id="g3200"><path
               d="m 109.749,271.111 c -4.98,-2.715 -10.344,-11.024 -10.596,-16.612 l 0,0 c 4.065,2.467 8.824,3.904 13.913,3.948 l 0,0 c 0.003,0 0.005,0 0.009,0 l 0,0 c 0.034,10e-4 0.066,10e-4 0.1,10e-4 l 0,0 c 0.008,0 0.017,0 0.025,0 l 0,0 c 0.037,0 0.074,0 0.111,0 l 0,0 c 3.981,0 7.759,-0.877 11.167,-2.406 l 0,0 0,11.811 c 0,1.801 -1.46,3.258 -3.261,3.258 l 0,0 -11.468,0 z"
               id="path3208"
               style="fill:url(#linearGradient3202);stroke:none" /></g></g></g></g><g
       transform="translate(-56.002857,-24.43761)"
       id="g3210"><g
         clip-path="url(#clipPath3214)"
         id="g3212"><g
           id="g3218"><g
             id="g3220"><path
               d="m 71.552,221.791 c -0.001,0 -0.003,0 -0.004,0 l 0,0 c -0.035,-0.001 -0.069,-0.001 -0.104,-0.001 l 0,0 c -0.008,0 -0.017,0 -0.025,0 l 0,0 c -0.037,0 -0.074,0 -0.111,0 l 0,0 c -3.248,0 -6.344,0.597 -9.233,1.636 l 0,0 0,-11.455 c 0,-1.8 1.461,-3.262 3.26,-3.262 l 0,0 8.986,0 c 5.656,3.969 9.75,10.018 11.152,17.032 l 0,0 c -4.066,-2.468 -8.828,-3.905 -13.921,-3.95"
               id="path3228"
               style="fill:url(#linearGradient3222);stroke:none" /></g></g></g></g><g
       transform="translate(-56.002857,-24.43761)"
       id="g3230"><g
         clip-path="url(#clipPath3234)"
         id="g3232"><g
           id="g3238"><g
             id="g3240"><path
               d="m 75.398,144.846 c -4.66,1.06 -9.108,2.542 -13.33,4.391 l 0,0 0,-25.059 c 0,-1.797 1.455,-3.26 3.258,-3.26 l 0,0 55.902,0 c 1.803,0 3.259,1.463 3.259,3.26 l 0,0 0,26.239 c -14.742,-7.109 -31.888,-9.49 -49.089,-5.571"
               id="path3250"
               style="fill:url(#linearGradient3242);stroke:none" /></g></g></g></g><g
       transform="translate(-56.002857,-24.43761)"
       id="g3252"><g
         clip-path="url(#clipPath3256)"
         id="g3254"><g
           id="g3260"><g
             id="g3262"><path
               d="m 79.303,183.342 c 17.263,-15.297 26.713,-38.447 23.913,-62.424 l 0,0 18.012,0 c 1.803,0 3.259,1.463 3.259,3.26 l 0,0 0,55.91 c 0,1.796 -1.456,3.254 -3.259,3.254 l 0,0 -41.925,0 z"
               id="path3272"
               style="fill:url(#linearGradient3264);stroke:none" /></g></g></g></g><g
       transform="translate(-56.002857,-24.43761)"
       id="g3274"><g
         clip-path="url(#clipPath3278)"
         id="g3276"><g
           id="g3282"><g
             id="g3284"><path
               d="m 102.223,143.689 c 1.505,-7.348 1.9,-15.016 0.993,-22.771 l 0,0 18.012,0 c 1.803,0 3.259,1.463 3.259,3.26 l 0,0 0,26.239 c -6.968,-3.361 -14.473,-5.646 -22.264,-6.728"
               id="path3294"
               style="fill:url(#linearGradient3286);stroke:none" /></g></g></g></g><g
       transform="translate(-56.002857,-24.43761)"
       id="g3296"><g
         clip-path="url(#clipPath3300)"
         id="g3298"><g
           id="g3304"><g
             id="g3306"><path
               d="m 124.487,150.417 c -0.048,-0.023 -0.094,-0.045 -0.142,-0.068 l 0,0 c -0.017,-0.008 -0.033,-0.016 -0.05,-0.024 l 0,0 c -0.035,-0.017 -0.069,-0.033 -0.103,-0.05 l 0,0 c -0.015,-0.007 -0.03,-0.014 -0.045,-0.021 l 0,0 c -0.046,-0.022 -0.094,-0.045 -0.141,-0.067 l 0,0 c -0.01,-0.005 -0.021,-0.01 -0.032,-0.015 l 0,0 c -0.042,-0.02 -0.085,-0.04 -0.127,-0.06 l 0,0 c -0.009,-0.004 -0.016,-0.008 -0.024,-0.011 l 0,0 c -6.778,-3.188 -14.052,-5.381 -21.597,-6.429 l 0,0 c 1.502,-7.343 1.588,-15.005 0.686,-22.754 l 0,0 18.316,0 c 1.803,0 3.259,1.463 3.259,3.26 l 0,0 0,26.239 c 0,0 0,0 0,0"
               id="path3316"
               style="fill:url(#linearGradient3308);stroke:none" /></g></g></g></g><g
       transform="translate(-56.002857,-24.43761)"
       id="g3318"><g
         clip-path="url(#clipPath3322)"
         id="g3320"><g
           id="g3326"><g
             id="g3328"><path
               d="m 65.326,183.342 c -1.803,0 -3.258,-1.458 -3.258,-3.254 l 0,0 0,-55.91 c 0,-1.797 1.455,-3.26 3.258,-3.26 l 0,0 17.641,0 c -2.807,23.977 6.644,47.127 23.913,62.424 l 0,0 -41.554,0 z"
               id="path3338"
               style="fill:url(#linearGradient3330);stroke:none" /></g></g></g></g><g
       transform="translate(-56.002857,-24.43761)"
       id="g3340"><g
         clip-path="url(#clipPath3344)"
         id="g3342"><g
           id="g3348"><g
             id="g3350"><path
               d="m 79.303,183.342 c 5.408,-4.791 10.052,-10.351 13.788,-16.474 l 0,0 c 3.738,6.123 8.379,11.683 13.789,16.474 l 0,0 -27.577,0 z"
               id="path3360"
               style="fill:url(#linearGradient3352);stroke:none" /></g></g></g></g><g
       transform="translate(-56.002857,-24.43761)"
       id="g3362"><g
         clip-path="url(#clipPath3366)"
         id="g3364"><g
           id="g3370"><g
             id="g3372"><path
               d="m 79.303,183.342 c 0.037,-0.033 0.075,-0.066 0.112,-0.099 l 0,0 c 0.018,-0.016 0.036,-0.033 0.055,-0.049 l 0,0 c 0.018,-0.016 0.036,-0.032 0.054,-0.048 l 0,0 c 0.023,-0.021 0.047,-0.042 0.07,-0.063 l 0,0 c 0.01,-0.009 0.02,-0.018 0.031,-0.028 l 0,0 c 4.863,-4.361 9.1,-9.348 12.603,-14.808 l 0,0 c 0.292,-0.456 0.581,-0.916 0.863,-1.378 l 0,0 c 3.739,6.122 8.795,11.682 14.203,16.473 l 0,0 -27.991,0 z"
               id="path3382"
               style="fill:url(#linearGradient3374);stroke:none" /></g></g></g></g><g
       transform="translate(-56.002857,-24.43761)"
       id="g3384"><g
         clip-path="url(#clipPath3388)"
         id="g3386"><g
           id="g3392"><g
             id="g3394"><path
               d="m 62.091,36.421 c 0,-1.8 1.454,-3.258 3.257,-3.258 l 0,0 24.897,0 c -2.965,6.51 -5.021,14.084 -5.89,22.273 l 0,0 c -8.187,0.871 -15.758,2.926 -22.264,5.891 l 0,0 0,-24.906 z"
               id="path3404"
               style="fill:url(#linearGradient3396);stroke:none" /></g></g></g></g><g
       transform="translate(-56.002857,-24.43761)"
       id="g3406"><g
         clip-path="url(#clipPath3410)"
         id="g3408"><g
           id="g3414"><g
             id="g3416"><path
               d="m 62.091,36.421 c 0,-1.8 1.454,-3.258 3.257,-3.258 l 0,0 24.897,0 c -2.964,6.508 -5.02,14.08 -5.889,22.265 l 0,0 c -7.266,0.773 -14.04,2.484 -20.02,4.93 l 0,0 c -0.039,0.015 -0.078,0.031 -0.116,0.047 l 0,0 c -0.022,0.009 -0.043,0.018 -0.065,0.027 l 0,0 c -0.056,0.023 -0.113,0.047 -0.17,0.07 l 0,0 c -0.005,0.002 -0.01,0.004 -0.016,0.007 l 0,0 c -0.56,0.233 -1.113,0.473 -1.659,0.719 l 0,0 c -0.007,0.003 -0.014,0.006 -0.022,0.009 l 0,0 c -0.065,0.03 -0.131,0.06 -0.197,0.09 l 0,0 0,-24.906 z"
               id="path3426"
               style="fill:url(#linearGradient3418);stroke:none" /></g></g></g></g><g
       transform="translate(-56.002857,-24.43761)"
       id="g3428"><g
         clip-path="url(#clipPath3432)"
         id="g3430"><g
           id="g3436"><g
             id="g3438"><path
               d="m 65.348,95.535 c -1.803,0 -3.257,-1.455 -3.257,-3.254 l 0,0 0,-55.86 c 0,-1.8 1.454,-3.258 3.257,-3.258 l 0,0 24.897,0 c -4.002,8.788 -6.359,19.498 -6.359,31.07 l 0,0 c 0,11.674 2.401,22.477 6.464,31.302 l 0,0 -25.002,0 z"
               id="path3448"
               style="fill:url(#linearGradient3440);stroke:none" /></g></g></g></g><g
       transform="translate(-56.002857,-24.43761)"
       id="g3450"><g
         clip-path="url(#clipPath3454)"
         id="g3452"><g
           id="g3458"><g
             id="g3460"><path
               d="m 65.348,95.535 c -1.803,0 -3.257,-1.455 -3.257,-3.254 l 0,0 0,-25.204 c 6.506,2.957 14.07,5.014 22.251,5.882 l 0,0 c 0.876,8.317 2.976,15.997 6.008,22.576 l 0,0 -25.002,0 z"
               id="path3470"
               style="fill:url(#linearGradient3462);stroke:none" /></g></g></g></g><g
       transform="translate(-56.002857,-24.43761)"
       id="g3472"><g
         clip-path="url(#clipPath3476)"
         id="g3474"><g
           id="g3480"><g
             id="g3482"><path
               d="m 93.173,54.964 c -11.577,0 -22.295,2.361 -31.082,6.363 l 0,0 0,-24.906 c 0,-1.8 1.454,-3.258 3.257,-3.258 l 0,0 55.86,0 c 1.797,0 3.258,1.458 3.258,3.258 l 0,0 0,25.003 c -8.829,-4.062 -19.622,-6.46 -31.293,-6.46"
               id="path3494"
               style="fill:url(#linearGradient3484);stroke:none" /></g></g></g></g><g
       transform="translate(-56.002857,-24.43761)"
       id="g3496"><g
         clip-path="url(#clipPath3500)"
         id="g3498"><g
           id="g3504"><g
             id="g3506"><path
               d="m 65.348,95.535 c -1.803,0 -3.257,-1.455 -3.257,-3.254 l 0,0 0,-25.204 c 6.506,2.957 14.069,5.014 22.25,5.882 l 0,0 c 0.448,4.258 1.218,8.348 2.269,12.208 l 0,0 c 0.01,0.036 0.02,0.072 0.029,0.108 l 0,0 c 0.007,0.025 0.014,0.05 0.021,0.074 l 0,0 c 0.016,0.059 0.032,0.117 0.048,0.175 l 0,0 c 0.003,0.009 0.005,0.018 0.008,0.027 l 0,0 c 0.984,3.54 2.206,6.884 3.634,9.984 l 0,0 -25.002,0 z"
               id="path3516"
               style="fill:url(#linearGradient3508);stroke:none" /></g></g></g></g><g
       transform="translate(-56.002857,-24.43761)"
       id="g3518"><g
         clip-path="url(#clipPath3522)"
         id="g3520"><g
           id="g3526"><g
             id="g3528"><path
               d="m 95.781,95.535 c 4.024,-8.805 6.402,-19.553 6.402,-31.171 l 0,0 c 0,-11.63 -2.381,-22.391 -6.42,-31.201 l 0,0 25.445,0 c 1.797,0 3.258,1.458 3.258,3.258 l 0,0 0,55.86 c 0,1.799 -1.461,3.254 -3.258,3.254 l 0,0 -25.427,0 z"
               id="path3538"
               style="fill:url(#linearGradient3530);stroke:none" /></g></g></g></g><g
       transform="translate(-56.002857,-24.43761)"
       id="g3540"><g
         clip-path="url(#clipPath3544)"
         id="g3542"><g
           id="g3548"><g
             id="g3550"><path
               d="m 65.348,95.535 c -1.803,0 -3.257,-1.455 -3.257,-3.254 l 0,0 0,-25.204 c 8.785,3.997 19.491,6.354 31.056,6.354 l 0,0 c 11.678,0 22.486,-2.405 31.319,-6.475 l 0,0 0,25.325 c 0,1.799 -1.461,3.254 -3.258,3.254 l 0,0 -55.86,0 z"
               id="path3560"
               style="fill:url(#linearGradient3552);stroke:none" /></g></g></g></g><g
       transform="translate(-56.002857,-24.43761)"
       id="g3562"><g
         clip-path="url(#clipPath3566)"
         id="g3564"><g
           id="g3570"><g
             id="g3572"><path
               d="m 65.348,95.535 c -1.803,0 -3.257,-1.455 -3.257,-3.254 l 0,0 0,-25.204 c 6.506,2.957 14.07,5.014 22.251,5.882 l 0,0 c 0.876,8.317 2.976,15.997 6.008,22.576 l 0,0 -25.002,0 z"
               id="path3582"
               style="fill:url(#linearGradient3574);stroke:none" /></g></g></g></g><g
       transform="translate(-56.002857,-24.43761)"
       id="g3584"><g
         clip-path="url(#clipPath3588)"
         id="g3586"><g
           id="g3592"><g
             id="g3594"><path
               d="m 65.348,95.535 c -1.803,0 -3.257,-1.455 -3.257,-3.254 l 0,0 0,-25.204 c 6.506,2.957 14.069,5.014 22.25,5.882 l 0,0 c 0.448,4.258 1.218,8.348 2.269,12.208 l 0,0 c 0.01,0.036 0.02,0.072 0.029,0.108 l 0,0 c 0.007,0.025 0.014,0.05 0.021,0.074 l 0,0 c 0.016,0.059 0.032,0.117 0.048,0.175 l 0,0 c 0.003,0.009 0.005,0.018 0.008,0.027 l 0,0 c 0.984,3.54 2.206,6.884 3.634,9.984 l 0,0 -25.002,0 z"
               id="path3604"
               style="fill:url(#linearGradient3596);stroke:none" /></g></g></g></g><g
       transform="translate(-56.002857,-24.43761)"
       id="g3606"><g
         clip-path="url(#clipPath3610)"
         id="g3608"><g
           transform="translate(338.0674,59.0205)"
           id="g3614"><path
             d="m 0,0 0,144.547 c 0,10.285 1.427,25.711 1.427,25.711 L -31.423,0 -44.565,0 -77.418,170.258 c 0,0 1.429,-15.712 1.429,-25.711 l 0,-144.547 -10.283,0 0,186.255 15.711,0 28.853,-152.83 c 1.426,-7.999 3.713,-21.998 3.713,-21.998 0,0 2.001,13.714 3.715,21.998 l 28.848,152.83 15.715,0 L 10.283,0 0,0 z"
             id="path3616"
             style="fill:#231f20;fill-opacity:1;fill-rule:nonzero;stroke:none" /></g><g
           transform="translate(220.7246,98.5996)"
           id="g3618"><path
             d="m 0,0 -0.131,46.938 -25.14,0 0,-10 14.57,0 0,-38.564 c 0,-18.84 -6.278,-29.981 -21.399,-29.993 -0.37,0 -0.733,0.01 -1.092,0.023 -14.367,0.517 -20.36,11.564 -20.36,29.97 l 0,110.268 c 0,18.853 6.283,29.995 21.425,29.995 15.141,0 21.426,-11.142 21.426,-29.995 l 0,-10.571 10.57,0 0,10.571 c 0,25.995 -10.57,40.278 -31.996,40.278 -21.425,0 -31.995,-14.569 -31.995,-40.278 l 0,-110.268 c 0,-25.709 9.998,-40.276 30.564,-40.276 0.221,0 0.428,0.013 0.642,0.016 0.292,-0.007 0.581,-0.02 0.876,-0.02 21.425,0 31.998,14.284 31.998,40.279 l 0,1.494 L 0,0 z"
             id="path3620"
             style="fill:#231f20;fill-opacity:1;fill-rule:nonzero;stroke:none" /></g><g
           transform="translate(379.5898,59.0205)"
           id="g3622"><path
             d="m 0,0 0,186.255 63.944,0 0,-9.998 -53.374,0 0,-74.845 49.088,0 0,-10 -49.088,0 0,-81.127 53.374,0 L 63.944,0 0,0 z"
             id="path3624"
             style="fill:#231f20;fill-opacity:1;fill-rule:nonzero;stroke:none" /></g><path
           d="m 476.476,32.6 -3.984,0 0,239.354 3.984,0 0,-239.354 z"
           id="path3626"
           style="fill:#7b7979;fill-opacity:1;fill-rule:nonzero;stroke:none" /></g></g></g></svg>
