<?xml version="1.0" encoding="UTF-8" standalone="no"?>
<!-- Created with Inkscape (http://www.inkscape.org/) -->

<svg
   xmlns:dc="http://purl.org/dc/elements/1.1/"
   xmlns:cc="http://creativecommons.org/ns#"
   xmlns:rdf="http://www.w3.org/1999/02/22-rdf-syntax-ns#"
   xmlns:svg="http://www.w3.org/2000/svg"
   xmlns="http://www.w3.org/2000/svg"
   version="1.1"
   width="100%"
   height="100%"
   preserveAspectRatio="xMidYMid meet"
   viewBox="0 0 192 112"
   id="svg8861"
   xml:space="preserve"><metadata
     id="metadata8867"><rdf:RDF><cc:Work
         rdf:about=""><dc:format>image/svg+xml</dc:format><dc:type
           rdf:resource="http://purl.org/dc/dcmitype/StillImage" /><dc:title></dc:title></cc:Work></rdf:RDF></metadata><defs
     id="defs8865"><clipPath
       id="clipPath8877"><path
         d="M 0,612 792,612 792,0 0,0 0,612 z"
         id="path8879" /></clipPath><clipPath
       id="clipPath9117"><path
         d="M 0,0 792,0 792,612 0,612 0,0 z"
         id="path9119" /></clipPath><clipPath
       id="clipPath9201"><path
         d="M 0,0 792,0 792,612 0,612 0,0 z"
         id="path9203" /></clipPath><clipPath
       id="clipPath9385"><path
         d="M 0,0 792,0 792,612 0,612 0,0 z"
         id="path9387" /></clipPath><clipPath
       id="clipPath9439"><path
         d="M 0,0 792,0 792,612 0,612 0,0 z"
         id="path9441" /></clipPath></defs><g
     transform="matrix(1.25,0,0,-1.25,-494.19682,513.92499)"
     id="g8869"><g
       transform="matrix(5.2020353,0,0,5.2020353,428.03144,388.46432)"
       id="g9205"><path
         d="m 0,0 -1.829,0 c 0,0 -1.652,-6.107 -1.94,-7.172 l 1.573,0 c 0.098,0.365 0.373,1.38 0.691,2.554 3.221,0.005 3.977,0.905 4.271,2.166 C 3.004,-1.432 2.806,0 0,0 m 1.118,-2.4 c -0.385,-1.236 -1.169,-1.452 -2.417,-1.455 0.306,1.13 0.625,2.308 0.85,3.141 l 0.274,0 c 1.484,0 1.607,-0.676 1.293,-1.686 m 19.892,0.095 c -0.618,0 -1.289,-0.607 -1.648,-1.042 l 0.274,0.96 -1.527,0 -1.292,-4.785 1.575,0 0.607,2.233 c 0.046,0.159 0.126,0.382 0.234,0.617 0.158,0.341 0.373,0.697 0.626,0.921 0.187,0.166 0.366,0.254 0.586,0.219 0.153,-0.024 0.196,-0.153 0.215,-0.285 0.015,-0.114 0.037,-0.249 0.169,-0.382 0.052,-0.051 0.179,-0.167 0.467,-0.167 0.381,0 0.713,0.323 0.713,0.794 0,0.4 -0.13,0.917 -0.999,0.917 m -8.321,-0.082 -3.915,0 -0.211,-0.785 2.184,-10e-4 C 10.265,-3.913 7.735,-5.66 7.735,-7.172 l 4.007,0 0.258,0.963 -2.467,0 c 0.586,1.126 2.705,2.334 3.156,3.822 m 2.714,-1.788 c -0.37,-0.29 -0.772,-0.396 -1.484,-0.421 0.117,0.528 0.418,1 0.808,1.301 0.233,0.178 0.516,0.27 0.69,0.27 0.383,0 0.467,-0.213 0.467,-0.349 0,-0.247 -0.15,-0.54 -0.481,-0.801 m 0.837,-1.506 c -0.081,-0.081 -0.772,-0.755 -1.506,-0.755 -0.547,0 -0.939,0.395 -0.939,0.856 0,0.099 -0.009,0.169 0.012,0.351 0.864,0 1.378,0.101 1.888,0.271 0.818,0.265 1.359,0.964 1.359,1.644 0,0.656 -0.715,1.04 -1.544,1.04 -1.666,0 -3.224,-1.476 -3.224,-3.207 0,-1.104 0.806,-1.849 1.996,-1.849 0.55,0 1.051,0.124 1.489,0.351 0.278,0.145 0.522,0.342 0.742,0.569 l -0.273,0.729 z m 6.87,3.627 c -0.005,-4.16 -5.702,-8.565 -13.149,-10.119 -1.784,-0.372 -3.53,-0.55 -5.176,-0.553 -0.855,-0.002 -1.683,0.043 -2.475,0.133 l 2.448,9.42 1.533,0 -1.073,-3.999 1.564,0 c 0.191,0.714 0.877,3.318 1.282,4.785 l -3.096,0 0.469,1.824 c 0.092,0.347 0.166,0.55 0.226,0.702 C 5.919,0.792 6.312,1.167 6.784,1.241 7.166,1.3 7.305,1.062 7.307,0.909 7.309,0.611 7.07,0.549 7.075,0.146 7.077,-0.15 7.268,-0.599 7.879,-0.599 c 0.597,0 0.97,0.408 1.001,1.019 C 8.894,0.715 8.838,1.04 8.396,1.35 7.929,1.678 7.093,1.748 6.532,1.698 5.499,1.605 4.762,0.963 4.303,0.186 3.949,-0.414 3.751,-0.948 3.394,-2.328 c 0,0 -1.818,-6.98 -2.608,-10.029 -3.74,0.744 -6.432,2.574 -6.97,5.151 -0.065,0.313 -0.097,0.629 -0.097,0.946 0.002,4.148 5.48,8.511 12.91,10.061 1.813,0.378 3.6,0.558 5.289,0.558 5.759,0 10.387,-2.085 11.099,-5.495 0.063,-0.304 0.094,-0.61 0.093,-0.918"
         id="path9207"
         style="fill:#0093d0;fill-opacity:1;fill-rule:nonzero;stroke:none" /></g></g></svg>
