<?xml version="1.0" encoding="UTF-8" standalone="no"?>
<!-- Created with Inkscape (http://www.inkscape.org/) -->

<svg
   xmlns:dc="http://purl.org/dc/elements/1.1/"
   xmlns:cc="http://creativecommons.org/ns#"
   xmlns:rdf="http://www.w3.org/1999/02/22-rdf-syntax-ns#"
   xmlns:svg="http://www.w3.org/2000/svg"
   xmlns="http://www.w3.org/2000/svg"
   version="1.1"
   width="100%"
   height="100%"
   preserveAspectRatio="xMidYMid meet"
   viewBox="0 0 480 180"
   id="svg3192"
   xml:space="preserve"><metadata
     id="metadata3198"><rdf:RDF><cc:Work
         rdf:about=""><dc:format>image/svg+xml</dc:format><dc:type
           rdf:resource="http://purl.org/dc/dcmitype/StillImage" /><dc:title></dc:title></cc:Work></rdf:RDF></metadata><defs
     id="defs3196" /><g
     transform="matrix(1.25,0,0,-1.25,0,180)"
     id="g3200"><g
       transform="matrix(0.13503813,0,0,0.13503813,-68.673382,-61.40804)"
       id="g3202"><path
         d="m 2003.7,1102.19 -93.62,-6 -29.61,-150.553 c -35.78,1.238 -47.07,2.394 -89.16,2.394 -131.76,0 -246.76,-55.398 -277.11,-185.304 -27.37,-117.141 39.15,-208.032 184.27,-208.032 148.62,0 213.31,77.524 236.53,186.575 l 68.7,360.92 z M 1865.02,882.297 1834.21,728.516 c -13.55,-62.371 -51.11,-103.965 -127.82,-103.965 -88.08,0 -111.29,54.609 -91.99,131.445 27.36,109.047 116.28,141.516 250.62,126.301"
         id="path3204"
         style="fill:#2c3797;fill-opacity:1;fill-rule:nonzero;stroke:none" /><path
         d="m 987.992,875.73 c -137.269,12.489 -255.379,1.118 -257.312,-45.496 -2.961,-70 226.277,-8.933 221.863,-137.695 -6.434,-189.16 -325.207,-145.644 -404.105,-121.57 l 14.335,56.14 C 698.77,605.52 842.238,603.75 845.395,678.75 c 3.375,79.727 -226.836,8.066 -221.434,137.172 4.031,96.144 147.894,148.016 383.379,113.426 L 987.992,875.73"
         id="path3206"
         style="fill:#2c3797;fill-opacity:1;fill-rule:nonzero;stroke:none" /><path
         d="m 1278.77,943.668 c -136.52,0 -246.29,-78.984 -273.27,-196.617 -27.059,-117.696 46.45,-196.68 182.94,-196.68 136.47,0 246.25,78.984 273.26,196.68 27.04,117.633 -46.45,196.617 -182.93,196.617 z m 79.4,-196.617 c -19.81,-78.965 -82.44,-128.555 -156.99,-128.555 -77.96,0 -113.06,45.203 -92.16,128.555 19.84,78.961 83.2,131.969 157.75,131.969 74.48,0 111.23,-53.008 91.4,-131.969"
         id="path3208"
         style="fill:#2c3797;fill-opacity:1;fill-rule:nonzero;stroke:none" /><path
         d="m 2856.2,552.383 -118.7,0 c -71.94,67.668 -209.63,223.156 -310.97,387.668 l 87.09,0 C 2609.87,807.25 2856.2,552.383 2856.2,552.383"
         id="path3210"
         style="fill:#2c3797;fill-opacity:1;fill-rule:nonzero;stroke:none" /><path
         d="m 2980.57,1322.39 54.6,113.84 15.56,-115.75 111.35,38.97 -77.81,-99.76 84.37,-65.37 -112.62,-8.72 -6.21,-120.33 -62.6,88.93 -92.04,-84.85 34.48,119.57 -108.54,14.72 105.66,60.18 -43.35,103 97.15,-44.43"
         id="path3212"
         style="fill:#2c3797;fill-opacity:1;fill-rule:nonzero;stroke:none" /><path
         d="m 3131.34,945.637 c -138.64,0 -250.13,-80.27 -277.59,-199.778 -27.45,-119.55 47.21,-199.765 185.84,-199.765 138.66,0 250.15,80.215 277.58,199.765 27.48,119.508 -47.19,199.778 -185.83,199.778 z M 3212,745.859 c -20.14,-80.195 -83.73,-130.566 -159.46,-130.566 -79.18,0 -114.84,45.898 -93.59,130.566 20.14,80.203 84.47,134.047 160.16,134.047 75.76,0 113.04,-53.844 92.89,-134.047"
         id="path3214"
         style="fill:#2c3797;fill-opacity:1;fill-rule:nonzero;stroke:none" /><path
         d="m 2336.58,585.43 c 224.15,124.484 418.84,315.808 556.95,481.21 -99.28,-310.742 -338.29,-477.968 -556.95,-481.21"
         id="path3216"
         style="fill:#ed1c24;fill-opacity:1;fill-rule:nonzero;stroke:none" /><path
         d="m 2406.5,844.973 c 0,57.289 -45.67,99.398 -149.29,99.398 -168.05,0 -277.26,-109.09 -277.26,-244.156 0,-87.227 72.4,-159.695 204.67,-159.695 91.11,0 151.96,44.91 151.96,44.91 -115.97,-12.422 -258.37,0 -258.37,124.062 0,4.934 0.26,9.856 0.64,14.766 158.24,-32.852 327.65,6.906 327.65,120.715 z m -158.64,41.019 c 42.94,0 66.31,-15.57 66.31,-45.351 0,-79.02 -154.06,-73.793 -222,-59.95 23.9,59.133 77.85,105.301 155.69,105.301"
         id="path3218"
         style="fill:#2c3797;fill-opacity:1;fill-rule:nonzero;stroke:none" /></g></g></svg>
