<?xml version="1.0" encoding="UTF-8" standalone="no"?>
<!-- Created with Inkscape (http://www.inkscape.org/) -->

<svg
   xmlns:dc="http://purl.org/dc/elements/1.1/"
   xmlns:cc="http://creativecommons.org/ns#"
   xmlns:rdf="http://www.w3.org/1999/02/22-rdf-syntax-ns#"
   xmlns:svg="http://www.w3.org/2000/svg"
   xmlns="http://www.w3.org/2000/svg"
   version="1.1"
   width="100%"
   height="100%"
   preserveAspectRatio="xMidYMid meet"
   viewBox="0 0 300 57"
   id="svg2"
   xml:space="preserve"><metadata
     id="metadata8"><rdf:RDF><cc:Work
         rdf:about=""><dc:format>image/svg+xml</dc:format><dc:type
           rdf:resource="http://purl.org/dc/dcmitype/StillImage" /><dc:title></dc:title></cc:Work></rdf:RDF></metadata><defs
     id="defs6"><clipPath
   id="clipPath18"><path
     d="M 0,850 700,850 700,0 0,0 0,850 z"
     id="path20" /></clipPath><clipPath
   id="clipPath32"><path
     d="M 0,850 700,850 700,0 0,0 0,850 z"
     id="path34" /></clipPath><clipPath
   id="clipPath44"><path
     d="M 0,850 700,850 700,0 0,0 0,850 z"
     id="path46" /></clipPath><clipPath
   id="clipPath64"><path
     d="M 0,850 700,850 700,0 0,0 0,850 z"
     id="path66" /></clipPath>



</defs><g
     transform="matrix(1.25,0,0,-1.25,0,57)"
     id="g10"><g
       id="g3248"><path
         d="m 47.810133,0.12625515 -0.653471,0 0,22.35941985 0.653471,0 0,-22.35941985 z"
         id="path12"
         style="fill:#ee3338;fill-opacity:1;fill-rule:nonzero;stroke:none" /><path
         d="m 48.629605,23.632175 c 0,-0.634061 -0.512979,-1.146116 -1.145192,-1.146116 -0.633136,0 -1.146116,0.512055 -1.146116,1.146116 0,0.633137 0.51298,1.145192 1.146116,1.145192 0.632213,0 1.145192,-0.512055 1.145192,-1.145192 z"
         id="path24"
         style="fill:none;stroke:#ee3338;stroke-width:0.18485741;stroke-linecap:butt;stroke-linejoin:miter;stroke-miterlimit:4;stroke-opacity:1;stroke-dasharray:none" /><path
         d="m 140.21203,0.11701959 -93.055369,0 0,0.65347092 93.055369,0 0,-0.65347092 z"
         id="path26"
         style="fill:#ee3338;fill-opacity:1;fill-rule:nonzero;stroke:none" /><path
         d="m 147.04503,0.25510807 0,7.96114413 0,0 0.53616,0 0,0 2.96241,0 c 0.67877,-8.1e-6 1.22576,-0.1751169 1.64097,-0.5253272 0.41521,-0.3466148 0.62281,-0.8051473 0.62282,-1.3755991 -1e-5,-0.6607262 -0.24553,-1.1770267 -0.73655,-1.5489028 -0.11193,-0.086657 -0.23288,-0.1606715 -0.36285,-0.2220456 l 0,0 c 0.26356,-0.093877 0.49283,-0.211218 0.6878,-0.3520234 0.5199,-0.3791056 0.77986,-0.9044323 0.77987,-1.5759815 -1e-5,-0.7401534 -0.25455,-1.3196374 -0.76362,-1.73845394 -0.50548,-0.41520727 -1.20953,-0.62281059 -2.11214,-0.62281059 l -2.71871,0 0,0 -0.53616,0 0,0 m 1.07774,7.04046753 0,-2.4695794 0,0 1.92259,0 c 0.58489,-4.5e-6 1.01273,0.1046997 1.28353,0.3141131 0.27078,0.2130143 0.40617,0.5469848 0.40618,1.0019128 -1e-5,0.3971482 -0.12457,0.6877929 -0.37369,0.8719348 -0.24913,0.1877389 -0.64087,0.2816117 -1.17522,0.2816187 l -2.06339,0 0,0 m 0,-3.3415142 0,-2.7782768 0,0 2.19337,0 c 0.61739,-9e-7 1.0687,0.1191454 1.35394,0.3574391 0.28883,0.2382913 0.43325,0.6137825 0.43326,1.1264748 -1e-5,0.4476987 -0.14984,0.7744483 -0.44951,0.9802498 -0.29967,0.2094051 -0.77084,0.3141094 -1.41351,0.3141131 l -2.11755,0 0,0"
         id="path3132"
         style="font-size:12px;font-variant:normal;font-weight:normal;font-stretch:normal;writing-mode:lr-tb;fill:#ed353a;fill-opacity:1;fill-rule:nonzero;stroke:none;font-family:Helvetica;-inkscape-font-specification:Helvetica" /><path
         d="m 166.30892,3.1741942 c 0,-0.9820569 -0.27621,-1.7510918 -0.82861,-2.30710703 -0.55241,-0.55240597 -1.31964,-0.82860866 -2.30169,-0.82860887 -1.02177,2.1e-7 -1.79983,0.26537142 -2.33418,0.7961144 -0.53436,0.5343523 -0.80153,1.3142187 -0.80153,2.3396015 l 0,5.042058 0,0 0.53615,0 0.54158,0 0,0 0,-4.9608218 c 0,-0.7401539 0.17511,-1.3033908 0.52533,-1.6897123 0.35021,-0.3827135 0.8611,-0.57406955 1.53265,-0.57406881 0.67155,-7.4e-7 1.18063,0.19135531 1.52724,0.57406881 0.35021,0.3863215 0.52532,0.9495584 0.52533,1.6897123 l 0,4.9608218 0,0 0.53616,0 0.54157,0 0,0 0,-5.042058"
         id="path3134"
         style="font-size:12px;font-variant:normal;font-weight:normal;font-stretch:normal;writing-mode:lr-tb;fill:#ed353a;fill-opacity:1;fill-rule:nonzero;stroke:none;font-family:Helvetica;-inkscape-font-specification:Helvetica" /><path
         d="m 173.72663,0.25510807 0,7.96114413 0,0 0.53616,0 0.54157,0 0,0 0,-7.96114413 0,0 -0.53616,0 -0.54157,0 0,0"
         id="path3136"
         style="font-size:12px;font-variant:normal;font-weight:normal;font-stretch:normal;writing-mode:lr-tb;fill:#ed353a;fill-opacity:1;fill-rule:nonzero;stroke:none;font-family:Helvetica;-inkscape-font-specification:Helvetica" /><path
         d="m 182.1933,0.25510807 0,0 0,7.96114413 0,0 0.53616,0 0.54157,0 0,0 0,-7.0079731 0,0 4.03473,0 0,0 0,-0.47658554 0,-0.47658549 0,0 -5.11246,0"
         id="path3138"
         style="font-size:12px;font-variant:normal;font-weight:normal;font-stretch:normal;writing-mode:lr-tb;fill:#ed353a;fill-opacity:1;fill-rule:nonzero;stroke:none;font-family:Helvetica;-inkscape-font-specification:Helvetica" /><path
         d="m 193.96002,0.25510807 0,7.96114413 0,0 0.53616,0 0,0 2.73495,0 c 1.01093,-8.1e-6 1.81427,-0.3610573 2.41001,-1.083149 0.59933,-0.7184949 0.899,-1.6861068 0.89901,-2.9028389 -1e-5,-1.2131294 -0.3069,-2.1789362 -0.92068,-2.8974231 -0.61018,-0.71848912 -1.43517,-1.07773313 -2.47499,-1.07773313 l -2.6483,0 0,0 -0.53616,0 0,0 m 1.07773,0.92067653 0,0 1.97134,0 c 0.77264,-9e-7 1.36837,0.2653702 1.78719,0.7961144 0.42242,0.5307407 0.63364,1.2835284 0.63364,2.2583653 0,0.9784395 -0.20219,1.7330325 -0.60656,2.2637812 -0.40438,0.5343466 -0.97845,0.8015231 -1.72221,0.8015301 l -2.0634,0 0,0 0,-6.119791"
         id="path3140"
         style="font-size:12px;font-variant:normal;font-weight:normal;font-stretch:normal;writing-mode:lr-tb;fill:#ed353a;fill-opacity:1;fill-rule:nonzero;stroke:none;font-family:Helvetica;-inkscape-font-specification:Helvetica" /><path
         d="m 207.56792,0.25510807 0,0 0,7.96114413 0,0 5.82193,0 0,0 0,-0.4765855 0,-0.4765856 0,0 -4.7442,0 0,0 0,-2.4316691 0,0 4.3326,0 0,-0.4765855 0,-0.4765855 0,0 -4.3326,0 0,0 0,-2.6699619 0,0 4.80377,0 0,0 0,-0.47658554 0,-0.47658549 0,0 -5.8815,0"
         id="path3142"
         style="font-size:12px;font-variant:normal;font-weight:normal;font-stretch:normal;writing-mode:lr-tb;fill:#ed353a;fill-opacity:1;fill-rule:nonzero;stroke:none;font-family:Helvetica;-inkscape-font-specification:Helvetica" /><path
         d="m 220.5333,0.25510807 0,7.96114413 0,0 0.53616,0 0,0 3.16821,0 c 0.84485,-8.1e-6 1.48752,-0.1841431 1.92801,-0.552406 0.44047,-0.3646672 0.66071,-0.9008253 0.66072,-1.6084761 -1e-5,-0.6968308 -0.22927,-1.2420152 -0.6878,-1.6355547 -0.11554,-0.097487 -0.2401,-0.1841393 -0.37369,-0.2599557 l 0,0 0.17872,-0.086652 c 0.4838,-0.2780118 0.73473,-0.7455706 0.75279,-1.4026777 l 0.0433,-1.4514196 c 0.007,-0.23829343 0.0379,-0.40979182 0.0921,-0.51449565 0.0542,-0.10470474 0.15886,-0.19496705 0.31411,-0.27078722 l 0,-0.17330381 -1.32685,0 c -0.0289,0.0649889 -0.0578,0.23468201 -0.0867,0.50907995 -0.0289,0.27439693 -0.0505,0.57948353 -0.065,0.91526083 l -0.0217,0.6282263 c -0.0144,0.4946354 -0.13539,0.8466585 -0.36285,1.0560701 -0.22746,0.213016 -0.59934,0.3195255 -1.11564,0.319529 l -2.55623,0 0,0 0,-3.43358193 0,0 -0.53616,0 -0.54158,0 0,0 m 1.07774,4.36508983 0,0 2.66454,0 c 0.49825,-4.3e-6 0.86291,0.1083104 1.09398,0.3249447 0.23107,0.2202354 0.34661,0.5668426 0.34661,1.0398228 0,0.4585269 -0.12276,0.7943027 -0.36827,1.0073285 -0.24191,0.2130123 -0.62642,0.3195219 -1.15355,0.3195289 l -2.58331,0 0,0 0,-2.6916249"
         id="path3144"
         style="font-size:12px;font-variant:normal;font-weight:normal;font-stretch:normal;writing-mode:lr-tb;fill:#ed353a;fill-opacity:1;fill-rule:nonzero;stroke:none;font-family:Helvetica;-inkscape-font-specification:Helvetica" /><path
         d="m 238.80958,5.9091451 0,0 c -0.047,0.5018528 -0.24552,0.8881755 -0.59573,1.1589692 -0.34661,0.2743907 -0.81417,0.4115894 -1.40268,0.4115966 -0.60657,-7.2e-6 -1.0669,-0.1173483 -1.38101,-0.3520233 -0.31412,-0.234689 -0.47118,-0.5776857 -0.47117,-1.0289915 -1e-5,-0.3068977 0.1047,-0.5361639 0.31411,-0.6877995 0.20941,-0.1516458 0.63003,-0.3014813 1.26187,-0.4495067 l 1.38643,-0.3303605 c 0.74375,-0.1769185 1.2745,-0.4386792 1.59222,-0.7852829 0.31773,-0.3430003 0.47658,-0.8286116 0.47659,-1.4568351 -1e-5,-0.7221008 -0.2744,-1.2943638 -0.82319,-1.71679102 -0.54519,-0.42242805 -1.28534,-0.63364187 -2.22046,-0.63364208 -1.03982,2.1e-7 -1.85218,0.24370847 -2.43708,0.73112547 -0.57046,0.48019503 -0.85569,1.13730463 -0.85569,1.97133093 l 0,0.059573 0,0 0.99108,0 0,0 c 0.0181,-0.5776814 0.22746,-1.0235772 0.62823,-1.3376889 0.40076,-0.314114 0.95858,-0.47117044 1.67346,-0.4711697 0.66072,-7.4e-7 1.16258,0.1137298 1.50558,0.3411919 0.34299,0.22746 0.51449,0.5614305 0.5145,1.0019127 -1e-5,0.3827101 -0.11374,0.6661338 -0.3412,0.8502719 -0.22385,0.1805216 -0.67516,0.35202 -1.35393,0.5144956 l -1.38643,0.3303605 c -0.70044,0.1660788 -1.20049,0.3971504 -1.50016,0.6932152 -0.29967,0.2960559 -0.44951,0.7058469 -0.44951,1.2293739 0,0.7618083 0.25815,1.3647606 0.77445,1.8088587 0.51991,0.4476935 1.22035,0.671544 2.10131,0.6715523 0.8954,-8.3e-6 1.60847,-0.2238588 2.13922,-0.6715523 0.53073,-0.4477087 0.81416,-1.0651029 0.85027,-1.8521846 l 0,0 -0.99108,0"
         id="path3146"
         style="font-size:12px;font-variant:normal;font-weight:normal;font-stretch:normal;writing-mode:lr-tb;fill:#ed353a;fill-opacity:1;fill-rule:nonzero;stroke:none;font-family:Helvetica;-inkscape-font-specification:Helvetica" /><g
         transform="matrix(0.92428702,0,0,0.92428702,-120.66336,-373.75708)"
         id="g40"><g
           clip-path="url(#clipPath44)"
           id="g42"><g
   transform="matrix(1,0,0,-1,129.7915,420.75)"
   id="text48"><path
     d="m 9.2460938,0 0,-22.746094 0,0 -8.73632818,0 0,0 0,-1.546875 0,-1.546875 0,0 20.97070338,0 0,0 0,1.546875 0,1.546875 0,0 -8.736328,0 0,0 0,22.746094 0,0 -1.740235,0 -1.7578122,0 0,0"
     id="path3107"
     style="font-size:36px;font-variant:normal;font-weight:normal;font-stretch:normal;writing-mode:lr-tb;fill:#292929;fill-opacity:1;fill-rule:nonzero;stroke:none;font-family:Helvetica;-inkscape-font-specification:Helvetica" /><path
     d="m 24.333891,0 0,-25.839844 0,0 1.582031,0 1.582031,0 0,0 0,9.580078 0,0 0,0 0.544922,-0.703125 c 1.371087,-1.60545 3.087882,-2.408183 5.150391,-2.408203 2.074205,2e-5 3.673813,0.562519 4.798828,1.6875 1.124983,1.125017 1.687482,2.724625 1.6875,4.798828 l 0,12.884766 0,0 -1.582031,0 -1.582031,0 0,0 0,-12.09375 c -1.5e-5,-1.55858 -0.298843,-2.67772 -0.896485,-3.357422 -0.597669,-0.69139 -1.570324,-1.037093 -2.917969,-1.037109 -1.593759,1.6e-5 -2.859382,0.580094 -3.796875,1.740234 -0.937506,1.148451 -1.406255,2.707043 -1.40625,4.675781 l 0,0 0,10.072266 0,0 -1.582031,0 -1.582031,0 0,0"
     id="path3109"
     style="font-size:36px;font-variant:normal;font-weight:normal;font-stretch:normal;writing-mode:lr-tb;fill:#292929;fill-opacity:1;fill-rule:nonzero;stroke:none;font-family:Helvetica;-inkscape-font-specification:Helvetica" /><path
     d="m 52.013954,0.50976562 c -2.60157,-5e-7 -4.710943,-0.91406209 -6.328125,-2.74218752 -1.605471,-1.8281209 -2.408204,-4.2246029 -2.408203,-7.1894531 -10e-7,-2.97655 0.802732,-5.378891 2.408203,-7.207031 1.617182,-1.828107 3.726555,-2.742168 6.328125,-2.742188 2.624988,2e-5 4.74022,0.914081 6.345703,2.742188 1.605451,1.82814 2.408185,4.230481 2.408203,7.207031 -1.8e-5,2.9648502 -0.802752,5.3613322 -2.408203,7.1894531 -1.605483,1.82812543 -3.720715,2.74218702 -6.345703,2.74218752 l 0,0 m 0,-2.72460942 c 1.664051,2.3e-6 2.988268,-0.6503877 3.972656,-1.9511718 0.98436,-1.3007758 1.476547,-3.0527272 1.476563,-5.2558594 -1.6e-5,-2.203113 -0.492203,-3.955065 -1.476563,-5.255859 -0.984388,-1.312484 -2.308605,-1.968734 -3.972656,-1.96875 -1.664071,1.6e-5 -2.988288,0.656266 -3.972656,1.96875 -0.972661,1.300794 -1.458989,3.052746 -1.458984,5.255859 -5e-6,2.2031322 0.486323,3.9550836 1.458984,5.2558594 0.984368,1.3007841 2.308585,1.9511741 3.972656,1.9511718 l 0,0"
     id="path3111"
     style="font-size:36px;font-variant:normal;font-weight:normal;font-stretch:normal;writing-mode:lr-tb;fill:#292929;fill-opacity:1;fill-rule:nonzero;stroke:none;font-family:Helvetica;-inkscape-font-specification:Helvetica" /><path
     d="m 67.635422,-18.808594 0,12.1289065 c -6e-6,1.5820363 0.304681,2.7246133 0.914062,3.4277344 0.609368,0.6914088 1.599602,1.0371116 2.970703,1.0371093 1.523427,2.3e-6 2.730457,-0.5859346 3.621094,-1.7578125 0.890611,-1.1835885 1.335923,-2.7831963 1.335938,-4.7988281 l 0,0 0,-10.0371096 0,0 1.582031,0 1.582031,0 0,0 0,18.808594 0,0 -1.49414,0 -1.511719,0 0,0 0,-2.8652344 0,0 0,0 c -0.210952,0.3398463 -0.445327,0.6621116 -0.703125,0.9667969 -1.347669,1.60546904 -3.035167,2.40820262 -5.0625,2.40820312 -2.132819,-5e-7 -3.732427,-0.5332031 -4.798828,-1.59960932 -1.06641,-1.0664041 -1.599612,-2.6660119 -1.59961,-4.7988282 l 0,-12.9199221 0,0 1.582032,0 1.582031,0 0,0"
     id="path3113"
     style="font-size:36px;font-variant:normal;font-weight:normal;font-stretch:normal;writing-mode:lr-tb;fill:#292929;fill-opacity:1;fill-rule:nonzero;stroke:none;font-family:Helvetica;-inkscape-font-specification:Helvetica" /><path
     d="m 91.272514,5.3261719 c 1.816396,-5.4e-6 3.199207,-0.5742235 4.148438,-1.7226563 0.949204,-1.1367212 1.423813,-2.80078203 1.423828,-4.9921875 l 0,-0.6152344 -0.01758,0.017578 c -1.300795,1.6640628 -3.000012,2.49609322 -5.097656,2.49609372 -2.519539,-5e-7 -4.523443,-0.93749957 -6.011719,-2.81250002 -1.488284,-1.8867145 -2.232423,-4.4296807 -2.232422,-7.6289062 -1e-6,-2.8242062 0.73242,-5.1035002 2.197266,-6.8378902 1.464838,-1.734357 3.380852,-2.601543 5.748046,-2.601563 2.261708,2e-5 4.054675,0.978534 5.378907,2.935547 l 0.228515,0.333985 0,0 0,-2.707032 0,0 2.970703,0 0,17.4199219 C 99.997106,1.7871076 99.282263,4.1367146 97.864311,5.6601562 96.446328,7.1835866 94.266643,7.9453046 91.325249,7.9453125 89.192429,7.9453046 87.499071,7.4531175 86.245171,6.46875 84.991261,5.4843695 84.235403,4.0546834 83.977592,2.1796875 l 0,0 3.234375,0 0,0 c 0.187495,1.0078093 0.632807,1.781246 1.335938,2.3203125 0.714836,0.5507762 1.623039,0.8261665 2.724609,0.8261719 m 0.615235,-21.8144529 c -1.76954,1.6e-5 -3.06446,0.562516 -3.884766,1.6875 -0.808599,1.125013 -1.212895,2.912121 -1.212891,5.3613279 -4e-6,2.3086009 0.439448,4.0898491 1.31836,5.34375 0.890618,1.2421903 2.150382,1.8632835 3.779297,1.8632812 1.535145,2.3e-6 2.771471,-0.5742159 3.708984,-1.7226562 0.937486,-1.1484324 1.406235,-2.666009 1.40625,-4.5527344 -1.5e-5,-2.6601455 -0.427749,-4.6523305 -1.283203,-5.9765625 -0.843763,-1.335922 -2.121105,-2.00389 -3.832031,-2.003906"
     id="path3115"
     style="font-size:36px;font-variant:normal;font-weight:normal;font-stretch:normal;writing-mode:lr-tb;fill:#292929;fill-opacity:1;fill-rule:nonzero;stroke:none;font-family:Helvetica;-inkscape-font-specification:Helvetica" /><path
     d="m 104.39789,0 0,-25.839844 0,0 1.58203,0 1.58203,0 0,0 0,9.580078 0,0 0,0 0.54492,-0.703125 c 1.37109,-1.60545 3.08788,-2.408183 5.15039,-2.408203 2.07421,2e-5 3.67382,0.562519 4.79883,1.6875 1.12498,1.125017 1.68748,2.724625 1.6875,4.798828 l 0,12.884766 0,0 -1.58203,0 -1.58203,0 0,0 0,-12.09375 c -2e-5,-1.55858 -0.29884,-2.67772 -0.89649,-3.357422 -0.59766,-0.69139 -1.57032,-1.037093 -2.91796,-1.037109 -1.59376,1.6e-5 -2.85939,0.580094 -3.79688,1.740234 -0.93751,1.148451 -1.40625,2.707043 -1.40625,4.675781 l 0,0 0,10.072266 0,0 -1.58203,0 -1.58203,0 0,0"
     id="path3117"
     style="font-size:36px;font-variant:normal;font-weight:normal;font-stretch:normal;writing-mode:lr-tb;fill:#292929;fill-opacity:1;fill-rule:nonzero;stroke:none;font-family:Helvetica;-inkscape-font-specification:Helvetica" /><path
     d="m 131.32209,-0.01757813 c -1.07813,0.16406236 -1.86329,0.24609353 -2.35547,0.24609376 -1.38282,-2.3e-7 -2.36133,-0.30468743 -2.93555,-0.9140625 -0.5625,-0.60937373 -0.84375,-1.65820083 -0.84375,-3.14648443 l 0,-12.3925777 0,0 -2.60156,0 0,-2.583985 2.60156,0 0,0 0,-5.273437 3.16407,0 0,5.273437 0,0 2.9707,0 0,2.583985 -2.9707,0 0,0 0,12.3925777 c -1e-5,0.4218785 0.16405,0.7558625 0.49218,1.0019532 0.33984,0.2460963 0.79101,0.3691431 1.35352,0.3691406 l 1.125,0 0,2.44335937"
     id="path3119"
     style="font-size:36px;font-variant:normal;font-weight:normal;font-stretch:normal;writing-mode:lr-tb;fill:#292929;fill-opacity:1;fill-rule:nonzero;stroke:none;font-family:Helvetica;-inkscape-font-specification:Helvetica" /><path
     d="m 138.35939,-16.189453 0,0 0,16.189453 0,0 -1.58203,0 -1.58203,0 0,0 0,-16.189453 0,0 -2.60156,0 0,-2.619141 2.60156,0 0,0 0,-3.199218 c -1e-5,-1.394508 0.41015,-2.443335 1.23047,-3.146485 0.8203,-0.703099 2.05077,-1.054661 3.6914,-1.054687 l 1.38867,0.05273 0,2.847656 -1.24804,-0.05273 c -0.60938,2.3e-5 -1.07813,0.199242 -1.40625,0.597656 -0.32813,0.386741 -0.4922,0.943381 -0.49219,1.669922 l 0,2.285156 0,0 3.14648,0 0,2.619141 -3.14648,0"
     id="path3121"
     style="font-size:36px;font-variant:normal;font-weight:normal;font-stretch:normal;writing-mode:lr-tb;fill:#292929;fill-opacity:1;fill-rule:nonzero;stroke:none;font-family:Helvetica;-inkscape-font-specification:Helvetica" /><path
     d="m 152.09395,0.50976562 c -2.60157,-5e-7 -4.71094,-0.91406209 -6.32813,-2.74218752 -1.60547,-1.8281209 -2.4082,-4.2246029 -2.4082,-7.1894531 0,-2.97655 0.80273,-5.378891 2.4082,-7.207031 1.61719,-1.828107 3.72656,-2.742168 6.32813,-2.742188 2.62499,2e-5 4.74022,0.914081 6.3457,2.742188 1.60545,1.82814 2.40819,4.230481 2.4082,7.207031 -1e-5,2.9648502 -0.80275,5.3613322 -2.4082,7.1894531 -1.60548,1.82812543 -3.72071,2.74218702 -6.3457,2.74218752 l 0,0 m 0,-2.72460942 c 1.66405,2.3e-6 2.98827,-0.6503877 3.97265,-1.9511718 0.98436,-1.3007758 1.47655,-3.0527272 1.47657,-5.2558594 -2e-5,-2.203113 -0.49221,-3.955065 -1.47657,-5.255859 -0.98438,-1.312484 -2.3086,-1.968734 -3.97265,-1.96875 -1.66407,1.6e-5 -2.98829,0.656266 -3.97266,1.96875 -0.97266,1.300794 -1.45899,3.052746 -1.45898,5.255859 -1e-5,2.2031322 0.48632,3.9550836 1.45898,5.2558594 0.98437,1.3007841 2.30859,1.9511741 3.97266,1.9511718 l 0,0"
     id="path3123"
     style="font-size:36px;font-variant:normal;font-weight:normal;font-stretch:normal;writing-mode:lr-tb;fill:#ffffff;fill-opacity:1;fill-rule:nonzero;stroke:none;font-family:Helvetica;-inkscape-font-specification:Helvetica" /><path
     d="m 164.88535,0 0,-18.808594 0,0 1.49414,0 1.51171,0 0,0 0,3.216797 0,0 0,0 c 0.26953,-0.50389 0.55664,-0.960921 0.86133,-1.371094 1.19531,-1.60545 2.66601,-2.408183 4.41211,-2.408203 0.29296,2e-5 0.59179,0.05275 0.89649,0.158203 l 0,3.234375 -0.65039,-0.01758 c -1.71095,1.6e-5 -3.03517,0.515641 -3.97266,1.546875 -0.92579,1.019545 -1.38868,2.478528 -1.38867,4.376953 l 0,0 0,10.072266 0,0 -1.58203,0 -1.58203,0 0,0"
     id="path3125"
     style="font-size:36px;font-variant:normal;font-weight:normal;font-stretch:normal;writing-mode:lr-tb;fill:#292929;fill-opacity:1;fill-rule:nonzero;stroke:none;font-family:Helvetica;-inkscape-font-specification:Helvetica" /><path
     d="m 176.43388,0 0,-18.808594 0,0 1.49414,0 1.51172,0 0,0 0,2.794922 0,0 0,0 0.65039,-0.84375 c 1.41797,-1.675763 3.11132,-2.513652 5.08008,-2.513672 1.68749,2e-5 3.02928,0.498066 4.02539,1.494141 0.4453,0.44533 0.791,0.955095 1.03711,1.529297 l 0,0 0.50977,-0.650391 c 1.35935,-1.582013 2.9824,-2.373027 4.86914,-2.373047 1.96872,2e-5 3.4863,0.539082 4.55273,1.617188 1.0781,1.066423 1.61716,2.583999 1.61719,4.552734 l 0,13.201172 0,0 -1.58203,0 -1.58203,0 0,0 0,-12.128906 c -3e-5,-1.429674 -0.293,-2.513657 -0.87891,-3.251953 -0.58596,-0.738266 -1.44143,-1.107406 -2.56641,-1.107422 -1.37111,1.6e-5 -2.46095,0.533219 -3.26953,1.599609 -0.80861,1.06642 -1.2129,2.507825 -1.21289,4.324219 l 0,0 0,10.564453 0,0 -1.58203,0 -1.58203,0 0,0 0,-12.884766 c -1e-5,-1.171861 -0.26954,-2.062485 -0.80859,-2.671875 -0.52736,-0.621077 -1.3008,-0.931624 -2.32032,-0.93164 -1.40625,1.6e-5 -2.56055,0.597672 -3.46289,1.792968 -0.89063,1.195326 -1.33594,2.736341 -1.33593,4.623047 l 0,0 0,10.072266 0,0 -1.58204,0 -1.58203,0 0,0"
     id="path3127"
     style="font-size:36px;font-variant:normal;font-weight:normal;font-stretch:normal;writing-mode:lr-tb;fill:#292929;fill-opacity:1;fill-rule:nonzero;stroke:none;font-family:Helvetica;-inkscape-font-specification:Helvetica" /><path
     d="m 217.19728,-13.359375 0,0 c -0.0938,-1.042954 -0.5215,-1.851547 -1.2832,-2.425781 -0.75001,-0.574203 -1.76368,-0.861312 -3.04102,-0.861328 -1.31251,1.6e-5 -2.31446,0.228532 -3.00586,0.685546 -0.67969,0.457047 -1.01953,1.125015 -1.01953,2.003907 0,0.667982 0.24023,1.171888 0.7207,1.511718 0.48047,0.339856 1.43554,0.6797 2.86524,1.019532 l 3.26953,0.773437 c 1.82811,0.445323 3.13475,1.0605567 3.91992,1.8457034 0.77342,0.7734455 1.16014,1.8574288 1.16016,3.2519531 -2e-5,1.8632849 -0.67385,3.339846 -2.02149,4.4296875 -1.33595,1.08984379 -3.14649,1.63476512 -5.43164,1.63476562 -2.64844,-5e-7 -4.62305,-0.52148436 -5.92382,-1.56445312 -1.30079,-1.0546854 -2.02149,-2.7070275 -2.16211,-4.9570312 l 0,0 3.04101,0 0,0 c 0.15234,1.3359421 0.62109,2.302738 1.40625,2.9003906 0.79687,0.5976587 2.00976,0.8964866 3.63867,0.8964843 1.41796,2.3e-6 2.49023,-0.2695287 3.2168,-0.8085937 0.73827,-0.5390589 1.10741,-1.3242144 1.10742,-2.3554687 -1e-5,-0.656244 -0.24025,-1.1542904 -0.7207,-1.4941407 -0.48048,-0.3398365 -1.44728,-0.6796799 -2.90039,-1.0195312 l -3.26953,-0.7734375 c -1.76954,-0.4218659 -3.0293,-1.0136622 -3.7793,-1.7753904 -0.75,-0.749989 -1.125,-1.804676 -1.125,-3.164063 0,-1.769516 0.62695,-3.169905 1.88086,-4.201172 1.26562,-1.04295 2.97656,-1.564433 5.13281,-1.564453 2.1914,2e-5 3.93163,0.533222 5.22071,1.59961 1.30076,1.066423 1.99217,2.537124 2.07421,4.412109 l 0,0 -2.9707,0"
     id="path3129"
     style="font-size:36px;font-variant:normal;font-weight:normal;font-stretch:normal;writing-mode:lr-tb;fill:#292929;fill-opacity:1;fill-rule:nonzero;stroke:none;font-family:Helvetica;-inkscape-font-specification:Helvetica" /></g>

</g></g><path
         d="m 140.77492,0.14104515 -0.65347,0 0,13.90773985 0.65347,0 0,-13.90773985 z"
         id="path56"
         style="fill:#ee3338;fill-opacity:1;fill-rule:nonzero;stroke:none" /><path
         d="m 149.32088,13.711425 -17.74631,0 0,19.94981 17.74631,0 0,-19.94981 z"
         id="path58"
         style="fill:#ee3338;fill-opacity:1;fill-rule:nonzero;stroke:none" /><g
         transform="scale(1,-1)"
         id="text68"
         style="font-size:11.09144402px"><path
           d="m 140.57819,-14.583345 c -2.4046,-1e-6 -4.35427,-0.844856 -5.84901,-2.534569 -1.48391,-1.689708 -2.22587,-3.904745 -2.22587,-6.645118 0,-2.751187 0.74196,-4.97164 2.22587,-6.661366 1.49474,-1.689695 3.44441,-2.53455 5.84901,-2.534568 2.42624,1.8e-5 4.38132,0.844873 5.86525,2.534568 1.4839,1.689726 2.22585,3.910179 2.22587,6.661366 -2e-5,2.740373 -0.74197,4.95541 -2.22587,6.645118 -1.48393,1.689713 -3.43901,2.534568 -5.86525,2.534569 l 0,0 m 0,-2.518321 c 1.53806,2e-6 2.76201,-0.601145 3.67187,-1.803443 0.90983,-1.20229 1.36476,-2.821596 1.36477,-4.857923 -1e-5,-2.036309 -0.45494,-3.655615 -1.36477,-4.857923 -0.90986,-1.213112 -2.13381,-1.819675 -3.67187,-1.81969 -1.53808,1.5e-5 -2.76204,0.606578 -3.67188,1.81969 -0.89902,1.202308 -1.34852,2.821614 -1.34852,4.857923 0,2.036327 0.4495,3.655633 1.34852,4.857923 0.90984,1.202298 2.1338,1.803445 3.67188,1.803443 l 0,0"
           id="path3209"
           style="font-size:33.27433395px;font-variant:normal;font-weight:normal;font-stretch:normal;writing-mode:lr-tb;fill:#ffffff;fill-opacity:1;fill-rule:nonzero;stroke:none;font-family:Helvetica;-inkscape-font-specification:Helvetica" /></g><path
         d="m 140.77492,33.255475 -0.65347,0 0,3.03258 0.65347,0 0,-3.03258 z"
         id="path72"
         style="fill:#ee3338;fill-opacity:1;fill-rule:nonzero;stroke:none" /><path
         d="m 131.57448,36.057725 8.87316,8.915673 8.87315,-8.915673 -17.74631,0 z"
         id="path76"
         style="fill:#ee3338;fill-opacity:1;fill-rule:nonzero;stroke:none" /></g></g></svg>
