<?xml version="1.0" encoding="UTF-8" standalone="no"?>
<!-- Created with Inkscape (http://www.inkscape.org/) -->

<svg
   xmlns:dc="http://purl.org/dc/elements/1.1/"
   xmlns:cc="http://creativecommons.org/ns#"
   xmlns:rdf="http://www.w3.org/1999/02/22-rdf-syntax-ns#"
   xmlns:svg="http://www.w3.org/2000/svg"
   xmlns="http://www.w3.org/2000/svg"
   version="1.2"
   width="100%"
   height="100%"
   preserveAspectRatio="xMidYMid meet"
   viewBox="0 0 744 220"
   id="svg2">
  <defs
     id="defs4" />
  <metadata
     id="metadata7">
    <rdf:RDF>
      <cc:Work
         rdf:about="">
        <dc:format>image/svg+xml</dc:format>
        <dc:type
           rdf:resource="http://purl.org/dc/dcmitype/StillImage" />
        <dc:title></dc:title>
      </cc:Work>
    </rdf:RDF>
  </metadata>
  <g
     transform="translate(0,-832.36215)"
     id="layer1">
    <g
       transform="matrix(2.6969198,0,0,2.6969198,2907.9086,-201.6414)"
       id="flowRoot2985"
       style="font-size:40px;font-style:normal;font-weight:normal;line-height:125%;letter-spacing:0px;word-spacing:0px;fill:#666666;fill-opacity:1;stroke:none;font-family:Sans">
      <path
         d="m -959.19531,431.79753 0,4.29688 c -2.86461,1.5625 -6.1719,2.34375 -9.92188,2.34375 -3.04689,0 -5.63152,-0.61198 -7.7539,-1.83594 -2.12241,-1.22396 -3.80209,-2.91015 -5.03907,-5.05859 -1.23698,-2.14843 -1.85547,-4.47265 -1.85546,-6.97266 -10e-6,-3.97134 1.41275,-7.31118 4.23828,-10.01953 2.83853,-2.70831 6.33462,-4.06247 10.48828,-4.0625 2.86456,3e-5 6.04815,0.74872 9.55078,2.24609 l 0,4.19922 c -3.19013,-1.82289 -6.30861,-2.73435 -9.35547,-2.73437 -3.12501,2e-5 -5.72267,0.9896 -7.79297,2.96875 -2.0573,1.96616 -3.08594,4.43361 -3.08594,7.40234 0,2.9948 1.01562,5.45574 3.04688,7.38281 2.03124,1.92709 4.62889,2.89063 7.79297,2.89063 3.30727,0 6.53643,-1.01562 9.6875,-3.04688"
         id="path3929"
         style="font-variant:normal;font-stretch:normal;fill:#666666;font-family:Gill Sans MT;-inkscape-font-specification:Gill Sans MT" />
      <path
         d="m -940.95312,410.44988 c 4.21872,2e-5 7.72784,1.33466 10.52734,4.0039 2.81247,2.66929 4.21872,6.01565 4.21875,10.03907 -3e-5,4.02344 -1.4193,7.35677 -4.25781,10 -2.82555,2.6302 -6.39325,3.94531 -10.70313,3.94531 -4.11459,0 -7.54558,-1.31511 -10.29297,-3.94531 -2.73438,-2.64323 -4.10156,-5.95052 -4.10156,-9.92188 0,-4.0755 1.38021,-7.4479 4.14063,-10.11719 2.7604,-2.66924 6.24998,-4.00388 10.46875,-4.0039 m 0.15625,3.71093 c -3.12502,3e-5 -5.69663,0.97659 -7.71485,2.92969 -2.00521,1.95315 -3.00782,4.44663 -3.00781,7.48047 -10e-6,2.94272 1.00911,5.39063 3.02734,7.34375 2.01822,1.95313 4.54426,2.92969 7.57813,2.92969 3.04685,0 5.58591,-0.99609 7.61719,-2.98828 2.04424,-1.99218 3.06637,-4.47265 3.0664,-7.44141 -3e-5,-2.89061 -1.02216,-5.31899 -3.0664,-7.28516 -2.03128,-1.97914 -4.53127,-2.96872 -7.5,-2.96875"
         id="path3931"
         style="fill:#2a7fff;font-family:Gill Sans MT;-inkscape-font-specification:Gill Sans MT" />
      <path
         d="m -908.31641,414.49285 c -1.27605,-0.72915 -2.38933,-1.25649 -3.33984,-1.58204 -0.95053,-0.33851 -1.82944,-0.50778 -2.63672,-0.50781 -1.69272,3e-5 -3.12501,0.52737 -4.29687,1.58203 -1.15886,1.04169 -1.73829,2.31773 -1.73828,3.82813 -10e-6,1.18491 0.4427,2.18752 1.32812,3.00781 0.87239,0.80731 2.36327,1.58856 4.47266,2.34375 2.73436,0.9896 4.62889,2.07033 5.68359,3.24219 1.05467,1.15886 1.58201,2.76042 1.58203,4.80469 -2e-5,2.03125 -0.74871,3.75 -2.24609,5.15625 -1.48439,1.39322 -3.30731,2.08984 -5.46875,2.08984 -1.30209,0 -2.51954,-0.1888 -3.65235,-0.56641 -1.11979,-0.3776 -2.27865,-0.98307 -3.47656,-1.8164 l 0,-2.40235 c 1.30208,0.97657 2.50651,1.70573 3.61328,2.1875 1.11979,0.46875 2.18749,0.70313 3.20313,0.70313 1.62759,0 3.00129,-0.54687 4.12109,-1.64063 1.11978,-1.10676 1.67967,-2.46093 1.67969,-4.0625 -2e-5,-1.23697 -0.46226,-2.30468 -1.38672,-3.20312 -0.91147,-0.88541 -2.37631,-1.6927 -4.39453,-2.42188 -2.83855,-1.01561 -4.76563,-2.06378 -5.78125,-3.14453 -1.00261,-1.06769 -1.50391,-2.60415 -1.50391,-4.60937 0,-1.95311 0.79427,-3.60024 2.38282,-4.94141 1.60155,-1.35414 3.56119,-2.03122 5.8789,-2.03125 0.98957,3e-5 1.9466,0.13024 2.8711,0.39063 0.92446,0.26044 1.95962,0.69664 3.10546,1.30859 l 0,2.28516"
         id="path3933"
         style="font-size:40px;text-align:start;line-height:125%;writing-mode:lr-tb;text-anchor:start;fill:#666666;font-family:Gill Sans Light;-inkscape-font-specification:'Gill Sans Light,'" />
      <path
         d="m -902.47656,438.12566 0,-27.28516 0,0 1.05469,0 1.05468,0 0,0 0,12.69531 0,0 18.22266,0 0,0 0,-12.69531 0,0 1.05469,0 1.05468,0 0,0 0,27.28516 0,0 -1.05468,0 -1.05469,0 0,0 0,-12.83203 0,0 -18.22266,0 0,0 0,12.83203 0,0 -1.05468,0 -1.05469,0 0,0"
         id="path3935"
         style="font-size:40px;text-align:start;line-height:125%;writing-mode:lr-tb;text-anchor:start;fill:#666666;font-family:Gill Sans Light;-inkscape-font-specification:'Gill Sans Light,'" />
      <path
         d="m -876.73437,438.12566 12.59765,-27.5586 0.58594,0 0.58594,0 12.59765,27.5586 0,0 -1.15234,0 -1.17188,0 0,0 -4.29687,-9.45313 0,0 -13.32031,0 0,0 -4.23828,9.45313 0,0 -1.09375,0 -1.09375,0 0,0 m 13.08593,-24.14063 -5.83984,12.92969 0,0 11.71875,0 0,0 -5.87891,-12.92969 0,0 0,0"
         id="path3937"
         style="font-size:40px;text-align:start;line-height:125%;writing-mode:lr-tb;text-anchor:start;fill:#666666;font-family:Gill Sans Light;-inkscape-font-specification:'Gill Sans Light,'" />
      <path
         d="m -847.00781,438.12566 0,-27.28516 0,0 1.05469,0 0,0 5.68359,0 c 2.91665,3e-5 5.1953,0.62503 6.83594,1.875 1.65362,1.25003 2.48045,2.98831 2.48047,5.21485 -2e-5,2.21356 -0.82685,3.94532 -2.48047,5.19531 -0.75523,0.57293 -1.66018,1.01564 -2.71485,1.32812 l 0,0 c 0.40363,0.27345 0.8854,0.70965 1.44532,1.3086 1.06769,1.14584 2.12888,2.54558 3.18359,4.19922 l 5.17578,8.16406 0,0 -1.21094,0 -1.21093,0 0,0 -5.17579,-8.16406 c -1.27605,-2.01822 -2.33725,-3.33333 -3.18359,-3.94532 -0.83335,-0.62498 -1.98569,-0.93748 -3.45703,-0.9375 l -4.31641,0 0,0 0,13.04688 0,0 -1.05468,0 -1.05469,0 0,0 m 2.10937,-14.7461 0,0 4.64844,0 c 2.21353,2e-5 3.92577,-0.46222 5.13672,-1.38671 1.22394,-0.93749 1.83592,-2.24608 1.83594,-3.92579 -2e-5,-1.69268 -0.612,-3.00127 -1.83594,-3.92578 -1.21095,-0.93747 -2.92319,-1.40622 -5.13672,-1.40625 l -4.64844,0 0,0 0,10.64453"
         id="path3939"
         style="font-size:40px;text-align:start;line-height:125%;writing-mode:lr-tb;text-anchor:start;fill:#666666;font-family:Gill Sans Light;-inkscape-font-specification:'Gill Sans Light,'" />
      <path
         d="m -824,438.12566 0,0 0,-27.28516 0,0 14.72656,0 0,0 0,0.87891 0,0.8789 0,0 -12.61718,0 0,0 0,10.9375 0,0 12.32421,0 0,0.87891 0,0.87891 0,0 -12.32421,0 0,0 0,11.07422 0,0 13.08593,0 0,0 0,0.8789 0,0.87891 0,0 -15.19531,0"
         id="path3941"
         style="font-size:40px;text-align:start;line-height:125%;writing-mode:lr-tb;text-anchor:start;fill:#666666;font-family:Gill Sans Light;-inkscape-font-specification:'Gill Sans Light,'" />
    </g>
    <path
       d="m -876.81241,417.22876 a 17.930208,17.930208 0 1 1 -35.86041,0 17.930208,17.930208 0 1 1 35.86041,0 z"
       transform="matrix(2.0600335,0,0,2.0600335,1950.2541,86.552142)"
       id="path2999"
       style="fill:#2a7fff" />
    <path
       d="m 97.661184,905.49944 9.401676,-58.6052 9.38463,58.49892 z"
       id="path3001"
       style="fill:#808080;stroke:none" />
    <path
       d="m 116.44749,986.55579 -9.4017,58.60521 -9.384606,-58.49889 z"
       id="path3001-0"
       style="fill:#808080;stroke:none" />
    <path
       d="M 65.99592,955.45054 7.3907194,946.04887 65.889608,936.66424 z"
       id="path3001-05"
       style="fill:#808080;stroke:none" />
    <path
       d="m 147.0523,936.66424 58.60521,9.4017 -58.49892,9.3846 z"
       id="path3001-0-8"
       style="fill:#808080;stroke:none" />
    <path
       d="m 129.73371,910.68055 c 20.50531,-5.20319 34.28233,-20.01819 48.08811,-34.7921 -8.77721,17.95968 -16.492,36.66306 -34.72905,48.00086 z"
       id="path3001-0-8-1"
       style="fill:#b3b3b3;stroke:none" />
    <path
       d="m 83.849556,981.52348 c -20.505327,5.20319 -34.282354,20.01822 -48.08813,34.79212 8.777206,-17.9597 16.492015,-36.66309 34.729045,-48.00091 z"
       id="path3001-0-8-1-8"
       style="fill:#b3b3b3;stroke:none" />
    <path
       d="m 141.57769,969.27431 c 5.2032,20.50533 20.01819,34.28239 34.79213,48.08809 -17.95967,-8.7772 -36.66308,-16.492 -48.00089,-34.72901 z"
       id="path3001-0-8-1-2"
       style="fill:#b3b3b3;stroke:none" />
    <path
       d="m 70.73479,923.39016 c -5.203198,-20.5053 -20.018215,-34.28235 -34.792131,-48.08813 17.959679,8.77724 36.663088,16.49202 48.000889,34.72905 z"
       id="path3001-0-8-1-8-7"
       style="fill:#b3b3b3;stroke:none" />
  </g>
</svg>
