<?xml version="1.0" encoding="UTF-8" standalone="no"?>
<!-- Created with Inkscape (http://www.inkscape.org/) -->

<svg
   xmlns:dc="http://purl.org/dc/elements/1.1/"
   xmlns:cc="http://creativecommons.org/ns#"
   xmlns:rdf="http://www.w3.org/1999/02/22-rdf-syntax-ns#"
   xmlns:svg="http://www.w3.org/2000/svg"
   xmlns="http://www.w3.org/2000/svg"
   version="1.2"
   width="100%"
   height="100%"
   preserveAspectRatio="xMidYMid meet"
   viewBox="0 0 500 115"
   id="svg2">
  <defs
     id="defs4" />
  <metadata
     id="metadata7">
    <rdf:RDF>
      <cc:Work
         rdf:about="">
        <dc:format>image/svg+xml</dc:format>
        <dc:type
           rdf:resource="http://purl.org/dc/dcmitype/StillImage" />
        <dc:title></dc:title>
      </cc:Work>
    </rdf:RDF>
  </metadata>
  <g
     transform="translate(0,-937.36218)"
     id="layer1">
    <g
       transform="matrix(0.28762038,0,0,0.28762038,390.35087,910.84719)"
       id="g4073">
      <g
         transform="translate(53.120555,20.505584)"
         id="g3880">
        <path
           d="m -1189.8389,-143.47377 -143.6833,-1e-5 -71.8417,-124.43342 71.8417,-124.43342 143.6833,10e-6 71.8417,124.43342 z"
           transform="matrix(0.85387568,0,0,0.85387568,-43.102068,415.54716)"
           id="path3074"
           style="fill:#b34926;fill-opacity:1" />
        <path
           d="m -1189.8389,-143.47377 -143.6833,-1e-5 -71.8417,-124.43342 71.8417,-124.43342 143.6833,10e-6 71.8417,124.43342 z"
           transform="matrix(0.85387568,0,0,0.85387568,-69.666558,582.21861)"
           id="path3074-6"
           style="fill:#b34926;fill-opacity:1" />
        <path
           d="m -1189.8389,-143.47377 -143.6833,-1e-5 -71.8417,-124.43342 71.8417,-124.43342 143.6833,10e-6 71.8417,124.43342 z"
           transform="matrix(0.85387568,0,0,0.85387568,-200.88178,476.24188)"
           id="path3074-6-2"
           style="fill:#b34926;fill-opacity:1" />
      </g>
      <path
         d="m -1155.2188,267.71875 -61.3437,106.25 0.1563,0.28125 52.6562,0 61.3438,-106.25 -0.1563,-0.28125 -52.6563,0 z"
         id="path3074-6-6-6"
         style="fill:#7f1817;fill-opacity:1" />
      <path
         d="m -1163.7188,161.78125 -26.2812,45.5 61.3125,106.21875 26.2813,-45.5 -61.3126,-106.21875 z"
         id="path3074-2-1"
         style="fill:#7f1817;fill-opacity:1" />
      <path
         d="m -1155.0938,267.71875 26.4376,45.8125 122.5624,0 -26.4374,-45.8125 -122.5626,0 z"
         id="path3074-2-0"
         style="fill:#7f1817;fill-opacity:1" />
      <path
         d="m -1155.0938,267.71875 26.4063,45.78125 26.2813,-45.5 -0.1563,-0.28125 -52.5313,0 z"
         id="path3074-2"
         style="fill:#58100b;fill-opacity:1" />
    </g>
    <g
       transform="matrix(0.86332238,0,0,0.86332238,870.9255,668.38283)"
       id="flowRoot2985"
       style="font-size:40px;font-style:normal;font-weight:normal;line-height:125%;letter-spacing:0px;word-spacing:0px;fill:#800000;fill-opacity:1;stroke:none;font-family:Sans">
      <path
         d="m -863.84748,390.66294 2.78232,0 0,-24.71355 0.0818,0 17.02126,24.71355 3.10965,0 0,-29.21436 -2.78232,0 0,24.71355 -0.0818,0 -17.02126,-24.71355 -3.10965,0 0,29.21436"
         id="path4103"
         style="font-variant:normal;font-weight:300;font-stretch:normal;text-align:start;writing-mode:lr-tb;text-anchor:start;fill:#800000;font-family:Helvetica Neue LT Std;-inkscape-font-specification:Helvetica Neue LT Std Light" />
      <path
         d="m -817.77041,380.80207 c 0.20458,-5.93288 -2.49592,-11.86578 -9.28804,-11.86578 -6.7103,0 -9.53354,5.60557 -9.53354,11.1702 0,6.01471 2.82324,11.1702 9.53354,11.1702 5.31913,0 8.10146,-2.78232 9.2062,-7.56955 l -2.57773,0 c -0.81833,3.19149 -2.86416,5.40098 -6.62847,5.40098 -4.9509,0 -6.91489,-4.54173 -6.9558,-8.30605 l 16.24384,0 m -16.24384,-2.16857 c 0.40916,-3.84615 2.7414,-7.52864 6.9558,-7.52864 4.17348,0 6.58755,3.64157 6.7103,7.52864 l -13.6661,0"
         id="path4105"
         style="font-variant:normal;font-weight:300;font-stretch:normal;text-align:start;writing-mode:lr-tb;text-anchor:start;fill:#800000;font-family:Helvetica Neue LT Std;-inkscape-font-specification:Helvetica Neue LT Std Light" />
      <path
         d="m -809.6063,390.66294 2.82324,0 5.15548,-17.75775 0.0818,0 5.19639,17.75775 2.82324,0 6.79214,-21.1129 -2.74141,0 -5.40097,18.08508 -0.0818,0 -5.15547,-18.08508 -2.90507,0 -5.15548,18.08508 -0.0818,0 -5.40098,-18.08508 -2.7414,0 6.79213,21.1129"
         id="path4107"
         style="font-variant:normal;font-weight:300;font-stretch:normal;text-align:start;writing-mode:lr-tb;text-anchor:start;fill:#800000;font-family:Helvetica Neue LT Std;-inkscape-font-specification:Helvetica Neue LT Std Light" />
      <path
         d="m -772.14406,390.66294 20.3764,0 0,-2.37315 -17.59408,0 0,-11.53845 16.28475,0 0,-2.37316 -16.28475,0 0,-10.55645 17.38951,0 0,-2.37315 -20.17183,0 0,29.21436"
         id="path4109"
         style="font-variant:normal;font-weight:300;font-stretch:normal;text-align:start;writing-mode:lr-tb;text-anchor:start;fill:#800000;font-family:Helvetica Neue LT Std;-inkscape-font-specification:Helvetica Neue LT Std Light" />
      <path
         d="m -730.86956,376.17851 c -0.57283,-4.82815 -4.05074,-7.24222 -8.55154,-7.24222 -6.46481,0 -9.98362,5.11457 -9.98362,11.1702 0,6.05563 3.51881,11.1702 9.98362,11.1702 4.70538,0 8.01963,-3.10965 8.7152,-8.1833 l -2.57773,0 c -0.32733,3.51882 -2.946,6.01473 -6.13747,6.01473 -4.9509,0 -7.40589,-4.50082 -7.40589,-9.00163 0,-4.50081 2.45499,-9.00163 7.40589,-9.00163 3.35514,0 5.27822,1.92308 5.9738,5.07365 l 2.57774,0"
         id="path4111"
         style="font-variant:normal;font-weight:300;font-stretch:normal;text-align:start;writing-mode:lr-tb;text-anchor:start;fill:#800000;font-family:Helvetica Neue LT Std;-inkscape-font-specification:Helvetica Neue LT Std Light" />
      <path
         d="m -718.16371,368.93629 c -6.46481,0 -9.98362,5.11457 -9.98362,11.1702 0,6.05563 3.51881,11.1702 9.98362,11.1702 6.46479,0 9.98362,-5.11457 9.98362,-11.1702 0,-6.05563 -3.51883,-11.1702 -9.98362,-11.1702 m 0,2.16857 c 4.95088,0 7.40588,4.50082 7.40588,9.00163 0,4.50081 -2.455,9.00163 -7.40588,9.00163 -4.9509,0 -7.40589,-4.50082 -7.40589,-9.00163 0,-4.50081 2.45499,-9.00163 7.40589,-9.00163"
         id="path4113"
         style="font-variant:normal;font-weight:300;font-stretch:normal;text-align:start;writing-mode:lr-tb;text-anchor:start;fill:#800000;font-family:Helvetica Neue LT Std;-inkscape-font-specification:Helvetica Neue LT Std Light" />
      <path
         d="m -704.34865,390.66294 2.57774,0 0,-12.31586 c 0.0818,-4.13256 2.53682,-7.24222 6.62847,-7.24222 4.17348,0 5.36005,2.74141 5.36005,6.38298 l 0,13.1751 2.57774,0 0,-13.58427 c 0,-5.03273 -1.80033,-8.14238 -7.73321,-8.14238 -2.98691,0 -5.81014,1.71849 -6.75122,4.25532 l -0.0818,0 0,-3.64157 -2.57774,0 0,21.1129"
         id="path4115"
         style="font-variant:normal;font-weight:300;font-stretch:normal;text-align:start;writing-mode:lr-tb;text-anchor:start;fill:#800000;font-family:Helvetica Neue LT Std;-inkscape-font-specification:Helvetica Neue LT Std Light" />
      <path
         d="m -673.41131,368.93629 c -6.46481,0 -9.98362,5.11457 -9.98362,11.1702 0,6.05563 3.51881,11.1702 9.98362,11.1702 6.46479,0 9.98362,-5.11457 9.98362,-11.1702 0,-6.05563 -3.51883,-11.1702 -9.98362,-11.1702 m 0,2.16857 c 4.95088,0 7.40588,4.50082 7.40588,9.00163 0,4.50081 -2.455,9.00163 -7.40588,9.00163 -4.9509,0 -7.40589,-4.50082 -7.40589,-9.00163 0,-4.50081 2.45499,-9.00163 7.40589,-9.00163"
         id="path4117"
         style="font-variant:normal;font-weight:300;font-stretch:normal;text-align:start;writing-mode:lr-tb;text-anchor:start;fill:#800000;font-family:Helvetica Neue LT Std;-inkscape-font-specification:Helvetica Neue LT Std Light" />
      <path
         d="m -659.55534,390.66294 2.57774,0 0,-11.78394 c 0.0409,-4.41898 1.84124,-7.77414 6.30114,-7.77414 3.27332,0 4.4599,2.37316 4.41898,5.23731 l 0,14.32077 2.57774,0 0,-11.94761 c 0,-3.92798 1.26841,-7.61047 5.7283,-7.61047 3.68249,0 4.99181,1.88216 4.99181,5.36006 l 0,14.19802 2.57774,0 0,-14.32077 c 0,-4.99181 -2.37315,-7.40588 -6.99672,-7.40588 -2.78232,0 -5.44189,1.35025 -6.7103,4.13257 -0.77741,-2.78232 -3.27332,-4.13257 -6.05564,-4.13257 -3.35515,0 -5.56464,1.63666 -6.91488,4.17348 l -0.12275,0 0,-3.55973 -2.37316,0 0,21.1129"
         id="path4119"
         style="font-variant:normal;font-weight:300;font-stretch:normal;text-align:start;writing-mode:lr-tb;text-anchor:start;fill:#800000;font-family:Helvetica Neue LT Std;-inkscape-font-specification:Helvetica Neue LT Std Light" />
      <path
         d="m -625.39071,390.66294 2.57774,0 0,-21.1129 -2.57774,0 0,21.1129 m 0,-25.0818 2.57774,0 0,-4.13256 -2.57774,0 0,4.13256"
         id="path4121"
         style="font-variant:normal;font-weight:300;font-stretch:normal;text-align:start;writing-mode:lr-tb;text-anchor:start;fill:#800000;font-family:Helvetica Neue LT Std;-inkscape-font-specification:Helvetica Neue LT Std Light" />
      <path
         d="m -600.36837,376.17851 c -0.57283,-4.82815 -4.05073,-7.24222 -8.55155,-7.24222 -6.46479,0 -9.98362,5.11457 -9.98362,11.1702 0,6.05563 3.51883,11.1702 9.98362,11.1702 4.7054,0 8.01963,-3.10965 8.71522,-8.1833 l -2.57774,0 c -0.32733,3.51882 -2.94599,6.01473 -6.13748,6.01473 -4.95089,0 -7.40588,-4.50082 -7.40588,-9.00163 0,-4.50081 2.45499,-9.00163 7.40588,-9.00163 3.35516,0 5.27823,1.92308 5.97381,5.07365 l 2.57774,0"
         id="path4123"
         style="font-variant:normal;font-weight:300;font-stretch:normal;text-align:start;writing-mode:lr-tb;text-anchor:start;fill:#800000;font-family:Helvetica Neue LT Std;-inkscape-font-specification:Helvetica Neue LT Std Light" />
      <path
         d="m -581.36139,375.72843 c -0.16366,-4.58265 -3.51881,-6.79214 -7.73321,-6.79214 -3.7234,0 -7.9378,1.63666 -7.9378,5.93289 0,3.60065 2.53682,4.74631 5.89197,5.64648 l 3.31424,0.73649 c 2.33224,0.57283 4.62356,1.39116 4.62356,3.84615 0,2.94599 -3.35515,4.00982 -5.76922,4.00982 -3.43699,0 -6.01473,-1.80033 -6.21931,-5.27823 l -2.57774,0 c 0.40917,5.15547 3.76432,7.4468 8.6743,7.4468 3.92798,0 8.46971,-1.75941 8.46971,-6.34206 0,-3.68248 -3.06874,-5.40097 -6.01472,-5.85105 l -3.43699,-0.77741 c -1.75941,-0.45009 -4.37806,-1.26842 -4.37806,-3.55974 0,-2.7414 2.70049,-3.64157 4.99181,-3.64157 2.94599,0 5.40097,1.43208 5.52372,4.62357 l 2.57774,0"
         id="path4125"
         style="font-variant:normal;font-weight:300;font-stretch:normal;text-align:start;writing-mode:lr-tb;text-anchor:start;fill:#800000;font-family:Helvetica Neue LT Std;-inkscape-font-specification:Helvetica Neue LT Std Light" />
      <path
         d="m -564.87972,390.66294 2.78232,0 0,-29.21436 -2.78232,0 0,29.21436"
         id="path4127"
         style="font-variant:normal;font-weight:300;font-stretch:normal;text-align:start;writing-mode:lr-tb;text-anchor:start;fill:#800000;font-family:Helvetica Neue LT Std;-inkscape-font-specification:Helvetica Neue LT Std Light" />
      <path
         d="m -556.5059,390.66294 2.57773,0 0,-12.31586 c 0.0818,-4.13256 2.53682,-7.24222 6.62847,-7.24222 4.17348,0 5.36006,2.74141 5.36006,6.38298 l 0,13.1751 2.57774,0 0,-13.58427 c 0,-5.03273 -1.80034,-8.14238 -7.73321,-8.14238 -2.98691,0 -5.81014,1.71849 -6.75122,4.25532 l -0.0818,0 0,-3.64157 -2.57773,0 0,21.1129"
         id="path4129"
         style="font-variant:normal;font-weight:300;font-stretch:normal;text-align:start;writing-mode:lr-tb;text-anchor:start;fill:#800000;font-family:Helvetica Neue LT Std;-inkscape-font-specification:Helvetica Neue LT Std Light" />
      <path
         d="m -519.26744,375.72843 c -0.16365,-4.58265 -3.51882,-6.79214 -7.7332,-6.79214 -3.7234,0 -7.9378,1.63666 -7.9378,5.93289 0,3.60065 2.53682,4.74631 5.89197,5.64648 l 3.31424,0.73649 c 2.33223,0.57283 4.62356,1.39116 4.62356,3.84615 0,2.94599 -3.35516,4.00982 -5.76922,4.00982 -3.43699,0 -6.01474,-1.80033 -6.21931,-5.27823 l -2.57774,0 c 0.40916,5.15547 3.76432,7.4468 8.6743,7.4468 3.92797,0 8.46971,-1.75941 8.46971,-6.34206 0,-3.68248 -3.06875,-5.40097 -6.01472,-5.85105 l -3.43699,-0.77741 c -1.75941,-0.45009 -4.37806,-1.26842 -4.37806,-3.55974 0,-2.7414 2.70049,-3.64157 4.99181,-3.64157 2.94597,0 5.40097,1.43208 5.52372,4.62357 l 2.57773,0"
         id="path4131"
         style="font-variant:normal;font-weight:300;font-stretch:normal;text-align:start;writing-mode:lr-tb;text-anchor:start;fill:#800000;font-family:Helvetica Neue LT Std;-inkscape-font-specification:Helvetica Neue LT Std Light" />
      <path
         d="m -510.73763,363.20798 -2.57773,0 0,6.34206 -3.68249,0 0,2.16857 3.68249,0 0,14.44352 c -0.0409,3.60065 1.14566,4.74631 4.58265,4.74631 0.7774,0 1.51391,-0.0818 2.29132,-0.0818 l 0,-2.20949 c -0.7365,0.0818 -1.473,0.12275 -2.20949,0.12275 -1.84124,-0.12275 -2.08675,-1.10475 -2.08675,-2.78232 l 0,-14.23894 4.29624,0 0,-2.16857 -4.29624,0 0,-6.34206"
         id="path4133"
         style="font-variant:normal;font-weight:300;font-stretch:normal;text-align:start;writing-mode:lr-tb;text-anchor:start;fill:#800000;font-family:Helvetica Neue LT Std;-inkscape-font-specification:Helvetica Neue LT Std Light" />
      <path
         d="m -502.64127,390.66294 2.57773,0 0,-21.1129 -2.57773,0 0,21.1129 m 0,-25.0818 2.57773,0 0,-4.13256 -2.57773,0 0,4.13256"
         id="path4135"
         style="font-variant:normal;font-weight:300;font-stretch:normal;text-align:start;writing-mode:lr-tb;text-anchor:start;fill:#800000;font-family:Helvetica Neue LT Std;-inkscape-font-specification:Helvetica Neue LT Std Light" />
      <path
         d="m -490.99862,363.20798 -2.57774,0 0,6.34206 -3.68248,0 0,2.16857 3.68248,0 0,14.44352 c -0.0409,3.60065 1.14566,4.74631 4.58265,4.74631 0.77741,0 1.51391,-0.0818 2.29132,-0.0818 l 0,-2.20949 c -0.7365,0.0818 -1.47299,0.12275 -2.20949,0.12275 -1.84124,-0.12275 -2.08674,-1.10475 -2.08674,-2.78232 l 0,-14.23894 4.29623,0 0,-2.16857 -4.29623,0 0,-6.34206"
         id="path4137"
         style="font-variant:normal;font-weight:300;font-stretch:normal;text-align:start;writing-mode:lr-tb;text-anchor:start;fill:#800000;font-family:Helvetica Neue LT Std;-inkscape-font-specification:Helvetica Neue LT Std Light" />
      <path
         d="m -465.8401,369.55004 -2.57774,0 0,11.08836 c 0,4.29623 -1.92307,8.46972 -6.34205,8.46972 -4.09165,0 -5.52373,-2.00491 -5.64648,-5.81014 l 0,-13.74794 -2.57774,0 0,13.70702 c 0,4.90998 2.08675,8.01963 7.40589,8.01963 3.15057,0 5.93289,-1.59574 7.28313,-4.41898 l 0.0818,0 0,3.80523 2.37316,0 0,-21.1129"
         id="path4139"
         style="font-variant:normal;font-weight:300;font-stretch:normal;text-align:start;writing-mode:lr-tb;text-anchor:start;fill:#800000;font-family:Helvetica Neue LT Std;-inkscape-font-specification:Helvetica Neue LT Std Light" />
      <path
         d="m -456.87492,363.20798 -2.57773,0 0,6.34206 -3.68249,0 0,2.16857 3.68249,0 0,14.44352 c -0.0409,3.60065 1.14566,4.74631 4.58265,4.74631 0.7774,0 1.51391,-0.0818 2.29132,-0.0818 l 0,-2.20949 c -0.7365,0.0818 -1.47301,0.12275 -2.20949,0.12275 -1.84124,-0.12275 -2.08675,-1.10475 -2.08675,-2.78232 l 0,-14.23894 4.29624,0 0,-2.16857 -4.29624,0 0,-6.34206"
         id="path4141"
         style="font-variant:normal;font-weight:300;font-stretch:normal;text-align:start;writing-mode:lr-tb;text-anchor:start;fill:#800000;font-family:Helvetica Neue LT Std;-inkscape-font-specification:Helvetica Neue LT Std Light" />
      <path
         d="m -431.06173,380.80207 c 0.20457,-5.93288 -2.49591,-11.86578 -9.28804,-11.86578 -6.7103,0 -9.53354,5.60557 -9.53354,11.1702 0,6.01471 2.82324,11.1702 9.53354,11.1702 5.31913,0 8.10146,-2.78232 9.20621,-7.56955 l -2.57774,0 c -0.81833,3.19149 -2.86416,5.40098 -6.62847,5.40098 -4.95089,0 -6.91489,-4.54173 -6.9558,-8.30605 l 16.24384,0 m -16.24384,-2.16857 c 0.40915,-3.84615 2.7414,-7.52864 6.9558,-7.52864 4.17347,0 6.58755,3.64157 6.7103,7.52864 l -13.6661,0"
         id="path4143"
         style="font-variant:normal;font-weight:300;font-stretch:normal;text-align:start;writing-mode:lr-tb;text-anchor:start;fill:#800000;font-family:Helvetica Neue LT Std;-inkscape-font-specification:Helvetica Neue LT Std Light" />
    </g>
  </g>
</svg>
