<?xml version="1.0" encoding="UTF-8" standalone="no"?>
<!-- Created with Inkscape (http://www.inkscape.org/) -->
<svg
   xmlns:svg="http://www.w3.org/2000/svg"
   xmlns="http://www.w3.org/2000/svg"
   version="1.0"
   width="100%"
   height="100%"
   preserveAspectRatio="xMidYMid meet"
   viewBox="0 0 868 159"
   id="svg101576">
  <defs
     id="defs101578" />
  <g
     transform="translate(-8.680415,-238.0757)"
     id="layer1">
    <g
       transform="translate(8.561359,8.855741)"
       id="g107981">
      <path
         d="M 91.577741,238.66957 L 93.919621,315.46937 L 130.22017,238.66957 L 183.24904,238.66957 L 153.30524,373.86803 L 115.6666,373.86803 L 132.39491,300.0793 L 94.756111,373.86803 L 68.492521,373.86803 L 64.812391,303.55878 L 48.920431,373.86803 L 9.2742713,373.86803 L 39.719811,238.66957 L 91.577741,238.66957"
         style="font-size:3.49419999px;letter-spacing:0;word-spacing:0.10098;fill:black;fill-rule:nonzero;stroke:none;stroke-width:0.025;stroke-linecap:butt;stroke-linejoin:miter;stroke-miterlimit:3.86400008;stroke-dasharray:none;font-family:fnt1, &quot;FranklinGothic&quot;, Arial"
         id="path107101" />
      <path
         d="M 228.24831,238.66957 L 222.89519,260.55027 L 187.93295,260.55027 L 192.78425,238.66957 L 228.24831,238.66957"
         style="font-size:3.49419999px;letter-spacing:0;word-spacing:0.10098;fill:black;fill-rule:nonzero;stroke:none;stroke-width:0.071;stroke-linecap:butt;stroke-linejoin:miter;stroke-miterlimit:4;stroke-dasharray:none;font-family:fnt1, &quot;FranklinGothic&quot;, Arial"
         id="path107105" />
      <path
         d="M 704.67151,274.46815 L 723.23996,274.46815 C 725.91652,263.32711 728.9276,248.60616 740.47017,243.05232 C 751.17637,239.87402 762.21697,238.56913 774.09417,240.17511 L 769.41017,258.05769 C 764.72627,258.20823 761.38057,259.12834 759.37317,264.29733 L 757.03127,274.46815 L 777.43977,274.46815 L 783.12747,249.60988 L 815.07857,249.60988 L 809.55827,274.46815 L 826.28657,274.46815 L 821.43537,296.3321 L 804.53967,296.3321 L 794.16817,346.03203 C 793.33177,348.82571 796.17547,350.39818 798.51757,350.79964 C 802.53237,351.2011 805.37617,351.60255 809.72557,351.2011 C 808.05267,358.7623 806.04537,366.30675 804.53967,373.4665 C 790.15337,373.06504 772.25407,377.8494 763.22067,365.90529 C 756.86397,352.79032 764.39177,339.27382 765.89727,326.15885 C 767.90467,317.00842 770.91567,305.46577 772.58867,296.3321 L 752.01267,296.3321 L 734.44797,374.08551 L 700.82394,373.86803 L 718.22145,296.3321 L 699.8203,296.3321 L 704.67151,274.46815"
         style="font-size:3.49419999px;letter-spacing:0;word-spacing:0.10098;fill:black;fill-rule:nonzero;stroke:none;stroke-width:0.071;stroke-linecap:square;stroke-linejoin:miter;stroke-miterlimit:2;stroke-dasharray:none;font-family:fnt1, &quot;FranklinGothic&quot;, Arial"
         id="path107109" />
      <path
         d="M 219.71681,274.46815 L 197.63539,373.86803 L 162.33863,373.86803 L 184.75458,274.46815 L 219.71681,274.46815"
         style="font-size:3.49419999px;letter-spacing:0;word-spacing:0.10098;fill:black;fill-rule:nonzero;stroke:none;stroke-width:0.025;stroke-linecap:butt;stroke-linejoin:miter;stroke-miterlimit:3.86400008;stroke-dasharray:none;font-family:fnt1, &quot;FranklinGothic&quot;, Arial"
         id="path107113" />
      <path
         d="M 598.94838,303.29119 C 615.84407,274.60202 640.26745,268.78059 658.33401,270.2527 C 676.73523,271.72474 712.70111,281.996 697.47834,335.34263 C 688.27773,367.87923 653.48286,377.58166 634.24522,376.76207 C 602.79596,375.44043 575.52872,342.9707 598.94838,303.29119 z M 636.25266,351.75318 C 644.44947,353.96134 658.33401,349.0933 665.35988,326.15885 C 673.05495,300.79868 659.83954,294.34149 654.82103,293.35452 C 649.63529,292.30062 637.2563,294.84331 629.22663,317.46006 C 621.53171,339.47455 629.72852,349.99672 636.25266,351.75318"
         style="font-size:3.49419999px;letter-spacing:0;word-spacing:0.10098;fill:black;fill-rule:nonzero;stroke:none;stroke-width:0.071;stroke-linecap:butt;stroke-linejoin:miter;stroke-miterlimit:4;stroke-dasharray:none;font-family:fnt1, &quot;FranklinGothic&quot;, Arial"
         id="path107123" />
      <path
         d="M 313.06103,284.40482 C 317.74487,290.36012 320.25413,297.92132 321.75967,305.86738 L 321.92704,310.25013 L 285.45919,310.25013 C 285.45919,310.25013 284.95737,299.64434 280.60797,296.3321 C 276.25865,294.34149 272.07648,295.14448 268.06176,297.13516 C 254.67913,305.86738 248.65682,322.17741 248.99141,338.08613 C 249.82783,342.05067 249.66053,349.00976 258.35925,351.66949 C 267.22534,353.32565 275.58946,344.64361 278.43331,339.07309 L 314.56657,339.07309 C 312.22453,348.22345 298.6746,376.84568 258.35925,377.1802 C 224.56803,377.5148 216.37114,355.56724 214.53107,340.06006 C 214.53107,340.06006 207.3379,285.15755 266.89082,272.47747 C 282.44811,269.16529 299.67832,272.14294 313.06103,284.40482"
         style="font-size:3.49419999px;letter-spacing:0;word-spacing:0.10098;fill:black;fill-rule:nonzero;stroke:none;stroke-width:0.071;stroke-linecap:butt;stroke-linejoin:miter;stroke-miterlimit:4;stroke-dasharray:none;font-family:fnt1, &quot;FranklinGothic&quot;, Arial"
         id="path107127" />
      <path
         d="M 576.69966,317.81133 C 566.6627,310.25013 552.77817,309.06236 540.06458,306.67029 C 536.88621,304.27815 531.70047,303.8933 532.20236,298.72431 C 531.70047,294.74294 534.87877,291.96602 538.55904,290.76158 C 542.90851,289.95866 548.76338,288.78764 551.94175,291.96602 C 556.79297,293.55525 557.12757,298.72431 557.12757,302.30422 L 591.25331,302.30422 C 591.25331,293.83959 590.91879,292.09989 588.91143,287.18174 C 583.39109,277.24515 573.18676,273.28053 563.1498,271.28985 C 543.74486,269.29916 520.65972,268.49617 506.27336,282.01275 C 498.74567,288.38619 496.73823,296.7337 496.40363,306.26884 C 500.25121,328.9357 525.84553,330.92638 544.07938,336.4969 C 547.25784,338.48758 549.59972,341.66596 549.59972,345.63058 C 548.42885,349.21041 546.92324,352.38887 543.24304,353.59324 C 536.55168,356.77162 528.18757,355.56724 522.16526,351.2011 C 518.98695,348.42425 518.98695,342.65293 519.48877,339.07309 L 455.08464,339.07309 L 487.37032,327.34647 C 496.57093,281.3268 463.44876,272.05933 446.21862,270.67091 C 429.82476,269.34927 408.24531,274.01651 391.85144,296.01432 C 393.69166,287.86761 396.20091,276.54252 397.03726,272.87907 C 385.82928,272.81214 373.28307,277.11128 365.08617,285.19106 L 367.59536,274.46815 L 335.4769,274.46815 L 313.39555,373.86803 L 345.17941,374.10219 L 353.5436,338.90572 C 356.72191,329.38734 360.56948,320.0195 365.08617,313.83004 C 369.93732,309.07911 379.13793,304.07735 386.33111,304.34509 C 363.74793,343.74026 390.68058,375.85871 421.96254,377.1802 C 439.36004,377.91633 469.30377,370.02046 481.84998,344.61011 L 481.68268,347.21973 C 481.18086,355.56724 485.53026,362.34214 491.55241,367.51127 C 511.12458,380.22479 538.55904,379.84008 560.80777,373.4665 C 573.85588,368.69897 585.90027,355.56724 586.56947,341.2645 C 587.07129,332.11407 584.56196,322.57894 576.69966,317.81133 z M 423.9699,352.15463 C 417.44584,350.41493 409.24895,339.87608 416.94402,317.87827 C 424.97362,295.24477 437.35261,292.71875 442.70565,293.77266 C 447.55686,294.75962 460.7722,301.21682 453.07728,326.56031 C 446.05125,349.4949 432.16679,354.37948 423.9699,352.15463"
         style="font-size:3.49419999px;letter-spacing:0;word-spacing:0.10098;fill:black;fill-rule:nonzero;stroke:none;stroke-width:0.071;stroke-linecap:butt;stroke-linejoin:miter;stroke-miterlimit:4;stroke-dasharray:none;font-family:fnt1, &quot;FranklinGothic&quot;, Arial"
         id="path107131" />
      <path
         d="M 846.36067,274.11688 C 853.21927,274.11688 859.07407,279.5536 859.07407,286.67984 C 859.07407,293.95671 853.21927,299.39343 846.36067,299.39343 C 839.33467,299.39343 833.64707,293.95671 833.64707,286.67984 C 833.64707,279.5536 839.33467,274.11688 846.36067,274.11688 z M 846.36067,297.53662 C 852.21557,297.53662 856.73217,292.86938 856.73217,286.67984 C 856.73217,280.64093 852.21557,275.97369 846.36067,275.97369 C 840.50567,275.97369 835.82177,280.64093 835.82177,286.67984 C 835.82177,292.86938 840.50567,297.53662 846.36067,297.53662 z M 841.34207,279.35287 L 847.19707,279.35287 C 850.54267,279.35287 852.21557,280.7413 852.21557,283.58508 C 852.21557,286.24496 850.54267,287.36579 848.36807,287.60002 L 852.55007,294.10733 L 850.20807,294.10733 L 846.19327,287.76725 L 843.68407,287.76725 L 843.68407,294.10733 L 841.34207,294.10733 L 841.34207,279.35287 z M 843.68407,285.91043 L 846.02597,285.91043 C 848.20077,285.91043 850.04077,285.80999 850.04077,283.48479 C 850.04077,281.51086 848.36807,281.20969 846.69517,281.20969 L 843.68407,281.20969 L 843.68407,285.91043"
         style="font-size:3.49419999px;letter-spacing:0;word-spacing:0.10098;fill:black;fill-rule:nonzero;stroke:none;stroke-width:0.071;stroke-linecap:butt;stroke-linejoin:miter;stroke-miterlimit:4;stroke-dasharray:none;font-family:fnt1, &quot;FranklinGothic&quot;, Arial"
         id="path107135" />
    </g>
  </g>
</svg>
