<?xml version="1.0" encoding="UTF-8" standalone="no"?>
<!-- Created with Inkscape (http://www.inkscape.org/) -->

<svg
   xmlns:dc="http://purl.org/dc/elements/1.1/"
   xmlns:cc="http://creativecommons.org/ns#"
   xmlns:rdf="http://www.w3.org/1999/02/22-rdf-syntax-ns#"
   xmlns:svg="http://www.w3.org/2000/svg"
   xmlns="http://www.w3.org/2000/svg"
   version="1.1"
   width="100%"
   height="100%"
   preserveAspectRatio="xMidYMid meet"
   viewBox="0 0 168 147"
   id="svg3133"
   xml:space="preserve"><metadata
     id="metadata3139"><rdf:RDF><cc:Work
         rdf:about=""><dc:format>image/svg+xml</dc:format><dc:type
           rdf:resource="http://purl.org/dc/dcmitype/StillImage" /><dc:title></dc:title></cc:Work></rdf:RDF></metadata><defs
     id="defs3137" /><g
     transform="matrix(1.25,0,0,-1.25,0,146.5125)"
     id="g3141"><g
       transform="scale(0.1,0.1)"
       id="g3143"><path
         d="m 0,149.941 38,0 60.4688,-77.691 0,77.691 40.3402,0 0,-147.01131 -35.711,0 -62.7855,80.66011 0,-80.66011 L 0,2.92969 0,149.941"
         id="path3145"
         style="fill:#437089;fill-opacity:1;fill-rule:nonzero;stroke:none" /><path
         d="m 170.715,149.941 118.242,0 0,-34.652 -77.93,0 0,-22.2578 70.575,0 0,-32.1093 -70.575,0 0,-23.3203 78.985,0 0,-34.67191 -119.297,0 0,147.01131"
         id="path3147"
         style="fill:#437089;fill-opacity:1;fill-rule:nonzero;stroke:none" /><path
         d="m 353,114.238 -44.094,0 0,35.703 128.938,0 0,-35.703 -44.121,0 0,-111.30831 -40.723,0 0,111.30831"
         id="path3149"
         style="fill:#437089;fill-opacity:1;fill-rule:nonzero;stroke:none" /><path
         d="m 503.145,2.92969 40.957,0 0,147.012 -40.957,0 0,-147.012 z"
         id="path3151"
         style="fill:#11a1c2;fill-opacity:1;fill-rule:nonzero;stroke:none" /><path
         d="m 576.211,149.941 43.066,0 35.071,-56.9098 35.066,56.9098 43.039,0 0,-147.01131 -40.519,0 0,84.42971 -37.586,-57.5391 -0.852,0 -37.383,57.1094 0,-84.00001 -39.902,0 0,147.01131"
         id="path3153"
         style="fill:#11a1c2;fill-opacity:1;fill-rule:nonzero;stroke:none" /><path
         d="m 823.801,76.8594 c 14.5,0 23.32,7.5508 23.32,19.1211 l 0,0.4101 c 0,12.5894 -8.82,19.3084 -23.527,19.3084 l -19.102,0 0,-38.8396 19.309,0 z m -60.059,73.0816 63.016,0 c 37.148,0 61.086,-19.101 61.086,-51.6402 l 0,-0.4492 c 0,-34.6524 -26.66,-52.9102 -63.196,-52.9102 l -20.156,0 0,-42.01171 -40.75,0 0,147.01131"
         id="path3155"
         style="fill:#11a1c2;fill-opacity:1;fill-rule:nonzero;stroke:none" /><path
         d="m 981.094,60.9219 -16.375,41.7771 -16.582,-41.7771 32.957,0 z M 945.41,151 l 39.258,0 62.582,-148.07031 -43.68,0 -10.699,26.25001 -56.719,0 -10.488,-26.25001 -42.832,0 L 945.41,151"
         id="path3157"
         style="fill:#11a1c2;fill-opacity:1;fill-rule:nonzero;stroke:none" /><path
         d="m 1053.76,76.0391 0,0.4101 c 0,42.8318 32.95,76.4218 77.49,76.4218 30.02,0 49.33,-12.601 62.34,-30.641 L 1162.94,98.5 c -8.4,10.48 -18.04,17.199 -32.13,17.199 -20.57,0 -35.07,-17.3982 -35.07,-38.8396 l 0,-0.4102 c 0,-22.0703 14.5,-39.2578 35.07,-39.2578 15.35,0 24.37,7.1094 33.19,17.8281 l 30.64,-21.8593 C 1180.79,14.0586 1162.09,0 1129.55,0 c -41.99,0 -75.79,32.1484 -75.79,76.0391"
         id="path3159"
         style="fill:#11a1c2;fill-opacity:1;fill-rule:nonzero;stroke:none" /><path
         d="m 1253.24,114.238 -44.09,0 0,35.703 128.93,0 0,-35.703 -44.09,0 0,-111.30831 -40.75,0 0,111.30831"
         id="path3161"
         style="fill:#11a1c2;fill-opacity:1;fill-rule:nonzero;stroke:none" /><path
         d="m 560.176,701.793 c 0.234,41.723 6.597,81.957 18.066,119.969 l -47.328,58.734 C 508.805,825.316 496.371,765.199 496.031,702.152 494.82,473.121 651.914,280.309 864.602,227.094 l 80.691,0 0,51.32 C 728.488,297.699 558.988,480.238 560.176,701.793 z m 71.906,470.307 0,-126.22 c 57.414,58.19 129.121,102.18 209.441,126.22 l -209.441,0 z m 232.617,0 C 774.609,1149.59 694.488,1101.89 632.082,1037 l 0,-101.664 c 69.375,103.044 182.852,173.804 313.211,185.374 l 0,51.39 -80.594,0 z M 489.863,702.188 c 0.352,65.07 13.41,127.066 36.614,183.82 L 295.93,1172.1 l -295.637031,0 0,-945.006 313.215031,0 0,436.054 350.976,-436.054 176.864,0 C 637.086,288.316 488.656,478.129 489.863,702.188 z m 407.707,-2.262 c -0.168,-33.809 19.317,-63.028 47.723,-77.059 l 0,153.281 C 917.199,762.227 897.754,733.43 897.57,699.926 z m -265.488,204.664 0,-149.641 -41.348,51.317 C 581.676,772.922 576.695,737.895 576.496,701.711 575.371,489.195 737.539,314.02 945.293,294.781 l 0,96.035 c -154.637,18.731 -274.125,150.762 -273.289,310.352 0.863,158.441 120.047,288.465 273.289,307.062 l 0,96.12 C 811.652,1092.01 696.68,1014.9 632.082,904.59 z M 679.68,701.129 C 678.883,545.805 794.934,417.242 945.293,398.551 l 0,58.887 c -117.871,18.3 -207.816,120.531 -207.195,243.429 0.656,121.961 90.39,222.606 207.195,240.738 l 0,58.885 C 796.289,981.938 680.523,855.332 679.68,701.129 z m 80.683,-0.375 c -0.558,-110.539 79.473,-202.652 184.93,-220.719 l 0,82.77 c -60.301,16.648 -104.441,71.847 -104.141,137.507 0.403,64.997 44.473,119.422 104.141,135.958 l 0,82.75 C 840.781,901.109 760.957,810.426 760.363,700.754 z m 89.258,-0.484 c -0.285,-60.934 40.106,-112.332 95.672,-128.727 l 0,31.773 c -38.613,15.18 -65.828,52.743 -65.613,96.696 0.234,43.586 27.41,80.636 65.613,95.715 l 0,31.824 C 890.312,811.277 849.992,760.582 849.621,700.27"
         id="path3163"
         style="fill:#437089;fill-opacity:1;fill-rule:nonzero;stroke:none" /><path
         d="m 1101.22,1172.1 -78.96,0 0,-51.55 c 132.52,-12.14 247.2,-85.33 315.88,-191.14 l 0,103.48 c -62.99,67.05 -144.72,116.25 -236.92,139.21 z m -78.96,-893.666 0,-51.34 79.97,0 c 91.72,23.047 173.11,72.187 235.91,139.023 l 0,103.606 C 1269.38,363.766 1154.61,290.551 1022.26,278.434 z m 315.88,-51.34 0,130.129 c -57.94,-60.059 -130.88,-105.5 -212.83,-130.129 l 212.83,0 z M 1124.56,1172.1 c 82.29,-24.58 155.51,-70.01 213.58,-130.19 l 0,130.19 -213.58,0 z m 81.38,-473.838 c 0.59,110.16 -78.8,201.988 -183.68,220.55 l 0,-82.867 c 59.7,-17.062 103.29,-72.074 102.9,-137.199 -0.34,-64.641 -43.77,-118.801 -102.9,-135.676 l 0,-82.812 c 103.9,18.41 183.11,108.781 183.68,218.004 z m -137.19,0.781 c 0.19,33.336 -18.76,62.242 -46.49,76.523 l 0,-152.144 c 27.42,14.113 46.31,42.586 46.49,75.621 z m 47.94,-0.254 c 0.37,60.406 -39.48,111.625 -94.43,128.414 l 0,-31.933 c 37.93,-15.508 64.64,-52.821 64.38,-96.336 -0.23,-43.157 -26.83,-79.914 -64.38,-95.235 l 0,-31.914 c 54.42,16.61 94.11,67.055 94.43,127.004 z m 169.94,-0.902 c 0.84,154.879 -114.59,283.183 -264.37,302.443 l 0,-58.889 c 117.31,-18.8 206.6,-120.765 205.95,-243.304 -0.65,-121.512 -89.76,-221.825 -205.95,-240.465 l 0,-58.965 c 148.42,19.082 263.54,145.41 264.37,299.18 z m -264.37,406.293 0,-96.11 c 154.05,-19.304 272.9,-151.09 272.05,-310.226 -0.86,-158.016 -119.39,-287.75 -272.05,-306.871 l 0,-96.184 c 135.82,12.949 252.27,92.824 315.88,206.399 l 0,396.621 C 1274.6,1011.27 1158.3,1091.21 1022.26,1104.18"
         id="path3165"
         style="fill:#11a1c2;fill-opacity:1;fill-rule:nonzero;stroke:none" /></g></g></svg>
