<?xml version="1.0" encoding="UTF-8" standalone="no"?>
<!-- Created with Inkscape (http://www.inkscape.org/) -->

<svg
   xmlns:dc="http://purl.org/dc/elements/1.1/"
   xmlns:cc="http://creativecommons.org/ns#"
   xmlns:rdf="http://www.w3.org/1999/02/22-rdf-syntax-ns#"
   xmlns:svg="http://www.w3.org/2000/svg"
   xmlns="http://www.w3.org/2000/svg"
   version="1.1"
   width="100%"
   height="100%"
   preserveAspectRatio="xMidYMid meet"
   viewBox="0 0 457 131"
   id="svg3039"
   xml:space="preserve"><metadata
     id="metadata3045"><rdf:RDF><cc:Work
         rdf:about=""><dc:format>image/svg+xml</dc:format><dc:type
           rdf:resource="http://purl.org/dc/dcmitype/StillImage" /><dc:title></dc:title></cc:Work></rdf:RDF></metadata><defs
     id="defs3043"><clipPath
       id="clipPath3055"><path
         d="m 0,0 3655.63,0 0,1040 L 0,1040 0,0 z"
         id="path3057" /></clipPath></defs><g
     transform="matrix(1.25,0,0,-1.25,0,131)"
     id="g3047"><g
       transform="scale(0.1,0.1)"
       id="g3049"><g
         id="g3051"><g
           clip-path="url(#clipPath3055)"
           id="g3053"><path
             d="m 28.3086,365.84 1.5703,0 87.2771,-277.0314 22.805,0 85.309,277.0314 1.57,0 0,-277.0314 33.808,0 0,317.2774 -49.539,0 -79.41,-253.906 -81.367,253.906 -50.332,0 0,-317.2774 28.3086,0 0,277.0314 z M 461.93,191.945 c 0,-41.613 -25.563,-79.543 -63.301,-79.543 -22.008,0 -43.238,12.024 -43.238,41.153 0,48.574 49.531,53.652 80.976,53.652 l 25.563,0 0,-15.262 z m -25.95,42.547 c -24.769,0 -54.25,-1.387 -76.66,-13.867 -22.011,-11.563 -36.953,-36.992 -36.953,-65.215 0,-46.719 32.235,-71.2303 69.582,-71.2303 31.84,0 55.821,14.8047 69.981,48.5663 l 3.539,-43.9374 30.66,0 c -3.934,15.2734 -4.328,32.3824 -4.328,49.4924 l 0,91.105 c 0,26.824 0,56.434 -16.512,77.235 -14.937,20.351 -39.699,23.136 -61.32,23.136 -36.571,0 -80.602,-15.265 -86.098,-64.289 l 28.695,-5.547 c 5.504,32.364 29.485,41.621 54.645,41.621 35.391,0 50.719,-15.722 50.719,-56.882 l 0,-10.188 -25.95,0 z m 143.102,89.258 -29.102,0 0,-234.9414 30.668,0 0,123.0274 c 0,23.594 2.75,44.863 15.719,63.359 10.621,14.805 25.16,23.594 41.285,23.594 12.977,0 27.52,-7.859 34.2,-21.289 5.898,-12.012 5.507,-29.59 5.507,-43.465 l 0,-145.2264 30.661,0 0,129.9614 c 0,23.125 0.789,54.57 -9.43,74.472 -12.578,24.504 -32.629,36.535 -56.613,36.535 -28.305,0 -50.715,-20.351 -62.118,-49.492 l -0.777,0 0,43.465 z M 906.16,191.945 c 0,-41.613 -25.558,-79.543 -63.301,-79.543 -22.007,0 -43.242,12.024 -43.242,41.153 0,48.574 49.531,53.652 80.985,53.652 l 25.558,0 0,-15.262 z m -25.949,42.547 c -24.773,0 -54.25,-1.387 -76.66,-13.867 -22.024,-11.563 -36.949,-36.992 -36.949,-65.215 0,-46.719 32.226,-71.2303 69.582,-71.2303 31.836,0 55.82,14.8047 69.976,48.5663 l 3.528,-43.9374 30.671,0 c -3.929,15.2734 -4.328,32.3824 -4.328,49.4924 l 0,91.105 c 0,26.824 0,56.434 -16.511,77.235 -14.942,20.351 -39.7,23.136 -61.332,23.136 -36.555,0 -80.59,-15.265 -86.086,-64.289 l 28.699,-5.547 c 5.5,32.364 29.476,41.621 54.637,41.621 35.382,0 50.722,-15.722 50.722,-56.882 l 0,-10.188 -25.949,0 z m 221.329,85.098 c -12.58,6.945 -26.73,10.187 -40.49,10.187 -40.1,0 -76.659,-29.14 -76.659,-80.019 0,-25.43 9.039,-46.25 25.939,-61.973 -16.119,-8.789 -27.521,-18.957 -27.521,-42.09 0,-17.57 7.871,-28.215 19.271,-37.004 -18.873,-7.851 -30.268,-23.1129 -30.268,-47.6363 0,-25.8945 14.926,-42.543 34.198,-51.79298 C 1023.31,1.39844 1046.11,0 1064.58,0 c 38.53,0 98.68,7.87109 98.68,67.5391 0,23.1171 -12.19,43.4689 -30.66,51.7969 -15.73,6.934 -41.28,7.402 -58.58,8.32 -14.15,0.469 -33.42,0 -47.18,3.703 -8.65,2.782 -14.94,8.789 -14.94,19.891 0,12.031 11.8,21.738 21.23,21.738 3.54,0 9.83,-1.855 12.98,-2.312 4.71,-1.387 9.43,-1.387 14.15,-1.387 18.08,0 36.17,5.086 50.71,18.035 14.94,13.867 25.56,35.606 25.56,58.731 0,21.281 -7.08,42.09 -19.27,57.824 3.15,24.512 17.3,26.816 35.38,26.816 l 3.15,0 -0.39,29.141 -7.87,0.457 c -27.12,0 -40.88,-7.402 -45.99,-40.703 M 1061.05,197.5 c -27.13,0 -44.82,19.883 -44.82,51.797 0,30.058 18.87,51.797 44.82,51.797 24.37,0 44.42,-21.739 44.42,-51.336 0,-31.457 -17.69,-52.258 -44.42,-52.258 m 30.27,-103.6016 c 15.33,-0.4609 42.45,-3.7031 42.45,-27.7461 0,-14.3437 -6.29,-22.207 -17.29,-27.7539 -13.37,-7.3984 -36.56,-10.1796 -51.5,-10.1796 -20.45,0 -62.9,5.5507 -62.9,37.9335 0,16.6407 9.82,25.4297 21.62,31.9063 l 47.96,-3.7031 19.66,-0.4571 z m 244.13,66.1406 c -8.65,-27.754 -27.52,-45.332 -53.47,-45.332 -20.83,0 -41.67,13.418 -51.1,35.625 -7.47,17.559 -8.26,34.668 -8.26,53.176 l 145.07,0 c 1.57,65.222 -25.16,126.269 -87.28,126.269 -59.75,0 -92.38,-58.742 -92.38,-123.488 0,-65.684 31.05,-122.1093 91.59,-122.1093 38.14,0 73.13,25.9103 84.92,68.9183 l -29.09,6.941 z m -111.26,70.293 c 1.18,37.004 22.81,71.699 56.22,71.699 35.38,0 53.86,-32.851 53.47,-71.699 l -109.69,0 z m 194.21,93.418 0,-234.9414 30.66,0 0,134.5894 c 0,19.434 1.97,38.391 12.19,53.653 8.25,12.48 22.41,23.125 36.16,23.125 13.37,0 26.34,-8.789 33.42,-22.676 5.9,-11.551 6.68,-26.816 6.68,-39.766 l 0,-148.9254 30.67,0 0,126.7304 c 0,22.195 -0.4,39.305 11.01,58.27 9.04,15.273 23.19,26.367 38.52,26.367 13.76,0 26.73,-9.246 33.42,-24.52 6.29,-14.328 5.5,-30.976 5.5,-46.711 l 0,-140.1364 30.67,0 0,140.1364 c 0,21.739 0.39,47.637 -9.44,67.063 -10.22,20.351 -29.88,33.769 -50.32,33.769 -30.66,0 -53.47,-23.586 -64.47,-55.968 -6.29,32.832 -27.13,55.968 -56.22,55.968 -27.91,0 -49.53,-23.136 -59.76,-51.339 l -0.78,0 0,45.312 -27.91,0 z m 451.7,-163.711 c -8.65,-27.754 -27.52,-45.332 -53.47,-45.332 -20.83,0 -41.67,13.418 -51.1,35.625 -7.47,17.559 -8.26,34.668 -8.26,53.176 l 145.05,0 c 1.59,65.222 -25.15,126.269 -87.26,126.269 -59.76,0 -92.39,-58.742 -92.39,-123.488 0,-65.684 31.06,-122.1093 91.6,-122.1093 38.14,0 73.11,25.9103 84.92,68.9183 l -29.09,6.941 z m -111.26,70.293 c 1.18,37.004 22.8,71.699 56.22,71.699 35.38,0 53.87,-32.851 53.46,-71.699 l -109.68,0 z m 227.62,93.418 -29.1,0 0,-234.9414 30.67,0 0,123.0274 c 0,23.594 2.75,44.863 15.73,63.359 10.62,14.805 25.17,23.594 41.28,23.594 12.97,0 27.52,-7.859 34.2,-21.289 5.9,-12.012 5.51,-29.59 5.51,-43.465 l 0,-145.2264 30.66,0 0,129.9614 c 0,23.125 0.78,54.57 -9.43,74.472 -12.59,24.504 -32.64,36.535 -56.62,36.535 -28.31,0 -50.71,-20.351 -62.11,-49.492 l -0.79,0 0,43.465 z m 288.55,-208.113 -23.58,-2.317 c -25.16,0 -31.85,14.336 -31.85,41.621 l 0,141.993 44.42,0 0,28.671 -44.42,0 0,61.985 -30.65,-3.703 0,-58.282 -35.39,0 0,-28.671 35.39,0 0,-135.977 c 0,-46.707 12.96,-76.7773 56.6,-76.7773 l 29.48,2.7734 0,28.6839 z m 358.53,-26.8284 -53.07,147.0824 c 31.44,10.164 50.32,43.933 50.32,81.394 0,26.817 -10.61,53.195 -28.7,69.375 -18.09,16.192 -39.32,19.426 -61.33,19.426 l -101.03,0 0,-317.2774 33.81,0 0,137.3634 74.68,0 49.94,-137.3634 35.38,0 z m -160,169.7384 0,113.308 67.22,0 c 14.15,0 25.55,-0.457 37.35,-10.175 12.96,-10.176 18.86,-25.43 18.86,-43.934 0,-15.266 -4.31,-30.519 -13.75,-41.613 -13.38,-16.192 -28.31,-17.586 -46.38,-17.586 l -63.3,0 z m 349.88,-98.508 c -8.65,-27.754 -27.52,-45.332 -53.47,-45.332 -20.83,0 -41.67,13.418 -51.1,35.625 -7.47,17.559 -8.26,34.668 -8.26,53.176 l 145.06,0 c 1.58,65.222 -25.16,126.269 -87.27,126.269 -59.76,0 -92.38,-58.742 -92.38,-123.488 0,-65.684 31.05,-122.1093 91.59,-122.1093 38.14,0 73.12,25.9103 84.92,68.9183 l -29.09,6.941 z m -111.26,70.293 c 1.18,37.004 22.8,71.699 56.22,71.699 35.38,0 53.86,-32.851 53.46,-71.699 l -109.68,0 z m 345.17,93.418 -27.53,0 -54.64,-191.004 -55.82,191.004 -34.2,0 71.15,-234.9414 32.24,0 68.8,234.9414 z m 71.54,0 -30.66,0 0,-234.9414 30.66,0 0,234.9414 z m 1.57,82.336 -33.81,0 0,-40.695 33.81,0 0,40.695 z m 202.07,-246.047 c -8.65,-27.754 -27.52,-45.332 -53.47,-45.332 -20.84,0 -41.67,13.418 -51.11,35.625 -7.47,17.559 -8.25,34.668 -8.25,53.176 l 145.06,0 c 1.57,65.222 -25.16,126.269 -87.27,126.269 -59.76,0 -92.39,-58.742 -92.39,-123.488 0,-65.684 31.06,-122.1093 91.6,-122.1093 38.14,0 73.11,25.9103 84.92,68.9183 l -29.09,6.941 z m -111.26,70.293 c 1.18,37.004 22.8,71.699 56.22,71.699 35.38,0 53.86,-32.851 53.46,-71.699 l -109.68,0 z m 426.15,93.418 -25.16,0 -44.82,-175.742 -44.81,175.742 -22.41,0 -41.67,-175.273 -43.25,175.273 -31.06,0 59.76,-234.9414 25.55,0 40.89,174.3674 44.42,-174.3674 25.16,0 57.4,234.9414"
             id="path3059"
             style="fill:#181515;fill-opacity:1;fill-rule:nonzero;stroke:none" /><path
             d="m 1391.89,617.98 c 31.45,-126.66 140.26,-177.668 262.68,-177.668 120.71,0 260.13,56.106 260.13,196.364 0,63.762 -29.76,118.16 -86.71,148.773 -51.01,26.348 -109.67,35.699 -164.92,46.75 -22.1,5.098 -64.61,11.047 -64.61,41.66 0,30.602 34.01,37.399 57.81,37.399 45.05,0 77.36,-15.301 94.36,-58.66 l 147.91,45.058 c -35.71,101.164 -133.46,142.814 -234.62,142.814 -57.81,0 -119.86,-11.06 -167.47,-44.204 -46.75,-33.149 -74.81,-89.258 -74.81,-146.215 0,-138.567 130.07,-168.313 239.73,-189.571 26.35,-5.101 71.41,-11.906 71.41,-47.601 0,-32.301 -45.91,-35.699 -68.86,-35.699 -51.86,0 -90.96,18.699 -106.26,70.547 L 1391.89,617.98 z m 758.27,413.99 -168.32,0 0,-583.161 168.32,0 0,583.161 z m 299.22,-140.259 c -136.01,0 -238.87,-90.113 -238.87,-229.531 0,-131.766 106.26,-221.868 238.87,-221.868 132.61,0 238.88,90.102 238.88,221.868 0,139.418 -102.87,229.531 -238.88,229.531 m 0,-106.262 c 57.81,0 58.66,-75.664 58.66,-117.312 0,-116.473 -28.06,-124.973 -58.66,-124.973 -30.6,0 -58.66,8.5 -58.66,124.973 0,41.648 0.86,117.312 58.66,117.312 m 732.77,-336.64 c -12.76,30.605 -13.61,62.91 -13.61,95.211 l 0,152.168 c 0,62.05 6.81,118.16 -50.15,158.121 -42.5,30.597 -107.96,37.402 -158.97,37.402 -97.75,0 -200.61,-28.055 -226.12,-136.02 l 154.72,-14.453 c 5.1,36.563 33.15,48.461 66.31,48.461 40.8,0 51,-15.304 51,-54.41 l 0,-3.402 c -56.95,-3.399 -115.61,-10.199 -170.88,-27.199 -60.34,-18.7 -113.9,-64.61 -113.9,-133.461 0,-86.715 70.55,-130.915 151.32,-130.915 59.5,0 107.95,18.692 141.96,68.848 0,-20.39 1.7,-40.801 5.95,-60.351 l 162.37,0 z m -176.82,194.668 c 0,-47.598 -0.86,-101.161 -64.61,-101.161 -26.35,0 -44.21,11.903 -44.21,39.961 0,52.7 68.02,65.45 108.82,69.703 l 0,-8.503 z m 226.12,239.734 0,-434.402 168.31,0 0,250.777 c 0,35.703 4.24,75.66 51.01,75.66 36.54,0 36.54,-36.558 36.54,-62.91 l 0,-263.527 168.32,0 0,267.781 c 0,45.058 0,94.359 -27.19,130.058 -25.51,33.157 -72.26,45.063 -113.06,45.063 -52.71,0 -102.87,-20.402 -123.27,-69.715 l -1.7,0 0,61.215 -158.96,0"
             id="path3061"
             style="fill:#181515;fill-opacity:1;fill-rule:nonzero;stroke:none" /><path
             d="m 635.328,1031.97 -235.469,0 -79.914,-309.431 -1.699,0 -83.308,309.431 -233.78175,0 0,-583.161 134.32375,0 0,416.543 1.7,0 109.656,-416.543 113.91,0 106.262,416.543 1.699,0 0,-416.543 166.621,0 0,583.161 z m 277.969,0 -180.223,0 0,-583.161 180.223,0 0,583.161 z m 340.873,-140.259 119.87,0 0,140.259 -412.294,0 0,-140.259 122.414,0 0,-442.902 170.01,0 0,442.902"
             id="path3063"
             style="fill:#ed192d;fill-opacity:1;fill-rule:nonzero;stroke:none" /></g></g></g></g></svg>
