<?xml version="1.0" encoding="UTF-8" standalone="no"?>
<!-- Created with Inkscape (http://www.inkscape.org/) -->
<svg
   xmlns:svg="http://www.w3.org/2000/svg"
   xmlns="http://www.w3.org/2000/svg"
   version="1.0"
   width="1024"
   height="305"
   viewBox="0 0 1024 768"
   id="Layer_1"
   xml:space="preserve"><defs
   id="defs2623">
	
	

		
		
		
		
		
		
		
		
		
		
		
		
		
		
		
		
		
		
	</defs>
<g
   id="g2610">
	</g>

<g
   transform="matrix(3.0972512,0,0,3.0972512,-1299.4698,-791.68804)"
   id="g2667"><path
     d="M 975,364 C 974.15,371.28 969.75,376.52 967,383 C 965.98,385.4 966.19,388.21 965,390 C 964.27,391.09 963.64,391.8 963,393 C 962.45,394.03 961.54,394.22 961,395 C 960.75,395.36 961.33,396.73 961,397 C 960.87,397.11 960.08,396.86 960,397 C 959.79,397.37 960.31,398.75 960,399 C 959.88,399.1 959.06,398.88 959,399 C 958.83,399.36 959.29,400.76 959,401 C 958.18,401.67 958.31,401.76 958,403 C 958,403 957.09,405.93 957,406 C 955.58,407.16 955.49,412.32 954,415 C 953.71,415.53 953.06,414.87 953,416 C 952.99,416.22 953.11,416.81 953,417 C 952.64,417.65 951.32,418.43 951,419 C 950.8,419.37 951.31,420.75 951,421 C 950.18,421.67 950.31,421.76 950,423 C 950,423 949.08,425.93 949,426 C 948.33,426.55 947.14,428.83 946,431 C 944.42,434.01 942.48,436.95 941,440 C 940.19,441.66 939.71,443.5 939,445 C 937.89,447.34 936.56,448.75 936,451 C 935.56,452.75 934.47,454.13 934,456 C 933.87,456.52 934.27,457.55 934,458 C 933.73,458.46 932.21,458.6 932,459 C 931.39,460.15 931.57,460.98 931,462 C 930.71,462.53 930.06,461.87 930,463 C 929.96,463.85 928.48,465.21 928,466 C 926.62,468.24 925.25,473.77 923,477 C 921.57,476.41 920.41,476.72 919,476 C 918.38,475.68 917.53,474.26 917,474 C 915.62,473.31 914.41,473.72 913,473 C 912.4,472.69 911.51,471.24 911,471 C 909.94,470.51 908.46,470.64 907,470 C 906.46,469.76 905.43,468.15 905,468 C 902.91,467.25 901.79,468.19 900,467 C 898.89,466.26 897.91,465.88 897,465 C 896.78,464.79 894.31,463.59 893,463 C 891.34,462.25 889.85,461.46 888,461 C 886.04,460.51 885.35,460.86 884,460 C 883.02,459.38 882.43,459.36 881,459 C 879.97,458.74 878.86,457.51 877,457 C 876.38,456.83 875.62,457.16 875,457 C 873.72,456.68 871.06,455.76 868,455 C 862.67,453.67 854.45,448.91 848,447 C 843.13,445.55 837.92,445.59 833,444 C 832.66,443.89 832.98,443.05 832,443 C 829.86,442.89 829.25,441.91 827,441 C 823.94,439.76 821.33,438.73 817,438 C 816.36,437.89 815.63,438.16 815,438 C 811.02,437.01 802.62,433.56 797,432 C 796.38,431.83 795.62,432.16 795,432 C 793.67,431.67 789.53,429.63 787,429 C 784.45,428.37 781.5,428.59 779,428 C 778.79,427.95 778.88,427.05 778,427 C 771.75,426.67 765.61,423.58 759,422 C 756.85,421.49 756.03,421.76 753,421 C 751.97,420.74 747.37,419.41 744,419 C 742.69,418.84 741.31,419.17 740,419 C 737.92,418.72 735.86,418.56 732,418 C 730.45,417.77 730.27,417.23 729,417 C 725.39,416.36 721.34,416.49 719,415 C 717.38,413.97 711.28,412.31 708,412 C 702.3,411.46 696.63,413.14 691,413 C 686.64,412.89 682.19,411.51 678,411 C 673.46,410.45 669.35,410.5 665.01,410 C 665.231,410 664.37,409.09 664,409 C 662.47,408.62 660.58,409.14 659,409 C 658.08,408.92 657.49,407.8 656,408 C 655.19,408.11 655,409.09 654,409 C 650.16,408.66 645.8,407.27 642,407 C 631.33,406.25 622.32,406.94 612,406 C 597.86,404.72 580.66,405.92 565,406 C 552.22,406.07 539.59,405.89 527,407 C 516.04,407.97 505.75,407.95 494,409 C 492.07,409.17 491.24,409.99 490,410 C 485.59,410.04 481.41,408.64 477,409 C 476.27,409.06 475.88,409.81 475,410 C 474.04,410.21 472.96,409.8 472,410 C 469.31,410.55 467.04,411.05 465,412 C 464.23,412.36 464.12,413.56 463,414 C 462.43,414.23 461.6,413.85 461,414 C 459.94,414.27 458.24,414.73 455,415 C 454.37,415.05 453.61,414.85 453,415 C 451.7,415.33 447.49,416.41 444,417 C 437.54,418.1 431.3,418.94 425,420 C 424.36,420.11 423.63,419.84 423,420 C 419.71,420.82 412.27,422.08 407,423 C 404.64,423.41 402.07,423.54 400,424 C 399.81,424.04 399.86,424.96 399,425 C 395.33,425.19 390.16,426.75 386,428 C 384.74,428.38 382.69,429.58 381,430 C 379.1,430.47 378.42,429.96 376,431 C 375.47,431.23 374.4,432.86 374,433 C 372.24,433.59 371.32,433.54 370,434 C 368.69,434.45 368.13,434.71 367,435 C 364.8,435.57 362.27,435.38 360,436 C 359.73,436.07 359.93,436.95 359,437 C 355.9,437.16 354.87,438.28 352,439 C 342.23,441.44 330.37,444.36 320,448 C 319.63,448.13 320.01,448.95 319,449 C 318.73,449.01 318.24,448.9 318,449 C 317.01,449.4 316.4,449.65 315,450 C 314.19,450.2 314.26,450.92 314,451 C 311.93,451.59 309.33,451.23 307,452 C 306.65,452.12 306.99,452.95 306,453 C 303.83,453.11 303.29,454.14 301,455 C 291.77,458.47 280.21,462.42 270,466 C 268.56,466.5 266.8,467.55 265,468 C 263.1,468.47 262.42,467.96 260,469 C 259.38,469.27 258.51,470.77 258,471 C 256.34,471.75 255.29,471.25 254,472 C 253.37,472.37 252.56,473.7 252,474 C 250.32,474.91 248.21,476.35 246,476 C 244.43,474.41 243.39,472 242,470 C 241.61,469.44 241.06,470.16 241,469 C 240.98,468.69 240.23,467.35 240,467 C 239.59,466.39 238.32,465.57 238,465 C 237.34,463.84 237.69,462.57 237,461 C 236.72,460.37 235.24,459.52 235,459 C 234.34,457.6 234.72,456.41 234,455 C 233.69,454.39 232.24,453.52 232,453 C 231.34,451.6 231.72,450.41 231,449 C 230.71,448.43 229.21,447.48 229,447 C 228.32,445.42 228.49,444.23 228,443 C 226.3,438.71 223.99,432.16 222,427 C 221.63,426.04 221.6,424.36 221,423 C 220.74,422.41 219.2,421.48 219,421 C 218.13,418.91 217.97,415.92 217,414 C 216.78,413.56 215.16,413.37 215,413 C 214.76,412.47 215.29,411.5 215,411 C 214.61,410.34 213.34,409.59 213,409 C 212.78,408.63 213.31,407.26 213,407 C 211.67,405.91 211.2,405.27 210,403 C 205.61,394.71 201.15,386.56 200,377 C 196.27,374.06 195.13,368.54 194,363 C 195.81,361.14 199.05,360.72 202,360 C 203.46,358.75 204.9,358.34 207,357 C 208.13,356.28 209.08,355.88 210,355 C 210.81,354.22 211.66,354.33 213,354 C 214.06,353.73 213.44,353.29 214,353 C 215.83,352.07 217.76,351.01 220,350 C 221.41,349.36 222.59,349.72 224,349 C 224.54,348.72 225.55,347.17 226,347 C 227.58,346.38 228.81,346.37 230,346 C 231.6,345.51 232.35,345.53 234,345 C 234.33,344.89 234.02,344.05 235,344 C 237.18,343.89 237.49,343.38 239,343 C 240.55,342.61 241.47,342.61 243,342 C 244.12,341.55 247.08,340.22 249,339 C 249.98,338.38 250.57,338.36 252,338 C 252.86,337.79 252.68,337.1 253,337 C 255.5,336.2 258.38,336.58 261,336 C 261.19,335.96 261.14,335.05 262,335 C 265.97,334.79 270.67,333.35 275,332 C 275.15,331.95 275.32,331.17 276,331 C 277.35,330.66 279.42,330.48 281,330 C 283.41,329.27 285.79,328.74 288,328 C 288.89,327.7 290.68,327.56 292,327 C 293.9,326.2 294.52,324.19 297,323 C 298.95,322.06 299.18,322.71 302,322 C 303.02,321.75 304.19,320.66 306,320 C 307.69,319.38 309.16,318.46 311,318 C 312.55,317.61 313.47,317.61 315,317 C 315.99,316.6 316.6,316.35 318,316 C 318.94,315.77 320.5,315.45 322,315 C 322.93,314.72 323.67,314.33 325,314 C 326.04,313.74 330.13,312.78 333,312 C 333.27,311.93 333.07,311.05 334,311 C 337.81,310.8 341.78,308.94 346,308 C 348.49,307.44 351.18,307.59 354,307 C 356.7,306.43 358.66,305.83 362,305 C 362.4,304.9 363.29,304 363,304 C 363.81,304 367.61,305.95 371,305 C 374.38,305.38 375.27,303.27 377,302 C 380.77,301.23 381.78,303.22 385,303 C 389.12,301.28 393.64,300.29 398,299 C 402.31,297.73 406.56,295.82 411,295 C 415.75,294.13 421.6,294.6 427,294 C 427.99,293.89 429.25,293.16 431,293 C 437.02,292.46 445.74,292.04 453,291 C 454.06,290.85 455.17,290.13 457,290 C 462.21,289.63 468.51,289.32 474,288 C 476.3,287.45 479.43,286.9 484,287 C 485.08,287.02 484.63,287.93 485,288 C 485.24,288.05 487.85,287.14 489,287 C 493.56,286.44 498.41,284.32 503,284 C 508,283.65 513.08,285.23 518,285 C 522.7,284.78 528.25,282.5 533,282 C 540.27,281.23 551.94,280.85 562,281 C 568.89,281.1 575.35,281.98 582,282 C 585.68,282.01 589.93,281.21 594,281 C 596.8,280.86 605.61,282.39 607,281 C 611.39,276.61 625.14,280.1 633,281 C 634.3,281.15 635.71,280.77 637,281 C 639.31,281.41 638.27,281.68 641,281 C 644.22,280.19 649.87,281.64 654,282 C 658.25,282.37 660.86,282.17 665,283 C 665.32,283.06 666.82,282.77 667,283 C 669.06,285.51 676,282.75 681,284 C 682.16,284.29 682.89,284.78 686,285 C 686.62,285.04 687.39,284.85 688,285 C 688.87,285.22 692.97,286.62 696,287 C 697.65,287.21 697.7,285.98 698.99,286 C 698.57,286 699.75,286.94 700,287 C 702.04,287.51 706.29,287.71 708.99,288 C 708.76,288 709.65,288.91 710,289 C 712.83,289.71 721.09,288.02 725,289 C 725,289 727.93,289.91 728,290 C 728.65,290.8 727.57,291.92 729,292 C 729.83,292.04 730.6,293.42 732,293 C 732.91,293.62 736.33,292.18 737,293 C 738.59,294.94 747.23,293.63 752,294 C 755.34,294.26 758.53,295.64 762,296 C 765.49,296.37 769.71,295.51 773,296 C 776.14,296.47 778.78,298.11 782,299 C 782.62,299.17 783.38,298.84 784,299 C 786.65,299.66 793.25,301.96 798,303 C 800.32,303.51 802.55,303.42 805,304 C 806.83,304.43 809.08,305.5 811,306 C 815.46,307.15 819.96,307.76 824,309 C 824.14,309.04 824.32,309.83 825,310 C 829.72,311.18 836.22,313.59 842,315 C 845.39,315.83 848.53,315.94 852,317 C 852.14,317.04 852.33,317.83 853,318 C 855.11,318.53 858.36,319.11 861,320 C 864.62,321.22 869.03,322.39 872,325 C 875.64,325.45 879.48,324.39 883,325 C 883.1,325.02 883.21,325.96 884,326 C 884.59,326.03 886.72,326.68 888,327 C 888.88,327.22 889.71,327.68 891,328 C 893.37,328.59 897.54,331.77 901,333 C 901.59,333.21 902.39,332.85 903,333 C 903.88,333.22 904.71,333.68 906,334 C 910.69,335.17 918.37,338.34 925,340 C 925.79,340.2 925.76,340.94 926,341 C 929.12,341.85 931.99,341.66 934,343 C 934.46,343.3 934.74,343.84 935,344 C 935.86,344.54 936.94,344.4 938,345 C 938.63,345.36 939.44,346.7 940,347 C 942.21,348.19 945.84,348.73 949,350 C 949.72,350.29 951.08,350.5 952,351 C 952.58,351.31 953.5,352.77 954,353 C 955.87,353.85 958.14,354.15 960,355 C 960.59,355.27 961.51,356.79 962,357 C 962.55,357.24 963.41,356.85 964,357 C 964.88,357.22 965.71,357.68 967,358 C 969.21,358.55 973.36,360.86 975,364 z M 948,382 C 949.1,380.35 949.2,378.47 949,376 C 947.92,374.82 945.37,373.45 945,373 C 944.71,372.65 942.36,372.24 942,372 C 939.34,370.22 936.4,370.19 933,371 C 930.94,369.03 927.83,367.14 926,366 C 925.74,365.84 925.46,365.3 925,365 C 923.8,364.2 922.97,364.1 921,364 C 920.23,363.96 920.07,363.01 920,363 C 916.56,362.45 910.13,363.55 909,364 C 908.76,364.1 908.27,363.99 908,364 C 906.94,364.06 907.43,364.82 907,365 C 903.24,366.54 902.32,366.68 900,369 C 897.6,371.4 896.94,372.97 896,375 C 895.75,375.55 895.02,376.53 895,377 C 894.95,377.97 894.1,377.67 894,378 C 893.53,379.49 894.24,381.45 894,383 C 893.93,383 893.15,383.52 893,384 C 892.77,384.77 892.97,386.19 893,387 C 893.12,390.12 894.89,392.91 895,395 C 895.06,396.07 895.81,395.55 896,396 C 897.25,398.91 898.41,401.54 900,404 C 900.1,404.15 900.85,403.88 901,404 C 901.33,404.27 900.73,405.65 901,406 C 901.36,406.48 902.62,406.48 903,407 C 903.79,408.1 904.24,409.61 905,411 C 905.07,411.14 905.87,410.89 906,411 C 906.29,411.24 905.83,412.64 906,413 C 906.06,413.12 906.88,412.9 907,413 C 907.26,413.21 906.89,414.65 907,415 C 907.03,415.1 907.91,414.92 908,415 C 909.25,416.02 907.04,420.21 908,421 C 905.24,424.53 898.94,424.53 897,420 C 894.39,417.47 899.14,412.06 896,409 C 894.93,406.4 890.07,407.6 889,405 C 885.42,404.58 883.66,402.34 879,403 C 878.75,405.72 877.45,406.88 877,408 C 876.9,408.24 877.01,408.73 877,409 C 876.95,410.01 876.13,409.63 876,410 C 875.07,412.64 875.1,416.2 874,419 C 873.96,419 873.14,419.78 873,420 C 870.48,423.96 867.74,430.04 869,434 C 871.12,437.88 878.46,436.54 881,440 C 885.13,441.04 884.88,436.74 887,437 C 887.62,437.08 889.22,440.14 891,442 C 891.48,442.5 891.57,443.47 892,444 C 892.27,444.33 893.65,443.72 894,444 C 895.9,445.53 896.68,447.88 899,448 C 900,448.05 899.64,448.88 900,449 C 902.15,449.73 905.77,450.04 908,450 C 909.72,449.97 913.18,449.66 915,449 C 915.1,448.96 914.92,448.1 915,448 C 915.24,447.71 916.64,448.17 917,448 C 917.12,447.94 916.9,447.12 917,447 C 917.26,446.69 918.63,447.22 919,447 C 919.41,446.75 919.57,445.32 920,445 C 920.92,444.31 922.2,444.71 923,444 C 925.64,441.65 929.44,435.25 930,433 C 930.32,431.71 930.78,430.88 931,430 C 934.23,417.08 928.73,408.85 924,402 C 922.99,400.54 921.04,398.83 921,398 C 920.9,396.03 918.09,395.69 918,394 C 917.94,392.87 917.29,393.53 917,393 C 915.35,390.03 914.85,387.97 916,385 C 917.38,385.04 918.2,384.53 919,384 C 925.55,383.79 925.26,390.4 926,396 C 932.03,396.31 934.2,400.47 941,400 C 941.61,395.94 944.45,394.12 944,389 C 946.05,387.14 947.18,383.23 948,382 z M 905,352 C 905.14,351.46 905.04,350.56 905,350 C 904.93,349.08 904.4,348.1 904,347 C 903.03,344.33 900.21,341.12 898,341 C 897.15,340.96 897.17,340.04 897,340 C 894.19,339.4 890.58,340.86 890,341 C 887.21,341.7 886.48,342.61 885,345 C 882.38,349.23 883.11,350.55 884,355 C 884.78,355.22 885.16,355.84 885,357 C 887.38,357.62 889.66,358.34 890,361 C 889.49,365.16 883.22,363.55 883,368 C 886.05,370.95 889.47,369.38 891,369 C 893.11,368.47 892.89,368.36 894,367 C 894.26,366.68 895.64,367.23 896,367 C 897.15,366.26 902.94,359.08 903,358 C 903.05,356.96 903.84,357.41 904,357 C 904.44,355.87 903.76,354.2 904,353 C 904.02,352.9 904.83,352.68 905,352 z M 872,373 C 875.21,365.87 877.73,358.06 879,349 C 870.11,346.89 862.39,343.61 853,342 C 851.08,344.75 850.65,348.98 850,353 C 847.74,355.07 846.88,358.54 846,362 C 845.7,364.63 849.88,362.79 849,366 C 844.86,367.2 844.66,372.33 840,373 C 839.32,369.01 837.47,366.2 838,361 C 840.32,361.32 841.84,360.84 843,360 C 843.93,352.93 848.18,349.18 848,341 C 844.74,338.3 840.21,338.34 836,337 C 830.58,335.28 825.31,332.16 819,333 C 817.27,340.27 814.45,346.45 814,355 C 813.97,358.03 819.03,355.97 819,359 C 820.63,364.5 822.02,369.62 823,375 C 823.29,376.62 824.09,379.78 824,381 C 823.82,383.41 821.74,385.86 821,388 C 819.99,390.94 819.81,393.33 819,396 C 815.85,396.5 815.09,393.82 813,396 C 810.45,401.78 807.71,407.38 808,416 C 816.95,420.05 827.68,422.32 838,425 C 840.13,422.48 841.88,419.25 843,416 C 843.96,413.21 843.83,410.96 845,410 C 846.25,408.98 844.04,404.79 845,404 C 844.69,401.65 840.26,403.41 841,400 C 841.04,399 840.95,398 841,397 C 841.05,396.05 841.91,396.3 842,396 C 842.46,394.45 842.44,391.99 843,391 C 843.42,390.26 845.36,389.64 846,389 C 848.61,386.39 850.81,382.89 853,381 C 853.37,380.68 854.55,381.2 855,381 C 855.27,380.88 855.7,379.25 856,379 C 859.03,376.48 862.25,374.62 865,373 C 867.33,373 869.67,373 872,373 z M 809,354 C 809.46,348.64 807.17,345.2 807,342 C 806.9,340.16 805.08,339.44 805,338 C 804.9,336.16 802.82,335.67 802,335 C 801.66,334.72 802.31,333.32 802,333 C 801.51,332.48 799.54,332.41 799,332 C 798.27,331.44 797.88,330.6 797,330 C 795.38,328.89 793.64,327.82 792,327 C 789.78,325.89 785.88,324.22 785,324 C 783.71,323.68 782.88,323.22 782,323 C 780.71,322.68 779.88,322.22 779,322 C 772.37,320.34 766.76,319.05 761,318 C 757.68,317.39 753.94,316.61 752,317 C 751.55,326.22 748.34,332.67 747,341 C 748.01,340.74 747.66,341.57 748,342 C 749.61,344.02 753.21,343.07 754,345 C 752.51,356.17 750.12,366.46 748,377 C 747.27,379.27 741.08,376.08 742,380 C 739.88,381.12 741.26,383.46 741,385 C 740.83,385.99 740.18,386.17 740,387 C 739.79,387.96 740.16,389.04 740,390 C 739.42,393.43 737.04,397.31 739,400 C 741.57,402.3 744.91,401.37 748,402 C 748.07,402.01 747.94,402.92 748,403 C 748.17,403.21 749.7,402.96 750,403 C 751.64,403.2 752.2,403.03 753,404 C 753.17,404.21 754.7,403.96 755,404 C 756.64,404.2 757.2,404.03 758,405 C 758.23,405.28 759.64,404.86 760,405 C 762.44,405.98 765.29,407.46 768,407 C 770.83,405.18 769.26,400.39 771,398 C 771,394 773,392 773,388 C 772.43,384.9 767.65,386.02 769,381 C 770.59,380.26 768.77,376.1 772,377 C 775.34,376.64 775.41,380.64 776,383 C 776.6,385.39 776.66,389.26 777,392 C 777.76,398.12 777.56,404.99 780,409 C 783.05,411.19 787.07,411.13 791,412 C 794.72,412.82 798.52,414.51 803,414 C 804.22,410.89 805.33,407.66 805,403 C 807.16,401.16 807.1,397.1 807,393 C 805.27,391.39 800.82,392.52 800,390 C 798.85,384.81 796.91,380.43 796,375 C 797.82,372.15 801.49,371.16 804,369 C 805.11,365.49 806.24,365.06 807,362 C 807.53,359.9 808.8,356.28 809,354 z M 734,399 C 735.18,392.51 735.95,385.62 736,378 C 733.6,376.74 729.95,376.71 728,375 C 727.53,368.81 724.41,365.25 723,360 C 725.39,358.02 729.88,356.33 730,354 C 730.06,352.85 730.64,353.55 731,353 C 732.23,351.09 732.87,349.48 733,347 C 733.04,346.25 734,346.04 734,346 C 734.6,341.75 734.51,335.93 734,333 C 733.84,332.07 732.73,330.67 732,329 C 731.26,327.3 730.81,325.28 730,324 C 729.9,323.85 729.14,324.12 729,324 C 728.67,323.73 729.27,322.35 729,322 C 727.77,320.37 723.17,317.01 723,317 C 721.16,316.9 720.44,315.08 719,315 C 717.9,314.94 718.48,314.23 718,314 C 716.08,313.09 713.09,312.55 711,312 C 708.38,311.31 706.55,310.68 706,310 C 705.83,309.79 704.3,310.04 704,310 C 702.36,309.8 701.8,309.97 701,309 C 700.83,308.79 699.3,309.04 699,309 C 697.36,308.8 696.8,308.97 696,308 C 695.83,307.79 694.3,308.04 694,308 C 688.46,307.33 679.54,306.58 675,307 C 674.1,315.44 672.15,322.81 672,332 C 673.79,333.21 677.82,332.18 679,334 C 678.85,345.52 676.62,354.96 676,366 C 674.67,366.43 674.19,367.4 673,368 C 671.71,368.65 669.32,367.44 670,370 C 668.48,375.81 668.67,383.33 668,390 C 673.5,393.03 681.32,391.94 688,393 C 691.7,393.59 694.5,395.84 698,395 C 700.05,393.39 700.32,389.99 700,386 C 701.1,383.1 700.9,378.9 702,376 C 700.56,374.44 699.48,372.52 697,372 C 697.04,368.71 696.59,364.92 700,365 C 703.79,364.54 703.29,368.88 704,371 C 705.72,376.16 706.84,385.17 708,389 C 708.49,390.63 707.9,391.1 709,392 C 709.79,392.65 709.36,395.15 710,396 C 717.32,397.68 724.93,399.07 734,399 z M 664,334 C 665.87,326.21 664.66,315.33 665,306 C 647.99,304.35 629.95,303.72 612,303 C 611.95,304.28 610.72,304.38 611,306 C 611.89,314.45 607.64,320.03 610,327 C 611.73,328.61 616.18,327.48 617,330 C 616.7,340.7 614.66,349.66 615,361 C 613.57,361.24 613.31,362.65 612,363 C 610.23,363.23 606.99,361.99 608,365 C 606.53,371.2 606.48,378.81 606,386 C 611.6,387.11 618.94,387.61 623,388 C 625.23,388.21 627.77,387.78 630,388 C 631.57,388.16 633.5,388.93 635,389 C 639.89,389.23 644.48,388.84 649,389 C 653.71,389.17 657.98,391.63 662,389 C 663.94,385.77 662.64,381.36 663,377 C 663.46,371.46 665.35,365.73 664,362 C 659.31,360.35 652.31,361.03 647,360 C 646.78,361.43 645.33,361.68 645,363 C 644.22,366.12 646.21,369.63 642,369 C 635.67,368.69 640.22,363 639,357 C 641.36,355.69 645.91,356.58 648,355 C 647.25,348.91 649.6,345.93 649,340 C 646.37,338.3 640.43,339.9 638,338 C 640.77,335.77 636.72,326.72 641,326 C 642.16,326.84 643.68,327.32 646,327 C 646,329.33 646,331.67 646,334 C 651.98,336.25 657,333.52 664,334 z M 598,326 C 599.67,324.34 605.3,326.63 605,323 C 604.45,316.22 606.17,307.16 604,302 C 589,302 574,302 559,302 C 558,302 557.81,302.81 557,303 C 555.57,308.75 555.22,320.31 557,326 C 561.87,329.67 567.65,326.29 575,327 C 578.47,331.94 576.26,340 576,347 C 575.84,351.21 577.5,352.5 576,354 C 575,355 576.15,357.06 575,358 C 573.72,359.05 575.07,362.28 573,362 C 572.08,363.75 569.87,364.21 567,364 C 566.25,360.25 570.82,361.82 571,359 C 574.66,354.93 572.17,351.17 572,348 C 571.94,346.85 571.35,347.55 571,347 C 569.18,344.17 568.1,343.16 565,343 C 564.18,342.96 564.13,342.02 564,342 C 558.58,340.98 550.85,343.84 548,347 C 546.87,348.25 546.44,350.34 546,351 C 545.34,351.99 545.34,352.64 545,354 C 543.56,359.75 544.5,367.62 546,372 C 548.18,378.36 550.12,380.03 554,383 C 555.76,384.35 556.24,384.56 558,385 C 559.51,385.38 559.82,385.88 562,386 C 562.8,386.04 562.89,386.98 563,387 C 568.31,387.94 579.1,386.76 581,386 C 583.29,385.09 585.15,384.94 587,384 C 590.45,382.24 592.9,379.79 594,378 C 594.51,377.16 595.65,376.64 596,376 C 597.22,373.77 597.24,370.93 598,368 C 598.02,367.91 598.92,368.08 599,368 C 599.48,367.52 598.87,364.72 599,364 C 600.99,352.57 598.08,340.72 598,326 z M 539,339 C 539.51,336.87 539.62,329.85 539,326 C 539,325.98 538.16,325.62 538,325 C 537.44,322.74 536.91,321.71 535,320 C 531.79,317.12 527.95,315.51 522,317 C 521.72,317.07 520.4,318.78 520,319 C 518.84,319.62 517.78,319.08 517,320 C 516.71,320.34 517.34,321.72 517,322 C 513.48,324.88 514.65,331.85 518,333 C 517.51,336.16 522.96,333.37 522,337 C 517.17,341.01 509.1,340.4 502,342 C 499.55,342.55 497.49,343.4 497,344 C 496.76,344.29 495.36,343.83 495,344 C 494.88,344.06 495.1,344.88 495,345 C 494.73,345.33 493.36,344.75 493,345 C 490.84,346.53 488.7,350.23 488,352 C 485.83,357.47 487.09,365.37 495,365 C 497.74,363.33 493.28,360.19 497,359 C 497.91,356.58 501.02,356.35 504,356 C 504.11,357.89 507.31,356.69 507,359 C 508.22,367.68 500.39,370.96 495,371 C 489.91,371.03 482.33,366.96 481,361 C 480.53,358.9 480.24,354.5 481,352 C 481.08,351.72 482.73,350.35 483,350 C 483.78,348.99 484.24,348 485,347 C 486.33,345.33 490.67,346.67 492,345 C 492.84,340.84 494.58,337.58 494,332 C 489.45,332.31 484.81,330.36 485,326 C 485.1,323.73 486.3,321.08 490,321 C 495.25,321.08 493.91,327.76 499,328 C 504.02,328.02 508.23,327.23 512,326 C 509.8,320.2 512.11,309.89 510,304 C 504.75,303.42 502.43,305.76 497,305 C 495.35,305.02 496.44,307.77 495,308 C 489.48,303.4 482.18,305.7 477,307 C 476.25,307.19 476.23,307.92 476,308 C 474.6,308.5 473.15,308.2 472,309 C 470.6,309.97 467.03,314.4 467,315 C 466.94,316.05 466.18,315.57 466,316 C 465.55,317.1 466.21,318.83 466,320 C 465.97,320 465.16,320.47 465,321 C 464.77,321.77 464.97,323.19 465,324 C 465.16,328.64 467.34,331.84 470,336 C 462.31,342.45 456.38,348.07 456,360 C 455.95,361.66 456.78,363.24 457,365 C 457.48,368.91 456.75,369.98 458,371 C 458.28,371.23 457.86,372.64 458,373 C 458.71,374.78 459.35,375.95 460,377 C 460.48,377.79 461.96,379.15 462,380 C 462.07,381.36 467.58,386.68 468,387 C 468.42,387.31 469.52,386.78 470,387 C 470.74,387.33 470.72,388.93 472,389 C 473.1,389.06 472.52,389.77 473,390 C 475.26,391.07 477.21,391.38 480,392 C 486.01,393.33 495.51,392.85 500,392 C 500.94,391.82 502.04,392.05 503,392 C 503.91,391.95 503.75,391.07 504,391 C 509.03,389.69 512.79,388.71 515,386 C 515.27,385.67 516.64,386.25 517,386 C 518.19,385.17 519.39,383.39 520,383 C 520.7,382.55 521.45,382.57 522,382 C 522.77,381.21 522.33,379.96 523,379 C 523.57,378.18 525.45,377.87 526,377 C 526.52,376.18 526.69,374.68 527,374 C 527.92,372.01 529.7,367.59 530,365 C 530.67,359.19 529.42,355.67 528,352 C 531.2,348.2 535.26,345.77 537,342 C 537.25,341.45 537.98,340.47 538,340 C 538.05,339.12 538.95,339.21 539,339 z M 448,395 C 449.01,391.5 447.63,387.14 447,383 C 446.31,378.49 445.3,374.24 445,370 C 443.05,367.7 438.56,371.92 436,369 C 434.67,358.33 432.31,348.69 431,338 C 434.02,337.36 436.77,336.44 437,333 C 434.75,327.25 435.01,318.99 433,313 C 426.85,312.17 421.16,314.91 416,316 C 412.41,316.76 407.32,317.6 406,318 C 405.08,318.28 403.93,317.77 403,318 C 401.42,318.39 400.42,318.87 399,320 C 397.88,328.46 402.81,330.85 402,339 C 404.4,341.83 408.05,337.62 410,340 C 409.79,344.24 413.58,349.7 411,352 C 410.72,349.46 408.03,347.34 406,345 C 404.19,342.91 402.04,341.23 400,339 C 399.08,338 397.97,337.21 397,336 C 396.14,334.92 395.98,333.18 395,332 C 394.32,331.17 392.86,330.02 392,329 C 391,327.8 389.8,325.71 389,325 C 388.37,324.44 386.62,324.42 386,324 C 384.7,323.11 385.27,322.36 383,322 C 381.62,321.78 380.01,322.53 378,323 C 375.06,323.69 372.67,324.18 372,325 C 371.83,325.21 370.3,324.96 370,325 C 365.99,325.48 364.49,325.57 362,327 C 361.38,336.62 364.56,342.44 365,351 C 366.04,353.29 372.14,350.53 373,353 C 375.65,362.35 377.73,372.26 379,383 C 378.11,385.45 373.42,384.08 374,388 C 375.05,395.62 375.77,403.56 379,409 C 389.73,406.73 401.34,405.34 411,402 C 410.84,393.16 407.38,387.62 406,380 C 403.53,380.13 401.18,380.15 400,379 C 400.54,375.06 396.95,369.44 399,368 C 400.42,369.02 401.54,369.39 403,371 C 404.16,372.28 404.78,374.64 406,376 C 407.86,378.08 410.88,379.54 412,381 C 412.6,381.78 412.34,383.22 413,384 C 413.91,385.07 415.96,385.75 417,387 C 417.63,387.75 417.46,389.29 418,390 C 419.12,391.47 421.24,392.19 422,393 C 422.68,393.73 422.32,395.23 423,396 C 427.62,401.22 431.49,398.33 438,397 C 441.21,396.35 444.83,396.98 448,395 z M 373,411 C 373.82,407.36 372.23,402.91 372,402 C 371.64,400.57 371.62,399.98 371,399 C 368.1,394.45 369.75,387.46 366,383 C 360.21,384.54 354.22,385.89 349,388 C 349.36,393.5 351.4,397.74 345,398 C 342.38,395.62 342.51,390.49 341,387 C 342.99,385.66 345.76,385.09 348,384 C 348.36,377.3 345.9,373.43 345,368 C 339.59,366.92 339.04,370.71 334,370 C 334.33,365.77 328.06,356.89 336,357 C 340.05,356.95 337.18,363.82 342,363 C 347.33,361.33 352.72,359.72 357,357 C 354.8,347.86 352.47,338.87 349,331 C 345.88,330.41 343.49,331.4 343,332 C 342.8,332.25 341.34,331.9 341,332 C 337.34,333.03 335.08,334.07 332,335 C 328.1,336.17 321.37,337.33 320,339 C 319.8,339.25 318.34,338.9 318,339 C 316.74,339.36 315.88,339.75 315,340 C 310.37,341.31 306.4,341.44 302,343 C 299.97,343.72 298.74,344.5 297,346 C 298.99,353.34 300.35,361.32 303,368 C 306.28,369.63 306.82,367.77 311,368 C 313.49,378.85 317.22,388.45 319,400 C 318.11,402.45 313.42,401.08 314,405 C 315.08,412.25 317.66,418.01 319,425 C 321.72,426.47 324.79,424.3 326,424 C 327.33,423.67 328.07,423.28 329,423 C 330.5,422.55 332.06,422.23 333,422 C 333.63,421.84 334.38,422.16 335,422 C 343.59,419.75 351.34,417.21 359,415 C 363.88,413.6 368.5,412.62 373,411 z M 311,412 C 311.04,408.78 309.52,404.31 309,403 C 308.9,402.76 309.01,402.27 309,402 C 308.94,400.94 308.18,401.43 308,401 C 307.42,399.58 307.81,398.22 307,397 C 306.48,396.21 304.7,395.7 304,395 C 302.02,393.02 301.15,391.92 299,391 C 296.35,389.86 291.21,389.37 290,388 C 292,382.57 290.56,375.22 290,373 C 289.64,371.57 289.62,370.98 289,370 C 288.28,368.88 287.7,368.09 287,367 C 285.7,364.96 284.62,364.1 283,363 C 281.92,362.26 281.8,361.98 281,361 C 280.64,360.56 277.66,360.03 277,360 C 276,359.95 276.37,359.13 276,359 C 271.66,357.49 259.44,357.01 257,360 C 256.78,360.27 255.35,359.87 255,360 C 252.66,360.88 249.18,362.7 248,363 C 246.76,363.31 246.67,363.18 246,364 C 245.32,364.83 241.62,364.79 241,365 C 238.29,365.92 235.14,367.72 234,368 C 232.71,368.32 231.88,368.78 231,369 C 230.41,369.15 229.56,368.77 229,369 C 228.54,369.19 227.55,370.7 227,371 C 225.95,371.56 224.55,371 224,372 C 223.86,382.14 228.4,387.6 231,395 C 235.12,395.79 236.13,393.46 240,394 C 241.36,399.3 243.61,406.51 245,410 C 245.81,412.02 246.47,414.49 247,416 C 247.94,418.66 249.81,420.87 249,424 C 247.76,425.23 245.24,426.71 245,427 C 244.72,427.34 243.31,426.69 243,427 C 242.5,427.5 243.19,429.19 242,429 C 242.82,436.84 245.93,442.4 248,449 C 250.58,449.13 260.12,449.3 262,447 C 262.22,446.73 263.65,447.13 264,447 C 266.34,446.12 269.82,444.29 271,444 C 272.24,443.69 272.33,443.82 273,443 C 273.22,442.73 274.65,443.13 275,443 C 277.34,442.12 280.82,440.29 282,440 C 283.24,439.69 283.33,439.82 284,439 C 284.07,438.92 287,438 287,438 C 288.29,437.68 289.12,437.22 290,437 C 291.29,436.68 292.12,436.22 293,436 C 293.56,435.86 294.49,436.26 295,436 C 295.52,435.74 296.42,434.36 297,434 C 297.86,433.47 299.12,433.65 300,433 C 301.43,431.94 302.33,429.82 303,429 C 303.28,428.66 304.69,429.32 305,429 C 305.31,428.68 304.81,427.42 305,427 C 305.15,426.67 306.75,426.38 307,426 C 307.51,425.21 307.7,423.66 308,423 C 308.25,422.45 308.98,421.46 309,421 C 309.05,420.02 309.89,420.33 310,420 C 310.38,418.82 309.82,417.23 310,416 C 310.22,414.51 310.97,414.19 311,412 z"
     id="path2574" /><path
     d="M 439.99,272 C 439.83,272 440.59,271.11 441,271 C 443.64,270.34 449.01,270.54 453,270 C 453.86,269.88 454.65,269.18 456,269 C 475,266.49 497.18,264.61 519,263 C 528.02,262.33 537.63,262.44 547,262 C 548.62,261.92 548.7,261.16 550,261 C 560.29,259.76 572.67,261 584,261 C 607.18,261 628.32,261.4 650,263 C 660.92,263.81 671.78,263.92 682,265 C 683,265.11 684.22,265.87 686,266 C 703.45,267.25 724.15,270.18 742,273 C 767.41,277.01 789.53,281.57 813,287 C 815.35,287.54 817.52,288.45 820,289 C 822.13,289.47 824.83,289.44 827,290 C 827.25,290.06 827.09,290.95 828,291 C 828.27,291.01 828.76,290.9 829,291 C 833.29,292.71 841.37,294.4 847,296 C 849.19,296.62 849.06,296.27 852,297 C 853.28,297.32 855.94,298.24 859,299 C 859.88,299.22 860.71,299.68 862,300 C 862.88,300.22 863.71,300.68 865,301 C 865.94,301.23 867.5,301.55 869,302 C 869.93,302.28 870.67,302.67 872,303 C 872.8,303.2 872.75,303.93 873,304 C 875.26,304.63 877.8,304.32 880,305 C 880.32,305.1 880.04,305.95 881,306 C 881.27,306.01 881.76,305.9 882,306 C 882.99,306.4 883.6,306.65 885,307 C 885.88,307.22 886.71,307.68 888,308 C 888.88,308.22 889.71,308.68 891,309 C 894.22,309.81 900.48,312.48 905,314 C 909.33,315.45 913.89,316.48 918,318 C 918.39,318.15 917.98,318.95 919,319 C 919.27,319.01 919.76,318.9 920,319 C 920.99,319.4 921.6,319.65 923,320 C 924.12,320.28 927.33,322.03 930,323 C 932.09,323.76 934.94,324.17 937,325 C 937.3,325.12 937.19,325.8 938,326 C 938.59,326.15 939.45,325.76 940,326 C 940.58,326.25 941.53,327.81 942,328 C 943.65,328.66 944.73,328.5 946,329 C 947.6,329.64 949.47,330 952,331 C 952.3,331.12 952.2,331.8 953,332 C 954.55,332.39 955.47,332.39 957,333 C 957.95,333.38 959.23,334.27 961,335 C 962.8,335.74 965.28,336.26 967,337 C 967.45,337.19 966.93,337.94 968,338 C 969.54,338.08 974.61,341.4 977,342 C 979.09,342.52 980.24,343.19 982,344 C 983.48,344.68 985.73,344.78 988,346 C 988.64,346.35 989.44,347.7 990,348 C 991.88,349.01 993.09,348.73 995,350 C 996.62,351.08 998.2,352.6 1000,355 C 999.8,357.47 999.24,360.14 998,362 C 997.76,362.36 997.35,364.71 997,365 C 996.18,365.67 996.31,365.76 996,367 C 996,367 995.08,369.93 995,370 C 994.88,370.1 994.06,369.88 994,370 C 993.83,370.36 994.29,371.76 994,372 C 993.88,372.1 993.06,371.88 993,372 C 992.83,372.36 993.29,373.76 993,374 C 992.46,374.45 990.88,376.92 990,379 C 989.85,379.36 990.28,380.77 990,381 C 989.88,381.1 989.06,380.88 989,381 C 988.83,381.36 989.29,382.76 989,383 C 986.36,385.16 984.25,392.5 982,397 C 980.29,400.42 978.08,405.53 976,410 C 975.24,411.64 973.09,414.3 973,416 C 972.99,416.28 972.29,418.36 972,419 C 971.25,420.65 969.09,423.29 969,425 C 968.99,425.28 968.29,427.36 968,428 C 967.78,428.48 966.11,429.64 966,430 C 965.74,430.87 966.37,432.17 966,433 C 965.7,433.68 964.32,434.43 964,435 C 963.8,435.37 964.31,436.75 964,437 C 963.04,437.78 961,441.49 960,444 C 959.86,444.36 960.28,445.77 960,446 C 958.75,447.02 956.36,452.05 955,455 C 952.31,460.85 950.23,465.98 947,473 C 946.24,474.65 944.09,477.29 944,479 C 943.92,480.43 942.45,481.2 942,483 C 941.53,484.87 940.99,486.9 940,489 C 939.77,489.48 939.06,488.9 939,490 C 938.99,490.23 939.11,490.81 939,491 C 938.64,491.65 937.32,492.43 937,493 C 936.8,493.37 937.31,494.75 937,495 C 935.1,496.56 931.91,499.49 926.05,498.01 C 926.31,498.01 924.97,496.981 925,497 C 924.64,496.76 922.29,496.35 922,496 C 921.26,495.09 920.19,494.45 919,494 C 918.65,493.87 917.22,494.27 917,494 C 916.91,493.89 917.12,493.05 917,493 C 916.64,492.84 915.23,493.28 915,493 C 914.9,492.88 915.12,492.06 915,492 C 914.64,491.83 913.24,492.29 913,492 C 912.26,491.09 911.19,490.45 910,490 C 909.65,489.87 908.22,490.27 908,490 C 907.91,489.89 908.12,489.05 908,489 C 907.64,488.84 906.23,489.28 906,489 C 905.9,488.88 906.12,488.06 906,488 C 905.64,487.83 904.24,488.29 904,488 C 903.33,487.18 903.24,487.31 902,487 C 902,487 899.07,486.09 899,486 C 898.62,485.54 894.75,483.44 893,483 C 891.02,482.51 890.02,481.51 888,481 C 886.02,480.51 885.02,479.51 883,479 C 879.69,478.17 875.94,476.49 872,475 C 871.65,474.87 870.22,475.27 870,475 C 869.92,474.9 870.1,474.04 870,474 C 867.24,473 865.16,473.05 862,472 C 861.65,471.88 861.99,471.05 861,471 C 859.41,470.92 855.45,468.92 853,468 C 852.65,467.87 851.22,468.27 851,468 C 849.56,466.25 845.48,466.16 842,465 C 841.65,464.88 841.99,464.05 841,464 C 840.62,463.98 836.54,463.66 836,463 C 834.91,461.67 830.64,461.06 828,460 C 827.64,459.86 826.23,460.28 826,460 C 825.12,458.93 820.53,457.69 818,457 C 817.67,456.91 816.2,457.24 816,457 C 815.01,455.79 810.81,455.12 808,454 C 807.64,453.86 806.23,454.28 806,454 C 804.83,452.57 798.66,451.97 795,451 C 794.94,450.98 794.61,450.15 794,450 C 790.01,449 784.45,448.1 779,447 C 778.85,446.97 778.84,446.04 778,446 C 773.35,445.76 768.5,444.21 763,443 C 761.14,442.59 758.94,442.39 757,442 C 756.85,441.97 756.84,441.04 756,441 C 752.93,440.84 752.42,440.68 749,440 C 748.68,439.94 747.18,440.23 747,440 C 746.2,439.03 745.64,439.2 744,439 C 743.7,438.96 742.17,439.21 742,439 C 740.63,437.32 737.32,439.61 736,438 C 735.2,437.03 734.64,437.2 733,437 C 732.7,436.96 731.17,437.21 731,437 C 729.63,435.32 726.32,437.61 725,436 C 723.63,434.32 720.32,436.61 719,435 C 717.74,433.46 711.08,433.6 707,433 C 706.1,432.87 705.4,432.15 704,432 C 701.68,431.76 698.83,431.37 696,431 C 662.96,426.64 624.43,424 585,424 C 496.88,424 424.5,436.23 354,457 C 331.41,463.66 308.83,471.27 287,480 C 286.64,480.14 285.23,479.72 285,480 C 284.26,480.91 283.19,481.55 282,482 C 281.65,482.13 280.22,481.73 280,482 C 279.92,482.1 280.1,482.96 280,483 C 278.28,483.63 276.6,483.34 275,484 C 274.5,484.21 273.37,485.89 273,486 C 272.11,486.27 270.85,485.65 270,486 C 269.56,486.18 270.06,486.94 269,487 C 267.57,487.08 266.8,488.55 265,489 C 263.13,489.47 261.1,490.01 259,491 C 258.52,491.23 259.1,491.94 258,492 C 257.74,492.01 257.23,491.9 257,492 C 250.33,494.91 242.82,500 238,499 C 234.83,498.34 233.19,495.81 231,492 C 230.38,490.93 230.51,489.98 230,489 C 226.93,483.03 221.66,470.82 219,465 C 218.27,463.41 217.78,461.7 217,460 C 216.78,459.52 215.11,458.36 215,458 C 214.74,457.14 215.38,455.81 215,455 C 214.69,454.32 213.32,453.57 213,453 C 212.8,452.63 213.31,451.25 213,451 C 212.88,450.9 212.07,451.13 212,451 C 211.81,450.63 212.3,449.25 212,449 C 211.88,448.9 211.06,449.12 211,449 C 210.83,448.64 211.29,447.24 211,447 C 210.09,446.26 209.45,445.19 209,444 C 208.87,443.65 209.27,442.22 209,442 C 208.89,441.91 208.05,442.12 208,442 C 207.84,441.64 208.28,440.23 208,440 C 207.88,439.9 207.06,440.12 207,440 C 206.83,439.64 207.29,438.24 207,438 C 206.04,437.22 204,433.51 203,431 C 202.86,430.64 203.28,429.23 203,429 C 201.75,427.98 197.75,421.01 197,418 C 196.53,416.13 195.99,414.1 195,412 C 194.77,411.52 194.06,412.1 194,411 C 193.99,410.75 194.1,410.23 194,410 C 193.78,409.51 192.11,408.36 192,408 C 191.73,407.12 192.35,405.85 192,405 C 191.82,404.56 191.06,405.06 191,404 C 190.99,403.72 190.29,401.64 190,401 C 189.69,400.32 188.32,399.57 188,399 C 187.8,398.63 188.31,397.25 188,397 C 187.89,396.91 187.05,397.12 187,397 C 186.28,395.35 186.7,393.52 186,392 C 185.69,391.32 184.32,390.57 184,390 C 183.8,389.63 184.31,388.25 184,388 C 182.22,386.54 180.78,381.57 179,378 C 177.36,374.72 174.62,369 173,365 C 172.05,362.66 171.41,361.49 171,360 C 170.77,359.17 170.1,359.01 170,358 C 169.77,355.69 172.23,352.34 174,351 C 174.99,350.25 178.21,348.45 180,348 C 180.59,347.85 181.45,348.24 182,348 C 182.64,347.73 183.48,346.25 184,346 C 186.92,344.61 191.12,343.59 195,342 C 195.5,341.79 196.63,340.11 197,340 C 197.88,339.73 199.16,340.36 200,340 C 200.5,339.79 201.63,338.11 202,338 C 202.87,337.74 204.17,338.37 205,338 C 205.68,337.7 206.43,336.32 207,336 C 207.37,335.8 208.75,336.31 209,336 C 209.67,335.18 209.76,335.31 211,335 C 212.76,334.56 217.13,332.14 220,331 C 243.46,321.67 270.64,312.02 296,304 C 299.94,302.75 304.02,302.15 308,301 C 308.11,300.97 308.35,300.16 309,300 C 310.89,299.53 311.64,299.36 313,299 C 317.59,297.77 322.66,296.51 328,295 C 328.34,294.9 329.8,295.25 330,295 C 331.19,293.54 335.82,292.9 339,292 C 339.34,291.9 340.8,292.25 341,292 C 342,290.78 347.81,289.9 351,289 C 351.34,288.9 352.8,289.25 353,289 C 353.74,288.1 356.86,287.63 360,287 C 360.95,286.81 361.56,286.15 363,286 C 367.2,285.56 372.58,284.17 378,283 C 381.36,282.28 383.06,281.79 387,281 C 387.32,280.94 388.82,281.23 389,281 C 389.06,280.93 388.93,280.01 389,280 C 391.2,279.56 393.79,279.43 396,279 C 398.06,278.6 399.94,278.38 402,278 C 407.76,276.95 412.27,275.88 418,275 C 418.64,274.9 419.38,275.16 420,275 C 421.09,274.73 422.03,274.42 425,274 C 425.3,273.96 426.83,274.21 427,274 C 428.25,272.47 435.82,272.61 439.99,272 z M 983,363 C 983.27,362.42 984.77,361.74 984,360 C 981.68,358.32 979.74,356.26 976,356 C 967.08,350.39 956.08,347.85 946,343 C 945.47,342.75 944.45,342.02 944,342 C 941.78,341.88 942.61,340.14 940,340 C 938.91,339.94 939.47,339.21 939,339 C 937.52,338.32 936.48,338.57 935,338 C 930.78,336.37 927.1,334.21 923,333 C 920.11,332.15 916.91,332.05 914,331 C 912.13,330.32 910.93,328.94 909,328 C 906.99,327.02 904.87,326.9 903,326 C 899.89,324.5 896.23,321.89 894,321 C 891.98,320.19 891.31,320.12 889,320 C 888.16,319.96 888.16,319.03 888,319 C 882.47,317.86 876.7,318.23 871,317 C 867.09,316.16 863.15,314.12 859,313 C 856.24,312.25 851.96,311.24 851,311 C 848.21,310.3 847.06,310.76 845,310 C 844.58,309.85 843.51,308.27 843,308 C 842.01,307.47 840.79,307.37 840,307 C 838.3,306.21 836.96,305.24 836,305 C 834.71,304.68 833.88,304.22 833,304 C 831.71,303.68 830.88,303.22 830,303 C 828.71,302.68 827.88,302.22 827,302 C 825.6,301.65 824.99,301.4 824,301 C 823.76,300.9 823.27,301.01 823,301 C 822.14,300.96 822.18,300.04 822,300 C 818,299.13 813.08,299.98 809,299 C 806.08,298.3 801.62,295.65 800,295 C 797.98,294.19 795.34,293.54 793,293 C 782.65,290.61 770.76,291.48 760,290 C 757.71,289.69 755.6,288.47 753,288 C 747.25,286.96 742.01,287.12 737,286 C 734.59,285.46 732.35,284.23 730,284 C 723.75,283.38 717.36,284.46 711,284 C 709.14,283.86 708.76,283.23 707,283 C 703.56,282.55 702.02,283.24 701,282 C 700.83,281.79 699.3,282.04 699,282 C 688.39,280.73 680.18,277.91 671,277 C 667.31,276.63 663.84,277.44 660,277 C 656.29,276.58 652.72,274.28 649,274 C 647.49,273.88 646.96,274.83 646,275 C 641.56,275.78 636.93,275.17 633,275 C 624.34,274.62 616.62,273.81 608,274 C 606.21,274.04 604.5,275 603,275 C 601.13,275 599.09,274.03 597,274 C 588.02,273.85 578.49,273.1 571,274 C 569.7,274.16 569.62,274.92 568,275 C 559.42,275.4 551.21,275.33 543,276 C 529.91,277.07 516.99,277.44 506,278 C 502.66,278.17 499.08,277.78 497,278 C 495.67,278.14 494.81,278.94 494,279 C 484.09,279.77 471.78,279.21 465,281 C 461.07,282.04 456.51,282.82 453,283 C 452.21,283.04 452.1,283.98 452,284 C 445.46,285.13 435.91,285.82 432,287 C 431.17,287.25 429.87,286.96 429,287 C 425.82,287.15 423.91,287.73 423,288 C 421.37,288.49 420.9,287.9 420,289 C 419.77,289.28 418.36,288.86 418,289 C 414.4,290.44 410.44,290.39 406,291 C 402.77,291.44 400.13,292.41 397,293 C 385.42,295.17 373.53,297.6 362,300 C 357.65,300.91 354.48,301.82 351,302 C 350.14,302.05 350.19,302.96 350,303 C 344.84,304.14 340.1,304 335,305 C 331.97,305.59 325.97,307.76 325,308 C 323.6,308.35 322.99,308.6 322,309 C 321.76,309.1 321.27,308.99 321,309 C 319.97,309.05 320.4,309.85 320,310 C 317.87,310.79 315.28,311.12 313,312 C 308.64,313.68 304.63,316 300,317 C 296.29,317.8 289.87,318.53 288,319 C 287.41,319.15 286.55,318.76 286,319 C 285.52,319.21 284.58,320.71 284,321 C 282.89,321.54 281.87,321.56 281,322 C 280.1,322.46 280.68,322.91 279,323 C 277.96,323.05 278.42,323.84 278,324 C 275.85,324.85 273.3,324.19 271,325 C 269.7,325.46 269.9,326.43 269,327 C 267.79,327.77 266.32,327.5 265,328 C 264.58,328.16 264.94,328.77 264,329 C 262.71,329.32 261.88,329.78 261,330 C 259.71,330.32 258.88,330.78 258,331 C 250.54,332.87 245.28,333.63 240,337 C 237.18,337.06 234.54,336.84 231,338 C 230.63,338.12 229.47,339.75 229,340 C 226.48,341.36 224.92,340.97 223,342 C 222.44,342.3 221.66,343.68 221,344 C 219.34,344.82 216.64,345.25 215,346 C 214.49,346.23 213.62,347.73 213,348 C 210.54,349.08 208.63,348.59 207,349 C 206.12,349.22 206.39,349.82 206,350 C 204.3,350.79 202.96,351.76 202,352 C 200.6,352.35 199.99,352.6 199,353 C 197.47,353.61 196.55,353.61 195,354 C 194.2,354.2 194.3,354.88 194,355 C 189.9,356.62 188.28,356.65 187,361 C 185.9,364.74 187.86,367.21 189,369 C 189.86,370.35 190.95,372.12 191,373 C 191.08,374.6 193.68,378.5 194,379 C 195.75,381.74 195.94,385.94 196,390 C 198.65,391.64 201.52,396.1 202,398 C 202.14,398.55 201.74,399.51 202,400 C 202.3,400.56 203.65,401.35 204,402 C 204.58,403.08 204.5,404.13 205,405 C 206.12,406.95 207.14,407.94 208,410 C 208.23,410.56 207.85,411.41 208,412 C 208.45,413.8 209.47,415.58 210,417 C 211.29,420.45 212.22,421.89 213,425 C 213.32,426.28 214.94,426.78 215,428 C 215.09,429.73 217.43,430.78 218,432 C 218.68,433.47 218.33,434.58 219,436 C 219.24,436.52 219.74,435.98 220,437 C 220.35,438.4 220.6,439.01 221,440 C 221.84,442.11 222.29,443.46 223,445 C 223.25,445.55 223.98,446.54 224,447 C 224.06,448.08 224.79,447.54 225,448 C 225.97,450.17 226.08,452.94 227,455 C 227.01,455.03 227.81,455.7 228,456 C 229.34,458.1 229.75,459.54 231,461 C 229.95,464.79 234.03,467.54 235,469 C 235.23,469.35 235.98,470.69 236,471 C 236.06,472.13 236.72,471.48 237,472 C 238.23,474.26 237.94,477.13 239,479 C 239.29,479.51 240.56,480.5 241,481 C 242.16,482.33 241.85,482.46 244,483 C 246.72,483.68 251.8,481.6 253,481 C 253.93,480.54 254.35,479.29 255,479 C 257.16,478.02 258.93,478.02 261,477 C 261.53,476.74 262.39,475.33 263,475 C 263.94,474.49 265.26,474.31 266,474 C 268.29,473.04 269.88,472.45 271,472 C 273.01,471.2 275.5,470.51 277,470 C 279.07,469.29 281.26,468.47 282,468 C 282.61,467.61 283.4,467.24 284,467 C 286.44,466.04 287.87,465.45 289,465 C 289.24,464.9 289.73,465.01 290,465 C 291.06,464.94 290.57,464.18 291,464 C 297.54,461.32 303.49,460.29 310,458 C 314.29,456.49 320.12,453.2 324,453 C 324.97,452.95 324.68,452.1 325,452 C 327.57,451.2 330.55,450.71 333,450 C 338.66,448.35 344.14,447.41 349,446 C 351.64,445.24 352.79,444.49 354,444 C 354.24,443.9 354.73,444.01 355,444 C 356,443.95 355.63,443.13 356,443 C 358.78,442.03 361.6,441.69 364,441 C 364.1,440.97 363.92,440.08 364,440 C 364.51,439.49 367.25,440.17 368,440 C 368.08,439.98 367.93,439.07 368,439 C 368.53,438.47 371.23,439.2 372,439 C 372.09,438.98 371.92,438.08 372,438 C 372.5,437.5 375.26,438.16 376,438 C 377.79,437.63 380.32,436.27 381,436 C 381.24,435.9 381.73,436.01 382,436 C 383.04,435.95 382.58,435.16 383,435 C 384.44,434.43 387.06,435.53 387,433 C 389.84,432.93 392.22,433.09 394,433 C 394.78,432.96 394.92,432.01 395,432 C 403.11,430.68 413.31,428.42 419,427 C 419.63,426.84 420.37,427.14 421,427 C 424.27,426.29 426.5,425.5 428,424 C 428.75,423.25 430.69,425.06 431,425 C 433.26,424.55 435.85,423.4 438,423 C 440.73,422.49 443.13,422.39 446,422 C 456.26,420.6 467.22,419.51 477,419 C 477.74,418.96 477.97,418 478,418 C 482.15,417.44 486.48,417.41 490,417 C 490.97,416.89 490.62,416.14 491,416 C 491.92,415.65 492.89,417.01 493,417 C 493.81,416.94 493.87,416.03 494,416 C 495.06,415.79 496.09,417.1 498,417 C 498.63,416.97 499.11,415.99 499,416 C 504.85,415.61 510.02,416.42 512,414 C 512.47,413.42 516.18,414.17 517,414 C 519.99,413.38 522.96,412.24 526,412 C 528.74,411.79 531.02,413.04 534,413 C 533.66,413 534.68,412.1 535,412 C 535.83,411.75 537.13,412.04 538,412 C 543.51,411.74 546.8,410.92 551,411 C 552.33,411.03 552.96,411.92 555,412 C 559.13,412.17 559.23,410.73 563,411 C 566.6,411.26 566.06,411.94 567,411 C 567.41,410.59 570.36,411.03 571,411 C 585.4,410.31 597.26,410.05 610,411 C 614.76,411.35 618.55,411.41 621,412 C 625.2,413.01 625.08,412.18 628,412 C 628.57,411.96 629.45,411.86 630,412 C 632.81,412.7 636.51,412.72 640,413 C 645.27,413.43 650.88,414.76 656,415 C 660.3,415.2 661.98,413.6 665,414 C 665.71,414.09 665.93,414.99 666,415 C 666.78,415.16 667.08,414 667,414 C 668.01,414.04 668.17,414.81 669,415 C 671.63,415.62 674.36,414.83 676,415 C 677.37,415.14 678.13,415.9 679,416 C 683.23,416.51 690.87,416.62 692,418 C 692.17,418.21 693.7,417.96 694,418 C 699.35,418.76 705.33,418.19 708,419 C 711.6,420.09 713.99,420.28 717,421 C 718.95,421.47 721.08,421.43 723,422 C 725.39,422.72 726.66,423.57 729,424 C 735.2,425.13 741.71,424.85 748,426 C 748,426.02 748.46,426.83 749,427 C 749.91,427.28 751.07,426.8 752,427 C 756.03,427.84 763.52,430.25 766,431 C 767.7,431.51 768.84,431.54 770,432 C 770.24,432.1 770.73,431.99 771,432 C 771.84,432.04 771.84,432.97 772,433 C 775.12,433.64 778.66,433.38 782,434 C 788.49,435.21 796.74,437.3 801,439 C 801.24,439.1 801.73,438.99 802,439 C 803.06,439.06 802.57,439.82 803,440 C 804.54,440.63 805.46,440.51 807,441 C 810.54,442.12 815.54,443.42 817,444 C 817.24,444.1 817.73,443.99 818,444 C 818.96,444.05 818.69,444.9 819,445 C 821.5,445.76 825.03,445.9 827,446 C 827.95,446.05 827.7,446.91 828,447 C 830.5,447.73 833.15,448.66 834,449 C 835.97,449.79 838.53,450.56 840,451 C 842.75,451.83 846.09,452.01 849,453 C 849.15,453.05 849.42,453.77 850,454 C 850.24,454.1 850.73,453.99 851,454 C 852,454.05 851.63,454.87 852,455 C 853.73,455.6 855.24,455.25 857,456 C 857,456.01 857.73,456.83 858,457 C 859.85,458.18 860.98,458.89 863,459 C 864,459.05 863.63,459.87 864,460 C 867.82,461.33 873.77,461.49 875,463 C 875.23,463.28 876.64,462.86 877,463 C 879.2,463.88 881.02,464.5 883,465 C 883.75,465.19 883.77,465.92 884,466 C 887.08,467.1 890.9,467.73 894,469 C 894.11,469.05 893.91,469.89 894,470 C 894.29,470.35 896.64,470.76 897,471 C 898.93,472.29 902.18,472.09 904,473 C 904.54,473.27 905.24,474.56 906,475 C 908.19,476.27 909.59,476.94 911,478 C 915.74,481.54 921.45,483.33 927,485 C 930.59,481.08 932.03,472.1 935,469 C 935.76,468.21 936.69,467.23 937,466 C 937.36,464.57 937.38,463.98 938,463 C 939.63,460.44 940.97,457.82 942,455 C 942.84,452.69 942.93,450.15 944,448 C 944.25,447.49 945.63,446.56 946,446 C 946.23,445.65 946.98,444.31 947,444 C 947.06,442.85 947.64,443.55 948,443 C 949.31,440.96 949.5,438 952,437 C 952.05,435.67 951.93,434.33 952,433 C 952.05,432.12 952.95,432.2 953,432 C 953.22,431.05 952.78,429.95 953,429 C 953.3,427.72 954.69,427.81 955,427 C 955.33,426.13 954.73,424.9 955,424 C 955.11,423.64 956.78,422.48 957,422 C 958.99,417.65 961.42,410.11 964,408 C 964.27,407.78 963.87,406.35 964,406 C 964.45,404.81 965.09,403.74 966,403 C 966.31,402.75 965.8,401.37 966,401 C 966.32,400.43 967.7,399.68 968,399 C 968.66,397.54 968.35,395.49 969,394 C 969.05,393.88 969.89,394.09 970,394 C 970.31,393.75 969.8,392.37 970,392 C 970.32,391.43 971.67,390.67 972,390 C 972.67,388.63 973.22,386.55 974,385 C 974.57,383.88 975.71,383.16 976,382 C 976.31,380.76 976.18,380.67 977,380 C 977.35,379.71 977.76,377.36 978,377 C 979.34,374.99 978.97,372.64 980,370 C 980.04,369.89 980.9,370.08 981,370 C 981.08,369.93 982,367 982,367 C 982.31,365.76 982.18,365.67 983,365 C 983.29,364.76 982.83,363.36 983,363 z"
     id="path2576" /><path
     d="M 708.99,288 C 706.29,287.71 702.04,287.51 700,287 C 699.75,286.94 698.57,286 698.99,286 C 697.7,285.98 697.65,287.21 696,287 C 692.97,286.62 688.87,285.22 688,285 C 687.39,284.85 686.62,285.04 686,285 C 682.89,284.78 682.16,284.29 681,284 C 676,282.75 669.06,285.51 667,283 C 666.82,282.77 665.32,283.06 665,283 C 660.86,282.17 658.25,282.37 654,282 C 649.87,281.64 644.22,280.19 641,281 C 638.27,281.68 639.31,281.41 637,281 C 635.71,280.77 634.3,281.15 633,281 C 625.14,280.1 611.39,276.61 607,281 C 605.61,282.39 596.8,280.86 594,281 C 589.93,281.21 585.68,282.01 582,282 C 575.35,281.98 568.89,281.1 562,281 C 551.94,280.85 540.27,281.23 533,282 C 528.25,282.5 522.7,284.78 518,285 C 513.08,285.23 508,283.65 503,284 C 498.41,284.32 493.56,286.44 489,287 C 487.85,287.14 485.24,288.05 485,288 C 484.63,287.93 485.08,287.02 484,287 C 479.43,286.9 476.3,287.45 474,288 C 468.51,289.32 462.21,289.63 457,290 C 455.17,290.13 454.06,290.85 453,291 C 445.74,292.04 437.02,292.46 431,293 C 429.25,293.16 427.99,293.89 427,294 C 421.6,294.6 415.75,294.13 411,295 C 406.56,295.82 402.31,297.73 398,299 C 393.64,300.29 389.12,301.28 385,303 C 381.78,303.22 380.77,301.23 377,302 C 375.27,303.27 374.38,305.38 371,305 C 367.61,305.95 363.81,304 363,304 C 363.29,304 362.4,304.9 362,305 C 358.66,305.83 356.7,306.43 354,307 C 351.18,307.59 348.49,307.44 346,308 C 341.78,308.94 337.81,310.8 334,311 C 333.07,311.05 333.27,311.93 333,312 C 330.13,312.78 326.04,313.74 325,314 C 323.67,314.33 322.93,314.72 322,315 C 320.5,315.45 318.94,315.77 318,316 C 316.6,316.35 315.99,316.6 315,317 C 313.47,317.61 312.55,317.61 311,318 C 309.16,318.46 307.69,319.38 306,320 C 304.19,320.66 303.02,321.75 302,322 C 299.18,322.71 298.95,322.06 297,323 C 294.52,324.19 293.9,326.2 292,327 C 290.68,327.56 288.89,327.7 288,328 C 285.79,328.74 283.41,329.27 281,330 C 279.42,330.48 277.35,330.66 276,331 C 275.32,331.17 275.15,331.95 275,332 C 270.67,333.35 265.97,334.79 262,335 C 261.14,335.05 261.19,335.96 261,336 C 258.38,336.58 255.5,336.2 253,337 C 252.68,337.1 252.86,337.79 252,338 C 250.57,338.36 249.98,338.38 249,339 C 247.08,340.22 244.12,341.55 243,342 C 241.47,342.61 240.55,342.61 239,343 C 237.49,343.38 237.18,343.89 235,344 C 234.02,344.05 234.33,344.89 234,345 C 232.35,345.53 231.6,345.51 230,346 C 228.81,346.37 227.58,346.38 226,347 C 225.55,347.17 224.54,348.72 224,349 C 222.59,349.72 221.41,349.36 220,350 C 217.76,351.01 215.83,352.07 214,353 C 213.44,353.29 214.06,353.73 213,354 C 211.66,354.33 210.81,354.22 210,355 C 209.08,355.88 208.13,356.28 207,357 C 204.9,358.34 203.46,358.75 202,360 C 199.05,360.72 195.81,361.14 194,363 C 195.13,368.54 196.27,374.06 200,377 C 201.15,386.56 205.61,394.71 210,403 C 211.2,405.27 211.67,405.91 213,407 C 213.31,407.26 212.78,408.63 213,409 C 213.34,409.59 214.61,410.34 215,411 C 215.29,411.5 214.76,412.47 215,413 C 215.16,413.37 216.78,413.56 217,414 C 217.97,415.92 218.13,418.91 219,421 C 219.2,421.48 220.74,422.41 221,423 C 221.6,424.36 221.63,426.04 222,427 C 223.99,432.16 226.3,438.71 228,443 C 228.49,444.23 228.32,445.42 229,447 C 229.21,447.48 230.71,448.43 231,449 C 231.72,450.41 231.34,451.6 232,453 C 232.24,453.52 233.69,454.39 234,455 C 234.72,456.41 234.34,457.6 235,459 C 235.24,459.52 236.72,460.37 237,461 C 237.69,462.57 237.34,463.84 238,465 C 238.32,465.57 239.59,466.39 240,467 C 240.23,467.35 240.98,468.69 241,469 C 241.06,470.16 241.61,469.44 242,470 C 243.39,472 244.43,474.41 246,476 C 248.21,476.35 250.32,474.91 252,474 C 252.56,473.7 253.37,472.37 254,472 C 255.29,471.25 256.34,471.75 258,471 C 258.51,470.77 259.38,469.27 260,469 C 262.42,467.96 263.1,468.47 265,468 C 266.8,467.55 268.56,466.5 270,466 C 280.21,462.42 291.77,458.47 301,455 C 303.29,454.14 303.83,453.11 306,453 C 306.99,452.95 306.65,452.12 307,452 C 309.33,451.23 311.93,451.59 314,451 C 314.26,450.92 314.19,450.2 315,450 C 316.4,449.65 317.01,449.4 318,449 C 318.24,448.9 318.73,449.01 319,449 C 320.01,448.95 319.63,448.13 320,448 C 330.37,444.36 342.23,441.44 352,439 C 354.87,438.28 355.9,437.16 359,437 C 359.93,436.95 359.73,436.07 360,436 C 362.27,435.38 364.8,435.57 367,435 C 368.13,434.71 368.69,434.45 370,434 C 371.32,433.54 372.24,433.59 374,433 C 374.4,432.86 375.47,431.23 376,431 C 378.42,429.96 379.1,430.47 381,430 C 382.69,429.58 384.74,428.38 386,428 C 390.16,426.75 395.33,425.19 399,425 C 399.86,424.96 399.81,424.04 400,424 C 402.07,423.54 404.64,423.41 407,423 C 412.27,422.08 419.71,420.82 423,420 C 423.63,419.84 424.36,420.11 425,420 C 431.3,418.94 437.54,418.1 444,417 C 447.49,416.41 451.7,415.33 453,415 C 453.61,414.85 454.37,415.05 455,415 C 458.24,414.73 459.94,414.27 461,414 C 461.6,413.85 462.43,414.23 463,414 C 464.12,413.56 464.23,412.36 465,412 C 467.04,411.05 469.31,410.55 472,410 C 472.96,409.8 474.04,410.21 475,410 C 475.88,409.81 476.27,409.06 477,409 C 481.41,408.64 485.59,410.04 490,410 C 491.24,409.99 492.07,409.17 494,409 C 505.75,407.95 516.04,407.97 527,407 C 539.59,405.89 552.22,406.07 565,406 C 580.66,405.92 597.86,404.72 612,406 C 622.32,406.94 631.33,406.25 642,407 C 645.8,407.27 650.16,408.66 654,409 C 655,409.09 655.19,408.11 656,408 C 657.49,407.8 658.08,408.92 659,409 C 660.58,409.14 662.47,408.62 664,409 C 664.37,409.09 665.23,410 665.01,410 C 669.35,410.5 673.46,410.45 678,411 C 682.19,411.51 686.64,412.89 691,413 C 696.63,413.14 702.3,411.46 708,412 C 711.28,412.31 717.38,413.97 719,415 C 721.34,416.49 725.39,416.36 729,417 C 730.27,417.23 730.45,417.77 732,418 C 735.86,418.56 737.92,418.72 740,419 C 741.31,419.17 742.69,418.84 744,419 C 747.37,419.41 751.97,420.74 753,421 C 756.03,421.76 756.85,421.49 759,422 C 765.61,423.58 771.75,426.67 778,427 C 778.88,427.05 778.79,427.95 779,428 C 781.5,428.59 784.45,428.37 787,429 C 789.53,429.63 793.67,431.67 795,432 C 795.62,432.16 796.38,431.83 797,432 C 802.62,433.56 811.02,437.01 815,438 C 815.63,438.16 816.36,437.89 817,438 C 821.33,438.73 823.94,439.76 827,441 C 829.25,441.91 829.86,442.89 832,443 C 832.98,443.05 832.66,443.89 833,444 C 837.92,445.59 843.13,445.55 848,447 C 854.45,448.91 862.67,453.67 868,455 C 871.06,455.76 873.72,456.68 875,457 C 875.62,457.16 876.38,456.83 877,457 C 878.86,457.51 879.97,458.74 881,459 C 882.43,459.36 883.02,459.38 884,460 C 885.35,460.86 886.04,460.51 888,461 C 889.85,461.46 891.34,462.25 893,463 C 894.31,463.59 896.78,464.79 897,465 C 897.91,465.88 898.89,466.26 900,467 C 901.79,468.19 902.91,467.25 905,468 C 905.43,468.15 906.46,469.76 907,470 C 908.46,470.64 909.94,470.51 911,471 C 911.51,471.24 912.4,472.69 913,473 C 914.41,473.72 915.62,473.31 917,474 C 917.53,474.26 918.38,475.68 919,476 C 920.41,476.72 921.57,476.41 923,477 C 925.25,473.77 926.62,468.24 928,466 C 928.48,465.21 929.96,463.85 930,463 C 930.06,461.87 930.71,462.53 931,462 C 931.57,460.98 931.39,460.15 932,459 C 932.21,458.6 933.73,458.46 934,458 C 934.27,457.55 933.87,456.52 934,456 C 934.47,454.13 935.56,452.75 936,451 C 936.56,448.75 937.89,447.34 939,445 C 939.71,443.5 940.19,441.66 941,440 C 942.48,436.95 944.42,434.01 946,431 C 947.14,428.83 948.33,426.55 949,426 C 949.08,425.93 950,423 950,423 C 950.31,421.76 950.18,421.67 951,421 C 951.31,420.75 950.8,419.37 951,419 C 951.32,418.43 952.64,417.65 953,417 C 953.11,416.81 952.99,416.22 953,416 C 953.06,414.87 953.71,415.53 954,415 C 955.49,412.32 955.58,407.16 957,406 C 957.09,405.93 958,403 958,403 C 958.31,401.76 958.18,401.67 959,401 C 959.29,400.76 958.83,399.36 959,399 C 959.06,398.88 959.88,399.1 960,399 C 960.31,398.75 959.79,397.37 960,397 C 960.08,396.86 960.87,397.11 961,397 C 961.33,396.73 960.75,395.36 961,395 C 961.54,394.22 962.45,394.03 963,393 C 963.64,391.8 964.27,391.09 965,390 C 966.19,388.21 965.98,385.4 967,383 C 969.75,376.52 974.15,371.28 975,364 C 973.36,360.86 969.21,358.55 967,358 C 965.71,357.68 964.88,357.22 964,357 C 963.41,356.85 962.55,357.24 962,357 C 961.51,356.79 960.59,355.27 960,355 C 958.14,354.15 955.87,353.85 954,353 C 953.5,352.77 952.58,351.31 952,351 C 951.08,350.5 949.72,350.29 949,350 C 945.84,348.73 942.21,348.19 940,347 C 939.44,346.7 938.63,345.36 938,345 C 936.94,344.4 935.86,344.54 935,344 C 934.74,343.84 934.46,343.3 934,343 C 931.99,341.66 929.12,341.85 926,341 C 925.76,340.94 925.79,340.2 925,340 C 918.37,338.34 910.69,335.17 906,334 C 904.71,333.68 903.88,333.22 903,333 C 902.39,332.85 901.59,333.21 901,333 C 897.54,331.77 893.37,328.59 891,328 C 889.71,327.68 888.88,327.22 888,327 C 886.72,326.68 884.59,326.03 884,326 C 883.21,325.96 883.1,325.02 883,325 C 879.48,324.39 875.64,325.45 872,325 C 869.03,322.39 864.62,321.22 861,320 C 858.36,319.11 855.11,318.53 853,318 C 852.33,317.83 852.14,317.04 852,317 C 848.53,315.94 845.39,315.83 842,315 C 836.22,313.59 829.72,311.18 825,310 C 824.32,309.83 824.14,309.04 824,309 C 819.96,307.76 815.46,307.15 811,306 C 809.08,305.5 806.83,304.43 805,304 C 802.55,303.42 800.32,303.51 798,303 C 793.25,301.96 786.65,299.66 784,299 C 783.38,298.84 782.62,299.17 782,299 C 778.78,298.11 776.14,296.47 773,296 C 769.71,295.51 765.49,296.37 762,296 C 758.53,295.64 755.34,294.26 752,294 C 747.23,293.63 738.59,294.94 737,293 C 736.33,292.18 732.91,293.62 732,293 C 730.6,293.42 729.83,292.04 729,292 C 727.57,291.92 728.65,290.8 728,290 C 727.93,289.91 725,289 725,289 C 721.09,288.02 712.83,289.71 710,289 C 709.65,288.91 708.76,288 708.99,288 z M 984,360 C 984.77,361.74 983.27,362.42 983,363 C 982.83,363.36 983.29,364.76 983,365 C 982.18,365.67 982.31,365.76 982,367 C 982,367 981.08,369.93 981,370 C 980.9,370.08 980.04,369.89 980,370 C 978.97,372.64 979.34,374.99 978,377 C 977.76,377.36 977.35,379.71 977,380 C 976.18,380.67 976.31,380.76 976,382 C 975.71,383.16 974.57,383.88 974,385 C 973.22,386.55 972.67,388.63 972,390 C 971.67,390.67 970.32,391.43 970,392 C 969.8,392.37 970.31,393.75 970,394 C 969.89,394.09 969.05,393.88 969,394 C 968.35,395.49 968.66,397.54 968,399 C 967.7,399.68 966.32,400.43 966,401 C 965.8,401.37 966.31,402.75 966,403 C 965.09,403.74 964.45,404.81 964,406 C 963.87,406.35 964.27,407.78 964,408 C 961.42,410.11 958.99,417.65 957,422 C 956.78,422.48 955.11,423.64 955,424 C 954.73,424.9 955.33,426.13 955,427 C 954.69,427.81 953.3,427.72 953,429 C 952.78,429.95 953.22,431.05 953,432 C 952.95,432.2 952.05,432.12 952,433 C 951.93,434.33 952.05,435.67 952,437 C 949.5,438 949.31,440.96 948,443 C 947.64,443.55 947.06,442.85 947,444 C 946.98,444.31 946.23,445.65 946,446 C 945.63,446.56 944.25,447.49 944,448 C 942.93,450.15 942.84,452.69 942,455 C 940.97,457.82 939.63,460.44 938,463 C 937.38,463.98 937.36,464.57 937,466 C 936.69,467.23 935.76,468.21 935,469 C 932.03,472.1 930.59,481.08 927,485 C 921.45,483.33 915.74,481.54 911,478 C 909.59,476.94 908.19,476.27 906,475 C 905.24,474.56 904.54,473.27 904,473 C 902.18,472.09 898.93,472.29 897,471 C 896.64,470.76 894.29,470.35 894,470 C 893.91,469.89 894.11,469.05 894,469 C 890.9,467.73 887.08,467.1 884,466 C 883.77,465.92 883.75,465.19 883,465 C 881.02,464.5 879.2,463.88 877,463 C 876.64,462.86 875.23,463.28 875,463 C 873.77,461.49 867.82,461.33 864,460 C 863.63,459.87 864,459.05 863,459 C 860.98,458.89 859.85,458.18 858,457 C 857.73,456.83 857,456.01 857,456 C 855.24,455.25 853.73,455.6 852,455 C 851.63,454.87 852,454.05 851,454 C 850.73,453.99 850.24,454.1 850,454 C 849.42,453.77 849.15,453.05 849,453 C 846.09,452.01 842.75,451.83 840,451 C 838.53,450.56 835.97,449.79 834,449 C 833.15,448.66 830.5,447.73 828,447 C 827.7,446.91 827.95,446.05 827,446 C 825.03,445.9 821.5,445.76 819,445 C 818.69,444.9 818.96,444.05 818,444 C 817.73,443.99 817.24,444.1 817,444 C 815.54,443.42 810.54,442.12 807,441 C 805.46,440.51 804.54,440.63 803,440 C 802.57,439.82 803.06,439.06 802,439 C 801.73,438.99 801.24,439.1 801,439 C 796.74,437.3 788.49,435.21 782,434 C 778.66,433.38 775.12,433.64 772,433 C 771.84,432.97 771.84,432.04 771,432 C 770.73,431.99 770.24,432.1 770,432 C 768.84,431.54 767.7,431.51 766,431 C 763.52,430.25 756.03,427.84 752,427 C 751.07,426.8 749.91,427.28 749,427 C 748.46,426.83 748,426.02 748,426 C 741.71,424.85 735.2,425.13 729,424 C 726.66,423.57 725.39,422.72 723,422 C 721.08,421.43 718.95,421.47 717,421 C 713.99,420.28 711.6,420.09 708,419 C 705.33,418.19 699.35,418.76 694,418 C 693.7,417.96 692.17,418.21 692,418 C 690.87,416.62 683.23,416.51 679,416 C 678.13,415.9 677.37,415.14 676,415 C 674.36,414.83 671.63,415.62 669,415 C 668.17,414.81 668.01,414.04 667,414 C 667.08,414 666.78,415.16 666,415 C 665.93,414.99 665.71,414.09 665,414 C 661.98,413.6 660.3,415.2 656,415 C 650.88,414.76 645.27,413.43 640,413 C 636.51,412.72 632.81,412.7 630,412 C 629.45,411.86 628.57,411.96 628,412 C 625.08,412.18 625.2,413.01 621,412 C 618.55,411.41 614.76,411.35 610,411 C 597.26,410.05 585.4,410.31 571,411 C 570.36,411.03 567.41,410.59 567,411 C 566.06,411.94 566.6,411.26 563,411 C 559.23,410.73 559.13,412.17 555,412 C 552.96,411.92 552.33,411.03 551,411 C 546.8,410.92 543.51,411.74 538,412 C 537.13,412.04 535.83,411.75 535,412 C 534.68,412.1 533.66,413 534,413 C 531.02,413.04 528.74,411.79 526,412 C 522.96,412.24 519.99,413.38 517,414 C 516.18,414.17 512.47,413.42 512,414 C 510.02,416.42 504.85,415.61 499,416 C 499.11,415.99 498.63,416.97 498,417 C 496.09,417.1 495.06,415.79 494,416 C 493.87,416.03 493.81,416.94 493,417 C 492.89,417.01 491.92,415.65 491,416 C 490.62,416.14 490.97,416.89 490,417 C 486.48,417.41 482.15,417.44 478,418 C 477.97,418 477.74,418.96 477,419 C 467.22,419.51 456.26,420.6 446,422 C 443.13,422.39 440.73,422.49 438,423 C 435.85,423.4 433.26,424.55 431,425 C 430.69,425.06 428.75,423.25 428,424 C 426.5,425.5 424.27,426.29 421,427 C 420.37,427.14 419.63,426.84 419,427 C 413.31,428.42 403.11,430.68 395,432 C 394.92,432.01 394.78,432.96 394,433 C 392.22,433.09 389.84,432.93 387,433 C 387.06,435.53 384.44,434.43 383,435 C 382.58,435.16 383.04,435.95 382,436 C 381.73,436.01 381.24,435.9 381,436 C 380.32,436.27 377.79,437.63 376,438 C 375.26,438.16 372.5,437.5 372,438 C 371.92,438.08 372.09,438.98 372,439 C 371.23,439.2 368.53,438.47 368,439 C 367.93,439.07 368.08,439.98 368,440 C 367.25,440.17 364.51,439.49 364,440 C 363.92,440.08 364.1,440.97 364,441 C 361.6,441.69 358.78,442.03 356,443 C 355.63,443.13 356,443.95 355,444 C 354.73,444.01 354.24,443.9 354,444 C 352.79,444.49 351.64,445.24 349,446 C 344.14,447.41 338.66,448.35 333,450 C 330.55,450.71 327.57,451.2 325,452 C 324.68,452.1 324.97,452.95 324,453 C 320.12,453.2 314.29,456.49 310,458 C 303.49,460.29 297.54,461.32 291,464 C 290.57,464.18 291.06,464.94 290,465 C 289.73,465.01 289.24,464.9 289,465 C 287.87,465.45 286.44,466.04 284,467 C 283.4,467.24 282.61,467.61 282,468 C 281.26,468.47 279.07,469.29 277,470 C 275.5,470.51 273.01,471.2 271,472 C 269.88,472.45 268.29,473.04 266,474 C 265.26,474.31 263.94,474.49 263,475 C 262.39,475.33 261.53,476.74 261,477 C 258.93,478.02 257.16,478.02 255,479 C 254.35,479.29 253.93,480.54 253,481 C 251.8,481.6 246.72,483.68 244,483 C 241.85,482.46 242.16,482.33 241,481 C 240.56,480.5 239.29,479.51 239,479 C 237.94,477.13 238.23,474.26 237,472 C 236.72,471.48 236.06,472.13 236,471 C 235.98,470.69 235.23,469.35 235,469 C 234.03,467.54 229.95,464.79 231,461 C 229.75,459.54 229.34,458.1 228,456 C 227.81,455.7 227.01,455.03 227,455 C 226.08,452.94 225.97,450.17 225,448 C 224.79,447.54 224.06,448.08 224,447 C 223.98,446.54 223.25,445.55 223,445 C 222.29,443.46 221.84,442.11 221,440 C 220.6,439.01 220.35,438.4 220,437 C 219.74,435.98 219.24,436.52 219,436 C 218.33,434.58 218.68,433.47 218,432 C 217.43,430.78 215.09,429.73 215,428 C 214.94,426.78 213.32,426.28 213,425 C 212.22,421.89 211.29,420.45 210,417 C 209.47,415.58 208.45,413.8 208,412 C 207.85,411.41 208.23,410.56 208,410 C 207.14,407.94 206.12,406.95 205,405 C 204.5,404.13 204.58,403.08 204,402 C 203.65,401.35 202.3,400.56 202,400 C 201.74,399.51 202.14,398.55 202,398 C 201.52,396.1 198.65,391.64 196,390 C 195.94,385.94 195.75,381.74 194,379 C 193.68,378.5 191.08,374.6 191,373 C 190.95,372.12 189.86,370.35 189,369 C 187.86,367.21 185.9,364.74 187,361 C 188.28,356.65 189.9,356.62 194,355 C 194.3,354.88 194.2,354.2 195,354 C 196.55,353.61 197.47,353.61 199,353 C 199.99,352.6 200.6,352.35 202,352 C 202.96,351.76 204.3,350.79 206,350 C 206.39,349.82 206.12,349.22 207,349 C 208.63,348.59 210.54,349.08 213,348 C 213.62,347.73 214.49,346.23 215,346 C 216.64,345.25 219.34,344.82 221,344 C 221.66,343.68 222.44,342.3 223,342 C 224.92,340.97 226.48,341.36 229,340 C 229.47,339.75 230.63,338.12 231,338 C 234.54,336.84 237.18,337.06 240,337 C 245.28,333.63 250.54,332.87 258,331 C 258.88,330.78 259.71,330.32 261,330 C 261.88,329.78 262.71,329.32 264,329 C 264.94,328.77 264.58,328.16 265,328 C 266.32,327.5 267.79,327.77 269,327 C 269.9,326.43 269.7,325.46 271,325 C 273.3,324.19 275.85,324.85 278,324 C 278.42,323.84 277.96,323.05 279,323 C 280.68,322.91 280.1,322.46 281,322 C 281.87,321.56 282.89,321.54 284,321 C 284.58,320.71 285.52,319.21 286,319 C 286.55,318.76 287.41,319.15 288,319 C 289.87,318.53 296.29,317.8 300,317 C 304.63,316 308.64,313.68 313,312 C 315.28,311.12 317.87,310.79 320,310 C 320.4,309.85 319.97,309.05 321,309 C 321.27,308.99 321.76,309.1 322,309 C 322.99,308.6 323.6,308.35 325,308 C 325.97,307.76 331.97,305.59 335,305 C 340.1,304 344.84,304.14 350,303 C 350.19,302.96 350.14,302.05 351,302 C 354.48,301.82 357.65,300.91 362,300 C 373.53,297.6 385.42,295.17 397,293 C 400.13,292.41 402.77,291.44 406,291 C 410.44,290.39 414.4,290.44 418,289 C 418.36,288.86 419.77,289.28 420,289 C 420.9,287.9 421.37,288.49 423,288 C 423.91,287.73 425.82,287.15 429,287 C 429.87,286.96 431.17,287.25 432,287 C 435.91,285.82 445.46,285.13 452,284 C 452.1,283.98 452.21,283.04 453,283 C 456.51,282.82 461.07,282.04 465,281 C 471.78,279.21 484.09,279.77 494,279 C 494.81,278.94 495.67,278.14 497,278 C 499.08,277.78 502.66,278.17 506,278 C 516.99,277.44 529.91,277.07 543,276 C 551.21,275.33 559.42,275.4 568,275 C 569.62,274.92 569.7,274.16 571,274 C 578.49,273.1 588.02,273.85 597,274 C 599.09,274.03 601.13,275 603,275 C 604.5,275 606.21,274.04 608,274 C 616.62,273.81 624.34,274.62 633,275 C 636.93,275.17 641.56,275.78 646,275 C 646.96,274.83 647.49,273.88 649,274 C 652.72,274.28 656.29,276.58 660,277 C 663.84,277.44 667.31,276.63 671,277 C 680.18,277.91 688.39,280.73 699,282 C 699.3,282.04 700.83,281.79 701,282 C 702.02,283.24 703.56,282.55 707,283 C 708.76,283.23 709.14,283.86 711,284 C 717.36,284.46 723.75,283.38 730,284 C 732.35,284.23 734.59,285.46 737,286 C 742.01,287.12 747.25,286.96 753,288 C 755.6,288.47 757.71,289.69 760,290 C 770.76,291.48 782.65,290.61 793,293 C 795.34,293.54 797.98,294.19 800,295 C 801.62,295.65 806.08,298.3 809,299 C 813.08,299.98 818,299.13 822,300 C 822.18,300.04 822.14,300.96 823,301 C 823.27,301.01 823.76,300.9 824,301 C 824.99,301.4 825.6,301.65 827,302 C 827.88,302.22 828.71,302.68 830,303 C 830.88,303.22 831.71,303.68 833,304 C 833.88,304.22 834.71,304.68 836,305 C 836.96,305.24 838.3,306.21 840,307 C 840.79,307.37 842.01,307.47 843,308 C 843.51,308.27 844.58,309.85 845,310 C 847.06,310.76 848.21,310.3 851,311 C 851.96,311.24 856.24,312.25 859,313 C 863.15,314.12 867.09,316.16 871,317 C 876.7,318.23 882.47,317.86 888,319 C 888.16,319.03 888.16,319.96 889,320 C 891.31,320.12 891.98,320.19 894,321 C 896.23,321.89 899.89,324.5 903,326 C 904.87,326.9 906.99,327.02 909,328 C 910.93,328.94 912.13,330.32 914,331 C 916.91,332.05 920.11,332.15 923,333 C 927.1,334.21 930.78,336.37 935,338 C 936.48,338.57 937.52,338.32 939,339 C 939.47,339.21 938.91,339.94 940,340 C 942.61,340.14 941.78,341.88 944,342 C 944.45,342.02 945.47,342.75 946,343 C 956.08,347.85 967.08,350.39 976,356 C 979.74,356.26 981.68,358.32 984,360 z"
     id="path2578"
     style="fill:#ffad14" /><path
     d="M 949,376 C 949.2,378.47 949.1,380.35 948,382 C 947.18,383.23 946.05,387.14 944,389 C 944.45,394.12 941.61,395.94 941,400 C 934.2,400.47 932.03,396.31 926,396 C 925.26,390.4 925.55,383.79 919,384 C 918.2,384.53 917.38,385.04 916,385 C 914.85,387.97 915.35,390.03 917,393 C 917.29,393.53 917.94,392.87 918,394 C 918.09,395.69 920.9,396.03 921,398 C 921.04,398.83 922.99,400.54 924,402 C 928.73,408.85 934.23,417.08 931,430 C 930.78,430.88 930.32,431.71 930,433 C 929.44,435.25 925.64,441.65 923,444 C 922.2,444.71 920.92,444.31 920,445 C 919.57,445.32 919.41,446.75 919,447 C 918.63,447.22 917.26,446.69 917,447 C 916.9,447.12 917.12,447.94 917,448 C 916.64,448.17 915.24,447.71 915,448 C 914.92,448.1 915.1,448.96 915,449 C 913.18,449.66 909.72,449.97 908,450 C 905.77,450.04 902.15,449.73 900,449 C 899.64,448.88 900,448.05 899,448 C 896.68,447.88 895.9,445.53 894,444 C 893.65,443.72 892.27,444.33 892,444 C 891.57,443.47 891.48,442.5 891,442 C 889.22,440.14 887.62,437.08 887,437 C 884.88,436.74 885.13,441.04 881,440 C 878.46,436.54 871.12,437.88 869,434 C 867.74,430.04 870.48,423.96 873,420 C 873.14,419.78 873.96,419 874,419 C 875.1,416.2 875.07,412.64 876,410 C 876.13,409.63 876.95,410.01 877,409 C 877.01,408.73 876.9,408.24 877,408 C 877.45,406.88 878.75,405.72 879,403 C 883.66,402.34 885.42,404.58 889,405 C 890.07,407.6 894.93,406.4 896,409 C 899.14,412.06 894.39,417.47 897,420 C 898.94,424.53 905.24,424.53 908,421 C 907.04,420.21 909.25,416.02 908,415 C 907.91,414.92 907.03,415.1 907,415 C 906.89,414.65 907.26,413.21 907,413 C 906.88,412.9 906.06,413.12 906,413 C 905.83,412.64 906.29,411.24 906,411 C 905.87,410.89 905.07,411.14 905,411 C 904.24,409.61 903.79,408.1 903,407 C 902.62,406.48 901.36,406.48 901,406 C 900.73,405.65 901.33,404.27 901,404 C 900.85,403.88 900.1,404.15 900,404 C 898.41,401.54 897.25,398.91 896,396 C 895.81,395.55 895.06,396.07 895,395 C 894.89,392.91 893.12,390.12 893,387 C 892.97,386.19 892.77,384.77 893,384 C 893.15,383.52 893.93,383 894,383 C 894.24,381.45 893.53,379.49 894,378 C 894.1,377.67 894.95,377.97 895,377 C 895.02,376.53 895.75,375.55 896,375 C 896.94,372.97 897.6,371.4 900,369 C 902.32,366.68 903.24,366.54 907,365 C 907.43,364.82 906.94,364.06 908,364 C 908.27,363.99 908.76,364.1 909,364 C 910.13,363.55 916.56,362.45 920,363 C 920.07,363.01 920.23,363.96 921,364 C 922.97,364.1 923.8,364.2 925,365 C 925.46,365.3 925.74,365.84 926,366 C 927.83,367.14 930.94,369.03 933,371 C 936.4,370.19 939.34,370.22 942,372 C 942.36,372.24 944.71,372.65 945,373 C 945.37,373.45 947.92,374.82 949,376 z"
     id="path2580"
     style="fill:#ffffff" /><path
     d="M 905,350 C 905.04,350.56 905.14,351.46 905,352 C 904.83,352.68 904.02,352.9 904,353 C 903.76,354.2 904.44,355.87 904,357 C 903.84,357.41 903.05,356.96 903,358 C 902.94,359.08 897.15,366.26 896,367 C 895.64,367.23 894.26,366.68 894,367 C 892.89,368.36 893.11,368.47 891,369 C 889.47,369.38 886.05,370.95 883,368 C 883.22,363.55 889.49,365.16 890,361 C 889.66,358.34 887.38,357.62 885,357 C 885.16,355.84 884.78,355.22 884,355 C 883.11,350.55 882.38,349.23 885,345 C 886.48,342.61 887.21,341.7 890,341 C 890.58,340.86 894.19,339.4 897,340 C 897.17,340.04 897.15,340.96 898,341 C 900.21,341.12 903.03,344.33 904,347 C 904.4,348.1 904.93,349.08 905,350 z"
     id="path2582"
     style="fill:#ffffff" /><path
     d="M 879,349 C 877.73,358.06 875.21,365.87 872,373 C 869.67,373 867.33,373 865,373 C 862.25,374.62 859.03,376.48 856,379 C 855.7,379.25 855.27,380.88 855,381 C 854.55,381.2 853.37,380.68 853,381 C 850.81,382.89 848.61,386.39 846,389 C 845.36,389.64 843.42,390.26 843,391 C 842.44,391.99 842.46,394.45 842,396 C 841.91,396.3 841.05,396.05 841,397 C 840.95,398 841.04,399 841,400 C 840.26,403.41 844.69,401.65 845,404 C 844.04,404.79 846.25,408.98 845,410 C 843.83,410.96 843.96,413.21 843,416 C 841.88,419.25 840.13,422.48 838,425 C 827.68,422.32 816.95,420.05 808,416 C 807.71,407.38 810.45,401.78 813,396 C 815.09,393.82 815.85,396.5 819,396 C 819.81,393.33 819.99,390.94 821,388 C 821.74,385.86 823.82,383.41 824,381 C 824.09,379.78 823.29,376.62 823,375 C 822.02,369.62 820.63,364.5 819,359 C 819.03,355.97 813.97,358.03 814,355 C 814.45,346.45 817.27,340.27 819,333 C 825.31,332.16 830.58,335.28 836,337 C 840.21,338.34 844.74,338.3 848,341 C 848.18,349.18 843.93,352.93 843,360 C 841.84,360.84 840.32,361.32 838,361 C 837.47,366.2 839.32,369.01 840,373 C 844.66,372.33 844.86,367.2 849,366 C 849.88,362.79 845.7,364.63 846,362 C 846.88,358.54 847.74,355.07 850,353 C 850.65,348.98 851.08,344.75 853,342 C 862.39,343.61 870.11,346.89 879,349 z"
     id="path2584"
     style="fill:#ffffff" /><path
     d="M 807,342 C 807.17,345.2 809.46,348.64 809,354 C 808.8,356.28 807.53,359.9 807,362 C 806.24,365.06 805.11,365.49 804,369 C 801.49,371.16 797.82,372.15 796,375 C 796.91,380.43 798.85,384.81 800,390 C 800.82,392.52 805.27,391.39 807,393 C 807.1,397.1 807.16,401.16 805,403 C 805.33,407.66 804.22,410.89 803,414 C 798.52,414.51 794.72,412.82 791,412 C 787.07,411.13 783.05,411.19 780,409 C 777.56,404.99 777.76,398.12 777,392 C 776.66,389.26 776.6,385.39 776,383 C 775.41,380.64 775.34,376.64 772,377 C 768.77,376.1 770.59,380.26 769,381 C 767.65,386.02 772.43,384.9 773,388 C 773,392 771,394 771,398 C 769.26,400.39 770.83,405.18 768,407 C 765.29,407.46 762.44,405.98 760,405 C 759.64,404.86 758.23,405.28 758,405 C 757.2,404.03 756.64,404.2 755,404 C 754.7,403.96 753.17,404.21 753,404 C 752.2,403.03 751.64,403.2 750,403 C 749.7,402.96 748.17,403.21 748,403 C 747.94,402.92 748.07,402.01 748,402 C 744.91,401.37 741.57,402.3 739,400 C 737.04,397.31 739.42,393.43 740,390 C 740.16,389.04 739.79,387.96 740,387 C 740.18,386.17 740.83,385.99 741,385 C 741.26,383.46 739.88,381.12 742,380 C 741.08,376.08 747.27,379.27 748,377 C 750.12,366.46 752.51,356.17 754,345 C 753.21,343.07 749.61,344.02 748,342 C 747.66,341.57 748.01,340.74 747,341 C 748.34,332.67 751.55,326.22 752,317 C 753.94,316.61 757.68,317.39 761,318 C 766.76,319.05 772.37,320.34 779,322 C 779.88,322.22 780.71,322.68 782,323 C 782.88,323.22 783.71,323.68 785,324 C 785.88,324.22 789.78,325.89 792,327 C 793.64,327.82 795.38,328.89 797,330 C 797.88,330.6 798.27,331.44 799,332 C 799.54,332.41 801.51,332.48 802,333 C 802.31,333.32 801.66,334.72 802,335 C 802.82,335.67 804.9,336.16 805,338 C 805.08,339.44 806.9,340.16 807,342 z M 783,359 C 786.29,357.81 786.4,356.83 788,355 C 787.2,349.8 783.35,347.65 778,347 C 776.56,350.23 776.09,354.42 775,358 C 777.69,360.12 779.89,360.12 783,359 z"
     id="path2586"
     style="fill:#ffffff" /><path
     d="M 788,355 C 786.4,356.83 786.29,357.81 783,359 C 779.89,360.12 777.69,360.12 775,358 C 776.09,354.42 776.56,350.23 778,347 C 783.35,347.65 787.2,349.8 788,355 z"
     id="path2588" /><path
     d="M 736,378 C 735.95,385.62 735.18,392.51 734,399 C 724.93,399.07 717.32,397.68 710,396 C 709.36,395.15 709.79,392.65 709,392 C 707.9,391.1 708.49,390.63 708,389 C 706.84,385.17 705.72,376.16 704,371 C 703.29,368.88 703.79,364.54 700,365 C 696.59,364.92 697.04,368.71 697,372 C 699.48,372.52 700.56,374.44 702,376 C 700.9,378.9 701.1,383.1 700,386 C 700.32,389.99 700.05,393.39 698,395 C 694.5,395.84 691.7,393.59 688,393 C 681.32,391.94 673.5,393.03 668,390 C 668.67,383.33 668.48,375.81 670,370 C 669.32,367.44 671.71,368.65 673,368 C 674.19,367.4 674.67,366.43 676,366 C 676.62,354.96 678.85,345.52 679,334 C 677.82,332.18 673.79,333.21 672,332 C 672.15,322.81 674.1,315.44 675,307 C 679.54,306.58 688.46,307.33 694,308 C 694.3,308.04 695.83,307.79 696,308 C 696.8,308.97 697.36,308.8 699,309 C 699.3,309.04 700.83,308.79 701,309 C 701.8,309.97 702.36,309.8 704,310 C 704.3,310.04 705.83,309.79 706,310 C 706.55,310.68 708.38,311.31 711,312 C 713.09,312.55 716.08,313.09 718,314 C 718.48,314.23 717.9,314.94 719,315 C 720.44,315.08 721.16,316.9 723,317 C 723.17,317.01 727.77,320.37 729,322 C 729.27,322.35 728.67,323.73 729,324 C 729.14,324.12 729.9,323.85 730,324 C 730.81,325.28 731.26,327.3 732,329 C 732.73,330.67 733.84,332.07 734,333 C 734.51,335.93 734.6,341.75 734,346 C 734,346.04 733.04,346.25 733,347 C 732.87,349.48 732.23,351.09 731,353 C 730.64,353.55 730.06,352.85 730,354 C 729.88,356.33 725.39,358.02 723,360 C 724.41,365.25 727.53,368.81 728,375 C 729.95,376.71 733.6,376.74 736,378 z M 701,346 C 707.93,348.98 714.29,344.7 713,339 C 712.23,335.59 707.71,334.41 703,334 C 701.86,337.53 701.9,342.23 701,346 z"
     id="path2590"
     style="fill:#ffffff" /><path
     d="M 713,339 C 714.29,344.7 707.93,348.98 701,346 C 701.9,342.23 701.86,337.53 703,334 C 707.71,334.41 712.23,335.59 713,339 z"
     id="path2592" /><path
     d="M 665,306 C 664.66,315.33 665.87,326.21 664,334 C 657,333.52 651.98,336.25 646,334 C 646,331.67 646,329.33 646,327 C 643.68,327.32 642.16,326.84 641,326 C 636.72,326.72 640.77,335.77 638,338 C 640.43,339.9 646.37,338.3 649,340 C 649.6,345.93 647.25,348.91 648,355 C 645.91,356.58 641.36,355.69 639,357 C 640.22,363 635.67,368.69 642,369 C 646.21,369.63 644.22,366.12 645,363 C 645.33,361.68 646.78,361.43 647,360 C 652.31,361.03 659.31,360.35 664,362 C 665.35,365.73 663.46,371.46 663,377 C 662.64,381.36 663.94,385.77 662,389 C 657.98,391.63 653.71,389.17 649,389 C 644.48,388.84 639.89,389.23 635,389 C 633.5,388.93 631.57,388.16 630,388 C 627.77,387.78 625.23,388.21 623,388 C 618.94,387.61 611.6,387.11 606,386 C 606.48,378.81 606.53,371.2 608,365 C 606.99,361.99 610.23,363.23 612,363 C 613.31,362.65 613.57,361.24 615,361 C 614.66,349.66 616.7,340.7 617,330 C 616.18,327.48 611.73,328.61 610,327 C 607.64,320.03 611.89,314.45 611,306 C 610.72,304.38 611.95,304.28 612,303 C 629.95,303.72 647.99,304.35 665,306 z"
     id="path2594"
     style="fill:#ffffff" /><path
     d="M 605,323 C 605.3,326.63 599.67,324.34 598,326 C 598.08,340.72 600.99,352.57 599,364 C 598.87,364.72 599.48,367.52 599,368 C 598.92,368.08 598.02,367.91 598,368 C 597.24,370.93 597.22,373.77 596,376 C 595.65,376.64 594.51,377.16 594,378 C 592.9,379.79 590.45,382.24 587,384 C 585.15,384.94 583.29,385.09 581,386 C 579.1,386.76 568.31,387.94 563,387 C 562.89,386.98 562.8,386.04 562,386 C 559.82,385.88 559.51,385.38 558,385 C 556.24,384.56 555.76,384.35 554,383 C 550.12,380.03 548.18,378.36 546,372 C 544.5,367.62 543.56,359.75 545,354 C 545.34,352.64 545.34,351.99 546,351 C 546.44,350.34 546.87,348.25 548,347 C 550.85,343.84 558.58,340.98 564,342 C 564.13,342.02 564.18,342.96 565,343 C 568.1,343.16 569.18,344.17 571,347 C 571.35,347.55 571.94,346.85 572,348 C 572.17,351.17 574.66,354.93 571,359 C 570.82,361.82 566.25,360.25 567,364 C 569.87,364.21 572.08,363.75 573,362 C 575.07,362.28 573.72,359.05 575,358 C 576.15,357.06 575,355 576,354 C 577.5,352.5 575.84,351.21 576,347 C 576.26,340 578.47,331.94 575,327 C 567.65,326.29 561.87,329.67 557,326 C 555.22,320.31 555.57,308.75 557,303 C 557.81,302.81 558,302 559,302 C 574,302 589,302 604,302 C 606.17,307.16 604.45,316.22 605,323 z"
     id="path2596"
     style="fill:#ffffff" /><path
     d="M 539,326 C 539.62,329.85 539.51,336.87 539,339 C 538.95,339.21 538.05,339.12 538,340 C 537.98,340.47 537.25,341.45 537,342 C 535.26,345.77 531.2,348.2 528,352 C 529.42,355.67 530.67,359.19 530,365 C 529.7,367.59 527.92,372.01 527,374 C 526.69,374.68 526.52,376.18 526,377 C 525.45,377.87 523.57,378.18 523,379 C 522.33,379.96 522.77,381.21 522,382 C 521.45,382.57 520.7,382.55 520,383 C 519.39,383.39 518.19,385.17 517,386 C 516.64,386.25 515.27,385.67 515,386 C 512.79,388.71 509.03,389.69 504,391 C 503.75,391.07 503.91,391.95 503,392 C 502.04,392.05 500.94,391.82 500,392 C 495.51,392.85 486.01,393.33 480,392 C 477.21,391.38 475.26,391.07 473,390 C 472.52,389.77 473.1,389.06 472,389 C 470.72,388.93 470.74,387.33 470,387 C 469.52,386.78 468.42,387.31 468,387 C 467.58,386.68 462.07,381.36 462,380 C 461.96,379.15 460.48,377.79 460,377 C 459.35,375.95 458.71,374.78 458,373 C 457.86,372.64 458.28,371.23 458,371 C 456.75,369.98 457.48,368.91 457,365 C 456.78,363.24 455.95,361.66 456,360 C 456.38,348.07 462.31,342.45 470,336 C 467.34,331.84 465.16,328.64 465,324 C 464.97,323.19 464.77,321.77 465,321 C 465.16,320.47 465.97,320 466,320 C 466.21,318.83 465.55,317.1 466,316 C 466.18,315.57 466.94,316.05 467,315 C 467.03,314.4 470.6,309.97 472,309 C 473.15,308.2 474.6,308.5 476,308 C 476.23,307.92 476.25,307.19 477,307 C 482.18,305.7 489.48,303.4 495,308 C 496.44,307.77 495.35,305.02 497,305 C 502.43,305.76 504.75,303.42 510,304 C 512.11,309.89 509.8,320.2 512,326 C 508.23,327.23 504.02,328.02 499,328 C 493.91,327.76 495.25,321.08 490,321 C 486.3,321.08 485.1,323.73 485,326 C 484.81,330.36 489.45,332.31 494,332 C 494.58,337.58 492.84,340.84 492,345 C 490.67,346.67 486.33,345.33 485,347 C 484.24,348 483.78,348.99 483,350 C 482.73,350.35 481.08,351.72 481,352 C 480.24,354.5 480.53,358.9 481,361 C 482.33,366.96 489.91,371.03 495,371 C 500.39,370.96 508.22,367.68 507,359 C 507.31,356.69 504.11,357.89 504,356 C 501.02,356.35 497.91,356.58 497,359 C 493.28,360.19 497.74,363.33 495,365 C 487.09,365.37 485.83,357.47 488,352 C 488.7,350.23 490.84,346.53 493,345 C 493.36,344.75 494.73,345.33 495,345 C 495.1,344.88 494.88,344.06 495,344 C 495.36,343.83 496.76,344.29 497,344 C 497.49,343.4 499.55,342.55 502,342 C 509.1,340.4 517.17,341.01 522,337 C 522.96,333.37 517.51,336.16 518,333 C 514.65,331.85 513.48,324.88 517,322 C 517.34,321.72 516.71,320.34 517,320 C 517.78,319.08 518.84,319.62 520,319 C 520.4,318.78 521.72,317.07 522,317 C 527.95,315.51 531.79,317.12 535,320 C 536.91,321.71 537.44,322.74 538,325 C 538.16,325.62 539,325.98 539,326 z"
     id="path2598"
     style="fill:#ffffff" /><path
     d="M 447,383 C 447.63,387.14 449.01,391.5 448,395 C 444.83,396.98 441.21,396.35 438,397 C 431.49,398.33 427.62,401.22 423,396 C 422.32,395.23 422.68,393.73 422,393 C 421.24,392.19 419.12,391.47 418,390 C 417.46,389.29 417.63,387.75 417,387 C 415.96,385.75 413.91,385.07 413,384 C 412.34,383.22 412.6,381.78 412,381 C 410.88,379.54 407.86,378.08 406,376 C 404.78,374.64 404.16,372.28 403,371 C 401.54,369.39 400.42,369.02 399,368 C 396.95,369.44 400.54,375.06 400,379 C 401.18,380.15 403.53,380.13 406,380 C 407.38,387.62 410.84,393.16 411,402 C 401.34,405.34 389.73,406.73 379,409 C 375.77,403.56 375.05,395.62 374,388 C 373.42,384.08 378.11,385.45 379,383 C 377.73,372.26 375.65,362.35 373,353 C 372.14,350.53 366.04,353.29 365,351 C 364.56,342.44 361.38,336.62 362,327 C 364.49,325.57 365.99,325.48 370,325 C 370.3,324.96 371.83,325.21 372,325 C 372.67,324.18 375.06,323.69 378,323 C 380.01,322.53 381.62,321.78 383,322 C 385.27,322.36 384.7,323.11 386,324 C 386.62,324.42 388.37,324.44 389,325 C 389.8,325.71 391,327.8 392,329 C 392.86,330.02 394.32,331.17 395,332 C 395.98,333.18 396.14,334.92 397,336 C 397.97,337.21 399.08,338 400,339 C 402.04,341.23 404.19,342.91 406,345 C 408.03,347.34 410.72,349.46 411,352 C 413.58,349.7 409.79,344.24 410,340 C 408.05,337.62 404.4,341.83 402,339 C 402.81,330.85 397.88,328.46 399,320 C 400.42,318.87 401.42,318.39 403,318 C 403.93,317.77 405.08,318.28 406,318 C 407.32,317.6 412.41,316.76 416,316 C 421.16,314.91 426.85,312.17 433,313 C 435.01,318.99 434.75,327.25 437,333 C 436.77,336.44 434.02,337.36 431,338 C 432.31,348.69 434.67,358.33 436,369 C 438.56,371.92 443.05,367.7 445,370 C 445.3,374.24 446.31,378.49 447,383 z"
     id="path2600"
     style="fill:#ffffff" /><path
     d="M 372,402 C 372.23,402.91 373.82,407.36 373,411 C 368.5,412.62 363.88,413.6 359,415 C 351.34,417.21 343.59,419.75 335,422 C 334.38,422.16 333.63,421.84 333,422 C 332.06,422.23 330.5,422.55 329,423 C 328.07,423.28 327.33,423.67 326,424 C 324.79,424.3 321.72,426.47 319,425 C 317.66,418.01 315.08,412.25 314,405 C 313.42,401.08 318.11,402.45 319,400 C 317.22,388.45 313.49,378.85 311,368 C 306.82,367.77 306.28,369.63 303,368 C 300.35,361.32 298.99,353.34 297,346 C 298.74,344.5 299.97,343.72 302,343 C 306.4,341.44 310.37,341.31 315,340 C 315.88,339.75 316.74,339.36 318,339 C 318.34,338.9 319.8,339.25 320,339 C 321.37,337.33 328.1,336.17 332,335 C 335.08,334.07 337.34,333.03 341,332 C 341.34,331.9 342.8,332.25 343,332 C 343.49,331.4 345.88,330.41 349,331 C 352.47,338.87 354.8,347.86 357,357 C 352.72,359.72 347.33,361.33 342,363 C 337.18,363.82 340.05,356.95 336,357 C 328.06,356.89 334.33,365.77 334,370 C 339.04,370.71 339.59,366.92 345,368 C 345.9,373.43 348.36,377.3 348,384 C 345.76,385.09 342.99,385.66 341,387 C 342.51,390.49 342.38,395.62 345,398 C 351.4,397.74 349.36,393.5 349,388 C 354.22,385.89 360.21,384.54 366,383 C 369.75,387.46 368.1,394.45 371,399 C 371.62,399.98 371.64,400.57 372,402 z"
     id="path2602"
     style="fill:#ffffff" /><path
     d="M 309,403 C 309.52,404.31 311.04,408.78 311,412 C 310.97,414.19 310.22,414.51 310,416 C 309.82,417.23 310.38,418.82 310,420 C 309.89,420.33 309.05,420.02 309,421 C 308.98,421.46 308.25,422.45 308,423 C 307.7,423.66 307.51,425.21 307,426 C 306.75,426.38 305.15,426.67 305,427 C 304.81,427.42 305.31,428.68 305,429 C 304.69,429.32 303.28,428.66 303,429 C 302.33,429.82 301.43,431.94 300,433 C 299.12,433.65 297.86,433.47 297,434 C 296.42,434.36 295.52,435.74 295,436 C 294.49,436.26 293.56,435.86 293,436 C 292.12,436.22 291.29,436.68 290,437 C 289.12,437.22 288.29,437.68 287,438 C 287,438 284.07,438.92 284,439 C 283.33,439.82 283.24,439.69 282,440 C 280.82,440.29 277.34,442.12 275,443 C 274.65,443.13 273.22,442.73 273,443 C 272.33,443.82 272.24,443.69 271,444 C 269.82,444.29 266.34,446.12 264,447 C 263.65,447.13 262.22,446.73 262,447 C 260.12,449.3 250.58,449.13 248,449 C 245.93,442.4 242.82,436.84 242,429 C 243.19,429.19 242.5,427.5 243,427 C 243.31,426.69 244.72,427.34 245,427 C 245.24,426.71 247.76,425.23 249,424 C 249.81,420.87 247.94,418.66 247,416 C 246.47,414.49 245.81,412.02 245,410 C 243.61,406.51 241.36,399.3 240,394 C 236.13,393.46 235.12,395.79 231,395 C 228.4,387.6 223.86,382.14 224,372 C 224.55,371 225.95,371.56 227,371 C 227.55,370.7 228.54,369.19 229,369 C 229.56,368.77 230.41,369.15 231,369 C 231.88,368.78 232.71,368.32 234,368 C 235.14,367.72 238.29,365.92 241,365 C 241.62,364.79 245.32,364.83 246,364 C 246.67,363.18 246.76,363.31 248,363 C 249.18,362.7 252.66,360.88 255,360 C 255.35,359.87 256.78,360.27 257,360 C 259.44,357.01 271.66,357.49 276,359 C 276.37,359.13 276,359.95 277,360 C 277.66,360.03 280.64,360.56 281,361 C 281.8,361.98 281.92,362.26 283,363 C 284.62,364.1 285.7,364.96 287,367 C 287.7,368.09 288.28,368.88 289,370 C 289.62,370.98 289.64,371.57 290,373 C 290.56,375.22 292,382.57 290,388 C 291.21,389.37 296.35,389.86 299,391 C 301.15,391.92 302.02,393.02 304,395 C 304.7,395.7 306.48,396.21 307,397 C 307.81,398.22 307.42,399.58 308,401 C 308.18,401.43 308.94,400.94 309,402 C 309.01,402.27 308.9,402.76 309,403 z M 272,420 C 278.54,420.04 283.23,415.38 282,411 C 280.49,405.62 274.48,406.88 269,409 C 269.55,413.11 271.87,415.47 272,420 z M 261,392 C 266.81,391.48 271.85,390.18 271,383 C 268.21,380.34 263.1,380.93 259,382 C 257.95,387.05 261.28,387.72 261,392 z"
     id="path2604"
     style="fill:#ffffff" /><path
     d="M 282,411 C 283.23,415.38 278.54,420.04 272,420 C 271.87,415.47 269.55,413.11 269,409 C 274.48,406.88 280.49,405.62 282,411 z"
     id="path2606" /><path
     d="M 271,383 C 271.85,390.18 266.81,391.48 261,392 C 261.28,387.72 257.95,387.05 259,382 C 263.1,380.93 268.21,380.34 271,383 z"
     id="path2608" /><g
     id="g2612">
	<path
   d="M 947.488,489.068 L 945.295,487.959 L 945.695,487.167 L 951.036,489.867 L 950.636,490.659 L 948.431,489.544 L 945.184,495.967 L 944.243,495.49 L 947.488,489.068 z"
   id="path2614"
   style="stroke:#000000;stroke-width:0.75" />
	<path
   d="M 955.875,497.395 C 956.331,496.362 956.878,495.12 957.343,494.226 L 957.311,494.209 C 956.638,494.93 955.877,495.688 955.017,496.489 L 951.973,499.345 L 951.268,498.988 L 951.837,494.963 C 952.009,493.773 952.191,492.695 952.42,491.736 L 952.399,491.725 C 951.922,492.614 951.257,493.795 950.647,494.845 L 948.891,497.84 L 948.002,497.391 L 952.152,490.431 L 953.34,491.032 L 952.807,495.142 C 952.658,496.183 952.503,497.099 952.306,497.941 L 952.337,497.958 C 952.888,497.322 953.545,496.66 954.326,495.912 L 957.374,493.071 L 958.562,493.673 L 955.365,501.114 L 954.455,500.654 L 955.875,497.395 z"
   id="path2616"
   style="stroke:#000000;stroke-width:0.75" />
</g><g
     id="g2618">
	<path
   d="M 921.737,454.813 C 925.296,456.292 926.91,460.206 925.477,463.65 C 924.012,467.171 920.115,468.748 916.519,467.253 C 912.96,465.773 911.254,461.865 912.719,458.345 C 914.152,454.901 918.14,453.318 921.699,454.798 L 921.737,454.813 z M 921.143,456.031 C 918.417,454.897 915.444,456.28 914.31,459.006 C 913.161,461.77 914.291,464.816 917.093,465.981 C 919.803,467.153 922.739,465.753 923.888,462.99 C 925.022,460.264 923.945,457.197 921.181,456.048 L 921.143,456.031 z M 916.795,463.814 L 915.357,463.215 L 917.923,457.044 C 918.537,457.166 919.38,457.384 920.402,457.809 C 921.576,458.297 922.027,458.707 922.355,459.199 C 922.585,459.606 922.646,460.209 922.41,460.777 C 922.111,461.496 921.36,461.805 920.509,461.717 L 920.478,461.792 C 921.004,462.233 921.141,462.868 920.984,463.778 C 920.78,464.804 920.736,465.23 920.807,465.482 L 919.256,464.836 C 919.16,464.53 919.268,463.952 919.377,463.154 C 919.547,462.425 919.295,461.966 918.5,461.634 L 917.818,461.351 L 916.795,463.814 z M 918.281,460.347 L 918.963,460.631 C 919.758,460.961 920.512,460.964 920.779,460.32 C 921.014,459.753 920.756,459.2 919.847,458.823 C 919.469,458.665 919.188,458.593 919.021,458.568 L 918.281,460.347 z"
   id="path2620"
   style="fill:#ffffff" />
</g></g>
</svg>